<svg width="42" height="33" viewBox="0 0 42 33" fill="none" xmlns="http://www.w3.org/2000/svg">
<path d="M25.546 0C23.9691 0 22.4452 0.228379 21 0.646355C19.5548 0.228379 18.0309 0 16.454 0C7.38051 0 0 7.40148 0 16.5007C0 25.6 7.38051 33.0014 16.454 33.0014C18.0309 33.0014 19.5548 32.7731 21 32.3551C22.4452 32.7731 23.9691 33.0014 25.546 33.0014C34.6181 33.0014 42 25.6 42 16.5007C42 7.40148 34.6181 0 25.546 0ZM25.5246 2.74342C31.6375 2.7348 36.8324 6.75656 38.6084 12.3023C39.1584 14.0216 37.7576 15.7351 35.9716 15.5053C34.2185 15.2798 32.8091 13.9929 32.3565 12.2793C31.3124 8.32505 28.8388 4.94964 25.5246 2.74485V2.74342ZM3.39162 12.3023C5.16621 6.75656 10.3611 2.73336 16.474 2.74342C13.1597 4.9482 10.6862 8.32505 9.64207 12.2779C9.18947 13.9914 7.78011 15.2784 6.02701 15.5039C4.24096 15.7337 2.8402 14.0202 3.39019 12.3008L3.39162 12.3023ZM16.474 30.2566C10.3596 30.2652 5.16621 26.2434 3.39019 20.6977C2.8402 18.9784 4.24096 17.2649 6.02701 17.4947C7.78011 17.7202 9.18947 19.0071 9.64207 20.7207C10.6862 24.6749 13.1597 28.0504 16.474 30.2551V30.2566ZM22.8806 21.0611L21.3609 25.1791C21.2363 25.5152 20.7622 25.5152 20.6376 25.1791L19.118 21.0611C18.6611 19.8215 17.6872 18.8448 16.4511 18.3866L12.3448 16.8627C12.0096 16.7377 12.0096 16.2623 12.3448 16.1388L16.4511 14.6148C17.6872 14.1566 18.6611 13.1799 19.118 11.9403L20.6376 7.82233C20.7622 7.48622 21.2363 7.48622 21.3609 7.82233L22.8806 11.9403C23.3375 13.1799 24.3114 14.1566 25.5475 14.6148L29.6538 16.1388C29.989 16.2637 29.989 16.7392 29.6538 16.8627L25.5475 18.3866C24.3114 18.8448 23.3375 19.8215 22.8806 21.0611ZM25.5246 30.2566C28.8388 28.0518 31.3124 24.675 32.3565 20.7221C32.8091 19.0086 34.2185 17.7216 35.9716 17.4961C37.7576 17.2663 39.1584 18.9798 38.6084 20.6992C36.8324 26.2449 31.6389 30.2666 25.5246 30.258V30.2566Z" fill="black"/>
</svg>
