<svg width="48" height="49" viewBox="0 0 48 49" fill="none" xmlns="http://www.w3.org/2000/svg">
<g clip-path="url(#clip0_2048_214)">
<mask id="mask0_2048_214" style="mask-type:luminance" maskUnits="userSpaceOnUse" x="-200" y="-136" width="566" height="400">
<path d="M365.183 -135.329H-199.173V263.772H365.183V-135.329Z" fill="white"/>
<path fill-rule="evenodd" clip-rule="evenodd" d="M30.5971 -0.529755C31.3301 -0.529755 31.0646 -0.0029037 32.0746 -0.14607C31.7427 0.191802 30.5769 0.100176 30.9665 0.816006C29.8987 0.816006 30.0978 -0.269192 30.5971 -0.529755Z" fill="#050505"/>
<path fill-rule="evenodd" clip-rule="evenodd" d="M36.8599 -0.529732C38.1469 -0.698668 37.489 0.100198 37.2264 0.240501C36.7271 0.177508 36.9234 -0.240537 36.8599 -0.529732Z" fill="#050505"/>
<path fill-rule="evenodd" clip-rule="evenodd" d="M15.4942 -0.335022C14.3737 0.309645 16.8572 0.246611 15.4942 -0.335022V-0.335022Z" fill="#050505"/>
<path fill-rule="evenodd" clip-rule="evenodd" d="M19.5454 0.240516C19.3059 0.432358 18.6998 0.438085 18.8095 0.816043C17.6003 0.707237 18.2468 0.07158 19.5454 0.240516Z" fill="#050505"/>
<path fill-rule="evenodd" clip-rule="evenodd" d="M34.6526 1.39156C34.2775 1.26557 34.2688 0.95061 33.5474 1.00501C33.7292 0.240506 35.579 1.05083 34.6526 1.39156Z" fill="#050505"/>
<path fill-rule="evenodd" clip-rule="evenodd" d="M10.3373 1.39156C10.7384 1.44023 10.5855 1.77238 11.0761 1.7781C10.9173 2.30782 9.91595 1.78383 10.3373 1.39156Z" fill="#050505"/>
<path fill-rule="evenodd" clip-rule="evenodd" d="M29.4929 1.39156H30.2293V1.77836H29.4929V1.39156Z" fill="#050505"/>
<path fill-rule="evenodd" clip-rule="evenodd" d="M31.3336 2.73445C31.1893 2.35935 33.0103 2.45384 32.4389 2.92629H31.7001C31.7665 2.76308 31.5587 2.7459 31.3307 2.73445H31.3336Z" fill="#050505"/>
<path fill-rule="evenodd" clip-rule="evenodd" d="M40.177 3.30996C40.2318 3.25842 40.9677 2.95491 41.2794 3.11812C41.5333 3.24983 39.8278 3.64784 40.177 3.30996Z" fill="#050505"/>
<path fill-rule="evenodd" clip-rule="evenodd" d="M34.2832 3.69368C34.4419 3.26704 36.0984 3.61637 36.8602 3.50183C36.7015 3.93419 35.0451 3.58201 34.2832 3.69368Z" fill="#050505"/>
<path fill-rule="evenodd" clip-rule="evenodd" d="M39.0679 5.23126C40.1472 5.44315 38.6003 5.85547 37.9655 5.80679C37.85 5.36298 39.0303 5.59777 39.0679 5.23126Z" fill="#050505"/>
<path fill-rule="evenodd" clip-rule="evenodd" d="M13.2827 5.80682C10.5267 5.57775 12.0966 6.3938 13.2827 5.80682V5.80682Z" fill="#050505"/>
<path fill-rule="evenodd" clip-rule="evenodd" d="M37.5962 6.76602C37.6539 6.54268 38.2686 6.60281 38.7015 6.57704C38.4158 6.74598 38.3061 7.0094 38.335 7.34441C38.0377 7.24133 37.7347 7.14398 37.2268 7.15543C37.4375 6.97218 38.2513 6.86337 37.5962 6.76602Z" fill="#050505"/>
<path fill-rule="evenodd" clip-rule="evenodd" d="M20.6528 6.9607C20.5893 6.54266 21.9572 6.87194 22.4939 6.766C22.5574 7.18404 21.1867 6.85762 20.6528 6.9607Z" fill="#050505"/>
<path fill-rule="evenodd" clip-rule="evenodd" d="M41.6502 6.766C39.2925 6.54839 40.8393 7.35298 41.6502 6.766V6.766Z" fill="#050505"/>
<path fill-rule="evenodd" clip-rule="evenodd" d="M3.70386 7.15541H4.80913V7.53623H3.70386V7.15541Z" fill="#050505"/>
<path fill-rule="evenodd" clip-rule="evenodd" d="M46.8075 7.53624C46.568 7.73095 45.9591 7.73381 46.0716 8.11177C44.8654 8.00582 45.5089 7.37017 46.8075 7.53624Z" fill="#050505"/>
<path fill-rule="evenodd" clip-rule="evenodd" d="M10.7063 9.07097C10.5447 9.30862 10.233 9.46897 9.601 9.45752C9.42785 9.04806 10.1291 9.08815 10.7063 9.07097Z" fill="#050505"/>
<path fill-rule="evenodd" clip-rule="evenodd" d="M39.8065 9.45753C39.7199 9.79254 39.1745 9.89562 38.3347 9.83836C38.1616 9.24565 39.2582 9.15116 39.8065 9.45753Z" fill="#050505"/>
<path fill-rule="evenodd" clip-rule="evenodd" d="M33.175 9.6465H33.9114V10.0333H33.175V9.6465Z" fill="#050505"/>
<path fill-rule="evenodd" clip-rule="evenodd" d="M45.3355 10.0302C46.5042 10.5484 46.0511 11.605 43.8579 11.3731C44.2013 10.8462 44.992 10.5542 45.3355 10.0302Z" fill="#050505"/>
<path fill-rule="evenodd" clip-rule="evenodd" d="M35.7547 10.222C36.2539 10.2821 36.0606 10.7059 36.124 10.9922H35.0188C34.7533 10.4654 35.7518 10.6057 35.7575 10.222H35.7547Z" fill="#050505"/>
<path fill-rule="evenodd" clip-rule="evenodd" d="M31.3339 12.3352C31.9284 12.2808 31.9688 12.5184 32.4392 12.527C32.5835 12.8992 30.7596 12.8076 31.3339 12.3352Z" fill="#050505"/>
<path fill-rule="evenodd" clip-rule="evenodd" d="M22.4912 13.2944H23.2305V13.6783H22.4912V13.2944Z" fill="#050505"/>
<path fill-rule="evenodd" clip-rule="evenodd" d="M5.54502 13.6809C5.21026 14.0131 4.25505 14.1791 3.70386 13.8728C4.03861 13.5406 4.99671 13.3746 5.54502 13.6809Z" fill="#050505"/>
<path fill-rule="evenodd" clip-rule="evenodd" d="M45.335 13.87C46.2244 14.8585 46.285 13.2081 45.335 13.87V13.87Z" fill="#050505"/>
<path fill-rule="evenodd" clip-rule="evenodd" d="M39.0674 14.0617H39.8066V14.4457H39.0674V14.0617Z" fill="#050505"/>
<path fill-rule="evenodd" clip-rule="evenodd" d="M29.8625 14.2564H30.5989V14.6404H29.8625V14.2564Z" fill="#050505"/>
<path fill-rule="evenodd" clip-rule="evenodd" d="M15.4924 14.4454H16.2317V14.8294H15.4924V14.4454Z" fill="#050505"/>
<path fill-rule="evenodd" clip-rule="evenodd" d="M2.23196 15.0238C2.47149 14.4827 2.65907 15.4619 2.59846 15.5965C2.4282 15.9831 1.90875 15.754 2.23196 15.0238Z" fill="#050505"/>
<path fill-rule="evenodd" clip-rule="evenodd" d="M7.02075 14.832H7.76001V15.2159H7.02075V14.832Z" fill="#050505"/>
<path fill-rule="evenodd" clip-rule="evenodd" d="M5.91577 15.5965H7.75693C7.06145 15.8112 6.46697 16.0775 5.54639 16.1749C5.73974 16.0203 5.9302 15.8656 5.91289 15.5965H5.91577Z" fill="#050505"/>
<path fill-rule="evenodd" clip-rule="evenodd" d="M24.3354 16.1749H25.4407V16.5586H24.3354V16.1749Z" fill="#050505"/>
<path fill-rule="evenodd" clip-rule="evenodd" d="M12.9167 16.3667H13.6531V16.7478H12.9167V16.3667Z" fill="#050505"/>
<path fill-rule="evenodd" clip-rule="evenodd" d="M2.59938 16.7504C3.19675 16.696 3.23426 16.9308 3.70465 16.9451C3.84895 17.3173 2.02799 17.2229 2.59938 16.7504Z" fill="#050505"/>
<path fill-rule="evenodd" clip-rule="evenodd" d="M33.175 16.7504C33.7724 16.696 33.8099 16.9308 34.2803 16.9451C34.188 17.1541 33.5473 17.074 33.5444 17.3288C33.1116 17.2973 33.2328 16.9795 33.175 16.7504Z" fill="#050505"/>
<path fill-rule="evenodd" clip-rule="evenodd" d="M2.9688 18.0962C3.39302 18.0618 3.62388 18.1391 3.70469 18.288L3.51999 18.5772L3.70469 18.8635C2.08862 18.7805 2.49553 19.4505 1.12476 19.0554V18.0962C2.13191 18.0761 1.86641 18.414 2.59653 18.0962L2.78411 18.3825L2.9688 18.0962Z" fill="#050505"/>
<path fill-rule="evenodd" clip-rule="evenodd" d="M7.02028 17.5206C7.82543 17.4806 8.19481 17.6781 8.12555 18.0962C7.32329 18.1305 6.9539 17.9358 7.02028 17.5206Z" fill="#050505"/>
<path fill-rule="evenodd" clip-rule="evenodd" d="M16.9652 17.7096C17.929 17.6581 18.5495 17.7783 18.4398 18.288C17.476 18.3424 16.8555 18.2164 16.9652 17.7096Z" fill="#050505"/>
<path fill-rule="evenodd" clip-rule="evenodd" d="M39.44 18.0962C40.0316 18.0418 40.072 18.2766 40.5424 18.288C40.6896 18.6602 38.8629 18.5657 39.44 18.0962Z" fill="#050505"/>
<path fill-rule="evenodd" clip-rule="evenodd" d="M7.3897 18.4799C7.27427 18.7376 6.46912 18.6345 5.91504 18.6717C6.01604 18.225 6.89911 18.225 7.3897 18.4799Z" fill="#050505"/>
<path fill-rule="evenodd" clip-rule="evenodd" d="M28.3875 18.8635C28.4972 19.3675 27.8767 19.4934 26.9129 19.439C26.8003 18.9322 27.6805 18.9437 28.3875 18.8635Z" fill="#050505"/>
<path fill-rule="evenodd" clip-rule="evenodd" d="M34.6531 19.439C34.8031 18.9609 36.0816 19.4276 35.7583 19.8227C35.2735 19.754 35.1783 19.4877 34.6531 19.439Z" fill="#050505"/>
<path fill-rule="evenodd" clip-rule="evenodd" d="M7.75586 20.3954C8.91019 20.3095 9.3979 20.5643 9.23052 21.1656H7.75586V20.3954Z" fill="#050505"/>
<path fill-rule="evenodd" clip-rule="evenodd" d="M41.6501 21.1656H42.3836V21.5467H41.6501V21.1656Z" fill="#050505"/>
<path fill-rule="evenodd" clip-rule="evenodd" d="M34.2825 25.5809C32.4154 25.0569 32.9118 26.2509 34.2825 25.5809V25.5809Z" fill="#050505"/>
<path fill-rule="evenodd" clip-rule="evenodd" d="M46.0688 26.1564C45.6819 27.2738 47.6657 26.2366 46.0688 26.1564V26.1564Z" fill="#050505"/>
<path fill-rule="evenodd" clip-rule="evenodd" d="M40.9143 26.7319C39.6705 26.1478 39.7946 27.442 40.9143 26.7319V26.7319Z" fill="#050505"/>
<path fill-rule="evenodd" clip-rule="evenodd" d="M11.4441 27.505H12.1805V27.8861H11.4441V27.505Z" fill="#050505"/>
<path fill-rule="evenodd" clip-rule="evenodd" d="M42.3826 27.694H43.1218V28.0779H42.3826V27.694Z" fill="#050505"/>
<path fill-rule="evenodd" clip-rule="evenodd" d="M44.9669 28.2695C43.2037 27.7341 44.0752 28.8995 44.9669 28.2695V28.2695Z" fill="#050505"/>
<path fill-rule="evenodd" clip-rule="evenodd" d="M26.176 28.6532C27.2928 27.9431 27.4169 29.2345 26.176 28.6532V28.6532Z" fill="#050505"/>
<path fill-rule="evenodd" clip-rule="evenodd" d="M19.5452 28.8451C20.1718 28.7763 20.2411 28.9969 20.2844 29.229C19.9668 29.1946 19.935 29.3064 19.9148 29.4238C19.4845 29.3923 19.6029 29.0714 19.5452 28.8451Z" fill="#050505"/>
<path fill-rule="evenodd" clip-rule="evenodd" d="M0.019043 30.5745H1.12432V30.9582H0.019043V30.5745Z" fill="#050505"/>
<path fill-rule="evenodd" clip-rule="evenodd" d="M25.0702 30.5745C25.2434 31.1758 24.7499 31.4306 23.5956 31.3447C23.3416 30.7005 24.2131 30.6432 25.0702 30.5745Z" fill="#050505"/>
<path fill-rule="evenodd" clip-rule="evenodd" d="M4.44065 32.3011C4.89661 32.3841 5.19963 32.5473 5.17943 32.8795C3.89812 33.0456 3.91543 32.5846 4.44065 32.3011Z" fill="#050505"/>
<path fill-rule="evenodd" clip-rule="evenodd" d="M24.336 32.8795C21.9754 32.659 23.5279 33.4636 24.336 32.8795V32.8795Z" fill="#050505"/>
<path fill-rule="evenodd" clip-rule="evenodd" d="M19.9137 33.2603C19.8271 33.5982 19.2788 33.6956 18.4419 33.644C18.2688 33.0456 19.3654 32.9597 19.9137 33.2603Z" fill="#050505"/>
<path fill-rule="evenodd" clip-rule="evenodd" d="M7.3902 33.2603H8.49547V33.8387C7.69033 33.8731 7.32382 33.6784 7.3902 33.2603Z" fill="#050505"/>
<path fill-rule="evenodd" clip-rule="evenodd" d="M2.6001 33.8387C2.64916 33.4121 4.1671 33.7557 4.81353 33.6469C4.76736 34.0678 3.2523 33.7299 2.6001 33.8387Z" fill="#050505"/>
<path fill-rule="evenodd" clip-rule="evenodd" d="M25.4413 33.8387C25.9666 34.0964 26.4168 34.692 25.8078 34.9897C24.7805 34.7979 25.3375 34.2138 25.4413 33.8387Z" fill="#050505"/>
<path fill-rule="evenodd" clip-rule="evenodd" d="M1.86254 34.2224C1.80194 33.8072 3.17271 34.1336 3.7037 34.0305C3.7643 34.4486 2.39642 34.1164 1.86254 34.2224Z" fill="#050505"/>
<path fill-rule="evenodd" clip-rule="evenodd" d="M35.7546 34.7979C36.049 34.901 36.352 34.9983 36.8599 34.9898C37.0994 35.7543 36.6579 36.1637 35.3853 36.1437C36.0634 35.8717 34.8081 35.2074 35.7546 34.7979Z" fill="#050505"/>
<path fill-rule="evenodd" clip-rule="evenodd" d="M25.8082 35.1816C27.2915 35.3219 25.8284 36.0836 25.0723 35.5653C25.1646 35.3591 25.8053 35.4336 25.8082 35.1816Z" fill="#050505"/>
<path fill-rule="evenodd" clip-rule="evenodd" d="M18.0735 35.9489C18.8584 35.8602 18.7776 36.2238 18.8093 36.5245C20.2147 36.0835 18.7459 37.0313 19.5452 37.4865C18.8584 37.6698 18.313 36.911 18.0735 37.4865C17.3058 37.0112 18.8757 36.7048 18.0735 35.9489Z" fill="#050505"/>
<path fill-rule="evenodd" clip-rule="evenodd" d="M20.2839 35.949C20.8755 35.8946 20.9187 36.1322 21.3863 36.1437C21.5334 36.5159 19.7096 36.4243 20.2839 35.949Z" fill="#050505"/>
<path fill-rule="evenodd" clip-rule="evenodd" d="M0.388916 40.1724H1.12528V40.5563H0.388916V40.1724Z" fill="#050505"/>
<path fill-rule="evenodd" clip-rule="evenodd" d="M5.54639 40.1724H6.28564V40.5563H5.54639V40.1724Z" fill="#050505"/>
<path fill-rule="evenodd" clip-rule="evenodd" d="M8.12646 40.5589C8.17264 40.1351 9.69058 40.4759 10.337 40.3671C10.2908 40.7908 8.77578 40.4472 8.12646 40.5589Z" fill="#050505"/>
<path fill-rule="evenodd" clip-rule="evenodd" d="M12.1765 40.7479C13.2904 40.0378 13.4174 41.332 12.1765 40.7479V40.7479Z" fill="#050505"/>
<path fill-rule="evenodd" clip-rule="evenodd" d="M10.3367 40.7479H11.4419V41.1344H10.3367V40.7479Z" fill="#050505"/>
<path fill-rule="evenodd" clip-rule="evenodd" d="M18.4421 41.3234H19.1785V41.7074H18.4421V41.3234Z" fill="#050505"/>
<path fill-rule="evenodd" clip-rule="evenodd" d="M10.7056 43.8202C11.8224 43.113 11.9465 44.4043 10.7056 43.8202V43.8202Z" fill="#050505"/>
<path fill-rule="evenodd" clip-rule="evenodd" d="M21.0198 43.6284C21.672 43.5683 21.6778 44.705 20.6533 44.3958C20.9361 44.224 21.0487 43.9606 21.0198 43.6284Z" fill="#050505"/>
<path fill-rule="evenodd" clip-rule="evenodd" d="M5.54581 44.2068C4.30491 43.6227 4.43188 44.914 5.54581 44.2068V44.2068Z" fill="#050505"/>
<path fill-rule="evenodd" clip-rule="evenodd" d="M6.28466 44.2068C6.62807 44.4101 7.64388 44.2641 7.38705 44.7795C6.43184 44.894 6.05956 44.7021 6.28466 44.2068Z" fill="#050505"/>
<path fill-rule="evenodd" clip-rule="evenodd" d="M12.9167 44.3958C13.6815 44.5017 13.693 44.6936 13.2832 44.9742H12.5474C12.4435 44.6621 12.8994 44.642 12.9167 44.3958Z" fill="#050505"/>
<path fill-rule="evenodd" clip-rule="evenodd" d="M32.8054 44.7794C32.9555 44.3557 34.9669 44.5246 34.2801 45.1631C33.5471 45.1631 33.8126 44.642 32.8054 44.7794Z" fill="#050505"/>
<path fill-rule="evenodd" clip-rule="evenodd" d="M0.389344 44.9741C0.325856 44.5561 1.69374 44.8854 2.2305 44.7794C2.29111 45.1975 0.923223 44.8682 0.389344 44.9741Z" fill="#050505"/>
<path fill-rule="evenodd" clip-rule="evenodd" d="M3.33606 44.9741C3.93054 44.9197 3.97094 45.1545 4.44133 45.166C4.58851 45.5382 2.76466 45.4495 3.33606 44.9741Z" fill="#050505"/>
<path fill-rule="evenodd" clip-rule="evenodd" d="M7.39038 45.3578C10.2964 45.8446 10.3628 44.6477 7.39038 45.3578V45.3578Z" fill="#050505"/>
<path fill-rule="evenodd" clip-rule="evenodd" d="M18.0732 45.5497C18.8581 45.4609 18.7773 45.8245 18.8091 46.1252H17.7009C17.8972 45.9706 18.0847 45.816 18.0703 45.5497H18.0732Z" fill="#050505"/>
<path fill-rule="evenodd" clip-rule="evenodd" d="M13.652 45.9305C13.5077 45.5583 15.3286 45.6528 14.7572 46.1223H14.0185C14.0877 45.9591 13.88 45.9419 13.652 45.9305Z" fill="#050505"/>
<path fill-rule="evenodd" clip-rule="evenodd" d="M18.4438 46.5089C16.0803 46.2884 17.6328 47.0959 18.4438 46.5089V46.5089Z" fill="#050505"/>
<path fill-rule="evenodd" clip-rule="evenodd" d="M21.3862 46.5089C20.3328 47.617 23.1523 47.1045 21.3862 46.5089V46.5089Z" fill="#050505"/>
<path fill-rule="evenodd" clip-rule="evenodd" d="M43.4905 46.6979H44.2264C44.3995 47.1102 43.6983 47.0672 43.1211 47.0816C43.1932 46.9241 43.4905 46.8926 43.4905 46.6979Z" fill="#050505"/>
<path fill-rule="evenodd" clip-rule="evenodd" d="M44.2276 47.2762C44.8163 47.5454 45.1713 47.9348 45.3329 48.4273C44.5595 48.2526 44.2074 47.8604 44.2276 47.2762Z" fill="#050505"/>
<path fill-rule="evenodd" clip-rule="evenodd" d="M18.8093 47.4681H19.9146C19.9637 47.8117 19.4644 47.8718 19.5452 48.2383C19.0517 48.1095 18.8584 47.826 18.8093 47.4681Z" fill="#050505"/>
<path fill-rule="evenodd" clip-rule="evenodd" d="M8.8623 48.0436H9.60156V48.4276H8.8623V48.0436Z" fill="#050505"/>
<path fill-rule="evenodd" clip-rule="evenodd" d="M19.5452 48.4302H20.2844V48.8141H19.5452V48.4302Z" fill="#050505"/>
<path fill-rule="evenodd" clip-rule="evenodd" d="M0.389344 48.811C0.325856 48.3958 1.69374 48.7251 2.2305 48.6192C2.29111 49.0343 0.923223 48.7051 0.389344 48.811Z" fill="#050505"/>
<path fill-rule="evenodd" clip-rule="evenodd" d="M16.5992 48.622C16.3539 48.8769 15.8113 48.9771 15.1245 49.0057C15.2111 48.665 15.7565 48.5676 16.5992 48.622Z" fill="#050505"/>
<path fill-rule="evenodd" clip-rule="evenodd" d="M4.44081 48.811C4.10894 49.2118 3.35574 49.3951 2.23315 49.3865C2.56502 48.9856 3.32111 48.7995 4.44081 48.811Z" fill="#050505"/>
<path fill-rule="evenodd" clip-rule="evenodd" d="M47.5435 -0.146043C47.9071 -0.733024 48.5304 0.0715688 49.0181 0.045799C48.9142 0.498204 48.034 -0.174677 47.5435 -0.146043Z" fill="#050505"/>
<path fill-rule="evenodd" clip-rule="evenodd" d="M35.3854 2.54262C34.8515 2.8404 33.9482 2.94348 32.8054 2.9263C33.4143 2.26774 34.0377 2.81177 35.3854 2.54262Z" fill="#050505"/>
<path fill-rule="evenodd" clip-rule="evenodd" d="M-1.82097 7.15541C-2.59148 6.6801 -0.505029 7.29285 0.389579 7.15541C0.0173066 7.69371 -1.17454 7.09814 -1.82097 7.15541Z" fill="#050505"/>
<path fill-rule="evenodd" clip-rule="evenodd" d="M36.8595 10.9923C37.529 10.6229 36.6979 11.4218 37.226 11.7596C36.4237 11.7969 36.0572 11.6022 36.1236 11.1841C36.5507 11.2156 36.7787 11.144 36.8595 10.9923Z" fill="#050505"/>
<path fill-rule="evenodd" clip-rule="evenodd" d="M46.4364 12.7189C46.0641 12.842 46.0554 13.1627 45.334 13.1025C44.9934 12.4927 48.3266 12.4526 46.4364 12.7189Z" fill="#050505"/>
<path fill-rule="evenodd" clip-rule="evenodd" d="M12.5437 16.9422C12.4571 17.744 11.1758 16.7246 10.7025 17.3259C9.65787 17.0711 11.6491 16.8191 12.5437 16.9422Z" fill="#050505"/>
<path fill-rule="evenodd" clip-rule="evenodd" d="M42.3843 18.4798C42.7162 19.0983 41.1867 18.7461 40.9154 19.0554C40.2113 18.9809 41.7379 18.4827 42.3843 18.4798Z" fill="#050505"/>
<path fill-rule="evenodd" clip-rule="evenodd" d="M43.858 21.933C43.8494 22.1191 43.4078 22.0848 43.1221 22.1249C43.7051 23.2358 41.9245 21.2372 43.858 21.933Z" fill="#050505"/>
<path fill-rule="evenodd" clip-rule="evenodd" d="M25.4412 23.8543C26.4051 24.0662 23.5337 24.8851 23.9694 23.8543C24.8063 23.5909 25.3517 24.3468 25.4412 23.8543Z" fill="#050505"/>
<path fill-rule="evenodd" clip-rule="evenodd" d="M7.3897 29.8043C7.71868 29.8902 8.04766 29.9732 8.12558 30.188C7.92935 30.4829 7.74465 30.1994 7.75908 29.9933C7.38392 30.1193 7.37815 30.4371 6.65381 30.3798C6.78079 30.1221 7.30312 30.0734 7.3897 29.8014V29.8043Z" fill="#050505"/>
<path fill-rule="evenodd" clip-rule="evenodd" d="M15.1264 42.4773C16.122 42.652 14.2838 42.9068 14.3877 43.2476C13.0919 42.9183 15.314 42.8581 15.1264 42.4773Z" fill="#050505"/>
<path fill-rule="evenodd" clip-rule="evenodd" d="M18.4426 47.8518C18.7687 48.4703 17.2392 48.1209 16.9679 48.4273C16.2638 48.35 17.7904 47.8518 18.4426 47.8518Z" fill="#050505"/>
</mask>
<g mask="url(#mask0_2048_214)">
<path d="M47.7854 27.9603C47.4852 27.8257 47.1793 27.757 46.8821 27.6053C46.6772 27.4993 46.4608 27.4363 46.2443 27.3676C45.9933 27.2674 45.7509 27.15 45.5084 27.0269C45.3237 26.9181 45.1419 26.8035 44.9457 26.7176C44.7783 26.6432 44.6138 26.5745 44.4522 26.5029C44.4061 26.4828 44.3628 26.4599 44.3166 26.4428C44.1694 26.374 44.0222 26.3024 43.878 26.2194C43.2171 25.83 42.5216 25.5093 41.8752 25.0913C41.7973 25.0397 41.7165 24.9882 41.6357 24.9366C41.7944 24.9223 41.9531 24.908 42.1089 24.8966C42.4206 24.8708 42.7265 24.7992 43.0382 24.7992C43.3498 24.7992 43.6298 24.7878 43.9357 24.7333C44.5388 24.6274 45.1564 24.7162 45.7537 24.553C45.898 24.5129 46.0279 24.3783 46.0654 24.2265C46.3771 24.0547 46.4348 23.5222 45.999 23.4449C45.445 23.3475 44.9053 23.0841 44.3772 22.8951C43.7971 22.6832 43.1882 22.5343 42.5995 22.3511C42.4639 22.3081 42.3283 22.268 42.1897 22.2251C42.536 22.1077 42.8766 21.9731 43.2286 21.87C43.8924 21.6753 44.5504 21.5379 45.191 21.263C45.2949 21.2172 45.4074 21.1771 45.5171 21.1342C45.8259 21.0626 46.1318 20.9853 46.4348 20.9022C46.6137 20.8507 46.7118 20.7218 46.7349 20.5758C46.8128 20.5386 46.8908 20.4956 46.9629 20.4384C47.0985 20.3296 47.1332 20.0575 47.0293 19.9172C46.8677 19.6996 46.6714 19.6195 46.4175 19.5421C46.1693 19.4648 46.025 19.2845 45.8028 19.1556C45.494 18.9781 45.1391 18.9781 44.7985 18.9094C44.4349 18.8378 44.0973 18.6717 43.7337 18.603C43.3931 18.5371 43.0468 18.54 42.7121 18.4541C42.3138 18.351 41.9242 18.2307 41.5231 18.1391C41.0614 18.0332 40.6054 17.89 40.1495 17.7554C40.2822 17.6552 40.415 17.5493 40.5419 17.4433C40.9286 17.1255 41.3673 16.8735 41.7626 16.5672C42.2013 16.2293 42.6313 15.8828 43.0728 15.5535C43.4566 15.2672 43.8606 15.0066 44.2012 14.6688C44.2156 14.6688 44.23 14.663 44.2445 14.663C44.8014 14.6545 44.8014 13.7955 44.2445 13.8041C43.8895 13.8098 43.5403 13.8642 43.1853 13.8928C42.8304 13.9214 42.4812 13.9157 42.1291 13.9587C41.4423 14.0446 40.7641 14.0245 40.0715 14.0217C39.3674 14.0159 38.6719 14.0761 37.9707 14.1133C37.9014 14.1162 37.8321 14.119 37.7629 14.119C37.887 13.9415 38.0053 13.7611 38.1409 13.5922C38.4612 13.197 38.7816 12.8076 39.0846 12.401C39.3645 12.0288 39.6791 11.6795 40.0138 11.3559C40.1697 11.2042 40.3515 11.0782 40.5102 10.9321C40.5217 10.9236 40.5333 10.915 40.5419 10.9064C40.5881 10.8634 40.6314 10.8205 40.6805 10.7804C40.9892 10.7088 41.2894 10.7231 41.5347 10.4941C41.8002 10.2507 41.6357 9.90994 41.3759 9.804C41.6183 9.57493 41.4798 9.01086 41.0729 9.05094C41.0325 9.05381 40.9979 9.0624 40.9575 9.06812C40.9517 9.06812 40.9459 9.07099 40.9402 9.07385C40.4727 9.13684 40.0427 9.27714 39.5781 9.38022C39.0384 9.50048 38.5449 9.6322 38.0313 9.84981C36.9924 10.2908 35.8727 10.4826 34.8164 10.8749C34.4211 11.0209 34.02 11.1469 33.6073 11.2328C33.4197 11.2586 33.235 11.2786 33.0474 11.3015C32.9839 11.3072 32.9176 11.3158 32.8512 11.3216C32.9637 11.1555 33.0705 10.9837 33.186 10.8205C33.4832 10.3996 33.8612 10.0417 34.1758 9.63506C34.7789 8.85051 35.4831 8.12895 36.0314 7.30432C36.0949 7.20983 36.1035 7.10675 36.0804 7.01226C36.2016 6.95499 36.3113 6.88341 36.4037 6.78319C36.6893 6.46536 36.4152 5.96142 35.9823 6.0645C35.7774 6.11318 35.5985 6.22484 35.434 6.36228C35.3301 6.39664 35.2291 6.42528 35.1483 6.45391C34.7818 6.59421 34.4067 6.71447 34.0488 6.87482C33.6737 7.04375 33.3043 7.22701 32.9378 7.41312C32.8599 7.42744 32.7819 7.44176 32.7011 7.45321C32.2019 7.51334 31.6911 7.5477 31.2034 7.67655C30.7099 7.80826 30.2511 8.04019 29.7547 8.15759C29.7258 8.16331 29.6075 8.18336 29.5123 8.19767C29.5585 8.04878 29.6104 7.90561 29.6768 7.76817C29.9827 7.12106 30.2828 6.47109 30.5916 5.82398C30.8975 5.1826 31.1514 4.50972 31.4314 3.85402C31.6565 3.32144 31.997 2.75164 32.0345 2.16179C32.2019 1.81247 31.7661 1.39442 31.4198 1.61776C31.313 1.68648 31.2207 1.76665 31.1312 1.85255C30.9696 1.97568 30.8167 2.11025 30.6176 2.20188C30.2424 2.37368 29.9192 2.62851 29.5902 2.8719C28.912 3.37298 28.2137 3.83684 27.5268 4.3236C26.9035 4.76741 26.3638 5.33722 25.8155 5.86693C25.5789 6.096 25.3307 6.31074 25.0768 6.51977C25.0306 6.3766 24.9873 6.23057 24.9498 6.08454C24.7074 5.10242 24.4592 4.12603 24.2889 3.12673C24.2543 2.92916 24.2168 2.73732 24.1793 2.54261C24.1793 2.43667 24.1793 2.33073 24.1793 2.22479C24.1793 1.60345 24.185 0.942019 24.0119 0.340721C23.9369 0.0801591 23.6483 -0.0229204 23.4261 0.0629792C23.2616 -0.0315104 23.0307 -0.0257837 22.8922 0.123109C22.4305 0.612737 22.3237 1.27989 22.1217 1.89264C21.9889 2.28778 21.8562 2.68578 21.6946 3.06947C21.5445 3.42738 21.481 3.80248 21.3425 4.16325C21.0453 4.92776 20.7538 5.73235 20.5604 6.52836C20.445 7.00939 20.4133 7.4933 20.4075 7.98292C20.4075 7.98006 20.4046 7.97433 20.4017 7.97147C20.1968 7.59065 20.0901 7.18692 19.9284 6.79178C19.6081 6.00437 19.2128 5.19691 18.7857 4.46104C18.4394 3.86547 17.9286 3.34434 17.6775 2.7001C17.5043 2.25628 17.3197 1.60631 16.7887 1.47173C16.5203 1.40301 16.2346 1.60058 16.2404 1.88691C16.2461 2.17611 16.3298 2.4424 16.4135 2.71728C16.4799 2.94348 16.5232 3.17541 16.5636 3.40734C16.578 3.49324 16.5924 3.57627 16.6097 3.66217C16.6097 3.67076 16.6126 3.67935 16.6155 3.68508C16.7598 4.41523 16.8839 5.14824 17.0311 5.87838C17.1696 6.56272 17.2966 7.24705 17.3168 7.9457C17.3197 8.06882 17.3283 8.18908 17.337 8.31221C17.3312 8.30648 17.3283 8.30075 17.3225 8.29502C17.1061 8.07169 16.8724 7.86266 16.6357 7.6565C16.0989 7.18978 15.5593 6.70302 14.9908 6.27066C14.8782 6.18476 14.7744 6.10459 14.6762 6.01869C14.4887 5.79248 14.3357 5.56055 14.102 5.36585C13.7528 5.07379 13.3978 4.79605 13.0457 4.51258C13.04 4.50972 13.0371 4.50399 13.0313 4.50113C12.8668 4.36941 12.6994 4.2377 12.5407 4.0974C12.3272 3.91128 12.0184 3.93991 11.8597 4.1833C11.6115 4.57271 11.9087 5.19119 11.9924 5.59491C12.1223 6.2363 12.0848 6.88341 12.2464 7.52479C12.4166 8.2034 12.5696 8.8906 12.7687 9.56061C12.8004 9.66656 12.838 9.76964 12.8784 9.86985C12.5811 9.6866 12.2868 9.50048 11.9953 9.30864C11.4066 8.91636 10.8035 8.54127 10.2494 8.10318C10.1772 8.04592 10.1022 7.98865 10.03 7.93138C9.66932 7.61642 9.30282 7.31577 8.90746 7.04089C8.56693 6.8061 8.16003 6.47109 7.73293 6.33938C7.7185 6.32506 7.70118 6.31361 7.68387 6.30215C7.60018 6.14181 7.47898 6.00437 7.28274 5.93279C7.08073 5.85834 6.78349 6.01869 6.74886 6.23343C6.72577 6.38233 6.73732 6.53408 6.71712 6.68298C6.6998 6.81755 6.65074 6.94354 6.64209 7.08384C6.62188 7.41026 6.62188 7.73668 6.72866 8.04878C6.9653 8.73025 7.06919 9.41172 7.15865 10.1247C7.24811 10.8319 7.55112 11.4905 7.77044 12.1662C7.86856 12.4697 7.97245 12.7675 8.09654 13.0625C7.67521 12.8964 7.24811 12.7389 6.81235 12.61C6.11975 12.4096 5.41849 12.2865 4.73455 12.0488C4.41134 11.9372 4.08524 11.7883 3.75048 11.7081C3.44747 11.6337 3.13292 11.668 2.82413 11.6165C2.37394 11.542 1.9353 11.5163 1.50819 11.4275C1.19941 11.2557 0.87331 11.1326 0.498153 11.1011C0.0710497 11.0639 -0.0905568 11.7138 0.278829 11.9028C0.604928 12.0689 0.92237 12.172 1.2427 12.2435C1.52551 12.4182 1.791 12.6415 2.01899 12.8248C2.5038 13.2142 2.93956 13.6752 3.30895 14.1706C3.66968 14.6516 3.88612 15.2185 4.25262 15.691C4.40268 15.8857 4.5614 16.0747 4.72878 16.2579C4.30456 16.2665 3.89477 16.3037 3.47344 16.3495C3.0348 16.3982 2.59615 16.4526 2.1575 16.5099C1.74483 16.5614 1.3235 16.507 0.919484 16.5815C0.743448 16.613 0.590499 16.8191 0.602042 16.9967C0.602042 17.0253 0.613586 17.0482 0.616472 17.0768C0.431779 17.2572 0.475066 17.598 0.703047 17.7554C0.902169 17.8929 1.11861 17.9158 1.34947 17.9645C1.43893 17.9816 1.52551 18.0074 1.61208 18.0332C2.07382 18.3682 2.6279 18.5629 3.156 18.7748C3.46479 18.9008 3.75337 19.0697 4.06504 19.1957C4.33919 19.3074 4.58449 19.3589 4.83556 19.5192C5.08662 19.6796 5.37809 19.7655 5.65225 19.8857C5.62627 19.9058 5.6003 19.9287 5.57433 19.9487C5.45024 20.0031 5.32615 20.0604 5.20494 20.1234C4.62489 20.4241 4.09101 20.8106 3.53693 21.1571C3.01748 21.4835 2.54421 21.8729 2.02187 22.2022C1.77658 22.3568 1.54571 22.5171 1.29176 22.6517C1.26867 22.6632 1.24558 22.6775 1.2225 22.6918C0.956999 22.7777 0.731905 22.8722 0.529897 23.0669C0.235542 23.3504 0.535668 23.9431 0.951228 23.7856C0.951228 23.7856 0.954114 23.7856 0.957 23.7856C1.3639 23.8858 1.75637 23.6711 2.1373 23.5508C2.2816 23.505 2.42877 23.462 2.57595 23.4219C3.02325 23.3675 3.47633 23.336 3.9294 23.296C4.29591 23.2616 4.65952 23.2187 5.02313 23.1671C5.04045 23.1671 5.06065 23.1671 5.07797 23.1671C5.07797 23.1671 5.07219 23.1728 5.06931 23.1728C4.77207 23.4076 4.4402 23.588 4.14873 23.8314C3.8486 24.0834 3.56868 24.3611 3.28875 24.636C3.18197 24.7419 3.08386 24.8507 2.98574 24.9624C2.6279 25.2459 2.27294 25.5351 1.91221 25.8128C1.6496 26.0133 1.38699 26.2137 1.11572 26.3998C0.884854 26.5601 0.622243 26.6747 0.417349 26.8637C0.238428 27.0297 0.261514 27.3161 0.423121 27.4735C0.440436 27.5881 0.501038 27.694 0.619357 27.7742C1.13592 28.1207 1.98147 27.9746 2.57018 27.9231C3.29741 27.8601 4.07947 27.7255 4.8269 27.7656C4.66241 27.9345 4.44308 28.0949 4.33919 28.1951C4.12276 28.4013 3.9092 28.6275 3.70431 28.8565C3.4417 29.057 3.1762 29.2517 2.92225 29.4664C2.18925 30.0878 1.58034 30.8437 0.806936 31.4106C0.616472 31.402 0.426007 31.4106 0.273058 31.4908C-0.0790135 31.674 -0.116529 32.1236 0.166282 32.3813C0.379834 32.576 0.731905 32.7249 1.00606 32.7936C1.84295 32.9998 2.72601 32.8938 3.53982 32.639C3.96692 32.5044 4.37959 32.3126 4.81824 32.2324C5.254 32.1522 5.66379 32.1379 6.09955 32.1408C6.11975 32.1408 6.13995 32.1465 6.16015 32.1465C6.16592 32.1465 6.17169 32.1465 6.18035 32.1465C6.02163 32.3355 5.88311 32.5502 5.74459 32.7535C5.37232 33.2975 4.93367 33.7872 4.53543 34.3083C4.11987 34.8523 3.82551 35.4593 3.46479 36.0377C3.28586 36.3269 3.10694 36.6219 2.91936 36.9082C2.75487 37.1602 2.61058 37.3377 2.57884 37.6469C2.57884 37.6641 2.58172 37.6813 2.58461 37.6985C2.10267 37.8416 2.33643 38.6119 2.86453 38.5116C3.11271 38.4658 3.36955 38.4114 3.62062 38.3828C3.83129 38.3599 4.03041 38.3742 4.2353 38.3083C4.3998 38.2539 4.56717 38.2053 4.73167 38.1537C5.11548 38.1308 5.4993 38.0936 5.87157 38.022C6.42565 37.9132 6.91335 37.6068 7.42992 37.3978C7.44146 37.3921 7.453 37.3892 7.46455 37.3864C7.71273 37.3234 7.96091 37.2661 8.21198 37.226C8.55539 37.1687 8.91323 37.143 9.25665 37.08C9.23067 37.2031 9.20759 37.3291 9.19027 37.4522C9.10081 38.0421 9.01135 38.6319 8.83532 39.2017C8.76028 39.448 8.64774 39.6684 8.61311 39.9261C8.58713 40.1294 8.60734 40.3299 8.61311 40.5303C8.50633 40.8911 8.41399 41.2576 8.27835 41.6098C8.186 41.856 8.11963 42.1166 8.00131 42.3514C7.88299 42.5833 7.71561 42.7809 7.60884 43.0185C7.43569 43.4079 7.79065 43.8088 8.20043 43.6055C8.41687 43.4995 8.53808 43.3421 8.70257 43.176C8.84686 43.0271 9.02289 42.9297 9.2047 42.8324C9.69529 42.569 10.1426 42.3141 10.5726 41.9562C10.9968 41.604 11.447 41.2776 11.8972 40.9598C12.0703 40.8367 12.2406 40.7021 12.4137 40.5675C12.4022 40.8223 12.4137 41.08 12.4368 41.3292C12.4974 42.0221 12.6302 42.7293 12.7918 43.4051C12.8639 43.7057 12.8899 44.035 12.9996 44.3242C13.0486 44.4559 13.1265 44.5733 13.1756 44.705C13.2362 44.8596 13.2478 45.0257 13.291 45.1832C13.317 45.2777 13.3459 45.3693 13.3776 45.4609C13.3834 45.5669 13.3834 45.6728 13.3949 45.7759C13.4209 46.045 13.5104 46.277 13.4988 46.549C13.4902 46.7981 13.5421 47.0243 13.7355 47.1961C13.8278 47.2791 13.9663 47.3307 14.0991 47.3192C14.2376 47.3965 14.4194 47.4023 14.5521 47.3278C15.0312 47.0501 15.3544 46.6177 15.6199 46.1424C15.8998 45.6413 16.174 45.166 16.5087 44.6964C16.9128 44.1295 17.3283 43.5711 17.7208 42.9985C17.8939 42.7465 18.044 42.4802 18.2027 42.2196C18.2316 42.3514 18.2633 42.4859 18.2835 42.6205C18.4018 43.3535 18.4884 44.0923 18.6154 44.8281C18.8549 46.2111 19.4263 47.5855 20.1305 48.7938C20.3094 49.1002 20.6874 49.0401 20.8779 48.7938C21.0193 48.6077 21.0337 48.3786 21.0857 48.161C21.1578 47.8604 21.3079 47.5741 21.4233 47.2877C21.6657 46.695 21.9687 46.1224 22.1592 45.5096C22.3525 44.8969 22.442 44.2583 22.6411 43.6456C22.7681 43.2562 22.9124 42.8897 23.074 42.526C23.1952 42.6291 23.3164 42.7293 23.4347 42.8353C23.8936 43.2533 24.2745 43.7429 24.6468 44.2354C24.869 44.5303 25.1027 44.8167 25.3394 45.1001C25.5241 45.3464 25.7232 45.584 25.8877 45.8446C26.0551 46.1138 26.1734 46.3915 26.361 46.6521C26.6467 47.0472 26.8862 47.6084 27.4114 47.7258C27.6221 47.7716 27.9049 47.6628 27.9453 47.4252C28.0347 46.884 27.9511 46.3428 27.9799 45.7959C28.0117 45.2204 28.0549 44.6449 28.104 44.0722C28.1819 43.2075 28.1588 42.3227 28.1444 41.4437C28.1963 41.5095 28.2483 41.5725 28.306 41.6327C28.6061 41.9276 28.8543 42.254 29.1429 42.5575C29.4488 42.8811 29.7028 43.2419 29.974 43.5969C30.2626 43.9749 30.5829 44.3299 30.8888 44.6936C31.2005 45.0658 31.5468 45.4065 31.9133 45.7272C31.9364 45.7473 31.9595 45.7644 31.9826 45.7816C32.023 45.8847 32.0691 45.9878 32.1355 46.0737C32.2567 46.2312 32.4125 46.3027 32.5886 46.2712C32.704 46.3629 32.8281 46.4516 32.9666 46.486C33.4572 46.6091 33.7487 46.151 33.6708 45.7158C33.6419 45.5526 33.6015 45.3922 33.5582 45.2319C33.5929 45.1689 33.6159 45.1001 33.6159 45.0257C33.6217 44.5132 33.3793 44.0493 33.2437 43.5654C33.0907 43.0156 32.9378 42.4773 32.6954 41.9562C32.4818 41.501 32.3087 41.04 32.1153 40.579C32.1153 40.4959 32.1153 40.41 32.1153 40.327C32.6203 40.5532 33.0619 40.8739 33.5524 41.1287C34.1181 41.4236 34.7097 41.6699 35.3157 41.8732C35.61 41.9705 35.9159 42.0393 36.2103 42.1423C36.4152 42.2139 36.5941 42.3141 36.8192 42.317C36.9173 42.317 37.0356 42.2712 37.1193 42.1967C37.2348 42.1481 37.33 42.0593 37.3733 41.9247C37.5003 41.5124 37.1828 41.0858 37.0068 40.7078C37.0068 40.7078 37.0068 40.7021 37.0068 40.6992C36.8798 40.2468 36.8596 39.7858 36.75 39.3306C36.6403 38.8782 36.5681 38.42 36.4931 37.959C36.4412 37.6441 36.4383 37.3205 36.4412 36.9998C36.6345 37.1115 36.8394 37.2002 37.0558 37.2804C37.4166 37.415 37.7686 37.5753 38.1265 37.7156C38.8306 37.9905 39.6214 38.0793 40.2447 38.5346C40.3832 38.6348 40.5362 38.7665 40.6978 38.8896C40.7382 38.9583 40.7815 39.0299 40.8276 39.0986C40.969 39.322 41.2547 39.3391 41.4481 39.2275C41.5202 39.2303 41.5953 39.2275 41.6674 39.2074C41.8463 39.1588 41.9906 38.9812 41.9848 38.7923C41.9733 38.3885 41.7828 37.9562 41.5693 37.5782C41.6876 37.3377 41.5462 36.9912 41.4221 36.7307C41.1047 36.0692 40.6083 35.4908 40.1495 34.9039C39.9503 34.5288 39.7339 34.1651 39.503 33.8101C39.301 33.2546 39.0961 32.6991 38.8566 32.1608C38.9547 32.1808 39.05 32.198 39.1452 32.2066C39.4078 32.2267 39.6646 32.2753 39.9272 32.2896C40.5996 32.3297 41.2807 32.3755 41.9473 32.4672C42.5822 32.5559 43.2286 32.6018 43.826 32.8365C44.1088 32.9454 44.3801 32.9854 44.6716 33.0513C44.9573 33.1143 45.1852 33.226 45.4825 33.1486C45.7364 33.0828 45.9038 32.7449 45.7422 32.5187C45.5806 32.2896 45.3959 32.2152 45.1535 32.0949C44.9861 32.0119 44.8418 31.8945 44.6946 31.7828C44.6571 31.4249 44.2704 31.2589 43.979 31.1157C43.8895 31.0727 43.8058 31.0241 43.7163 30.9754C43.5721 30.8494 43.422 30.7291 43.2604 30.6203C42.7352 30.2739 42.3052 29.8215 41.8117 29.4321C41.6328 29.2918 41.4481 29.1572 41.2634 29.0283C41.4683 28.9854 41.6732 28.9453 41.881 28.9224C42.2157 28.888 42.5534 28.8422 42.8881 28.8136C42.9805 28.805 43.0699 28.8021 43.1623 28.7993C43.1767 28.7993 43.194 28.7993 43.2084 28.7993C43.6038 28.7993 43.9905 28.7649 44.3772 28.7248C44.862 28.7048 45.3526 28.7277 45.8345 28.7277C46.1635 28.7277 46.5069 28.6962 46.833 28.7191C47.1274 28.7391 47.3785 28.8537 47.6699 28.7363C47.9701 28.616 48.1519 28.1207 47.7738 27.9517L47.7854 27.9603ZM24.2976 6.88627C24.2803 6.88627 24.263 6.88627 24.2456 6.88627C24.2399 6.8061 24.2341 6.72593 24.2283 6.64575C24.2514 6.72593 24.2716 6.8061 24.2976 6.88627ZM37.1078 13.2858C37.0212 13.4032 36.9346 13.5206 36.851 13.638C36.7961 13.7124 36.75 13.7869 36.7095 13.8613C36.7297 13.7726 36.75 13.6952 36.8048 13.6093C36.8827 13.4891 37.0097 13.3917 37.1078 13.2858ZM38.7325 17.8156C38.7325 17.8156 38.7267 17.8327 38.7239 17.8413C38.7094 17.8413 38.6979 17.8413 38.6835 17.8385C38.7008 17.8299 38.7152 17.8242 38.7325 17.8156Z" fill="#070707"/>
</g>
</g>
<defs>
<clipPath id="clip0_2048_214">
<rect width="48" height="49" fill="white"/>
</clipPath>
</defs>
</svg>
