<svg width="59" height="70" viewBox="0 0 59 70" fill="none" xmlns="http://www.w3.org/2000/svg">
<g clip-path="url(#clip0_2071_6167)">
<mask id="mask0_2071_6167" style="mask-type:luminance" maskUnits="userSpaceOnUse" x="-332" y="-197" width="609" height="455">
<path d="M276.59 -196.789H-331.254V257.188H276.59V-196.789Z" fill="white"/>
<path fill-rule="evenodd" clip-rule="evenodd" d="M32.4778 3.06482H33.2704V3.50126H32.4778V3.06482Z" fill="#050505"/>
<path fill-rule="evenodd" clip-rule="evenodd" d="M51.528 5.247C51.1643 6.04172 50.3562 5.38054 49.1471 5.46522C48.9948 4.25035 51.0182 4.67051 51.528 5.247Z" fill="#050505"/>
<path fill-rule="evenodd" clip-rule="evenodd" d="M50.7323 10.0513C50.6639 9.57901 52.1403 9.95357 52.7153 9.83306C52.6718 10.2467 51.4005 9.98288 51.528 10.491C51.0928 10.4324 51.2545 10.0545 50.7323 10.0513Z" fill="#050505"/>
<path fill-rule="evenodd" clip-rule="evenodd" d="M9.46768 10.2692C10.5151 10.2041 10.4872 10.7284 10.655 11.1453C10.0769 10.9532 9.3993 10.8196 9.46768 10.2692Z" fill="#050505"/>
<path fill-rule="evenodd" clip-rule="evenodd" d="M10.6548 14.6368H11.8483V15.0733H10.6548V14.6368Z" fill="#050505"/>
<path fill-rule="evenodd" clip-rule="evenodd" d="M35.2561 16.8225C35.3183 16.5619 35.9772 16.6368 36.4465 16.6042V17.4804C35.0354 17.8191 36.2103 16.7378 35.2561 16.8257V16.8225Z" fill="#050505"/>
<path fill-rule="evenodd" clip-rule="evenodd" d="M5.49828 17.4771C6.09817 16.7052 6.25047 17.8777 5.89613 17.9136C5.65991 17.9364 5.39882 17.6074 5.49828 17.4771Z" fill="#050505"/>
<path fill-rule="evenodd" clip-rule="evenodd" d="M38.0351 17.6955C36.4313 16.9301 37.0996 18.4022 38.0351 17.6955V17.6955Z" fill="#050505"/>
<path fill-rule="evenodd" clip-rule="evenodd" d="M33.6683 18.5713C33.7274 18.5095 34.5231 18.1675 34.8588 18.3499C35.1323 18.4997 33.2922 18.9524 33.6683 18.5713Z" fill="#050505"/>
<path fill-rule="evenodd" clip-rule="evenodd" d="M11.0528 18.5714C11.6931 18.5095 11.7366 18.7733 12.2432 18.7896C12.3986 19.213 10.4374 19.1055 11.0528 18.5714Z" fill="#050505"/>
<path fill-rule="evenodd" clip-rule="evenodd" d="M29.3041 19.0046C27.4081 18.402 28.3436 19.7211 29.3041 19.0046V19.0046Z" fill="#050505"/>
<path fill-rule="evenodd" clip-rule="evenodd" d="M36.8417 19.2262C36.6894 18.7995 38.6476 18.907 38.0353 19.4411H37.2427C37.3142 19.2587 37.0873 19.2392 36.8448 19.2262H36.8417Z" fill="#050505"/>
<path fill-rule="evenodd" clip-rule="evenodd" d="M19.7838 19.6626C19.6253 19.2392 21.5928 19.3467 20.9742 19.8809H20.1816C20.2531 19.6952 20.0231 19.6789 19.7838 19.6626Z" fill="#050505"/>
<path fill-rule="evenodd" clip-rule="evenodd" d="M32.0828 19.4412H32.8785V19.8776H32.0828V19.4412Z" fill="#050505"/>
<path fill-rule="evenodd" clip-rule="evenodd" d="M39.2257 20.7537C40.1457 20.8123 40.1364 21.3334 39.6236 21.6265C38.7004 21.5679 38.7097 21.0435 39.2257 20.7537Z" fill="#050505"/>
<path fill-rule="evenodd" clip-rule="evenodd" d="M10.6548 21.4085C10.9936 20.7668 11.6587 21.6951 12.6409 21.4085C12.5384 21.9166 10.8941 21.5355 10.6548 21.4085Z" fill="#050505"/>
<path fill-rule="evenodd" clip-rule="evenodd" d="M20.5762 21.1903C21.1233 21.5421 22.4629 21.4606 22.1645 22.2814C21.8102 21.8222 20.4706 21.9003 20.5762 21.1903Z" fill="#050505"/>
<path fill-rule="evenodd" clip-rule="evenodd" d="M55.0962 21.8447C55.1521 21.3041 56.4389 21.7829 56.6814 21.8447C56.6223 22.3887 55.3386 21.9099 55.0962 21.8447Z" fill="#050505"/>
<path fill-rule="evenodd" clip-rule="evenodd" d="M57.0791 22.0664C57.1382 21.5192 58.4218 21.998 58.6674 22.0664C58.4063 22.7178 57.8189 21.8547 57.0791 22.0664Z" fill="#050505"/>
<path fill-rule="evenodd" clip-rule="evenodd" d="M44.7798 22.0663H45.5755C45.7588 22.5288 45.0098 22.4799 44.385 22.5027C44.4627 22.3268 44.786 22.2878 44.7829 22.0663H44.7798Z" fill="#050505"/>
<path fill-rule="evenodd" clip-rule="evenodd" d="M21.3657 22.9359C21.4372 23.4114 19.9608 23.0336 19.3857 23.1541C19.423 22.6004 20.8621 22.6395 21.3657 22.9359Z" fill="#050505"/>
<path fill-rule="evenodd" clip-rule="evenodd" d="M26.9233 22.9358C25.7173 23.6719 28.3904 23.597 26.9233 22.9358V22.9358Z" fill="#050505"/>
<path fill-rule="evenodd" clip-rule="evenodd" d="M59.858 23.594C59.5223 23.9131 58.5806 23.9099 57.875 24.0304C57.4678 23.2943 59.1089 23.6884 59.858 23.594Z" fill="#050505"/>
<path fill-rule="evenodd" clip-rule="evenodd" d="M2.32475 24.2454C2.81274 24.3431 3.14221 24.5255 3.11734 24.9C2.63246 24.8023 2.30299 24.6232 2.32475 24.2454Z" fill="#050505"/>
<path fill-rule="evenodd" clip-rule="evenodd" d="M43.1919 24.4666H43.9845V24.903H43.1919V24.4666Z" fill="#050505"/>
<path fill-rule="evenodd" clip-rule="evenodd" d="M46.3683 25.3393C45.5788 25.3393 45.8648 24.7433 44.78 24.9029C44.9758 24.1635 46.8532 24.4795 46.3683 25.3393Z" fill="#050505"/>
<path fill-rule="evenodd" clip-rule="evenodd" d="M5.10059 24.8999H6.68888V25.3363H5.10059V24.8999Z" fill="#050505"/>
<path fill-rule="evenodd" clip-rule="evenodd" d="M30.4947 25.776C30.1465 26.0952 30.1776 26.6228 28.9095 26.4339C28.7851 25.8542 29.7363 25.8705 30.4947 25.776Z" fill="#050505"/>
<path fill-rule="evenodd" clip-rule="evenodd" d="M-0.453857 26.4307H0.341844V26.8638H-0.453857V26.4307Z" fill="#050505"/>
<path fill-rule="evenodd" clip-rule="evenodd" d="M15.8145 26.6456C15.9854 26.157 17.7695 26.5576 18.5932 26.4306C18.4222 26.9159 16.6381 26.5185 15.8145 26.6456Z" fill="#050505"/>
<path fill-rule="evenodd" clip-rule="evenodd" d="M40.8142 26.4307C41.4514 26.6424 41.7249 27.0137 41.2058 27.3035C40.5655 27.0918 40.292 26.7173 40.8142 26.4307Z" fill="#050505"/>
<path fill-rule="evenodd" clip-rule="evenodd" d="M-0.453849 27.3035C0.93552 27.1081 0.22374 28.0135 -0.0559985 28.1764C-1.21225 27.9842 -0.50358 27.8474 -0.453849 27.3035Z" fill="#050505"/>
<path fill-rule="evenodd" clip-rule="evenodd" d="M20.5763 28.1799C21.2756 28.232 21.4808 28.5545 21.3658 29.0496C20.1349 29.1538 19.9515 28.5056 20.5763 28.1799Z" fill="#050505"/>
<path fill-rule="evenodd" clip-rule="evenodd" d="M28.9095 28.6161H29.7021C29.814 28.9678 29.326 28.9906 29.3043 29.2708H28.5086C28.3998 28.919 28.8846 28.8962 28.9095 28.6161Z" fill="#050505"/>
<path fill-rule="evenodd" clip-rule="evenodd" d="M18.5931 29.0492C18.6522 28.9906 19.4479 28.6454 19.7836 28.8375C20.0571 28.9873 18.2171 29.4368 18.5931 29.0492Z" fill="#050505"/>
<path fill-rule="evenodd" clip-rule="evenodd" d="M35.2561 29.4858C35.4675 28.9711 37.1335 29.3555 36.0518 29.7072C35.7317 29.6616 35.654 29.4858 35.2561 29.4858Z" fill="#050505"/>
<path fill-rule="evenodd" clip-rule="evenodd" d="M40.8138 29.2676C38.2712 29.0136 39.9403 29.9353 40.8138 29.2676V29.2676Z" fill="#050505"/>
<path fill-rule="evenodd" clip-rule="evenodd" d="M21.7668 31.453H22.5625V31.8927H21.7668V31.453Z" fill="#050505"/>
<path fill-rule="evenodd" clip-rule="evenodd" d="M53.1132 33.6385C53.8125 33.5668 53.8187 34.8599 52.7153 34.5081C53.023 34.3127 53.1412 34.0163 53.1132 33.6385Z" fill="#050505"/>
<path fill-rule="evenodd" clip-rule="evenodd" d="M28.9092 34.508C26.3667 34.2572 28.0358 35.1724 28.9092 34.508V34.508Z" fill="#050505"/>
<path fill-rule="evenodd" clip-rule="evenodd" d="M37.6372 35.3843H38.4298V35.824H37.6372V35.3843Z" fill="#050505"/>
<path fill-rule="evenodd" clip-rule="evenodd" d="M51.127 35.8206C50.3717 35.4102 50.1293 35.7945 49.144 35.8206C48.5379 35.1496 51.7362 35.1496 51.127 35.8206Z" fill="#050505"/>
<path fill-rule="evenodd" clip-rule="evenodd" d="M27.7158 36.4754C25.1764 36.2213 26.8455 37.1431 27.7158 36.4754V36.4754Z" fill="#050505"/>
<path fill-rule="evenodd" clip-rule="evenodd" d="M52.3203 36.4753C53.1657 36.3743 53.0756 36.7847 53.116 37.1299C52.7928 37.0909 52.7182 36.9117 52.3203 36.9117V36.4753Z" fill="#050505"/>
<path fill-rule="evenodd" clip-rule="evenodd" d="M26.5286 36.9119H27.3243V37.3483H26.5286V36.9119Z" fill="#050505"/>
<path fill-rule="evenodd" clip-rule="evenodd" d="M54.3005 37.3515C55.5034 36.5437 55.6371 38.0127 54.3005 37.3515V37.3515Z" fill="#050505"/>
<path fill-rule="evenodd" clip-rule="evenodd" d="M38.0351 37.7879C37.861 38.0549 37.5254 38.2373 36.8416 38.2276C37.0156 37.9572 37.3513 37.7781 38.0351 37.7879Z" fill="#050505"/>
<path fill-rule="evenodd" clip-rule="evenodd" d="M27.3242 38.661H28.1137V39.0975H27.3242V38.661Z" fill="#050505"/>
<path fill-rule="evenodd" clip-rule="evenodd" d="M49.1441 38.8792C49.0758 38.4037 50.5491 38.7782 51.1272 38.661C51.1925 39.1365 49.7192 38.762 49.1441 38.8792Z" fill="#050505"/>
<path fill-rule="evenodd" clip-rule="evenodd" d="M15.42 38.8792C15.479 39.4915 14.4471 39.5078 13.4338 39.5306C13.3779 38.9182 14.4067 38.9052 15.42 38.8792Z" fill="#050505"/>
<path fill-rule="evenodd" clip-rule="evenodd" d="M23.75 39.3154C24.2163 39.348 24.0826 39.7128 24.1448 39.9701H22.9543C23.0942 39.6802 23.6537 39.6281 23.75 39.3154Z" fill="#050505"/>
<path fill-rule="evenodd" clip-rule="evenodd" d="M35.6541 39.97H36.4466V40.4064H35.6541V39.97Z" fill="#050505"/>
<path fill-rule="evenodd" clip-rule="evenodd" d="M53.5078 40.1885C53.5326 40.1722 53.4767 39.9702 53.5078 39.9702C55.4131 39.7846 51.6242 41.374 53.5078 40.1885Z" fill="#050505"/>
<path fill-rule="evenodd" clip-rule="evenodd" d="M57.8716 39.97C59.146 40.2208 57.4862 40.5921 56.6812 40.4064C56.7993 39.6475 57.7597 40.4227 57.8716 39.97Z" fill="#050505"/>
<path fill-rule="evenodd" clip-rule="evenodd" d="M58.6672 39.97C59.0682 40.11 59.0744 40.4748 59.8577 40.4064C59.7955 40.667 59.1335 40.5888 58.6672 40.6246V39.97Z" fill="#050505"/>
<path fill-rule="evenodd" clip-rule="evenodd" d="M24.5425 40.1885C25.4097 40.221 25.3941 40.7357 25.3382 41.2828C24.7476 41.0972 24.7632 40.5793 24.5425 40.1885Z" fill="#050505"/>
<path fill-rule="evenodd" clip-rule="evenodd" d="M42.396 40.4065C42.7317 39.7649 43.6766 40.5401 44.3821 40.4065C44.0713 41.1752 42.9959 40.6606 42.396 40.4065Z" fill="#050505"/>
<path fill-rule="evenodd" clip-rule="evenodd" d="M3.91337 40.6249C0.761649 40.7389 5.85289 40.5532 3.91337 40.6249V40.6249Z" fill="#050505"/>
<path fill-rule="evenodd" clip-rule="evenodd" d="M9.07287 40.6248C8.95787 40.2763 11.2144 40.3187 10.2602 40.8431C10.4125 40.7584 9.06665 40.6086 9.07287 40.6248Z" fill="#050505"/>
<path fill-rule="evenodd" clip-rule="evenodd" d="M45.9704 40.6249C45.414 40.9017 45.9455 41.7779 44.3821 41.4978C44.8514 41.1753 44.724 40.5207 45.9704 40.6249Z" fill="#050505"/>
<path fill-rule="evenodd" clip-rule="evenodd" d="M46.7629 41.2826C48.4196 41.3314 46.5888 42.0578 47.5555 42.5887C47.0986 42.5561 46.8499 42.6375 46.7629 42.8101C45.588 42.4909 47.2882 41.9568 46.7629 41.2826Z" fill="#050505"/>
<path fill-rule="evenodd" clip-rule="evenodd" d="M29.7021 41.4977C29.441 41.7908 28.8535 41.9015 28.1138 41.9374C28.2101 41.553 28.7976 41.4358 29.7021 41.4977Z" fill="#050505"/>
<path fill-rule="evenodd" clip-rule="evenodd" d="M-0.45362 41.9372C0.149372 41.1653 0.301674 42.3378 -0.0557695 42.3737C-0.291993 42.3997 -0.553083 42.0675 -0.45362 41.9372Z" fill="#050505"/>
<path fill-rule="evenodd" clip-rule="evenodd" d="M53.9055 41.7193C53.4362 42.0418 53.5636 42.6932 52.3203 42.5889C52.9109 42.3316 52.7865 41.6835 53.9055 41.7193Z" fill="#050505"/>
<path fill-rule="evenodd" clip-rule="evenodd" d="M55.8887 41.9373C57.0947 41.1263 57.2283 42.6017 55.8887 41.9373V41.9373Z" fill="#050505"/>
<path fill-rule="evenodd" clip-rule="evenodd" d="M34.8586 43.0283C33.6153 42.3053 35.8346 41.6702 34.8586 43.0283V43.0283Z" fill="#050505"/>
<path fill-rule="evenodd" clip-rule="evenodd" d="M44.3821 42.1559H45.1747V42.5891H44.3821V42.1559Z" fill="#050505"/>
<path fill-rule="evenodd" clip-rule="evenodd" d="M32.8786 42.8101C32.7014 43.2986 30.9235 42.9013 30.0999 43.0283C30.4946 42.175 31.4644 42.9925 32.8786 42.8101Z" fill="#050505"/>
<path fill-rule="evenodd" clip-rule="evenodd" d="M42.7969 42.5887C44.0402 42.7418 43.3129 43.1718 43.1948 43.6831C42.1846 43.657 42.2561 42.8688 42.7969 42.5887Z" fill="#050505"/>
<path fill-rule="evenodd" clip-rule="evenodd" d="M36.052 42.8102C37.317 42.6213 37.2766 43.1522 38.035 43.2467C37.1306 43.4063 37.3326 44.1717 36.8415 44.556C36.2167 44.1749 36.3131 43.3932 36.052 42.8102Z" fill="#050505"/>
<path fill-rule="evenodd" clip-rule="evenodd" d="M7.48157 44.1229C7.38522 44.631 5.74098 44.2467 5.49854 44.1229C5.80936 43.3542 6.8848 43.8688 7.48157 44.1229Z" fill="#050505"/>
<path fill-rule="evenodd" clip-rule="evenodd" d="M27.3244 44.7743C28.0268 44.6441 28.9717 45.4127 29.3043 44.7743C30.4916 44.9177 28.9251 45.2434 29.3043 45.6472C29.3167 45.8622 29.7892 45.8166 30.1 45.8687C29.4659 46.481 28.3128 45.5593 26.9234 45.8687C26.7587 45.3411 27.6476 45.3932 27.3212 44.7743H27.3244Z" fill="#050505"/>
<path fill-rule="evenodd" clip-rule="evenodd" d="M35.6545 44.7742C36.8822 44.7742 36.6989 45.1096 38.0354 45.4288C37.9421 45.8132 37.3516 45.9272 36.4471 45.8685C36.2761 45.4549 35.5954 45.3181 35.6545 44.7742Z" fill="#050505"/>
<path fill-rule="evenodd" clip-rule="evenodd" d="M58.2696 45.429C58.2013 44.9567 59.6776 45.3313 60.2558 45.2107C60.321 45.683 58.8478 45.3085 58.2696 45.429Z" fill="#050505"/>
<path fill-rule="evenodd" clip-rule="evenodd" d="M13.0359 45.429C13.5238 45.5234 13.8502 45.7091 13.8284 46.0836C12.4484 46.2758 12.4671 45.7481 13.0359 45.429Z" fill="#050505"/>
<path fill-rule="evenodd" clip-rule="evenodd" d="M44.7799 45.6472C45.5508 45.5625 45.3581 46.6439 44.3821 46.3019V45.8654C44.7209 45.9045 44.7613 45.7807 44.7799 45.6439V45.6472Z" fill="#050505"/>
<path fill-rule="evenodd" clip-rule="evenodd" d="M50.7322 46.3017C51.7392 45.7318 55.5002 47.0769 50.7322 46.3017V46.3017Z" fill="#050505"/>
<path fill-rule="evenodd" clip-rule="evenodd" d="M57.8717 46.5233C59.488 46.595 57.8562 47.0966 58.6674 47.6112H57.0791C56.7839 46.9402 58.1701 47.1943 57.8717 46.5233Z" fill="#050505"/>
<path fill-rule="evenodd" clip-rule="evenodd" d="M9.85618 47.178C8.11869 47.9793 8.35181 46.5722 9.85618 47.178V47.178Z" fill="#050505"/>
<path fill-rule="evenodd" clip-rule="evenodd" d="M38.4267 47.6111C38.9582 47.7544 39.1665 48.0801 39.2224 48.484C38.0289 48.7022 38.52 48.0019 38.4267 47.6111Z" fill="#050505"/>
<path fill-rule="evenodd" clip-rule="evenodd" d="M43.9844 47.8325C44.233 47.2984 45.9892 47.7185 45.5727 48.2689C44.2859 48.536 45.2681 47.5622 43.9844 47.8325Z" fill="#050505"/>
<path fill-rule="evenodd" clip-rule="evenodd" d="M46.3682 47.8325C47.8725 48.4416 48.1119 47.0313 46.3682 47.8325V47.8325Z" fill="#050505"/>
<path fill-rule="evenodd" clip-rule="evenodd" d="M39.6232 48.269C40.3225 48.4645 40.1267 49.155 41.6062 48.9237C41.485 49.6859 40.5308 48.9074 40.4127 49.3601C39.5486 49.3276 39.561 48.8097 39.6201 48.269H39.6232Z" fill="#050505"/>
<path fill-rule="evenodd" clip-rule="evenodd" d="M57.8718 48.7053C57.9651 48.3242 60.1097 48.6141 59.8549 49.145C58.5898 49.3307 58.6271 48.7965 57.8718 48.7053Z" fill="#050505"/>
<path fill-rule="evenodd" clip-rule="evenodd" d="M1.13428 48.7057H2.32472V49.1454H1.13428V48.7057Z" fill="#050505"/>
<path fill-rule="evenodd" clip-rule="evenodd" d="M5.10068 48.7055C4.6158 49.0182 3.73618 49.1224 2.7229 49.1452C2.76642 48.585 4.0501 48.7088 5.10068 48.7055Z" fill="#050505"/>
<path fill-rule="evenodd" clip-rule="evenodd" d="M36.052 48.7057C37.1181 49.0574 36.6395 49.3962 36.052 49.7968C35.7474 49.4548 34.7901 49.4711 34.8585 48.9239C35.1755 49.0379 35.5019 49.1552 36.052 49.1454V48.7057Z" fill="#050505"/>
<path fill-rule="evenodd" clip-rule="evenodd" d="M38.8277 48.9237C39.44 49.6989 37.4788 49.054 37.6342 49.5784C36.4748 49.3374 38.1408 48.8716 38.8277 48.9237Z" fill="#050505"/>
<path fill-rule="evenodd" clip-rule="evenodd" d="M22.5625 50.0149H23.3551V50.4513H22.5625V50.0149Z" fill="#050505"/>
<path fill-rule="evenodd" clip-rule="evenodd" d="M24.9404 50.2365C25.0399 49.7251 26.681 50.1127 26.9235 50.2365C26.8271 50.6208 26.2397 50.7348 25.3383 50.6729C25.4036 50.4189 25.2513 50.2821 24.9404 50.2365Z" fill="#050505"/>
<path fill-rule="evenodd" clip-rule="evenodd" d="M42.001 50.0149H42.7967V50.4513H42.001V50.0149Z" fill="#050505"/>
<path fill-rule="evenodd" clip-rule="evenodd" d="M54.3005 50.0146C51.7611 49.7671 53.4302 50.6791 54.3005 50.0146V50.0146Z" fill="#050505"/>
<path fill-rule="evenodd" clip-rule="evenodd" d="M3.91328 50.451C3.63665 50.8842 2.85338 51.034 1.92713 51.1057C1.74686 50.425 2.77568 50.4087 3.91328 50.451Z" fill="#050505"/>
<path fill-rule="evenodd" clip-rule="evenodd" d="M13.0356 50.6729C12.8615 50.9367 12.5259 51.1191 11.8483 51.106C11.6618 50.6403 12.414 50.6891 13.0356 50.6729Z" fill="#050505"/>
<path fill-rule="evenodd" clip-rule="evenodd" d="M56.6812 50.6729C54.1417 50.4221 55.8109 51.3374 56.6812 50.6729V50.6729Z" fill="#050505"/>
<path fill-rule="evenodd" clip-rule="evenodd" d="M24.9403 50.8909C26.5007 50.5424 25.0771 51.8322 26.1308 51.7606C26.0686 52.3077 24.7849 51.8289 24.5425 51.7606C24.8502 51.5684 24.9683 51.2655 24.9403 50.8909Z" fill="#050505"/>
<path fill-rule="evenodd" clip-rule="evenodd" d="M43.9843 51.106C44.3821 51.7606 43.0985 51.4935 42.396 51.5457C42.6602 51.2525 43.2476 51.1385 43.9843 51.106Z" fill="#050505"/>
<path fill-rule="evenodd" clip-rule="evenodd" d="M30.0997 51.3275H30.8892C31.0757 51.7933 30.3235 51.7444 29.6987 51.7607C29.7733 51.5848 30.0966 51.5457 30.0966 51.3275H30.0997Z" fill="#050505"/>
<path fill-rule="evenodd" clip-rule="evenodd" d="M3.91329 52.2004C2.01418 51.5946 2.94975 52.9169 3.91329 52.2004V52.2004Z" fill="#050505"/>
<path fill-rule="evenodd" clip-rule="evenodd" d="M0.341914 52.2004C0.982205 52.1385 1.02261 52.4088 1.53236 52.4186C1.69088 52.842 -0.276619 52.741 0.341914 52.2004Z" fill="#050505"/>
<path fill-rule="evenodd" clip-rule="evenodd" d="M26.5284 52.4186C26.5284 52.855 25.4468 52.6954 25.7359 53.2947C24.3434 53.0114 25.2292 51.7085 26.5284 52.4186Z" fill="#050505"/>
<path fill-rule="evenodd" clip-rule="evenodd" d="M31.2873 52.64C30.218 52.7768 30.1776 53.4804 28.9095 53.5097C27.9584 52.627 29.8109 52.1906 31.2873 52.64Z" fill="#050505"/>
<path fill-rule="evenodd" clip-rule="evenodd" d="M7.08354 52.6398C6.94367 52.9232 6.3873 52.9818 6.29094 53.2912C5.29942 53.2 6.26608 52.4444 7.08354 52.6398Z" fill="#050505"/>
<path fill-rule="evenodd" clip-rule="evenodd" d="M46.7632 53.0731C47.3631 52.3044 47.5185 53.477 47.1611 53.5095C46.928 53.5356 46.6638 53.2034 46.7632 53.0731Z" fill="#050505"/>
<path fill-rule="evenodd" clip-rule="evenodd" d="M52.7152 53.0732C52.5411 53.3435 52.2085 53.5194 51.5278 53.5096C51.6988 53.2425 52.0345 53.0667 52.7152 53.0732Z" fill="#050505"/>
<path fill-rule="evenodd" clip-rule="evenodd" d="M26.5286 53.9461C26.9917 53.3631 28.6328 53.9233 28.1137 54.6008C26.8394 54.7929 27.2901 54.0373 26.5286 53.9461Z" fill="#050505"/>
<path fill-rule="evenodd" clip-rule="evenodd" d="M4.30786 53.946H5.10356V54.3825H4.30786V53.946Z" fill="#050505"/>
<path fill-rule="evenodd" clip-rule="evenodd" d="M6.29395 54.1643C7.49682 53.3599 7.63047 54.8288 6.29395 54.1643V54.1643Z" fill="#050505"/>
<path fill-rule="evenodd" clip-rule="evenodd" d="M35.6541 54.1643C36.6083 54.0763 36.5119 54.5649 37.634 54.3857C37.2983 54.7114 36.3565 54.7017 35.6541 54.8222V54.1643Z" fill="#050505"/>
<path fill-rule="evenodd" clip-rule="evenodd" d="M29.3044 55.6952C27.4146 55.1578 30.4171 54.5683 29.3044 55.6952V55.6952Z" fill="#050505"/>
<path fill-rule="evenodd" clip-rule="evenodd" d="M57.0791 55.6953C58.2354 55.3728 58.2354 56.6724 57.0791 56.35V55.6953Z" fill="#050505"/>
<path fill-rule="evenodd" clip-rule="evenodd" d="M53.5078 57.0046C53.9398 57.06 53.7751 57.4378 54.3004 57.4411C54.1294 58.0436 53.054 57.4509 53.5078 57.0046Z" fill="#050505"/>
<path fill-rule="evenodd" clip-rule="evenodd" d="M42.3957 57.2226C39.8594 56.9685 41.5285 57.887 42.3957 57.2226V57.2226Z" fill="#050505"/>
<path fill-rule="evenodd" clip-rule="evenodd" d="M5.89322 57.6588C5.82795 57.1866 7.29813 57.5611 7.87626 57.4406C7.81098 57.6914 7.96639 57.8282 8.27411 57.877C7.58719 58.5838 7.23286 57.3071 5.89322 57.6556V57.6588Z" fill="#050505"/>
<path fill-rule="evenodd" clip-rule="evenodd" d="M14.6243 57.8806C13.4214 58.6102 16.0913 58.5418 14.6243 57.8806V57.8806Z" fill="#050505"/>
<path fill-rule="evenodd" clip-rule="evenodd" d="M38.4267 58.3137C38.3335 58.698 37.746 58.812 36.8416 58.7502C37.1058 58.457 37.6932 58.3463 38.4267 58.3137Z" fill="#050505"/>
<path fill-rule="evenodd" clip-rule="evenodd" d="M42.797 58.5287C42.6385 58.1085 44.6028 58.216 43.9843 58.7502H43.1917C43.2663 58.5678 43.0394 58.545 42.7939 58.5287H42.797Z" fill="#050505"/>
<path fill-rule="evenodd" clip-rule="evenodd" d="M55.491 58.5288C56.1344 58.4702 56.1748 58.7372 56.6783 58.7503C56.8369 59.1769 54.8725 59.0727 55.491 58.5288Z" fill="#050505"/>
<path fill-rule="evenodd" clip-rule="evenodd" d="M58.2698 58.5287C59.6747 58.5547 57.4274 59.255 58.6676 59.1866C57.9993 59.9553 57.4958 58.6785 58.2698 58.5287Z" fill="#050505"/>
<path fill-rule="evenodd" clip-rule="evenodd" d="M15.8147 59.405C16.4146 58.6363 16.5669 59.8088 16.2126 59.8447C15.9764 59.8642 15.7122 59.5352 15.8147 59.405Z" fill="#050505"/>
<path fill-rule="evenodd" clip-rule="evenodd" d="M22.9543 59.1864H23.75V59.6228H22.9543V59.1864Z" fill="#050505"/>
<path fill-rule="evenodd" clip-rule="evenodd" d="M50.3376 59.1864C49.9335 59.548 48.6498 59.4242 47.9536 59.6229C47.5775 58.8347 49.517 59.32 50.3376 59.1864Z" fill="#050505"/>
<path fill-rule="evenodd" clip-rule="evenodd" d="M24.1446 59.405C24.4181 59.8415 26.5131 59.2682 26.1308 60.0597C25.4376 59.8578 23.9985 60.0662 24.1446 59.405Z" fill="#050505"/>
<path fill-rule="evenodd" clip-rule="evenodd" d="M35.654 59.8447C35.5981 60.8837 34.7557 60.1313 33.27 60.2779C33.671 59.9196 34.9547 60.0434 35.654 59.8447Z" fill="#050505"/>
<path fill-rule="evenodd" clip-rule="evenodd" d="M26.9234 60.2776C27.5108 60.4665 27.4953 60.9844 27.7128 61.3719C26.3825 61.5934 27.0974 60.6912 26.9234 60.2776Z" fill="#050505"/>
<path fill-rule="evenodd" clip-rule="evenodd" d="M22.5624 60.4958C22.9603 61.157 21.6766 60.8834 20.9741 60.9355C21.2352 60.6424 21.8227 60.5252 22.5624 60.4958Z" fill="#050505"/>
<path fill-rule="evenodd" clip-rule="evenodd" d="M59.4601 60.4959C59.858 61.1571 58.5774 60.8835 57.8718 60.9356C57.9682 60.5513 58.5525 60.4373 59.4601 60.4959Z" fill="#050505"/>
<path fill-rule="evenodd" clip-rule="evenodd" d="M2.72289 62.0269C1.51691 62.7629 4.18686 62.688 2.72289 62.0269V62.0269Z" fill="#050505"/>
<path fill-rule="evenodd" clip-rule="evenodd" d="M1.13455 63.1178C0.826837 63.3132 0.705616 63.6096 0.736699 63.9939C-0.509693 64.235 -0.313876 64.0949 -1.24634 63.7725C-0.49726 63.5314 0.146139 63.2285 1.13455 63.1178Z" fill="#050505"/>
<path fill-rule="evenodd" clip-rule="evenodd" d="M44.78 63.3393C46.3093 63.1667 46.3093 64.3848 44.78 64.2089V63.3393Z" fill="#050505"/>
<path fill-rule="evenodd" clip-rule="evenodd" d="M22.5626 63.7724C23.2712 63.7463 23.3987 64.0395 24.1446 63.9939C24.2721 64.3782 21.9254 64.3847 22.5626 63.7724Z" fill="#050505"/>
<path fill-rule="evenodd" clip-rule="evenodd" d="M1.13439 63.9939C1.77469 63.932 1.81509 64.1991 2.32484 64.2089C2.48336 64.6355 0.515862 64.5281 1.13439 63.9939Z" fill="#050505"/>
<path fill-rule="evenodd" clip-rule="evenodd" d="M9.07274 64.2091V64.6455C7.13321 64.8638 8.33609 63.4828 9.07274 64.2091Z" fill="#050505"/>
<path fill-rule="evenodd" clip-rule="evenodd" d="M22.1649 64.6486C22.6094 63.9451 23.2963 64.857 22.9575 65.3032H21.767C21.7204 65.0818 23.4796 64.8603 22.1649 64.6486Z" fill="#050505"/>
<path fill-rule="evenodd" clip-rule="evenodd" d="M1.13465 64.6488C1.54182 65.3849 -0.0993105 64.9875 -0.848389 65.0852C-0.789333 64.6097 0.152454 64.6195 1.13465 64.6488Z" fill="#050505"/>
<path fill-rule="evenodd" clip-rule="evenodd" d="M36.8415 64.8671C37.4166 64.9159 36.9814 65.5185 37.6372 65.5217C37.1897 66.2252 36.5058 65.3133 36.8415 64.8671Z" fill="#050505"/>
<path fill-rule="evenodd" clip-rule="evenodd" d="M56.6813 64.8665C57.2221 64.9349 57.0107 65.4137 57.0791 65.7394C56.2492 65.8306 56.0254 65.5896 55.4908 65.5179C55.3323 64.9968 57.2967 65.645 56.6782 64.8633L56.6813 64.8665Z" fill="#050505"/>
<path fill-rule="evenodd" clip-rule="evenodd" d="M34.4606 65.3032C34.8149 65.4726 35.3589 65.541 36.052 65.5214C36.1763 65.9058 33.8265 65.9123 34.4606 65.3032Z" fill="#050505"/>
<path fill-rule="evenodd" clip-rule="evenodd" d="M51.5278 65.7399H52.3204V66.1763H51.5278V65.7399Z" fill="#050505"/>
<path fill-rule="evenodd" clip-rule="evenodd" d="M2.72272 66.3945C3.29463 66.4466 2.85637 67.0459 3.5122 67.0524C3.12989 67.5931 1.98918 66.7528 0.736572 67.0524C1.06293 66.2708 2.12283 67.1404 2.71961 66.3945H2.72272Z" fill="#050505"/>
<path fill-rule="evenodd" clip-rule="evenodd" d="M30.4947 66.6125C31.4831 66.6451 30.6097 67.3519 30.4947 67.4854C29.3073 67.3421 30.8739 67.0197 30.4947 66.6125Z" fill="#050505"/>
<path fill-rule="evenodd" clip-rule="evenodd" d="M0.341883 67.0524C0.167824 67.3227 -0.164755 67.4986 -0.84856 67.4856C-1.03194 67.0231 -0.282866 67.0719 0.341883 67.0524Z" fill="#050505"/>
<path fill-rule="evenodd" clip-rule="evenodd" d="M13.4306 67.4855C13.3685 67.0132 14.8386 67.3878 15.4168 67.2705C15.4012 67.479 14.9319 67.4366 14.6211 67.4855C14.5496 67.6744 14.7765 67.6907 15.0189 67.707C15.0935 67.8926 14.8666 67.9122 14.6211 67.9219H13.8285C14.2729 67.6549 14.1766 67.4725 13.4306 67.4855Z" fill="#050505"/>
<path fill-rule="evenodd" clip-rule="evenodd" d="M57.4771 67.2704C57.303 67.5343 56.9704 67.7167 56.2866 67.7069C56.4607 67.4366 56.7933 67.2574 57.4771 67.2704Z" fill="#050505"/>
<path fill-rule="evenodd" clip-rule="evenodd" d="M55.0962 67.7037H55.8857V68.1402H55.0962V67.7037Z" fill="#050505"/>
<path fill-rule="evenodd" clip-rule="evenodd" d="M4.70597 67.9222C5.626 67.8571 6.22899 67.958 6.69211 68.1404C6.49008 68.5345 4.15892 68.984 4.70597 67.9222Z" fill="#050505"/>
<path fill-rule="evenodd" clip-rule="evenodd" d="M9.85615 67.9218C9.52357 68.2508 8.86463 68.3941 7.87622 68.3648C7.93528 67.886 8.87395 67.8925 9.85615 67.9218Z" fill="#050505"/>
<path fill-rule="evenodd" clip-rule="evenodd" d="M28.9096 67.922C29.3944 68.0197 29.7239 68.2021 29.7022 68.5767H28.5117C28.72 68.404 28.922 68.2249 28.9127 67.922H28.9096Z" fill="#050505"/>
<path fill-rule="evenodd" clip-rule="evenodd" d="M39.6234 68.3617C40.6087 68.4496 39.6452 69.2053 38.8308 69.0131C38.9676 68.7297 39.5271 68.6711 39.6234 68.3617Z" fill="#050505"/>
<path fill-rule="evenodd" clip-rule="evenodd" d="M23.3553 68.5765C24.2381 68.4593 23.921 68.9967 24.5458 69.013C24.3873 69.5536 22.7275 69.1823 23.3553 68.5765Z" fill="#050505"/>
<path fill-rule="evenodd" clip-rule="evenodd" d="M47.1606 68.5765C48.5438 68.381 47.8382 69.2898 47.5554 69.4526C47.0177 69.3842 47.229 68.9054 47.1606 68.5765Z" fill="#050505"/>
<path fill-rule="evenodd" clip-rule="evenodd" d="M22.1648 69.4528H22.9574V69.8892H22.1648V69.4528Z" fill="#050505"/>
<path fill-rule="evenodd" clip-rule="evenodd" d="M51.1269 69.4528C52.0842 69.6547 52.7432 70.0162 53.113 70.5471C51.6615 70.6872 51.5931 70.0748 50.3374 70.1074C50.4742 69.8208 51.0336 69.7687 51.13 69.4528H51.1269Z" fill="#050505"/>
<path fill-rule="evenodd" clip-rule="evenodd" d="M12.6411 69.671C14.2698 69.8925 13.5611 70.2735 14.2294 71.1985H13.0389C12.9643 71.0096 13.1943 70.9901 13.4337 70.9803C13.3715 70.7197 12.7126 70.7947 12.2463 70.7588C12.6939 70.0749 12.1313 70.1823 12.6442 69.6677L12.6411 69.671Z" fill="#050505"/>
<path fill-rule="evenodd" clip-rule="evenodd" d="M46.7629 69.6711C47.4622 69.7265 47.6705 70.0457 47.5555 70.544C46.7411 70.4137 45.905 70.1206 46.7629 69.6711Z" fill="#050505"/>
<path fill-rule="evenodd" clip-rule="evenodd" d="M55.8887 16.3894C56.1125 15.7543 56.5072 16.7216 57.0822 16.6043C56.6937 17.3274 56.2958 16.3601 55.8887 16.3894Z" fill="#050505"/>
<path fill-rule="evenodd" clip-rule="evenodd" d="M13.4307 17.4771C14.7019 17.6269 11.9139 19.1642 12.2433 18.1317C13.3095 18.2783 13.0111 17.679 13.4307 17.4771Z" fill="#050505"/>
<path fill-rule="evenodd" clip-rule="evenodd" d="M12.243 24.0303C11.1675 24.1769 14.3255 23.7404 12.243 24.0303V24.0303Z" fill="#050505"/>
<path fill-rule="evenodd" clip-rule="evenodd" d="M2.72267 32.7622C1.76845 32.6775 2.94335 33.7556 1.53223 33.4201C1.98913 33.1596 1.97981 32.645 1.93008 32.1076C3.3412 31.7656 2.16941 32.8502 3.12052 32.7622C3.04592 33.0098 2.72578 32.8827 2.72578 32.7622H2.72267Z" fill="#050505"/>
<path fill-rule="evenodd" clip-rule="evenodd" d="M43.9844 34.2931C45.5696 34.0782 45.181 34.9445 46.7631 34.7296C46.6357 35.4363 44.3325 34.7817 43.9844 34.2931Z" fill="#050505"/>
<path fill-rule="evenodd" clip-rule="evenodd" d="M53.113 38.4426C53.113 38.4426 52.7151 38.4557 52.7151 38.4426C52.4975 37.2864 54.2133 40.6249 53.113 38.4426Z" fill="#050505"/>
<path fill-rule="evenodd" clip-rule="evenodd" d="M30.8928 47.6111C31.2626 47.7739 31.4958 48.0084 31.6885 48.269C31.5175 48.8194 30.8337 47.9075 30.8928 47.6111Z" fill="#050505"/>
<path fill-rule="evenodd" clip-rule="evenodd" d="M2.32497 52.8514C2.77255 52.897 2.54876 53.0729 2.32497 53.0697C2.2597 53.3237 2.412 53.4605 2.72282 53.5061C2.7166 53.8416 0.84857 53.4019 0.341932 53.2911C0.161656 52.6853 2.50524 53.4638 2.32497 52.8514Z" fill="#050505"/>
<path fill-rule="evenodd" clip-rule="evenodd" d="M15.0219 60.4958C14.6178 61.0039 14.2262 61.5153 13.0388 61.5902C13.1756 60.9355 14.1049 60.7206 15.0219 60.4958Z" fill="#050505"/>
<path fill-rule="evenodd" clip-rule="evenodd" d="M13.4306 65.5181C12.2619 65.2054 14.3568 65.352 13.8284 65.9578C13.5207 66.3551 13.4026 65.8275 13.4306 65.5181Z" fill="#050505"/>
<path fill-rule="evenodd" clip-rule="evenodd" d="M7.87913 65.7397C8.00035 66.3162 7.05235 66.3031 6.29395 66.3943C6.91869 66.2282 6.88761 65.7038 7.87913 65.7397Z" fill="#050505"/>
<path fill-rule="evenodd" clip-rule="evenodd" d="M55.0962 66.1763C55.2641 66.7821 53.6167 66.3815 53.5079 66.831C52.5941 66.6421 54.515 65.6064 55.0962 66.1763Z" fill="#050505"/>
<path fill-rule="evenodd" clip-rule="evenodd" d="M7.08377 68.7979C6.85998 69.6154 6.15752 70.1788 4.70288 70.3254C5.23128 69.6707 5.97103 69.1268 7.08377 68.7979Z" fill="#050505"/>
<path fill-rule="evenodd" clip-rule="evenodd" d="M0.736764 69.671C0.615544 69.9674 -0.257862 69.8534 -0.85153 69.8892C-0.963425 69.5374 -0.478545 69.5114 -0.456787 69.2313C-0.792474 69.1922 -0.829772 69.3192 -0.85153 69.4495C-1.42966 68.6743 -0.10556 69.4625 0.736764 69.6677V69.671Z" fill="#050505"/>
<path fill-rule="evenodd" clip-rule="evenodd" d="M38.0351 46.9565C37.0964 47.5852 35.7878 46.7416 34.8585 47.178C35.8904 46.6048 34.2182 47.0054 34.4606 46.3019C35.4459 45.9729 38.7562 45.9827 37.6341 46.7383V46.9533H38.032L38.0351 46.9565Z" fill="#050505"/>
</mask>
<g mask="url(#mask0_2071_6167)">
<path d="M19.7809 34.789C21.0428 34.2907 22.3483 34.4242 23.6724 34.5675C24.4246 34.6489 25.0959 35.0398 25.7891 35.3264C26.4729 35.6098 27.1691 35.6716 27.8964 35.7238C28.6828 35.7824 28.6797 34.4959 27.8964 34.4372C27.0448 34.3754 26.3734 34.1962 25.5839 33.8477C24.8784 33.535 24.2039 33.3136 23.4393 33.2647C22.0437 33.1735 20.7849 33.0204 19.4545 33.5481C18.7241 33.8379 19.0411 35.0789 19.7809 34.7857V34.789Z" fill="#3E5EF2"/>
<path d="M33.79 35.9161C34.8716 35.991 35.9688 35.8249 37.0349 35.6262C37.5882 35.5252 38.1135 35.4406 38.6761 35.4894C39.0491 35.522 39.7702 35.6523 40.0126 35.978C40.5006 36.6294 41.3616 35.7141 40.8798 35.0693C40.5845 34.6719 40.081 34.5481 39.6427 34.3885C39.0584 34.1768 38.3808 34.1475 37.7685 34.2094C36.4319 34.3495 35.142 34.724 33.7869 34.6296C33.0005 34.5742 33.0036 35.8607 33.7869 35.9161H33.79Z" fill="#3E5EF2"/>
<path d="M27.912 37.4045C27.4987 37.3491 27.1599 36.9908 26.8148 36.7824C26.4885 36.5837 26.1124 36.4339 25.7487 36.3329C25.6213 36.2971 25.4876 36.2678 25.3478 36.2417C24.636 35.9388 23.9522 35.8769 23.1627 35.8151C21.8448 35.7108 19.9612 36.2515 19.0568 37.3393C18.5408 37.9614 19.4049 38.8734 19.9239 38.2481C20.0141 38.1406 20.1136 38.0526 20.2192 37.9679C20.2907 38.0331 20.3809 38.0819 20.5052 38.1015C20.7787 38.1438 21.0616 38.2025 21.2263 38.463C21.2325 38.4695 21.2356 38.4793 21.2387 38.4858C21.2325 38.6161 21.2325 38.7464 21.2387 38.8799C21.2885 39.9417 22.0997 40.2283 22.9296 40.1078C23.5792 40.1632 24.2972 39.945 24.7323 39.5899C25.1706 39.2317 25.7052 38.6422 25.7239 38.0135C25.7239 37.9647 25.7239 37.9158 25.7176 37.867C25.8233 37.9256 25.929 37.981 26.0347 38.0396C26.6874 38.3783 27.1816 38.6194 27.912 38.6943C28.7046 38.7757 28.6767 37.512 27.912 37.4077V37.4045ZM23.8341 38.2774C23.6693 38.2969 23.5015 38.2774 23.2466 38.2481C23.1969 38.2415 23.0943 38.2155 23.0259 38.2057C23.0663 38.0982 23.1068 37.8702 23.1689 37.8116C23.3492 37.6455 23.9118 37.766 24.1169 37.8312C24.12 37.8312 24.1356 37.8377 24.1604 37.8442C24.0579 38.0103 23.9522 38.1569 23.8341 38.2806V38.2774Z" fill="#3E5EF2"/>
<path d="M40.8422 38.2415C40.1367 38.1373 39.5679 37.5022 38.8623 37.3068C38.7566 37.2775 38.6447 37.2547 38.5297 37.2319C37.9299 36.9778 37.3424 36.9192 36.6804 36.8671C35.4992 36.7759 33.8985 37.2351 33.0748 38.1894C32.5464 38.8017 33.4105 39.7137 33.942 39.0981C33.998 39.033 34.0601 38.9711 34.1223 38.9125C34.1845 38.9516 34.2591 38.9841 34.3492 38.9972C34.688 39.0493 34.8061 39.1633 34.9025 39.3489C34.9025 39.4499 34.9025 39.5509 34.9118 39.6551C34.9802 40.5638 35.6982 40.7983 36.4068 40.7104C37.0347 40.7722 37.734 40.528 38.1599 40.1404C38.5049 39.8245 38.881 39.3554 38.9058 38.8539C38.9804 38.8962 39.0519 38.9353 39.1265 38.9744C39.6736 39.261 40.0776 39.4401 40.6868 39.502C41.3675 39.5704 41.5354 38.3425 40.8485 38.2383L40.8422 38.2415ZM37.187 38.9744C37.1342 38.9744 37.0627 38.9679 36.957 38.9581C36.8482 38.9483 36.7363 38.932 36.6275 38.9255C36.671 38.8962 36.6835 38.7464 36.7518 38.704C36.8327 38.6552 37.1155 38.7138 37.2119 38.7268C37.2647 38.7334 37.3144 38.7431 37.3548 38.7529C37.3051 38.8343 37.2492 38.9092 37.1839 38.9776L37.187 38.9744Z" fill="#3E5EF2"/>
<path d="M29.7553 38.235C29.7366 38.5835 29.746 38.9417 29.6869 39.287C29.6216 39.6681 29.4382 39.9905 29.2891 40.339C29.0062 41.0034 28.8259 41.707 28.5244 42.3616C28.2105 43.0456 27.3962 44.052 27.8966 44.8207C28.0458 45.0487 28.3193 45.2083 28.5897 45.1171C28.6612 45.091 28.7358 45.0682 28.8073 45.0421C29.2859 44.8793 29.3263 44.3093 29.0932 43.9901C29.1088 43.9413 29.1274 43.8924 29.1492 43.8533C29.2269 43.697 29.3201 43.5472 29.4009 43.3908C29.6589 42.8958 29.8703 42.3681 30.0443 41.834C30.2464 41.2249 30.5417 40.6647 30.7561 40.0622C30.9644 39.4824 30.9457 38.8473 30.9799 38.235C31.0265 37.4077 29.7988 37.4109 29.7522 38.235H29.7553Z" fill="#3E5EF2"/>
<path d="M26.2989 52.8199C28.027 52.9958 29.6402 53.8817 31.1104 52.4355C31.6854 51.8688 30.8182 50.9601 30.2432 51.5268C29.1895 52.5658 27.5391 51.6604 26.2989 51.5366C25.5125 51.4584 25.5187 52.7417 26.2989 52.8231V52.8199Z" fill="#3E5EF2"/>
<path d="M39.0673 17.9628C38.5079 17.5687 37.9235 17.2105 37.3236 16.9629C36.8481 16.7675 36.3228 16.5297 35.8162 16.4516C35.2287 16.3604 34.6102 16.3571 34.0134 16.3083C33.3855 16.2562 32.7763 16.3539 32.1516 16.3148C31.561 16.2757 31.0047 16.2431 30.4141 16.3311C29.2578 16.5037 28.1513 16.9369 27.0013 17.1518C26.4946 17.2463 26.0284 17.4319 25.5373 17.5948C25.2047 17.7055 24.8659 17.7837 24.5271 17.8684C19.7219 15.1357 15.3051 13.2727 11.7431 12.4813C7.79567 11.6019 5.00139 12.0904 3.65553 13.8883C2.89402 14.9077 2.60807 16.2627 2.80699 17.9205C3.24525 21.5716 6.02399 26.493 10.391 31.7238C11.2116 32.7041 11.0966 34.2024 10.1486 35.0459C2.56455 41.7847 -0.991237 48.0447 0.95761 51.6503C1.96156 53.51 4.30515 54.4611 7.7335 54.4578C9.38707 54.4578 11.2924 54.2363 13.4215 53.7901C15.2833 53.3993 17.2602 52.8488 19.3147 52.1583C19.5696 52.5003 19.8369 52.8293 20.0607 53.1941C20.3653 53.6859 20.6295 54.194 20.9962 54.6435C21.3412 55.0636 21.7204 55.4675 22.081 55.8714C22.1245 55.9202 22.168 55.9626 22.2115 56.0082C22.3172 56.2427 22.3794 56.5814 22.4478 56.7475C22.656 57.2621 22.914 57.7572 23.2994 58.1513C23.6351 58.4933 24.0267 58.7343 24.4494 58.9395C24.8784 59.1447 25.298 59.4313 25.7425 59.5909C26.2118 59.7602 26.6998 59.7146 27.1878 59.7505C27.7379 59.7928 28.2632 59.9785 28.8196 60.0045C30.01 60.0599 31.2564 59.8873 32.3629 59.415C34.4517 58.5258 36.4564 57.1058 38.1877 55.6043C38.5918 55.2525 38.9554 54.8617 39.3036 54.4578C40.609 55.0799 41.8803 55.6238 43.1111 56.0863C46.1634 57.2328 48.7898 57.806 50.9003 57.806C53.132 57.806 54.7855 57.1644 55.7429 55.8811C57.1695 53.9725 56.9085 50.8751 54.9876 46.921C53.6573 44.1786 51.5872 41.1203 48.9173 37.9349C48.1433 37.0132 48.2521 35.6029 49.1473 34.8114C54.2696 30.2744 57.757 25.7927 58.7143 22.223C59.1433 20.6206 59.0531 19.2363 58.447 18.1159C56.4453 14.4127 49.2063 14.3573 39.0611 17.9628H39.0673ZM19.6473 50.3865C18.5345 48.416 17.8103 46.1491 17.1825 43.9637C16.8499 42.8139 16.567 41.6903 16.5608 40.4819C16.5577 39.7751 16.6043 39.0684 16.6416 38.3616C18.6029 40.2376 20.7196 42.1007 22.9637 43.9083C24.552 45.1883 26.1558 46.4032 27.7566 47.5431C25.0742 48.8329 22.4384 49.9338 19.9115 50.8262C19.8182 50.6797 19.7281 50.5331 19.6442 50.3833L19.6473 50.3865ZM13.4526 33.6291C13.9033 33.2643 14.3633 32.9028 14.8358 32.5413C14.8544 32.6944 14.8762 32.8442 14.8979 32.9973C14.4876 33.1634 14.0929 33.5868 13.8442 33.9744C13.8349 33.9907 13.8256 34.0069 13.8163 34.0232C13.695 33.8929 13.5707 33.7627 13.4526 33.6291ZM34.5915 43.9148C33.5099 44.5467 32.4282 45.1492 31.3466 45.7257C31.2378 45.6345 31.101 45.5694 30.958 45.5759C30.9052 45.5824 30.8492 45.5922 30.7964 45.5987C30.6938 45.628 30.6037 45.6834 30.526 45.7648C30.4358 45.8462 30.3426 45.9309 30.2525 46.0123C30.181 46.0775 30.1281 46.1817 30.1002 46.2859C29.9479 46.3283 29.7924 46.3576 29.6401 46.3804C29.6401 46.3674 29.6401 46.3511 29.6401 46.338C29.6401 45.9635 29.3573 45.7257 29.0278 45.6964C28.7512 45.6704 28.257 45.628 28.0643 45.3609C27.8654 45.0841 27.5359 44.9408 27.2251 45.1297C27.0666 45.2274 26.9453 45.4326 26.9205 45.6378C25.8077 44.8138 24.695 43.9572 23.5916 43.068C21.133 41.0877 18.8143 39.0325 16.682 36.9513C16.682 36.922 16.682 36.8959 16.682 36.8666C16.6603 35.7951 16.4582 34.743 16.2624 33.691C16.1599 33.1308 16.0573 32.5739 16.0076 32.0071C15.9547 31.4209 16.0293 30.8411 15.9951 30.2581C15.9796 30.0073 15.9423 29.763 15.9081 29.5188C15.9019 29.2484 15.8832 28.9748 15.8584 28.7045C15.8801 28.2485 15.9298 27.8088 15.9454 27.3594C15.9703 27.3789 15.9951 27.3984 16.02 27.4212C16.5142 27.8675 17.0022 28.2029 17.6083 28.5058C18.2703 28.8348 18.8889 29.0335 19.6006 29.1833C20.3653 29.3429 21.1361 29.4894 21.8758 29.7402C23.2621 30.2125 24.8504 30.0757 26.2957 30.2451C27.8747 30.4275 29.4226 30.2972 30.9891 30.0334C31.7071 29.9129 32.3847 29.8119 33.112 29.7956C33.3762 29.7891 33.6373 29.7533 33.8984 29.7077C34.6475 29.7598 35.3934 29.7924 36.1549 29.75C37.3982 29.6816 38.6695 29.6458 39.8195 29.0856C40.3044 28.8511 40.7582 28.5514 41.2275 28.2876C41.9114 28.128 42.5579 27.887 43.1857 27.4668C43.6613 27.1476 44.1368 26.8252 44.5968 26.4767C44.6932 26.8415 44.8424 27.1998 44.945 27.5222C45.032 27.7925 45.1221 28.0726 45.2092 28.3625C45.2434 28.6459 45.2682 28.9325 45.2869 29.2256C45.377 30.6327 45.234 31.9811 45.1252 33.3816C45.119 33.4467 45.1252 33.5054 45.1346 33.5575C45.0973 33.7138 45.06 33.8669 45.0165 34.0232C44.8797 34.5281 44.6963 35.0134 44.5347 35.5117C44.4601 35.7397 44.4477 35.9612 44.3917 36.1891C44.3171 36.4921 44.1337 36.6842 43.9752 36.9448C43.7545 37.3096 43.5898 37.6906 43.453 38.0815C40.7271 40.1106 37.7464 42.0746 34.5915 43.9148ZM24.8659 19.2689C24.8659 19.2689 24.8659 19.2494 24.8722 19.2363C25.0897 19.1777 25.3104 19.5295 25.4627 19.7281C25.5311 19.8193 25.6088 19.9236 25.6834 20.0408C25.6399 20.246 25.6337 20.4707 25.643 20.7215C25.643 20.8095 25.6648 20.8876 25.6927 20.956C25.2576 21.0668 24.897 21.3339 24.5893 21.6921C24.1759 22.1742 23.7967 22.7181 23.6071 23.3076C23.4641 23.2783 23.2994 23.2881 23.1067 23.35C22.9948 23.3858 22.8953 23.4379 22.8021 23.4965C22.7057 23.3923 22.5783 23.3174 22.4136 23.2978C22.2022 23.2718 22.2364 22.4934 22.2302 22.3696C22.2115 21.9364 22.2053 21.6433 22.5565 21.3795C23.1409 20.9365 23.8806 20.6825 24.3717 20.1027C24.4215 20.0408 24.4588 19.9789 24.4867 19.9138C24.6639 19.7477 24.8038 19.5425 24.8659 19.2722V19.2689ZM30.268 24.0144C30.2991 24.3889 30.3519 24.6267 30.2152 24.8026C29.8608 24.8775 29.5096 24.9557 29.1677 25.0306C28.9657 25.0762 28.7636 25.1185 28.5585 25.1641C28.6113 25.0143 28.6051 24.8319 28.5025 24.6365C28.4093 24.4541 28.3005 24.2847 28.1886 24.1219C27.8467 23.4672 27.6136 22.6562 27.5235 21.9787C27.5204 21.9462 27.5172 21.9136 27.5204 21.881C27.6975 21.8061 27.8623 21.7052 28.0083 21.5586C28.0394 21.5846 28.0705 21.6107 28.0985 21.6368C28.1606 21.7247 28.2446 21.7964 28.344 21.842C28.5958 22.0439 28.8631 22.2295 29.1708 22.3663C29.4474 22.4901 29.8795 22.5162 30.1188 22.6888C30.4172 22.9037 30.2369 23.6398 30.2711 24.0144H30.268ZM33.1928 27.7665C33.0903 27.9717 33.0467 28.1801 33.053 28.3755C32.2262 28.3137 31.4087 28.2746 30.5664 28.3104C29.4754 28.356 28.3813 28.1638 27.281 28.2029C27.0199 28.2127 26.7588 28.2192 26.4946 28.229C26.5941 28.0108 26.6718 27.7795 26.7184 27.545C27.0697 27.5157 27.3618 27.1965 27.7504 27.0662C28.4466 26.8317 29.1459 26.594 29.8484 26.3822C30.0877 26.3106 30.3364 26.2292 30.5695 26.1184C30.8896 26.05 31.2098 25.9653 31.5237 25.8807C31.7133 25.8286 31.9962 25.7439 32.1951 25.796C32.4686 25.8676 32.6582 26.1901 32.8758 26.379C33.0996 26.5744 33.3389 26.7503 33.5658 26.9392C33.6311 26.9946 33.7274 27.1118 33.8145 27.19C33.715 27.2388 33.628 27.2877 33.6093 27.2975C33.4291 27.4115 33.283 27.5776 33.1866 27.773L33.1928 27.7665ZM20.1912 27.76C20.1104 27.7404 20.0296 27.7241 19.9519 27.7079C19.9519 27.7046 19.9519 27.7013 19.9519 27.6981C19.9457 27.1867 19.9798 26.7959 20.2378 26.4767C20.5704 26.4637 20.847 26.278 21.0522 26.0109C21.4096 25.9784 21.7391 26.1347 22.1494 26.05C22.5907 25.9621 22.8953 25.6396 23.0912 25.2358C23.1533 25.1088 23.2559 24.9264 23.2808 24.7896C23.2901 24.783 23.2963 24.7733 23.3056 24.7668C23.374 25.6559 23.9179 26.4083 24.7292 26.6624C24.8286 26.6949 24.9374 26.708 25.0431 26.7242C25.0711 26.7503 25.1022 26.7731 25.127 26.7991C25.2296 26.8969 25.3228 26.9946 25.4068 27.1086C25.4192 27.1281 25.4316 27.1411 25.441 27.1476C25.4192 27.1476 25.385 27.1574 25.3353 27.1867C24.8939 27.4636 24.1604 27.6981 23.9117 28.2257C22.656 28.1801 21.4065 28.0531 20.1943 27.7567L20.1912 27.76ZM18.404 27.2877C17.9067 27.0304 17.4094 26.6851 16.9773 26.3204C16.5857 25.9881 16.3308 25.5778 16.1132 25.1055C16.0604 24.9882 15.992 24.8645 15.933 24.7407C15.9485 24.5225 15.9703 24.3075 16.0013 24.0991C16.0417 24.0632 16.079 24.0242 16.1194 23.9818C16.2811 24.086 16.4924 24.1056 16.7069 23.959C17.0488 23.7245 17.7761 23.832 18.1149 24.047C18.5345 24.314 18.8422 25.0827 19.1064 25.5094C19.1499 25.5778 19.1872 25.6462 19.2277 25.7146C19.2152 25.7308 19.2028 25.7439 19.1904 25.7602C18.808 26.2617 18.7397 26.8219 18.7303 27.4245C18.6216 27.3854 18.5159 27.3431 18.4102 27.2877H18.404ZM19.265 21.3143C19.4017 21.3306 19.5323 21.3208 19.6597 21.298C19.7498 21.5651 19.8306 21.8354 19.9457 22.0927C20.2751 22.8321 20.5113 23.49 20.3653 24.3205C20.3342 24.4997 20.2347 24.7147 20.1943 24.9068C20.1508 24.8417 20.1135 24.7863 20.1042 24.7733C19.7809 24.2717 19.5229 23.6854 19.1126 23.2555C18.7552 22.8777 18.1802 22.6334 17.5927 22.5585C17.6735 22.4934 17.7544 22.425 17.829 22.3533C18.2703 21.9364 18.6651 21.4316 19.2681 21.3111L19.265 21.3143ZM25.528 22.4934C25.528 22.4934 25.528 22.4999 25.528 22.5031C25.8357 23.4151 26.6159 24.0567 27.1629 24.8384C27.2437 24.9915 27.3339 25.1413 27.4395 25.2879C27.4644 25.3205 27.4924 25.353 27.5172 25.3791C27.0852 25.4312 26.6625 25.4182 26.2211 25.4833C26.1185 25.4996 26.0129 25.5745 25.9289 25.669C25.8233 25.6201 25.7083 25.581 25.5933 25.5484C25.5777 25.5452 25.5591 25.5387 25.5435 25.5354C25.4037 25.4117 25.2731 25.2879 25.1674 25.1641C24.7789 24.7016 24.5396 24.1219 24.8131 23.5421C24.9623 23.2229 25.2141 22.7897 25.5218 22.4934H25.528ZM35.6825 28.0857C35.3903 28.1117 35.1013 28.1215 34.8091 28.1345C34.8495 28.1085 34.8837 28.0857 34.8961 28.0759C35.1634 27.8642 35.3219 27.558 35.2847 27.203C35.1945 26.3562 34.203 25.8904 33.6591 25.3889C33.5627 25.2977 33.4695 25.2162 33.3824 25.1381C33.3638 24.757 33.2146 24.4508 32.997 24.1772C33.0032 24.1772 33.0126 24.1707 33.0188 24.1675C33.3078 24.1675 33.5969 24.1675 33.8829 24.1838C34.6568 24.2261 34.9645 24.9785 35.3095 25.5973C35.6856 26.2748 36.2078 27.3528 36.9569 27.7665C36.7517 27.8642 36.5435 27.9554 36.3228 28.0108C36.2389 28.0303 36.1518 28.0498 36.0679 28.0661C35.9249 28.0726 35.7944 28.0759 35.6825 28.0857ZM37.5878 24.871C37.1744 24.3955 36.7921 23.9004 36.587 23.2653C36.4223 22.7604 36.3135 22.2361 35.7757 22.0341C35.4121 21.8973 35.0329 22.0341 34.6723 22.1742C34.5449 22.1872 34.433 22.2328 34.3398 22.3045C34.3211 22.311 34.2994 22.3175 34.2807 22.3272C33.9606 22.438 33.6404 22.5552 33.3234 22.679C33.1804 22.7344 32.938 22.7897 32.7142 22.8647C32.5681 22.8712 32.4251 22.8777 32.2852 22.8842C32.3505 22.8549 32.4158 22.8288 32.4842 22.806C32.6924 22.7279 32.9038 22.666 33.1151 22.6041C33.5565 22.4738 34.0134 22.3468 34.4206 22.1155C34.806 21.8973 35.1075 21.5977 35.3002 21.184C35.3126 21.1547 35.322 21.1254 35.3344 21.0961C35.4432 21.1873 35.5489 21.2687 35.5737 21.285C35.8659 21.4837 36.2233 21.7833 36.5404 21.9266C36.7921 22.0406 37.0346 21.9592 37.277 22.0243C37.5568 22.0993 37.3889 21.8973 37.5692 22.197C37.793 22.5683 37.8831 23.034 38.1193 23.4184C38.1349 23.4444 38.1597 23.477 38.1877 23.5161C38.166 23.8418 38.1473 24.1805 38.1939 24.4801C38.1256 24.4997 38.0572 24.516 37.995 24.529C37.7774 24.5779 37.6469 24.7081 37.5878 24.871ZM31.7009 21.1547C31.4802 21.3827 31.4149 21.3436 31.1694 21.4544C31.0388 21.513 30.9301 21.5521 30.8275 21.627C30.4794 21.4153 30.0629 21.3501 29.6806 21.2036C29.982 20.9365 30.3333 20.6727 30.6783 20.487C31.0606 20.2786 32.2355 19.9594 32.4002 20.5587C32.136 20.715 31.9309 20.9104 31.6978 21.1547H31.7009ZM27.3991 18.6045C27.3991 18.6045 27.3929 18.598 27.3898 18.5947C27.4116 18.5914 27.4302 18.5882 27.452 18.5817C27.4333 18.5882 27.4178 18.598 27.3991 18.6045ZM39.9159 27.2128C39.633 27.2454 39.3533 27.2682 39.0704 27.291C38.999 26.7796 38.7503 26.2683 38.4737 25.9035C38.4364 25.8546 38.3991 25.8058 38.3587 25.7569C38.5234 25.7178 38.6912 25.6592 38.856 25.581C38.9554 25.708 39.1046 25.7927 39.3098 25.7895C39.7978 25.783 40.2889 25.7374 40.78 25.7504C41.2617 25.7634 41.5384 25.9263 41.9766 26.0793C42.5734 26.291 43.0521 26.0696 43.3505 25.4996C43.5867 25.0501 43.8011 24.5388 43.9472 24.0209C44.0871 24.2131 44.2487 24.3824 44.4321 24.5127C44.4725 24.542 44.516 24.5616 44.5627 24.5779C44.2705 24.9654 43.9379 25.327 43.5618 25.6201C42.7319 26.265 41.6876 26.6005 40.7582 27.0825C40.4816 27.1346 40.2018 27.1737 39.9159 27.2095V27.2128ZM41.958 22.2067C41.7342 22.5064 41.557 22.8581 41.442 23.2034C41.3736 23.4053 41.3208 23.6235 41.2928 23.8418C40.9696 23.8613 40.665 23.9395 40.3417 24.0111C40.149 24.0535 39.9563 24.0828 39.7605 24.0991C39.7201 23.7864 39.5864 23.4998 39.4248 23.2197C39.431 23.0764 39.4341 22.9331 39.431 22.793C39.5771 22.5683 39.5988 22.2589 39.3595 22.0081C39.344 21.9918 39.3253 21.9722 39.3129 21.9527C39.2538 21.7573 39.1761 21.5651 39.0922 21.3762C39.0394 21.1319 39.0083 20.8714 38.943 20.6759C38.9026 20.5489 38.8622 20.4251 38.8156 20.3046C38.8684 20.2753 38.9244 20.246 38.9834 20.22C40.034 20.7769 41.0317 21.4413 41.9549 22.2035L41.958 22.2067ZM37.333 19.7803C37.3205 19.8356 37.3112 19.8943 37.305 19.9496C37.2584 19.992 37.2117 20.031 37.162 20.0669C36.9165 20.2493 36.7113 20.1646 36.4409 20.1092C36.4596 19.7737 36.2637 19.4187 35.8535 19.409C35.7695 19.409 35.6887 19.409 35.6048 19.4187C35.4059 19.0963 35.0919 18.8455 34.7625 18.6305C35.1572 18.7217 35.5551 18.8292 35.9467 18.953C36.4627 19.1158 36.9755 19.3015 37.4759 19.5099C37.4076 19.5816 37.3547 19.6728 37.3299 19.7803H37.333ZM32.2759 18.256C32.481 18.409 32.7173 18.5035 32.9007 18.6859C33.1244 18.9074 33.2581 19.1712 33.5254 19.3601C33.6777 19.4676 34.0569 19.6239 34.3211 19.8128C34.0662 19.9236 33.8083 20.018 33.5503 20.106C33.4446 19.7803 33.2643 19.4741 33.0312 19.2689C32.6302 18.9106 32.077 18.9595 31.5828 18.9921C31.0015 19.0279 30.4887 19.1191 29.9758 19.4285C29.6774 19.6076 29.3791 19.8324 29.1024 20.0441C29.0434 20.0897 28.9812 20.1548 28.9159 20.22C28.8165 19.8226 28.3036 19.5164 27.8964 19.8421C27.884 19.8324 27.8716 19.8226 27.8591 19.8128C28.2104 19.6663 28.5771 19.549 28.9066 19.3601C29.1895 19.194 29.4132 18.9627 29.5997 18.6892C29.6806 18.5719 29.7583 18.4123 29.8453 18.2592C30.6565 18.2006 31.4647 18.2006 32.2697 18.2592L32.2759 18.256ZM15.3921 42.6706C15.4046 42.397 15.4139 42.1202 15.4201 41.8433C15.4916 42.4036 15.6004 42.967 15.734 43.5272C15.5848 43.3741 15.4667 43.2178 15.3735 43.0322C15.3797 42.9116 15.3859 42.7911 15.3921 42.6739V42.6706ZM15.4481 37.5376C15.4294 38.3714 15.3579 39.2052 15.3362 40.039C15.3082 39.8403 15.274 39.6449 15.2305 39.4527C14.9818 38.4104 14.6462 37.4073 14.5778 36.3325C14.8637 36.6223 15.1528 36.9155 15.445 37.2053C15.445 37.3161 15.445 37.4268 15.445 37.5408L15.4481 37.5376ZM14.8824 35.1469C14.9352 35.0394 14.985 34.9319 15.0347 34.8245C15.072 34.7267 15.1155 34.6355 15.1652 34.5444C15.2274 34.8994 15.2833 35.2511 15.33 35.6061C15.1808 35.4531 15.0316 35.3 14.8824 35.1469ZM25.2887 49.8459C25.1799 49.9208 25.0711 49.9989 24.9623 50.0641C24.6919 50.2334 24.493 50.2823 24.2567 50.2856C24.5986 50.1423 24.9405 49.9924 25.2855 49.8426L25.2887 49.8459ZM26.9049 49.1195C28.0581 48.5886 29.3884 48.6896 30.4514 49.3931C30.4949 49.4224 30.5384 49.4485 30.5788 49.4778C30.5011 49.455 30.4203 49.4355 30.3271 49.4224C29.9075 49.3606 29.4754 49.3085 29.0682 49.4583C28.9097 49.5169 28.745 49.6863 28.5865 49.7221C28.2974 49.7872 28.2508 49.6635 28.0052 49.5267C27.6198 49.3182 27.1163 49.2042 26.6438 49.2368C26.7309 49.1977 26.8148 49.1586 26.9018 49.1195H26.9049ZM29.8297 47.706C31.5766 46.8233 33.3358 45.869 35.0888 44.8463C37.8862 43.2146 40.5313 41.4916 42.9744 39.7295C42.6946 40.7783 42.5952 41.8987 42.418 42.967C42.2439 44.0288 42.3279 45.0841 42.0947 46.1394C42.0295 46.4423 41.958 46.7517 41.8865 47.0644C41.7186 47.2924 41.5601 47.5269 41.4203 47.7646C41.2182 48.1131 41.1219 48.5137 40.9571 48.8818C40.7769 49.2889 40.5096 49.6309 40.2454 49.9794C39.7698 50.6047 39.3595 51.2529 39.058 51.9922C39.0363 52.0476 39.0114 52.103 38.9865 52.1583C38.9306 52.2007 38.8777 52.2561 38.8342 52.3245C38.7161 52.5036 38.598 52.6827 38.4799 52.8586C35.6918 51.4516 32.7763 49.7091 29.8329 47.6995L29.8297 47.706ZM43.5587 43.752C43.596 43.169 43.739 42.6022 43.8074 42.0225C43.8851 41.3548 43.9939 40.648 44.1741 40.0031C44.3016 39.5406 44.3917 39.026 44.5533 38.5668C44.8952 38.3095 45.2309 38.0489 45.5635 37.7916C45.5169 38.1499 45.4547 38.5179 45.349 38.8567C45.2278 39.254 44.9574 39.5341 44.7771 39.8956C44.5937 40.2604 44.4694 40.6676 44.3171 41.0454C44.0001 41.8336 43.7545 42.5892 43.7141 43.4491C43.6924 43.9441 43.7234 44.4718 43.5214 44.931C43.5214 44.9375 43.5152 44.944 43.5121 44.9473C43.5307 44.5467 43.5338 44.1461 43.5587 43.7487V43.752ZM9.69167 29.1833C6.26021 24.7407 4.17771 20.6922 3.82649 17.7837C3.66175 16.419 3.87622 15.3312 4.46367 14.543C6.58657 11.6996 13.8442 13.1783 23.1129 18.282C22.8705 18.3439 22.6311 18.409 22.3918 18.4709C22.3296 18.4188 22.2582 18.3797 22.1867 18.37C21.5619 18.269 21.046 18.4612 20.5704 18.8943C20.5455 18.9171 20.5238 18.9367 20.4958 18.9562C20.415 18.9758 20.3311 18.9986 20.2503 19.0181C19.6442 19.1647 19.0381 19.334 18.4537 19.5457C17.7606 19.3406 17.2042 19.7737 16.7193 20.3502C16.71 20.3633 16.6976 20.373 16.6882 20.3861C15.7775 20.956 15.0036 21.728 14.4783 22.8191C14.4783 22.8256 14.4721 22.8321 14.469 22.8386C14.4503 22.8516 14.4286 22.8679 14.4099 22.8842C13.8473 23.3825 13.9561 24.1382 13.8815 24.8286C13.8598 25.0371 13.9282 25.1934 14.0401 25.2944C14.0929 25.555 14.1582 25.8123 14.2328 26.0728C14.267 26.2878 14.3043 26.5028 14.3384 26.7145C14.4441 27.3952 14.5622 28.0922 14.6306 28.7892C14.6089 29.3299 14.584 29.8705 14.6959 30.4112C14.7114 30.4926 14.7425 30.561 14.7767 30.6196C14.7767 30.8379 14.7674 31.0561 14.7612 31.2743C14.068 31.7987 13.3967 32.3263 12.747 32.8507C11.653 31.6228 10.6304 30.3982 9.69167 29.1865V29.1833ZM13.2226 52.7446C7.22997 54.0018 3.08052 53.409 1.84656 51.1226C0.895445 49.3606 1.68182 46.5335 4.06271 43.1592C6.03953 40.3581 8.97679 37.3291 12.6445 34.287C12.8962 34.5606 13.1542 34.8375 13.4153 35.1143C13.406 35.1664 13.3967 35.2153 13.3873 35.2674C12.6787 36.6451 13.4308 37.8014 13.7386 39.1628C13.9033 39.8891 13.751 40.6285 13.8038 41.3646C13.8505 42.016 13.9282 42.6999 14.1551 43.309C14.1551 43.309 14.1551 43.3155 14.1582 43.3188C14.2265 44.6476 14.9414 45.6215 16.2251 45.97C16.3184 45.9961 16.4023 45.9993 16.48 45.9863C16.7815 46.8396 17.1079 47.6799 17.4218 48.4877C17.7886 49.4355 18.1957 50.3702 18.7086 51.2431C16.8001 51.875 14.9601 52.3798 13.2226 52.7446ZM20.5269 51.7414C21.422 51.419 22.3328 51.0738 23.2528 50.7025C23.1751 51.0607 23.3647 51.5135 23.8247 51.5493C24.6453 51.6144 25.1208 51.4613 25.8264 51.0314C26.19 50.8099 26.476 50.5135 26.9174 50.5331C27.368 50.5526 27.5981 50.8393 28.0021 50.9956C28.8382 51.3213 29.3884 50.4484 30.2276 50.7025C30.5446 50.8002 30.7902 51.0607 31.1259 51.1552C31.5144 51.2627 31.9247 51.2464 32.3194 51.2692C32.5992 51.2822 32.7794 51.1291 32.8603 50.9239C34.5573 51.9662 36.2358 52.9075 37.8676 53.7413C37.5568 54.1419 37.2117 54.5067 36.7859 54.8031C35.8721 55.4349 34.9023 55.8258 33.9233 56.3306C33.4881 56.5553 33.0374 56.7149 32.6054 56.9592C32.1423 57.2198 31.704 57.438 31.1849 57.5422C29.9448 57.7897 28.6642 57.6399 27.4178 57.5422C27.2499 57.5292 27.1194 57.578 27.023 57.6627C26.7309 57.5813 26.4418 57.4901 26.1558 57.3891C25.6523 57.21 25.0897 57.0341 24.6857 56.6596C24.3469 56.3436 24.1013 55.9593 23.7314 55.6759C23.5387 55.5294 23.346 55.3633 23.1533 55.1841C23.0352 54.9854 22.886 54.8096 22.6747 54.6825C22.6529 54.6695 22.6342 54.6597 22.6156 54.65C22.1836 54.1875 21.7888 53.6794 21.4935 53.1843C21.1983 52.686 20.8626 52.217 20.5331 51.748L20.5269 51.7414ZM54.9472 55.2232C53.3993 57.2947 49.2125 57.2426 43.4623 55.0799C42.3496 54.663 41.1996 54.1712 40.0247 53.6208C40.1521 53.4709 40.2827 53.3244 40.4132 53.1811C41.1312 52.3994 41.5788 51.52 42.0201 50.5461C42.4242 49.657 42.8096 48.6798 43.0427 47.7027C43.8353 46.654 44.774 45.6932 44.8983 44.3219C44.945 43.8008 44.9014 43.2732 45.0196 42.7586C45.1439 42.2212 45.3677 41.7098 45.5697 41.205C45.9116 40.3581 46.4338 39.6709 46.6265 38.7622C46.7042 38.4007 46.8068 37.961 46.8689 37.518C46.9435 37.4887 47.0119 37.4431 47.071 37.3812C54.0023 45.2665 57.1478 52.2756 54.9441 55.2232H54.9472ZM57.7383 21.9331C56.9831 24.757 54.3473 28.4439 50.3191 32.3133C49.2902 33.3034 48.1868 34.287 47.0181 35.2674C46.8658 34.7235 46.642 34.2024 46.3654 33.7724C46.3592 33.7627 46.353 33.7562 46.3468 33.7464C46.4618 33.2513 46.5923 32.7432 46.6856 32.2481C46.7881 31.701 46.7664 31.0984 46.8037 30.5415C46.8845 29.395 46.9964 28.2355 46.841 27.0923C46.726 26.2389 46.5675 25.3856 46.412 24.5355C46.4711 24.3368 46.4711 24.1349 46.3778 23.9395C46.3841 23.8581 46.3872 23.7766 46.3934 23.6952C46.4151 23.4314 46.3001 23.2522 46.1385 23.1578C46.1261 22.9721 46.1012 22.7865 46.0422 22.6171C46.1261 22.6692 46.2287 22.7051 46.353 22.7051H48.0811C48.8706 22.7051 48.8706 21.4185 48.0811 21.4185H46.353C45.9054 21.4185 45.7127 21.8322 45.7717 22.1905C45.7407 22.1611 45.7096 22.1383 45.6754 22.1155C45.3832 21.5684 45.0071 21.0668 44.6093 20.8681C44.457 20.715 44.3047 20.5717 44.1679 20.4382C43.8478 20.119 43.3846 19.9724 43.0117 19.7249C42.9868 19.7086 42.9588 19.6923 42.934 19.676C42.819 19.4774 42.6915 19.2852 42.533 19.1223C42.1631 18.7282 41.6813 18.5882 41.184 18.5654C41.1125 18.523 41.0442 18.4774 40.9727 18.4384C44.9605 17.1388 48.5287 16.4288 51.3758 16.3767C54.5928 16.318 56.7375 17.103 57.5705 18.6436C58.0398 19.5099 58.0958 20.6173 57.7415 21.9364L57.7383 21.9331Z" fill="#3E5EF2"/>
<path d="M13.3222 20.4157C12.7099 20.3701 12.2313 19.6112 11.8365 19.1943C11.277 18.608 10.4098 19.5167 10.9693 20.103C11.6593 20.8261 12.281 21.6208 13.3222 21.6989C14.1086 21.7576 14.1055 20.471 13.3222 20.4124V20.4157Z" fill="#3E5EF2"/>
<path d="M12.713 18.7417C12.884 19.0837 13.3067 19.4517 13.2849 19.8491C13.2694 20.1259 13.3999 20.3083 13.5802 20.3995C13.6672 20.4549 13.7698 20.4907 13.8972 20.4907C14.1645 20.4907 14.3386 20.3409 14.4256 20.1455C14.4722 20.0608 14.5033 19.9631 14.5095 19.8458C14.5437 19.2368 14.2205 18.8394 13.919 18.3606C13.5709 17.8037 13.3284 17.1164 13.0798 16.5041C12.7721 15.7452 11.7153 16.3999 12.0199 17.1523C12.2343 17.6832 12.455 18.2271 12.7099 18.7384L12.713 18.7417Z" fill="#3E5EF2"/>
<path d="M15.6253 19.8883C15.9578 19.872 16.2376 19.6049 16.2376 19.2466V18.4422C16.2376 18.1067 15.9547 17.7842 15.6253 17.8005C15.2927 17.8168 15.0129 18.0839 15.0129 18.4422V19.2466C15.0129 19.5821 15.2958 19.9046 15.6253 19.8883Z" fill="#3E5EF2"/>
<path d="M29.606 11.1985V15.2242C29.606 16.0514 30.8337 16.0514 30.8337 15.2242V11.1985C30.8337 10.3712 29.606 10.3712 29.606 11.1985Z" fill="#3E5EF2"/>
<path d="M31.7195 11.4006V14.8205C31.7195 15.6478 32.9472 15.6478 32.9472 14.8205V11.4006C32.9472 10.5733 31.7195 10.5733 31.7195 11.4006Z" fill="#3E5EF2"/>
<path d="M34.4983 13.6835C34.4983 13.6835 34.5049 13.676 34.5049 13.6722C34.5049 13.6722 34.5082 13.6684 34.5115 13.6647C34.5214 13.6534 34.5115 13.6572 34.4983 13.6835Z" fill="#3E5EF2"/>
<path d="M34.4923 13.6901C34.4923 13.6901 34.4985 13.6836 34.5017 13.6771C34.4985 13.6803 34.4954 13.6836 34.4892 13.6901C34.455 13.7259 34.4208 13.7585 34.3866 13.7911C34.3835 13.7943 34.3804 13.7943 34.3773 13.7976C34.3742 13.7976 34.3711 13.8008 34.3649 13.8041C34.3214 13.8367 34.2779 13.866 34.2343 13.8985C34.0758 14.0093 33.9111 14.1102 33.7588 14.2275C33.3734 14.5239 33.0688 14.8887 33.0626 15.4163C33.0532 16.2371 34.2623 16.2436 34.2872 15.4293C34.3121 15.4033 34.3369 15.3772 34.3618 15.3512C34.3867 15.3284 34.3991 15.3186 34.4053 15.3121C34.4302 15.2925 34.455 15.2763 34.4768 15.2567C34.5483 15.2079 34.6198 15.159 34.6913 15.1101C35.0176 14.8919 35.3253 14.6672 35.5491 14.3285C35.7356 14.0418 35.5989 13.6152 35.3284 13.4491C35.0332 13.2699 34.7006 13.3872 34.511 13.6543C34.511 13.6543 34.511 13.6575 34.5048 13.6608C34.4985 13.6673 34.4923 13.6738 34.4892 13.6803L34.4923 13.6901Z" fill="#3E5EF2"/>
<path d="M46.9249 19.2076H45.9644C45.6443 19.2076 45.3366 19.504 45.3521 19.8493C45.3677 20.1978 45.6225 20.4909 45.9644 20.4909H46.9249C47.245 20.4909 47.5527 20.1945 47.5372 19.8493C47.5217 19.5008 47.2668 19.2076 46.9249 19.2076Z" fill="#3E5EF2"/>
<path d="M38.8995 16.1555C39.2134 15.8493 39.403 15.478 39.5926 15.0969C39.7729 15.0188 39.9128 14.8559 39.9376 14.6117C39.947 14.6117 39.9563 14.6149 39.9625 14.6182C40.4505 14.7517 40.8017 14.9895 41.3239 14.8787C41.7186 14.794 41.8772 14.2729 41.6907 13.9342C41.5321 13.6443 41.3052 13.4261 41.0783 13.2111C41.6907 12.7421 41.1125 11.8269 40.4194 12.1331C40.3479 12.1656 40.2733 12.1949 40.1987 12.2243C40.0402 12.0386 39.8661 11.8725 39.661 11.7715C39.3129 11.5956 38.8684 11.7292 38.7596 12.1559C38.7161 12.335 38.6912 12.5206 38.6757 12.7128C38.427 12.8007 38.1846 12.905 37.9546 13.0418C37.4853 13.3219 37.6065 14.058 38.1007 14.2176C38.2654 14.2697 38.4333 14.312 38.6011 14.3446C38.4457 14.6703 38.2872 14.9927 38.0292 15.2435C37.4511 15.8102 38.3214 16.7157 38.8964 16.1522L38.8995 16.1555Z" fill="#3E5EF2"/>
<path d="M23.7315 14.1948C24.0454 13.8886 24.235 13.5173 24.4246 13.1363C24.6049 13.0581 24.7448 12.8952 24.7697 12.651C24.779 12.651 24.7883 12.6542 24.7945 12.6575C25.2825 12.791 25.6337 13.0288 26.1559 12.918C26.5507 12.8334 26.7092 12.3122 26.5227 11.9735C26.3642 11.6836 26.1373 11.4654 25.9104 11.2504C26.5227 10.7814 25.9446 9.8662 25.2514 10.1724C25.1799 10.2049 25.1053 10.2342 25.0307 10.2636C24.8722 10.0779 24.6982 9.9118 24.493 9.81083C24.1449 9.63495 23.7004 9.76849 23.5916 10.1952C23.5481 10.3743 23.5233 10.5599 23.5077 10.7521C23.2591 10.8401 23.0166 10.9443 22.7866 11.0811C22.3173 11.3612 22.4385 12.0973 22.9327 12.2569C23.0974 12.309 23.2653 12.3513 23.4331 12.3839C23.2777 12.7096 23.1192 13.032 22.8612 13.2828C22.2831 13.8495 23.1503 14.755 23.7284 14.1915L23.7315 14.1948Z" fill="#3E5EF2"/>
<path d="M13.7263 46.029C14.3386 45.56 13.7605 44.6448 13.0673 44.9509C12.9959 44.9835 12.9213 45.0128 12.8467 45.0421C12.6881 44.8565 12.5141 44.6904 12.3089 44.5894C11.9608 44.4135 11.5164 44.5471 11.4076 44.9737C11.3641 45.1529 11.3392 45.3385 11.3236 45.5307C11.075 45.6186 10.8325 45.7228 10.6025 45.8596C10.1332 46.1397 10.2544 46.8758 10.7486 47.0354C10.9134 47.0875 11.0812 47.1299 11.249 47.1624C11.0936 47.4882 10.9351 47.8106 10.6771 48.0614C10.099 48.6281 10.9693 49.5336 11.5443 48.9701C11.8583 48.6639 12.0479 48.2926 12.2375 47.9116C12.4177 47.8334 12.5576 47.6705 12.5825 47.4263C12.5918 47.4263 12.6011 47.4295 12.6073 47.4328C13.0953 47.5663 13.4465 47.8041 13.9687 47.6933C14.3635 47.6087 14.522 47.0875 14.3355 46.7488C14.177 46.4589 13.9501 46.2407 13.7232 46.0257L13.7263 46.029Z" fill="#3E5EF2"/>
<path d="M11.8519 32.5089C11.5535 31.1833 10.3972 29.913 9.76315 28.721C9.0234 27.3335 8.07229 26.1088 7.22064 24.8028C6.16074 23.1775 5.54221 21.0604 5.03246 19.1844C4.57245 17.4907 3.73323 15.7222 5.48937 14.5496C6.70779 13.7354 8.39554 13.6279 9.80356 13.4129C11.6529 13.1328 13.3998 13.5334 15.1404 14.1914C15.9081 14.4812 16.7442 14.5985 17.4964 14.9144C18.2392 15.2271 18.9603 15.8297 19.6379 16.2987C20.7227 17.0478 21.7857 18.5297 23.1098 18.7642C24.2847 18.9694 24.7882 17.0869 23.6071 16.8784C22.8052 16.7384 21.9038 15.5821 21.2915 15.0968C20.617 14.5627 19.8648 14.035 19.1499 13.566C18.4568 13.11 17.6673 12.9439 16.8903 12.7192C15.9205 12.4391 15.0005 12.0026 14.0183 11.7681C12.0228 11.2894 10.391 11.3936 8.38933 11.6444C6.79171 11.8431 5.07287 12.3055 3.77986 13.3576C2.61739 14.3054 2.39359 15.986 2.57076 17.4386C2.78523 19.2007 3.62444 21.2298 4.2896 22.8616C4.67813 23.8224 5.06044 24.9135 5.61059 25.7896C6.04885 26.4866 6.62076 27.0729 7.01861 27.8057C7.50038 28.6884 8.00702 29.5417 8.47947 30.4374C8.91772 31.268 9.84397 32.1018 10.0522 33.03C10.3288 34.2546 12.1254 33.7368 11.8519 32.5089Z" fill="#3E5EF2"/>
<path d="M28.3161 46.4163C27.4862 46.4522 26.9733 46.8495 26.2429 47.2404C25.3539 47.7159 24.409 48.0839 23.4983 48.5106C21.3226 49.5301 19.2059 50.1033 16.9121 50.7384C15.9765 50.9957 14.9788 51.2172 14.0898 51.6243C13.1231 52.064 12.2529 52.6047 11.2054 52.8359C10.0429 53.09 8.86801 53.0639 7.69 53.0932C6.51199 53.1226 5.32466 53.2528 4.1684 52.7187C3.2204 52.279 2.34078 51.6699 2.05793 50.6212C1.70049 49.2956 2.24753 47.9178 2.78214 46.7388C3.64312 44.8269 5.08843 42.8173 6.34104 41.1725C7.65892 39.4398 9.29384 37.9807 10.7982 36.4336C12.3865 34.8018 14.0649 32.7108 16.0728 31.6718C17.1483 31.1148 16.2065 29.4277 15.1311 29.9847C12.9615 31.1083 11.1867 33.2938 9.47722 35.0526C7.65581 36.9254 5.74116 38.6809 4.24611 40.8631C2.21956 43.8205 -2.12572 49.4747 1.23115 52.9858C2.71065 54.5329 4.6595 55.1387 6.70159 55.0931C9.05761 55.041 11.5504 55.0931 13.7386 54.0215C16.2624 52.7871 18.9541 52.4288 21.5806 51.4843C22.6467 51.1 23.6444 50.5691 24.6732 50.0903C25.2856 49.8069 25.9134 49.5463 26.5226 49.2565C27.0262 49.0187 27.7628 48.3966 28.3192 48.3738C29.5158 48.3217 29.5221 46.3675 28.3192 46.4196L28.3161 46.4163Z" fill="#3E5EF2"/>
<path d="M28.9313 48.0742C31.194 49.478 33.0124 51.6309 35.4492 52.722C36.5277 53.2073 37.7089 53.4255 38.747 54.002C39.953 54.6697 41.19 55.2723 42.3867 55.9562C45.728 57.8681 50.9374 59.6432 54.5087 57.4968C56.1467 56.5132 57.4211 54.901 57.5765 52.8751C57.7288 50.8753 56.4078 48.9439 55.32 47.3935C53.943 45.4295 53.1287 43.1822 51.7269 41.2182C50.3033 39.2249 48.8052 37.3651 47.2697 35.4891C46.4864 34.5315 45.1748 35.919 45.9518 36.8701C47.2604 38.4693 48.5534 40.0033 49.7687 41.7067C50.9249 43.3255 51.7331 44.9247 52.5909 46.7095C53.4395 48.4748 55.2329 49.9535 55.6898 51.9371C56.1809 54.0541 53.9244 56.0442 52.1589 56.4318C50.353 56.8291 48.0281 56.181 46.3372 55.5654C44.3045 54.8228 42.3805 53.8294 40.4721 52.7806C38.7781 51.8491 36.8448 51.4355 35.2099 50.416C33.3201 49.237 31.7691 47.5596 29.87 46.3838C28.8349 45.7422 27.8962 47.4293 28.9282 48.071L28.9313 48.0742Z" fill="#3E5EF2"/>
<path d="M39.4809 19.4483C42.7196 19.3766 45.7843 18.2367 48.9578 17.7709C50.5523 17.5364 52.5664 17.4322 54.1516 17.7416C55.9233 18.0836 57.2816 19.7577 57.1542 21.6468C57.0516 23.1939 55.8953 24.539 55.3296 25.933C54.7266 27.4182 53.9993 28.8057 52.8462 29.9033C51.5967 31.0954 50.6269 32.6327 49.1847 33.6033C48.1777 34.284 47.2141 35.3393 46.1387 35.8246C45.0384 36.3197 45.9864 38.0035 47.0805 37.5117C47.814 37.1828 48.187 36.7854 48.762 36.2382C49.3899 35.6422 50.1825 35.3132 50.8414 34.7628C51.6993 34.043 52.467 33.1929 53.185 32.3266C53.8284 31.5481 54.6085 30.9358 55.2333 30.1346C56.2963 28.7699 56.7221 27.073 57.5334 25.5682C58.4658 23.8322 59.1931 22.4675 58.9538 20.4091C58.786 18.9565 58.0804 17.937 57.0174 17.0446C55.5037 15.7744 53.875 15.6897 52.0039 15.706C49.9742 15.7222 48.1777 15.9535 46.2071 16.4225C44.0437 16.9371 41.7002 17.4517 39.484 17.5006C38.2842 17.5266 38.2811 19.4808 39.484 19.4548L39.4809 19.4483Z" fill="#3E5EF2"/>
<path d="M11.8831 34.2352C12.4798 34.3036 13.4434 35.4403 13.8537 35.8539C14.4504 36.4565 14.9788 37.1242 15.5166 37.7788C16.7132 39.2347 18.2331 40.5864 19.6567 41.7915C20.8129 42.7686 22.0407 43.5438 23.2311 44.4753C24.4122 45.4035 25.5934 46.6477 26.9858 47.1981C28.111 47.6444 28.5959 45.7553 27.4832 45.3123C25.9446 44.7033 24.7541 43.0487 23.3182 42.2116C21.9008 41.3876 20.7383 40.0392 19.4857 38.9611C18.0093 37.6909 16.8562 36.2969 15.5383 34.867C14.5934 33.8378 13.2973 32.4471 11.8862 32.281C10.6957 32.1409 10.705 34.0984 11.8862 34.2352H11.8831Z" fill="#3E5EF2"/>
<path d="M29.0931 48.3706C30.5912 48.3055 32.2106 47.0939 33.5254 46.4099C35.4245 45.4198 37.6158 44.7293 39.3812 43.5177C40.8079 42.5406 42.2004 41.5211 43.4436 40.2997C44.6963 39.0718 46.0794 36.8701 47.792 36.3131C48.9327 35.9418 48.4479 34.0527 47.2947 34.4273C46.0017 34.8475 44.7087 36.1568 43.7669 37.1404C42.3993 38.567 41.1529 39.8535 39.5522 41C37.9514 42.1465 36.4129 42.7979 34.7189 43.6186C33.8144 44.0583 32.9348 44.5469 32.0365 45.0029C31.2626 45.397 29.9447 46.3741 29.0868 46.4132C27.8902 46.4653 27.884 48.4195 29.0868 48.3674L29.0931 48.3706Z" fill="#3E5EF2"/>
</g>
</g>
<defs>
<clipPath id="clip0_2071_6167">
<rect width="59" height="70" fill="white"/>
</clipPath>
</defs>
</svg>
