<svg width="42" height="30" viewBox="0 0 42 30" fill="none" xmlns="http://www.w3.org/2000/svg">
<g clip-path="url(#clip0_10_2305)">
<path d="M1.69088 24.4502C1.96055 24.7922 2.30637 25.0792 2.66171 25.3638C2.97263 25.7232 3.3121 26.0701 3.62936 26.4395C4.28293 27.1983 5.36162 27.8123 6.47522 28.2142C6.74172 28.3115 7.01457 28.4113 7.29376 28.5062C7.74428 28.7957 8.217 29.0653 8.73097 29.2874C9.79697 29.7467 10.9835 29.7666 12.1955 29.7666C13.7374 29.7666 15.2063 29.6868 16.6213 29.4497C16.9386 29.4272 17.2527 29.3972 17.5668 29.3573C18.4202 29.2475 19.3403 29.0753 20.1461 28.8506C20.4888 28.7558 20.7489 28.5511 21.0821 28.4588C21.4596 28.3564 21.7991 28.3739 22.1576 28.2042C22.992 27.8073 22.2083 26.8439 21.3644 27.2432C21.0947 27.3705 20.7426 27.3605 20.4444 27.4504C20.3365 27.4828 20.2381 27.5253 20.1461 27.5702C19.924 27.4279 19.6004 27.3705 19.2673 27.5128C18.3282 27.9096 17.3669 28.1767 16.3739 28.3539C15.2063 28.4263 14.0388 28.339 12.8903 28.2191C12.1765 28.1443 11.4658 27.8772 10.7932 27.7025C9.96512 27.4878 9.10217 27.3605 8.25507 27.1833C7.98222 27.1259 7.684 27.0785 7.38577 27.0236C7.21445 26.9013 7.03995 26.7765 6.86863 26.6542C6.59261 26.457 6.25314 26.4545 5.98663 26.5568C5.47267 26.2348 5.13954 25.7806 4.73979 25.3912C4.4828 25.1441 4.17823 24.9245 3.88635 24.6998C3.27085 23.9336 3.10588 23.07 2.63633 22.2613C2.08112 21.3028 2.25878 20.1946 2.1287 19.1812C2.00814 18.2278 1.82413 17.2868 1.97007 16.3234C2.13188 15.2626 2.4999 14.2392 3.02973 13.2433C3.43583 12.4845 3.88952 11.7358 4.321 10.9845C4.56529 10.7449 4.81276 10.5102 5.05388 10.2756C5.29183 10.0485 5.56785 9.83632 5.82166 9.62167C6.05326 9.58174 6.24679 9.46193 6.3039 9.2348C6.31976 9.1699 6.34514 9.10251 6.37687 9.03262C6.42129 8.96523 6.46253 8.89534 6.49426 8.82046C6.58626 8.6732 6.70048 8.52594 6.82421 8.38117C7.09706 8.29631 7.23983 8.10163 7.25252 7.90444C7.30328 7.84953 7.35404 7.79462 7.40163 7.7447C7.76014 7.34784 8.22017 7.00839 8.69924 6.67892C8.74683 6.65895 8.79442 6.63649 8.84201 6.61652C10.2062 6.03247 11.4816 5.37103 12.7634 4.69213C14.1118 3.97579 15.5617 3.52901 17.0465 2.98239C18.4805 2.45574 19.8447 1.84922 21.4406 1.58964C23.1252 1.31508 24.8765 1.12788 26.6056 1.12788C27.9476 1.12788 29.3722 1.02056 30.7142 1.16782C30.7491 1.35502 30.9236 1.51726 31.2726 1.56718C32.0689 1.677 32.7574 1.95655 33.4871 2.18618C34.055 2.36589 34.5372 2.61299 35.1654 2.6654C35.1749 2.6654 35.1844 2.6654 35.194 2.6654C35.5969 2.84511 35.9332 3.17208 36.2885 3.36178C36.5487 3.50155 36.8628 3.60389 37.1134 3.75115C37.4783 3.9658 37.5703 4.18794 37.7225 4.49245C38.246 5.53826 38.9218 6.45428 39.128 7.5625C39.3374 8.68568 39.5722 9.90871 39.2962 11.0394C39.1661 11.5785 38.8488 12.0952 38.6363 12.6193C38.5601 12.8065 38.5125 12.9912 38.4871 13.1734C38.1921 13.1809 37.9224 13.3032 37.8431 13.5728C37.767 13.8299 37.2498 14.077 37.0309 14.2891C36.7295 14.5837 36.4503 14.8607 36.1204 15.1378C35.8158 15.3949 35.6349 15.6594 35.4668 15.9714C35.2511 16.3733 35.0163 16.6154 34.6102 16.9274C33.9883 17.4091 33.4078 17.8234 32.9763 18.415C32.5416 19.009 31.6787 19.6006 30.9775 20.0523C30.5841 20.3044 30.1336 20.4267 29.6862 20.6214C29.277 20.8011 28.8836 21.0033 28.4775 21.1855C28.0079 21.2928 27.5289 21.3852 27.0403 21.475C26.3169 21.6073 25.6126 21.7097 24.9209 21.9168C24.0199 22.1864 23.1474 22.4659 22.2052 22.6581C19.1563 23.2821 16.0376 22.8653 13.3218 21.797C13.2932 21.7022 13.2234 21.6073 13.0965 21.5225C12.5254 21.1356 11.4912 20.8585 10.8725 20.4142C10.8503 20.3768 10.8313 20.3369 10.8122 20.2944C10.6028 19.8302 10.514 19.336 10.4093 18.8518C10.4347 18.6771 10.4601 18.5098 10.4601 18.3551C10.4601 18.1429 10.4315 17.9333 10.3934 17.7261C10.3934 17.7111 10.3998 17.6986 10.3998 17.6812V16.1836C10.3998 15.7593 10.3173 15.3874 10.5425 14.993C11.028 14.1394 11.6593 13.3332 12.1606 12.487C12.6016 11.7432 13.068 11.0594 13.6486 10.3655C13.8865 10.0834 14.2228 9.87376 14.4893 9.59671C14.9144 9.15492 15.384 8.75058 15.8916 8.35122C16.082 8.20146 16.1296 8.03423 16.0883 7.87948C16.8244 7.52755 17.5795 7.20308 18.3758 6.88858C19.8257 6.31451 21.3612 5.66306 23.0776 5.67804C23.9152 5.68553 24.7369 5.81282 25.5491 5.9501C26.3962 6.09237 27.2306 6.10485 28.0809 6.20718C28.8265 6.29704 29.5625 6.54664 30.1812 6.85364C30.6031 7.0633 30.9236 7.32787 31.2345 7.59744C31.225 7.72973 31.2821 7.867 31.4344 7.9918C31.869 8.34873 32.1228 8.7381 32.2022 9.15992C32.1736 9.25976 32.1387 9.3571 32.107 9.45444C31.9261 10.0335 31.6723 10.5901 31.3709 11.1442C30.7872 12.21 29.9274 13.111 29.1406 14.1044C28.8931 14.4164 28.5949 14.671 28.2776 14.9281C27.9508 15.0854 27.6177 15.2326 27.3131 15.4198C26.9292 15.6544 26.6024 15.934 26.1265 16.0787C25.7109 16.206 25.2446 16.2435 24.8004 16.2934C23.7566 16.4107 22.7191 16.4232 21.6658 16.4157C21.1423 16.4132 20.6791 16.2984 20.1652 16.2535C19.721 16.2135 19.5592 16.2709 19.3879 15.944C19.1372 15.4622 19.2038 14.8507 19.261 14.2891C19.813 14.1993 20.346 14.0745 20.7743 13.9871C22.0275 13.7325 23.2458 13.423 24.169 12.7391C25.0605 12.0777 25.2763 11.0319 24.9432 10.1533C24.6291 9.32715 23.6995 9.17489 22.7509 9.30967C22.57 9.24977 22.3543 9.21233 22.0973 9.20235C20.7616 9.14993 19.4069 9.50935 18.3758 10.0959C17.4145 10.6425 16.6308 11.4113 16.3294 12.2674C16.2121 12.6019 16.1359 13.0112 16.2216 13.3831C16.1994 13.453 16.1835 13.5254 16.174 13.6027C16.0217 14.7184 16.7609 16.0463 17.7952 16.8824C18.9596 17.8234 20.4507 18.0256 22.1417 18.0431C24.0136 18.0655 25.9584 17.8933 27.5289 17.1096C28.1983 16.7776 28.6234 16.3283 29.1596 15.904C29.2675 15.8167 29.3722 15.7318 29.4737 15.6469C29.9305 15.3749 30.3715 15.0878 30.7681 14.7459C31.6406 13.9946 32.5765 13.2433 32.9858 12.2974C33.1984 11.8056 33.265 11.294 33.4617 10.7998C33.6362 10.3605 33.7758 9.95613 33.798 9.49438C33.798 9.44446 33.798 9.39454 33.798 9.34711C33.9408 8.72562 33.8932 8.10911 33.3887 7.64237C32.3513 6.68142 31.1647 5.83029 29.5593 5.36854C28.6869 5.11645 27.8715 5.11145 26.9514 5.02909C25.9521 4.93923 24.9876 4.69962 23.9818 4.61475C21.9989 4.45002 20.254 4.90429 18.5281 5.56073C16.8085 6.21467 15.1905 6.89358 13.6676 7.76217C12.4017 8.48351 11.4563 9.27723 10.5648 10.2007C10.4791 10.2432 10.4029 10.3031 10.3395 10.3829C9.92388 10.8996 9.39405 11.294 9.03554 11.8481C8.7151 12.3473 8.37246 12.8265 8.33121 13.3831C8.31535 13.5828 8.34391 13.7775 8.38832 13.9721C8.38832 14.067 8.38832 14.1618 8.38832 14.2567C8.38832 15.0279 8.37246 15.7992 8.38832 16.568C8.40419 17.2693 8.5882 17.9208 8.76587 18.6072C8.79759 18.732 8.82932 18.8643 8.85787 18.9965C8.8198 19.4283 8.76269 19.8926 8.95305 20.2994C9.07044 20.549 9.25128 20.7562 9.47019 20.9359C9.71449 21.3403 10.0666 21.6947 10.6155 21.9443C13.0299 23.0425 15.6949 23.9136 18.5154 24.0584C18.5915 24.0758 18.6772 24.0908 18.7724 24.0908C19.1467 24.0933 19.5179 24.0858 19.8891 24.0683C19.9304 24.0683 19.9716 24.0659 20.0129 24.0634C20.8409 24.0259 21.6658 23.956 22.4907 23.9111C23.5916 23.8512 24.8702 23.6066 25.8886 23.3046C26.9356 22.9951 28.0079 22.6681 28.9946 22.2663C29.0422 22.2463 29.0866 22.2263 29.1342 22.2064C30.2002 21.9518 31.2155 21.6173 32.1292 21.1156C33.5442 20.3419 34.5816 19.3385 35.7301 18.3825C36.9326 17.3841 38.1477 16.4257 38.9789 15.2401C39.128 15.0304 39.2771 14.8158 39.4294 14.6011C39.753 14.5537 40.0322 14.3815 40.0259 14.077C40.0259 13.9522 40.0259 13.8349 40.0354 13.7201C40.5494 12.9463 41.0189 12.1501 41.2949 11.3464C41.7455 10.0335 41.6598 8.59832 41.6154 7.25799C41.5741 6.05243 40.8064 4.74954 39.7879 3.78859C39.2898 3.31935 38.6839 2.88754 38.1477 2.43827C37.5893 1.97152 36.9167 1.4898 36.1299 1.22273C35.4414 0.98811 34.6958 0.880783 33.9725 0.718545C33.0207 0.503892 32.1101 0.191895 31.1203 0.0646007C30.2097 -0.0527099 29.296 0.00719339 28.3791 0.0171773C27.3068 0.0271612 26.2376 -0.0152703 25.1652 0.042137C23.4076 0.136984 21.4406 0.329174 19.7591 0.775952C19.6448 0.788432 19.5338 0.818384 19.4259 0.868303C19.4164 0.870799 19.4069 0.873295 19.3974 0.875791C19.4355 0.828368 19.0389 0.928206 18.9532 0.945678C18.6328 1.00558 18.3219 1.08296 18.0109 1.16033C17.2939 1.33505 16.5801 1.49978 15.844 1.62957C14.5813 1.85172 13.6263 2.38585 12.7063 3.00985C12.6143 3.0373 12.5254 3.08223 12.443 3.14712C11.8624 3.60139 10.936 3.99825 10.2316 4.35517C9.36867 4.79197 8.58185 5.21628 7.81725 5.73794C7.74745 5.78537 7.67765 5.83279 7.61103 5.88271C6.61482 6.31451 5.63764 6.75879 4.82545 7.40026C2.27465 9.42699 1.1547 12.1726 0.352027 14.7484C0.145805 15.4073 0.13946 16.0588 0.168014 16.7302C0.19974 17.474 0.117252 18.2003 0.0411082 18.9416C-0.0921427 20.242 0.0728346 21.4875 0.640737 22.733C0.910411 23.3245 1.26257 23.9086 1.68771 24.4527L1.69088 24.4502ZM19.2673 13.1235C19.6417 12.9788 20.0034 12.8165 20.3333 12.6693C20.5554 12.7441 20.806 12.7841 21.063 12.794C20.4697 12.9363 19.8511 13.0337 19.2673 13.1235ZM10.1111 12.9937C10.238 12.7217 10.4283 12.4521 10.6409 12.1925C10.4791 12.4621 10.2983 12.7292 10.1111 12.9937Z" fill="#FCFCFC"/>
<path d="M4.38765 5.03443C4.77153 5.10931 5.24743 4.94707 5.34578 4.66003C5.993 4.59264 6.66877 4.19329 6.66877 3.73902C6.66877 3.36961 6.17067 3.11752 5.67574 3.20238C5.65036 3.20738 5.62497 3.21237 5.59642 3.21486C5.36482 3.0102 4.90479 2.91535 4.58118 3.07259C4.16556 3.27477 3.93713 3.59924 4.03231 3.95617C3.94665 4.07847 3.8832 4.21076 3.83878 4.35053C3.74994 4.64506 3.96251 4.95206 4.38765 5.03443Z" fill="#FCFCFC"/>
<path d="M0.894675 7.90223C1.01841 7.95215 1.14849 7.97711 1.29126 7.97711C1.55458 7.97711 1.84964 7.87478 1.9702 7.70255C1.99241 7.6726 2.01144 7.64265 2.03365 7.6127C2.1098 7.50288 2.14787 7.38806 2.132 7.27075C2.13835 7.24579 2.14152 7.22083 2.14152 7.19837C2.14152 7.06109 2.05586 6.89885 1.90992 6.80401C1.76081 6.70666 1.5641 6.63428 1.35471 6.64177C1.28491 6.64926 1.21511 6.65425 1.14531 6.66174C1.01206 6.68919 0.897848 6.73661 0.799496 6.80401C0.650382 6.89636 0.532994 7.03114 0.485405 7.16592C0.425124 7.34064 0.456851 7.55529 0.615483 7.70006C0.685281 7.78243 0.78046 7.84982 0.897848 7.89974L0.894675 7.90223Z" fill="#FCFCFC"/>
<path d="M35.5051 4.77228C35.3972 4.74233 35.2798 4.73983 35.1656 4.75481C35.1466 4.75481 35.1244 4.74982 35.1053 4.75231C34.6738 4.76729 34.328 4.99692 34.3185 5.30891C34.3026 5.84056 34.7627 6.55939 35.6415 6.52944C35.9873 6.51696 36.3046 6.36471 36.3998 6.1201C36.4886 5.88798 36.5235 5.63339 36.4188 5.40126C36.276 5.07928 35.9334 4.88959 35.5019 4.77228H35.5051ZM35.045 5.83057C35.045 5.83057 35.0736 5.84055 35.0895 5.84555C35.0768 5.84305 35.0609 5.83556 35.045 5.83057Z" fill="#FCFCFC"/>
<path d="M37.2022 9.50981C38.2142 9.50981 38.2142 8.39661 37.2022 8.39661C36.1901 8.39661 36.1901 9.50981 37.2022 9.50981Z" fill="#FCFCFC"/>
<path d="M9.3687 25.0372C9.48926 25.3018 9.92392 25.5364 10.3332 25.4266C10.8472 25.2893 11.285 24.9798 11.2913 24.568C11.2977 24.1012 10.7551 23.7917 10.1238 23.7942C9.71452 23.7942 9.31794 24.0488 9.33698 24.3508C9.34332 24.4457 9.38139 24.533 9.44167 24.6129C9.34332 24.7327 9.30208 24.9049 9.36553 25.0397L9.3687 25.0372ZM9.83191 24.3783C9.83191 24.3783 9.83825 24.3733 9.8446 24.3708C9.86364 24.3658 9.88584 24.3583 9.91757 24.3508C9.88902 24.3583 9.86046 24.3683 9.83508 24.3758L9.83191 24.3783Z" fill="#FCFCFC"/>
<path d="M14.7019 26.2552C15.714 26.2552 15.714 25.142 14.7019 25.142C13.6899 25.142 13.6899 26.2552 14.7019 26.2552Z" fill="#FCFCFC"/>
<path d="M35.5424 23.2301C35.5424 23.2301 35.5046 23.2351 35.4636 23.2652C35.4794 23.2552 35.5077 23.2426 35.5424 23.2301Z" fill="#FCFCFC"/>
<path d="M29.0171 8.6137C29.0171 8.6137 29.0139 8.59124 29.0107 8.57876C29.0107 8.57876 29.0107 8.57626 29.0107 8.57377C28.9727 8.3641 28.868 8.16692 28.6078 8.01966C28.4396 7.92481 28.2778 7.85742 28.0526 7.85742C27.8591 7.85742 27.6306 7.91733 27.4974 8.01966C27.2467 8.21435 27.1642 8.57876 27.4593 8.78093C27.4593 8.85082 27.4593 8.91821 27.4593 8.9881C27.4593 9.28012 27.821 9.55718 28.2461 9.5447C28.6839 9.52972 29.0171 9.30009 29.0329 8.9881C29.0361 8.89575 29.0393 8.8034 29.0329 8.71104C29.0329 8.70106 29.0329 8.69357 29.0329 8.68359C29.0329 8.66112 29.0266 8.63616 29.0234 8.6137H29.0171Z" fill="#FCFCFC"/>
</g>
<defs>
<clipPath id="clip0_10_2305">
<rect width="41.6472" height="29.7669" fill="white"/>
</clipPath>
</defs>
</svg>
