<svg width="66" height="54" viewBox="0 0 66 54" fill="none" xmlns="http://www.w3.org/2000/svg">
<g clip-path="url(#clip0_98_81)">
<mask id="mask0_98_81" style="mask-type:luminance" maskUnits="userSpaceOnUse" x="-270" y="-205" width="623" height="450">
<path d="M352.959 -194.58L-262.941 -204.123L-269.742 234.854L346.158 244.396L352.959 -194.58Z" fill="white"/>
<path fill-rule="evenodd" clip-rule="evenodd" d="M12.7843 5.06022C12.4421 6.33258 14.6289 5.23151 12.7843 5.06022V5.06022Z" fill="#050505"/>
<path fill-rule="evenodd" clip-rule="evenodd" d="M11.1755 5.25021C10.7575 5.73003 9.31833 5.65948 7.95125 5.62126C8.70047 5.31939 9.86951 5.24707 11.1755 5.25021Z" fill="#050505"/>
<path fill-rule="evenodd" clip-rule="evenodd" d="M28.4558 5.72919C28.7258 5.73159 28.9976 5.738 29.2635 5.74231L29.2571 6.16459C28.9912 6.16028 28.7183 6.15683 28.4494 6.15147L28.4558 5.72919Z" fill="#050505"/>
<path fill-rule="evenodd" clip-rule="evenodd" d="M28.4108 8.68524C28.6808 8.68764 28.9526 8.69406 29.2185 8.69837L29.2131 9.11768C28.9472 9.11337 28.6743 9.10992 28.4055 9.10456L28.4108 8.68524Z" fill="#050505"/>
<path fill-rule="evenodd" clip-rule="evenodd" d="M30.7876 11.0448C30.8583 10.7991 31.5222 10.8781 31.9989 10.8537C32.3226 11.4569 31.4222 11.3941 31.5795 11.9014C30.483 12.0329 31.8812 10.9122 30.7876 11.0448Z" fill="#050505"/>
<path fill-rule="evenodd" clip-rule="evenodd" d="M16.279 13.3568C16.9285 13.307 16.9702 13.5658 17.4779 13.5859C17.6291 13.9974 15.6432 13.8661 16.279 13.3568Z" fill="#050505"/>
<path fill-rule="evenodd" clip-rule="evenodd" d="M40.7956 14.1596C39.451 13.4942 39.563 14.9181 40.7956 14.1596V14.1596Z" fill="#050505"/>
<path fill-rule="evenodd" clip-rule="evenodd" d="M35.5689 14.0792C35.3914 14.3337 35.0474 14.5022 34.3594 14.4815C34.1791 14.0296 34.936 14.0915 35.5689 14.0792Z" fill="#050505"/>
<path fill-rule="evenodd" clip-rule="evenodd" d="M29.9344 14.4118C30.4276 14.5103 30.7537 14.6932 30.7275 15.0583C30.2354 14.9568 29.9092 14.7739 29.9344 14.4118Z" fill="#050505"/>
<path fill-rule="evenodd" clip-rule="evenodd" d="M27.1102 15.0026L27.915 15.0147L27.9096 15.434L27.1049 15.4219L27.1102 15.0026Z" fill="#050505"/>
<path fill-rule="evenodd" clip-rule="evenodd" d="M38.3602 15.3862C38.4193 14.9192 40.071 15.3227 40.7785 15.2133C40.4007 15.9749 39.5898 15.3221 38.3602 15.3862Z" fill="#050505"/>
<path fill-rule="evenodd" clip-rule="evenodd" d="M27.8946 16.284C26.6338 15.5615 29.6785 15.404 27.8946 16.284V16.284Z" fill="#050505"/>
<path fill-rule="evenodd" clip-rule="evenodd" d="M43.1758 16.0962C43.4799 16.435 44.4473 16.4314 44.373 16.9599C43.9707 16.9539 43.5683 16.9478 43.163 16.9408C43.1685 16.6619 43.1722 16.3791 43.1758 16.0962Z" fill="#050505"/>
<path fill-rule="evenodd" clip-rule="evenodd" d="M52.4199 16.4514C53.4171 16.552 52.7093 17.4236 51.6075 17.0718C51.8687 16.8638 52.535 16.8702 52.4199 16.4514Z" fill="#050505"/>
<path fill-rule="evenodd" clip-rule="evenodd" d="M59.2537 16.7694C57.3403 16.1524 58.2669 17.448 59.2537 16.7694V16.7694Z" fill="#050505"/>
<path fill-rule="evenodd" clip-rule="evenodd" d="M8.99479 15.9879L9.79952 15.9999C9.97683 16.4508 9.21781 16.3948 8.58409 16.4001C8.66417 16.2313 8.99062 16.197 8.99183 15.9868L8.99479 15.9879Z" fill="#050505"/>
<path fill-rule="evenodd" clip-rule="evenodd" d="M28.691 16.7144C29.0175 17.1781 30.1994 17.2107 30.2853 17.7962C29.9311 17.6267 29.3816 17.555 28.6801 17.5629C28.6848 17.2771 28.6903 16.9983 28.694 16.7154L28.691 16.7144Z" fill="#050505"/>
<path fill-rule="evenodd" clip-rule="evenodd" d="M15.8223 16.728C15.4801 18.0004 17.662 16.8943 15.8223 16.728V16.728Z" fill="#050505"/>
<path fill-rule="evenodd" clip-rule="evenodd" d="M34.715 17.2323C35.8894 16.9379 35.8714 18.1918 34.7044 17.8637L34.715 17.2323Z" fill="#050505"/>
<path fill-rule="evenodd" clip-rule="evenodd" d="M38.7346 17.2943L38.724 17.9257C38.1921 17.9171 37.6504 17.9083 37.1185 17.8997C37.4743 17.595 37.7315 17.2384 38.7356 17.2914L38.7346 17.2943Z" fill="#050505"/>
<path fill-rule="evenodd" clip-rule="evenodd" d="M29.073 17.9904C29.3389 17.9947 29.6078 18.0001 29.8778 18.0025C29.8739 18.1449 29.8752 18.2824 29.8713 18.4248C29.6024 18.4194 29.3325 18.417 29.0666 18.4127L29.073 17.9904Z" fill="#050505"/>
<path fill-rule="evenodd" clip-rule="evenodd" d="M33.8909 18.487C32.9587 17.7242 37.1783 18.2019 33.8909 18.487V18.487Z" fill="#050505"/>
<path fill-rule="evenodd" clip-rule="evenodd" d="M45.9562 18.2516C45.7788 18.5061 45.4347 18.6745 44.7456 18.6568C44.5654 18.2049 45.3244 18.2609 45.9562 18.2516Z" fill="#050505"/>
<path fill-rule="evenodd" clip-rule="evenodd" d="M9.76509 18.3247C9.64509 17.9477 12.0235 17.9812 11.3714 18.5549C10.528 18.6328 10.3057 18.3932 9.76509 18.3247Z" fill="#050505"/>
<path fill-rule="evenodd" clip-rule="evenodd" d="M16.2041 18.2111C16.47 18.2154 16.7389 18.2208 17.0088 18.2232L17.0034 18.6425L16.1987 18.6304L16.2041 18.2111Z" fill="#050505"/>
<path fill-rule="evenodd" clip-rule="evenodd" d="M53.5873 19.0065C53.8532 19.0108 54.1261 19.0143 54.392 19.0186L54.3837 19.4369L53.579 19.4248L53.5873 19.0065Z" fill="#050505"/>
<path fill-rule="evenodd" clip-rule="evenodd" d="M51.9608 20.0359C51.4393 19.8103 50.482 19.8042 49.9565 19.5805C50.1964 18.8401 51.8499 19.5017 51.9608 20.0359Z" fill="#050505"/>
<path fill-rule="evenodd" clip-rule="evenodd" d="M42.7272 19.2561C40.6485 19.7337 44.0997 19.8245 42.7272 19.2561V19.2561Z" fill="#050505"/>
<path fill-rule="evenodd" clip-rule="evenodd" d="M29.4456 19.6873C29.0292 20.2379 27.5818 20.228 27.0204 20.7069C26.1373 20.2758 27.8442 19.4621 29.4456 19.6873Z" fill="#050505"/>
<path fill-rule="evenodd" clip-rule="evenodd" d="M54.3728 20.2855C54.502 19.9972 55.3802 20.1223 55.9834 20.0994C55.8552 20.3848 54.974 20.2586 54.3728 20.2855Z" fill="#050505"/>
<path fill-rule="evenodd" clip-rule="evenodd" d="M47.1289 20.594C47.8505 20.5765 47.9723 20.8639 48.7331 20.8302C48.8571 21.2053 46.4777 21.1748 47.1289 20.594Z" fill="#050505"/>
<path fill-rule="evenodd" clip-rule="evenodd" d="M54.3621 20.9168C54.4893 20.6344 55.3715 20.7576 55.9728 20.7308C55.8456 21.0132 54.9645 20.887 54.3621 20.9168Z" fill="#050505"/>
<path fill-rule="evenodd" clip-rule="evenodd" d="M13.7578 20.2862C13.7555 20.4994 13.7513 20.7085 13.7472 20.9177C12.9038 20.9955 12.6844 20.757 12.1419 20.6844C12.4095 20.4018 13.0092 20.3042 13.7578 20.2862Z" fill="#050505"/>
<path fill-rule="evenodd" clip-rule="evenodd" d="M42.2875 21.5736C42.0199 21.8562 41.4272 21.953 40.6756 21.9699C40.282 21.3284 41.5765 21.6083 42.2875 21.5736Z" fill="#050505"/>
<path fill-rule="evenodd" clip-rule="evenodd" d="M51.1292 21.9234C51.1984 21.3997 52.4938 21.8838 52.7386 21.9475C52.7273 22.3647 51.6368 22.1975 51.9181 22.7789C50.3318 22.6895 52.2289 22.1306 51.1292 21.9234Z" fill="#050505"/>
<path fill-rule="evenodd" clip-rule="evenodd" d="M59.5707 22.054C58.3385 22.7457 61.0469 22.7161 59.5707 22.054V22.054Z" fill="#050505"/>
<path fill-rule="evenodd" clip-rule="evenodd" d="M29.4029 22.4302C30.5045 22.2938 30.2082 22.8637 31.0059 22.8766C30.9047 23.1047 30.2063 23.0101 30.1967 23.2908C29.4876 23.2259 29.2857 22.91 29.4018 22.4332L29.4029 22.4302Z" fill="#050505"/>
<path fill-rule="evenodd" clip-rule="evenodd" d="M44.6697 23.514C44.7979 23.2286 45.6761 23.3537 46.2803 23.3279C46.1611 23.8137 45.1951 23.7945 44.6697 23.514Z" fill="#050505"/>
<path fill-rule="evenodd" clip-rule="evenodd" d="M59.1446 23.7407C59.3963 25.1574 61.8954 23.5824 59.1446 23.7407V23.7407Z" fill="#050505"/>
<path fill-rule="evenodd" clip-rule="evenodd" d="M4.86287 23.1034C5.7052 23.0285 5.92459 23.267 6.47006 23.3407C6.38613 23.9527 4.5477 23.8204 4.86287 23.1034Z" fill="#050505"/>
<path fill-rule="evenodd" clip-rule="evenodd" d="M37.8334 23.6165C39.029 23.6573 38.8938 24.8929 37.4159 24.6682C37.7573 24.4319 37.952 24.11 37.8334 23.6165Z" fill="#050505"/>
<path fill-rule="evenodd" clip-rule="evenodd" d="M7.27482 23.3529C8.2037 23.6832 7.88 23.879 7.66015 24.4126C6.39926 24.245 7.1475 23.8425 7.27482 23.3529Z" fill="#050505"/>
<path fill-rule="evenodd" clip-rule="evenodd" d="M22.5473 23.7998C23.4093 23.6885 23.9862 25.0838 22.5303 24.8535C22.8231 24.2088 22.8173 24.4508 22.5473 23.7998Z" fill="#050505"/>
<path fill-rule="evenodd" clip-rule="evenodd" d="M63.5518 24.6497C63.3733 24.9071 63.0322 25.0767 62.3412 25.0549C62.5197 24.7975 62.8608 24.6279 63.5518 24.6497Z" fill="#050505"/>
<path fill-rule="evenodd" clip-rule="evenodd" d="M30.5778 24.5597C30.5273 25.0966 29.0739 25.0377 28.5659 24.7367C28.9415 24.0379 29.3139 24.645 30.5778 24.5597Z" fill="#050505"/>
<path fill-rule="evenodd" clip-rule="evenodd" d="M42.6426 24.7487L43.4473 24.7608L43.4409 25.1831L42.6361 25.171L42.6426 24.7487Z" fill="#050505"/>
<path fill-rule="evenodd" clip-rule="evenodd" d="M4.44228 24.3614C5.44185 24.9442 4.0096 24.9764 2.8264 24.7595C2.54998 24.1832 4.72167 24.9388 4.44228 24.3614Z" fill="#050505"/>
<path fill-rule="evenodd" clip-rule="evenodd" d="M39.0182 24.9007C39.345 24.95 39.4153 25.1188 39.8207 25.1259C39.5946 25.6205 37.9158 25.2274 39.0182 24.9007Z" fill="#050505"/>
<path fill-rule="evenodd" clip-rule="evenodd" d="M21.3209 25.0487C22.1834 24.9643 22.0818 25.3628 22.114 25.6951C21.7861 25.6488 21.7168 25.477 21.3124 25.4769L21.3199 25.0517L21.3209 25.0487Z" fill="#050505"/>
<path fill-rule="evenodd" clip-rule="evenodd" d="M26.9477 25.3485C28.0077 25.3009 28.2605 25.6616 28.1379 26.2131C27.2986 26.289 27.0762 26.0494 26.5337 25.9768C26.7462 25.8117 26.9608 25.6406 26.9477 25.3485Z" fill="#050505"/>
<path fill-rule="evenodd" clip-rule="evenodd" d="M25.7342 25.7523C25.732 25.9655 25.7278 26.1746 25.7236 26.3837C25.2539 26.4072 25.0084 26.3266 24.9231 26.1625C24.1445 26.2367 24.5911 26.9738 23.306 26.7709L23.3188 25.9263C24.5418 26.0971 24.5042 25.5823 25.7312 25.7513L25.7342 25.7523Z" fill="#050505"/>
<path fill-rule="evenodd" clip-rule="evenodd" d="M33.3741 25.8716C33.347 27.0755 36.8508 25.928 33.3741 25.8716V25.8716Z" fill="#050505"/>
<path fill-rule="evenodd" clip-rule="evenodd" d="M6.82862 26.0924C6.94302 25.6015 8.59683 25.9991 8.83938 26.1255C8.49441 26.7383 7.54716 25.9802 6.82862 26.0924Z" fill="#050505"/>
<path fill-rule="evenodd" clip-rule="evenodd" d="M51.8592 26.5825C52.7216 26.498 52.623 26.8976 52.6563 27.227C52.3295 27.1776 52.2591 27.0089 51.8527 27.0047L51.8592 26.5825Z" fill="#050505"/>
<path fill-rule="evenodd" clip-rule="evenodd" d="M35.7743 26.7554C34.4287 26.093 34.5437 27.5179 35.7743 26.7554V26.7554Z" fill="#050505"/>
<path fill-rule="evenodd" clip-rule="evenodd" d="M56.2777 27.074C57.4541 26.7836 57.4331 28.0365 56.2671 27.7054L56.2777 27.074Z" fill="#050505"/>
<path fill-rule="evenodd" clip-rule="evenodd" d="M59.8885 27.5522C60.0509 27.152 60.3997 27.6939 60.2844 27.9805C60.125 28.3818 59.7732 27.8388 59.8885 27.5522Z" fill="#050505"/>
<path fill-rule="evenodd" clip-rule="evenodd" d="M47.4231 27.5686C47.7205 27.193 48.1517 27.5503 48.6262 27.5886C48.3268 27.9602 47.8935 27.6089 47.4231 27.5686Z" fill="#050505"/>
<path fill-rule="evenodd" clip-rule="evenodd" d="M21.2813 27.5855C21.1039 27.84 20.7628 28.0095 20.0688 27.9867C19.8896 27.5318 20.6525 27.5959 21.2813 27.5855Z" fill="#050505"/>
<path fill-rule="evenodd" clip-rule="evenodd" d="M22.086 27.5972C22.4884 27.6032 22.8907 27.6092 23.2961 27.6163C22.8871 27.8921 22.1993 28.0119 22.0742 28.4388C20.8689 28.2842 22.4667 27.9933 22.086 27.5972Z" fill="#050505"/>
<path fill-rule="evenodd" clip-rule="evenodd" d="M51.0146 29.3139C50.6152 29.3089 50.2129 29.3029 49.8075 29.2958C49.2423 29.3622 49.7693 29.6666 50.2064 29.7251C49.1761 30.2346 48.1244 28.9713 47.8145 28.4232C48.5836 28.5262 49.2655 28.3007 48.6205 28.225C49.1978 27.7484 51.2385 28.2803 51.023 28.8956L50.8186 29.1037L51.0165 29.3179L51.0146 29.3139Z" fill="#050505"/>
<path fill-rule="evenodd" clip-rule="evenodd" d="M30.127 27.9331C30.45 27.9744 30.5241 28.1512 30.9265 28.1573C30.8494 28.3271 30.52 28.3604 30.5147 28.5725C30.1899 28.5271 30.1176 28.3543 29.7172 28.3523C29.7953 28.1795 30.1237 28.1492 30.1259 27.9361L30.127 27.9331Z" fill="#050505"/>
<path fill-rule="evenodd" clip-rule="evenodd" d="M12.0296 27.8622C13.1685 27.7055 13.0684 28.1748 14.0362 28.1044C14.0981 28.4474 11.3965 28.4861 12.0296 27.8622Z" fill="#050505"/>
<path fill-rule="evenodd" clip-rule="evenodd" d="M24.8938 28.2752C25.2492 28.4417 25.7976 28.5164 26.4962 28.5074C24.9344 28.6874 25.5066 29.2219 24.4755 29.3199C24.3558 28.8293 24.5524 28.5115 24.8949 28.2722L24.8938 28.2752Z" fill="#050505"/>
<path fill-rule="evenodd" clip-rule="evenodd" d="M24.0733 29.1067C23.2511 29.5196 23.2884 29.0013 22.4691 28.8704C22.5501 28.2574 24.3904 28.3937 24.0733 29.1067Z" fill="#050505"/>
<path fill-rule="evenodd" clip-rule="evenodd" d="M26.0787 29.5588C26.3446 29.5631 26.6145 29.5655 26.8834 29.5708L26.877 29.9931C26.6081 29.9878 26.3411 29.9864 26.0722 29.9811L26.0787 29.5588Z" fill="#050505"/>
<path fill-rule="evenodd" clip-rule="evenodd" d="M8.78376 29.713C8.9645 29.2424 10.7683 29.6599 11.6015 29.5451C11.265 29.9837 9.4716 30.0914 8.78376 29.713Z" fill="#050505"/>
<path fill-rule="evenodd" clip-rule="evenodd" d="M13.6081 29.7874C13.451 29.3738 15.4447 29.5112 14.81 30.0176L14.0052 30.0055C14.0825 29.8257 13.8528 29.8042 13.6081 29.7874Z" fill="#050505"/>
<path fill-rule="evenodd" clip-rule="evenodd" d="M53.4107 30.4068C53.5691 30.0085 53.919 30.5475 53.8067 30.8352C53.6443 31.2354 53.2954 30.6935 53.4107 30.4068Z" fill="#050505"/>
<path fill-rule="evenodd" clip-rule="evenodd" d="M25.6699 29.9752C25.4914 30.2326 25.1484 30.3981 24.4593 30.3804C24.2772 29.9245 25.0341 29.9864 25.6699 29.9752Z" fill="#050505"/>
<path fill-rule="evenodd" clip-rule="evenodd" d="M21.2427 30.1186L22.0474 30.1307C22.1561 30.4736 21.6627 30.4886 21.6344 30.7561L20.8297 30.744C20.7229 30.4051 21.2164 30.3901 21.2397 30.1176L21.2427 30.1186Z" fill="#050505"/>
<path fill-rule="evenodd" clip-rule="evenodd" d="M47.7752 30.743C48.4237 30.6961 48.4624 30.9539 48.9771 30.9732C49.1283 31.3846 47.1394 31.2523 47.7752 30.743Z" fill="#050505"/>
<path fill-rule="evenodd" clip-rule="evenodd" d="M40.5324 31.0486C40.6596 30.7662 41.5407 30.8924 42.142 30.8655C42.0108 31.1498 41.1326 31.0247 40.5324 31.0486Z" fill="#050505"/>
<path fill-rule="evenodd" clip-rule="evenodd" d="M50.5854 31.207C50.4058 31.4674 50.0628 31.633 49.3708 31.6142C49.1875 31.1612 49.9525 31.2193 50.5854 31.207Z" fill="#050505"/>
<path fill-rule="evenodd" clip-rule="evenodd" d="M47.7676 31.3754C48.17 31.3814 48.5683 31.3893 48.9717 31.3924C49.018 31.7699 48.4759 31.8278 48.5546 32.2269C48.0175 32.0827 47.8126 31.7658 47.7657 31.3713L47.7676 31.3754Z" fill="#050505"/>
<path fill-rule="evenodd" clip-rule="evenodd" d="M39.7179 31.675L40.5227 31.6871L40.5173 32.1064L39.7126 32.0943L39.7179 31.675Z" fill="#050505"/>
<path fill-rule="evenodd" clip-rule="evenodd" d="M49.3666 31.8236C49.6871 31.9376 50.0136 32.0537 50.5695 32.0508C50.4216 32.3258 49.8538 32.3713 49.7531 32.6731C49.2117 32.5976 49.431 32.1407 49.3666 31.8236Z" fill="#050505"/>
<path fill-rule="evenodd" clip-rule="evenodd" d="M52.5739 32.5061C52.4197 32.0936 54.4126 32.224 53.7787 32.7374L52.974 32.7253C53.0513 32.5455 52.8196 32.52 52.5768 32.5072L52.5739 32.5061Z" fill="#050505"/>
<path fill-rule="evenodd" clip-rule="evenodd" d="M37.2972 32.2684C37.8906 32.3858 38.3068 32.5973 38.8972 32.7137C38.7648 33.1614 36.992 32.7315 37.2972 32.2684Z" fill="#050505"/>
<path fill-rule="evenodd" clip-rule="evenodd" d="M40.1045 32.5245C40.1658 32.446 40.9615 32.164 41.3168 32.3305C42.1034 32.7038 39.5269 33.312 40.1045 32.5245Z" fill="#050505"/>
<path fill-rule="evenodd" clip-rule="evenodd" d="M26.8396 32.3165C26.179 32.67 24.4651 33.0901 23.6172 32.6916C24.3635 32.3887 25.5336 32.3134 26.8396 32.3165Z" fill="#050505"/>
<path fill-rule="evenodd" clip-rule="evenodd" d="M54.9776 32.9667C55.3296 32.3531 55.985 33.2548 56.9854 32.9988C56.8769 33.4918 55.2191 33.0961 54.9776 32.9667Z" fill="#050505"/>
<path fill-rule="evenodd" clip-rule="evenodd" d="M32.0611 32.6092C33.0615 32.8981 31.6213 33.6295 30.4388 33.4296C30.5782 32.9343 31.6901 32.9754 32.0611 32.6092Z" fill="#050505"/>
<path fill-rule="evenodd" clip-rule="evenodd" d="M1.50026 32.5586C1.44265 32.1002 2.93139 32.4826 3.51328 32.3786C3.5749 32.8351 2.08723 32.4498 1.50026 32.5586Z" fill="#050505"/>
<path fill-rule="evenodd" clip-rule="evenodd" d="M48.5374 33.2904C48.3589 33.5479 48.0159 33.7134 47.3268 33.6957C47.1446 33.2398 47.9085 33.3008 48.5374 33.2904Z" fill="#050505"/>
<path fill-rule="evenodd" clip-rule="evenodd" d="M55.3765 33.396C55.6424 33.4003 55.9113 33.4057 56.1812 33.4081C56.3615 33.86 55.5976 33.7989 54.9677 33.8122C55.0448 33.6424 55.3764 33.6032 55.3765 33.396Z" fill="#050505"/>
<path fill-rule="evenodd" clip-rule="evenodd" d="M41.2964 33.6005C41.8282 33.6091 42.37 33.618 42.9018 33.6266C42.532 33.9898 42.1443 34.3467 40.8834 34.2259C41.0989 34.0618 41.3065 33.8916 41.2964 33.6005Z" fill="#050505"/>
<path fill-rule="evenodd" clip-rule="evenodd" d="M31.6436 33.6608C29.071 33.3744 30.7544 34.2906 31.6436 33.6608V33.6608Z" fill="#050505"/>
<path fill-rule="evenodd" clip-rule="evenodd" d="M46.5125 34.3119C44.9 33.5445 45.5568 34.9783 46.5125 34.3119V34.3119Z" fill="#050505"/>
<path fill-rule="evenodd" clip-rule="evenodd" d="M8.7207 33.7257C9.7209 33.8273 8.73515 34.5499 7.90835 34.3461C7.69457 33.8756 8.67814 34.0616 8.7207 33.7257Z" fill="#050505"/>
<path fill-rule="evenodd" clip-rule="evenodd" d="M3.48458 34.0668C3.42947 34.5319 1.78074 34.1294 1.07025 34.2378C1.42288 33.4907 2.0597 34.2286 3.48458 34.0668Z" fill="#050505"/>
<path fill-rule="evenodd" clip-rule="evenodd" d="M47.315 34.5376C48.0356 34.5231 48.1544 34.8094 48.9192 34.7738C49.0403 35.1479 46.6619 35.1144 47.315 34.5376Z" fill="#050505"/>
<path fill-rule="evenodd" clip-rule="evenodd" d="M13.1392 34.2171C15.1745 34.4161 13.1065 35.4557 11.5169 35.0375C11.6522 34.5441 13.4266 34.9411 13.1392 34.2171Z" fill="#050505"/>
<path fill-rule="evenodd" clip-rule="evenodd" d="M28.8182 34.4613L29.623 34.4734C29.7327 34.8133 29.2382 34.8313 29.2089 35.1017L28.4082 35.0877C28.2995 34.7449 28.794 34.7268 28.8223 34.4594L28.8182 34.4613Z" fill="#050505"/>
<path fill-rule="evenodd" clip-rule="evenodd" d="M42.0841 34.666C42.3541 34.6684 42.623 34.6738 42.8889 34.6781C43.0711 35.134 42.3112 35.071 41.6764 35.0793C41.7565 34.9105 42.08 34.8751 42.0841 34.666Z" fill="#050505"/>
<path fill-rule="evenodd" clip-rule="evenodd" d="M4.28693 34.499L5.09166 34.5111C5.27384 34.967 4.50994 34.9059 3.87814 34.9153C3.95822 34.7465 4.28362 34.7151 4.28396 34.498L4.28693 34.499Z" fill="#050505"/>
<path fill-rule="evenodd" clip-rule="evenodd" d="M19.9596 34.9578C19.8433 35.4447 18.8803 35.4265 18.35 35.1409C18.7098 34.5334 18.9563 34.9119 19.9596 34.9578Z" fill="#050505"/>
<path fill-rule="evenodd" clip-rule="evenodd" d="M54.1331 35.6984C54.399 35.7027 54.6649 35.707 54.9378 35.7105L54.9303 36.1357C54.6604 36.1333 54.3915 36.128 54.1256 36.1237L54.1331 35.6984Z" fill="#050505"/>
<path fill-rule="evenodd" clip-rule="evenodd" d="M5.07996 35.1453C6.07719 35.2458 5.09249 35.9654 4.26463 35.7646C4.41152 35.4926 4.97633 35.4461 5.07996 35.1453Z" fill="#050505"/>
<path fill-rule="evenodd" clip-rule="evenodd" d="M54.9261 36.3449C55.195 36.3503 55.4609 36.3546 55.7308 36.357L55.7244 36.7793C55.4585 36.775 55.1896 36.7696 54.9197 36.7672L54.9261 36.3449Z" fill="#050505"/>
<path fill-rule="evenodd" clip-rule="evenodd" d="M27.1747 36.5446C28.0518 36.5223 28.45 36.7374 28.372 37.2011C27.9667 37.194 27.5673 37.1891 27.1649 37.183L27.1747 36.5446Z" fill="#050505"/>
<path fill-rule="evenodd" clip-rule="evenodd" d="M49.2853 37.0999C50.4971 37.3771 48.9893 37.904 48.8648 38.1505C47.5406 37.8133 49.7087 37.6483 49.2853 37.0999Z" fill="#050505"/>
<path fill-rule="evenodd" clip-rule="evenodd" d="M22.7463 36.8984L23.5511 36.9105L23.5394 37.5448L22.3323 37.5267C22.2266 37.1849 22.721 37.1669 22.7463 36.8984Z" fill="#050505"/>
<path fill-rule="evenodd" clip-rule="evenodd" d="M41.6432 37.1938C41.4647 37.4512 41.1206 37.6197 40.4326 37.599C40.2494 37.146 41.0133 37.2071 41.6432 37.1938Z" fill="#050505"/>
<path fill-rule="evenodd" clip-rule="evenodd" d="M10.6812 36.9267C11.3952 37.0904 10.7324 37.3093 10.6706 37.5581C9.95763 37.3915 10.6175 37.1715 10.6812 36.9267Z" fill="#050505"/>
<path fill-rule="evenodd" clip-rule="evenodd" d="M51.6838 37.7725C51.589 38.0765 50.4871 37.8283 50.4743 38.1748C49.1863 37.914 50.8707 37.577 51.6838 37.7725Z" fill="#050505"/>
<path fill-rule="evenodd" clip-rule="evenodd" d="M58.9188 38.3066C59.9181 38.3545 59.0251 39.0231 58.9059 39.1512C58.58 39.1088 58.5078 38.936 58.1024 38.929C58.1052 38.7895 58.105 38.6491 58.1089 38.5067C58.5753 38.5489 58.8269 38.4712 58.9188 38.3066Z" fill="#050505"/>
<path fill-rule="evenodd" clip-rule="evenodd" d="M48.4602 38.3577C49.8756 38.8711 47.8697 39.2944 47.6392 39.6136C47.0423 39.4213 46.7803 39.0674 46.8485 38.5467C47.4873 38.5366 48.3822 38.671 48.4602 38.3577Z" fill="#050505"/>
<path fill-rule="evenodd" clip-rule="evenodd" d="M19.5069 38.3274C19.6351 38.0421 20.5163 38.1682 21.1165 38.1444C21.0562 38.5207 21.6017 38.5944 21.5071 38.992C20.4334 38.9745 20.6419 38.3132 19.5069 38.3274Z" fill="#050505"/>
<path fill-rule="evenodd" clip-rule="evenodd" d="M55.6924 38.6836C56.1737 38.9283 56.4115 39.2937 57.6959 39.132C57.5174 39.3895 57.1733 39.5579 56.4824 39.5362C56.4051 39.716 56.6367 39.7415 56.8825 39.7554C56.3319 40.2883 55.4885 39.2195 54.4758 39.2939C54.362 38.8055 55.6446 39.0811 55.6924 38.6836Z" fill="#050505"/>
<path fill-rule="evenodd" clip-rule="evenodd" d="M29.5492 39.1173C29.6157 39.5788 29.2111 39.786 28.3334 39.7346C28.7667 39.541 28.4735 38.9553 29.5492 39.1173Z" fill="#050505"/>
<path fill-rule="evenodd" clip-rule="evenodd" d="M13.4592 39.5027C14.6898 38.7403 14.8019 40.1641 13.4592 39.5027V39.5027Z" fill="#050505"/>
<path fill-rule="evenodd" clip-rule="evenodd" d="M38.3793 40.1013L39.184 40.1133L39.1776 40.5356L38.3728 40.5235C38.3737 40.3801 38.3765 40.2407 38.3793 40.1013Z" fill="#050505"/>
<path fill-rule="evenodd" clip-rule="evenodd" d="M26.2981 41.1804C26.2699 40.8461 26.5064 40.3786 25.9116 40.3309C26.5545 39.5667 26.5034 40.8289 27.5158 40.5671C27.5794 41.0277 27.1777 41.2358 26.2981 41.1804Z" fill="#050505"/>
<path fill-rule="evenodd" clip-rule="evenodd" d="M45.6126 40.424C45.8825 40.4264 46.1514 40.4318 46.4173 40.4361L46.4098 40.8613C46.1409 40.856 45.875 40.8517 45.6051 40.8493L45.6126 40.424Z" fill="#050505"/>
<path fill-rule="evenodd" clip-rule="evenodd" d="M56.8673 40.8129C58.0807 40.616 57.575 41.2953 57.6592 41.6696C56.9521 41.6086 56.7461 41.2947 56.8673 40.8129Z" fill="#050505"/>
<path fill-rule="evenodd" clip-rule="evenodd" d="M41.5854 40.7874C41.6323 41.6332 40.5465 41.3306 39.5712 41.1776C39.9151 40.8687 40.8701 40.8907 41.5854 40.7874Z" fill="#050505"/>
<path fill-rule="evenodd" clip-rule="evenodd" d="M43.5973 40.8171C44.4277 41.0389 44.6832 41.7683 43.1802 41.6516C43.4956 41.4696 43.6209 41.1832 43.5973 40.8171Z" fill="#050505"/>
<path fill-rule="evenodd" clip-rule="evenodd" d="M27.0847 42.4566C25.6757 42.4703 24.8139 41.5754 25.4975 41.1667C26.7847 41.2133 27.2597 41.673 27.0847 42.4566Z" fill="#050505"/>
<path fill-rule="evenodd" clip-rule="evenodd" d="M19.858 41.5041C21.0339 41.4877 21.069 42.376 20.6487 42.5709C19.7718 42.5265 19.7938 42.0228 19.858 41.5041Z" fill="#050505"/>
<path fill-rule="evenodd" clip-rule="evenodd" d="M52.0013 43.4782C52.1616 43.0839 52.5115 43.6228 52.3973 43.9065C52.2349 44.3067 51.886 43.7648 52.0013 43.4782Z" fill="#050505"/>
<path fill-rule="evenodd" clip-rule="evenodd" d="M26.6737 43.0859C24.103 42.8035 25.7804 43.7177 26.6737 43.0859V43.0859Z" fill="#050505"/>
<path fill-rule="evenodd" clip-rule="evenodd" d="M51.1943 43.6795C50.9207 43.96 50.327 44.0597 49.5755 44.0766C49.1799 43.4311 50.4793 43.7161 51.1943 43.6795Z" fill="#050505"/>
<path fill-rule="evenodd" clip-rule="evenodd" d="M34.304 43.6264C34.6977 44.4651 33.3941 44.8406 32.6787 44.4458C32.7382 43.912 33.2766 43.6388 34.304 43.6264Z" fill="#050505"/>
<path fill-rule="evenodd" clip-rule="evenodd" d="M46.7565 44.4546C44.8461 43.8387 45.7726 45.1344 46.7565 44.4546V44.4546Z" fill="#050505"/>
<path fill-rule="evenodd" clip-rule="evenodd" d="M55.993 45.4431C56.2589 45.4474 56.5278 45.4527 56.7947 45.4541L56.7883 45.8763C56.5224 45.872 56.2535 45.8667 55.9866 45.8653L55.993 45.4431Z" fill="#050505"/>
<path fill-rule="evenodd" clip-rule="evenodd" d="M54.7591 47.1166C54.9319 46.593 56.317 47.1258 55.9597 47.557C55.4314 47.4727 55.3298 47.1758 54.7591 47.1166Z" fill="#050505"/>
<path fill-rule="evenodd" clip-rule="evenodd" d="M41.8778 47.7577C42.0496 47.2371 43.7225 47.6281 43.0774 48.201C42.6679 48.0554 42.6668 47.7106 41.8778 47.7577Z" fill="#050505"/>
<path fill-rule="evenodd" clip-rule="evenodd" d="M55.5416 48.3946C56.6284 48.6006 55.1903 49.326 54.7304 48.8048C54.8346 48.5777 55.533 48.6724 55.5416 48.3946Z" fill="#050505"/>
<path fill-rule="evenodd" clip-rule="evenodd" d="M36.8618 8.3945C37.6254 7.87375 36.9006 8.74595 36.8512 9.02591C36.18 9.01451 35.5117 9.00417 34.8434 8.99383C34.9828 8.49849 36.6013 8.81669 36.8618 8.3945Z" fill="#050505"/>
<path fill-rule="evenodd" clip-rule="evenodd" d="M28.7595 12.2829C29.2569 11.4669 31.0251 13.3761 29.149 13.1334C29.2063 12.6056 29.9251 12.4834 28.7595 12.2829Z" fill="#050505"/>
<path fill-rule="evenodd" clip-rule="evenodd" d="M39.1252 17.9348C39.811 17.8677 39.8848 18.1113 39.9265 18.3702C41.1654 18.2424 40.6973 18.2331 41.9343 18.4022L41.9237 19.0336C40.2051 18.7901 40.3764 18.8912 39.106 19.2016C40.2085 18.6677 39.6696 18.5663 39.1252 17.9348Z" fill="#050505"/>
<path fill-rule="evenodd" clip-rule="evenodd" d="M52.7462 21.3149C52.9781 20.8792 54.2953 21.6218 53.9405 22.1776C52.6546 22.0145 53.1946 21.4644 52.7462 21.3149Z" fill="#050505"/>
<path fill-rule="evenodd" clip-rule="evenodd" d="M19.7669 21.6445C20.1383 21.8034 20.3687 22.0391 20.5629 22.292C20.3821 22.8194 19.7025 21.9292 19.7669 21.6445Z" fill="#050505"/>
<path fill-rule="evenodd" clip-rule="evenodd" d="M4.48279 21.8314C4.89016 21.1372 5.27385 22.0793 5.68466 22.0616C5.44837 22.6696 5.06172 21.7264 4.48279 21.8314Z" fill="#050505"/>
<path fill-rule="evenodd" clip-rule="evenodd" d="M48.6893 23.5764C48.7291 23.2763 48.769 22.9762 48.2986 22.936C48.9101 22.4949 49.2755 23.1029 50.3116 22.7559C51.1252 23.2693 49.4594 23.7232 51.0982 23.8247C50.971 24.1071 50.0918 23.9849 49.4876 24.0107L49.4929 23.5914L48.6882 23.5793L48.6893 23.5764Z" fill="#050505"/>
<path fill-rule="evenodd" clip-rule="evenodd" d="M20.5214 24.8244C20.4839 24.8077 20.1305 24.8425 20.1161 24.8173C19.1918 23.3085 22.0659 26.0088 20.5214 24.8244Z" fill="#050505"/>
<path fill-rule="evenodd" clip-rule="evenodd" d="M32.1219 28.8095C32.6473 29.344 30.5223 29.4441 31.7067 29.648C31.7799 29.8278 31.5464 29.8451 31.3002 29.8511C30.6144 29.9181 30.5436 29.6756 30.5019 29.4168C32.0274 29.7521 30.5994 28.4753 32.119 28.8084L32.1219 28.8095Z" fill="#050505"/>
<path fill-rule="evenodd" clip-rule="evenodd" d="M57.0473 29.1961C57.4282 29.4787 57.2147 29.8908 57.028 30.4629C56.4597 30.4347 55.8903 30.4094 55.8197 30.655C55.2247 30.4668 55.2497 29.9642 55.033 29.5863C55.7524 29.4811 56.7034 29.5051 57.0502 29.1972L57.0473 29.1961Z" fill="#050505"/>
<path fill-rule="evenodd" clip-rule="evenodd" d="M36.9118 31.2086C37.038 30.7788 38.0057 30.812 38.1278 30.3841C38.6001 30.4284 38.4637 30.7743 38.5225 31.0226L39.3272 31.0347C40.0336 31.5299 37.6463 30.7979 36.9148 31.2097L36.9118 31.2086Z" fill="#050505"/>
<path fill-rule="evenodd" clip-rule="evenodd" d="M20.4175 31.5839C21.304 31.0935 20.2077 32.0141 20.4046 32.4285C20.0782 31.9647 18.8922 31.9341 18.8122 31.3507C20.1075 30.9421 20.0564 32.2044 20.4175 31.5839Z" fill="#050505"/>
<path fill-rule="evenodd" clip-rule="evenodd" d="M-0.0923028 31.6881C0.668169 31.7212 0.176654 32.3888 1.10207 32.3435C1.06129 32.7402 -0.617841 32.2634 -0.0923028 31.6881Z" fill="#050505"/>
<path fill-rule="evenodd" clip-rule="evenodd" d="M57.3813 33.4268C57.8962 32.7875 58.561 32.7699 59.3973 33.2478C59.1159 33.5221 58.3259 33.1208 57.3813 33.4268Z" fill="#050505"/>
<path fill-rule="evenodd" clip-rule="evenodd" d="M58.5743 34.5C59.9048 34.7258 58.1179 34.9093 58.1614 35.1254C56.9995 34.9896 58.7835 34.805 58.5743 34.5Z" fill="#050505"/>
<path fill-rule="evenodd" clip-rule="evenodd" d="M5.49521 34.3067C6.72064 33.4554 7.19758 34.4173 7.49014 35.1833C6.35949 35.1289 7.0072 34.1725 5.49521 34.3067Z" fill="#050505"/>
<path fill-rule="evenodd" clip-rule="evenodd" d="M17.1355 35.5482C17.6703 35.5579 18.2091 35.5656 18.7449 35.5723L18.7343 36.2037C18.0818 36.2525 18.0431 35.9947 17.5306 35.9695C17.0628 35.9971 17.1872 36.3522 17.1165 36.5979C15.5124 36.3049 17.2367 36.1659 17.1336 35.5442L17.1355 35.5482Z" fill="#050505"/>
<path fill-rule="evenodd" clip-rule="evenodd" d="M31.1985 36.3976C29.9142 36.5025 29.9614 35.9844 29.1867 36.3674C27.8883 36.2299 31.6688 35.4416 31.1985 36.3976Z" fill="#050505"/>
<path fill-rule="evenodd" clip-rule="evenodd" d="M46.033 39.3736C46.4396 39.5182 46.4396 39.8659 47.2337 39.814C47.0628 40.3416 45.6738 39.8008 46.033 39.3736Z" fill="#050505"/>
<path fill-rule="evenodd" clip-rule="evenodd" d="M41.2022 39.7215C41.2355 39.7032 41.1604 39.5194 41.2064 39.5124C44.0587 39.0592 38.9828 40.5101 41.2022 39.7215Z" fill="#050505"/>
<path fill-rule="evenodd" clip-rule="evenodd" d="M38.3181 44.1183C38.6025 44.6909 37.5139 44.5277 37.4996 44.9438C36.9707 45.0399 37.3412 43.8946 38.3181 44.1183Z" fill="#050505"/>
<path fill-rule="evenodd" clip-rule="evenodd" d="M56.0016 44.8078C55.1605 44.9733 54.2915 45.5836 53.5821 45.1909C54.0811 44.897 54.9694 44.8151 56.0016 44.8078Z" fill="#050505"/>
</mask>
<g mask="url(#mask0_98_81)">
<path d="M60.4724 27.8467C60.4724 27.8467 60.4656 27.8376 60.4637 27.8336C59.9529 27.2675 59.483 26.5019 58.8561 26.065C57.9404 25.4251 56.9865 24.7984 56.0473 24.1869C55.1297 23.5898 54.1771 23.1005 53.2109 22.5931C52.1383 22.0278 51.1919 21.2766 50.1594 20.6453C49.1191 20.0079 47.961 19.5325 46.7699 19.1591C46.2437 18.8716 45.7037 18.6228 45.0822 18.4151C42.8556 17.6633 40.2806 17.1019 37.9294 17.3021C36.8058 17.3972 35.7845 17.4018 34.6599 17.2927C33.607 17.189 32.5557 17.2497 31.5135 17.4072C30.5562 17.5515 29.669 17.8277 28.7771 18.1925C27.5487 18.695 26.2372 18.7635 24.9352 18.9089C23.8879 19.0245 22.877 19.2065 21.8872 19.5833C20.7358 20.0196 19.6452 20.5577 18.4636 20.9098C16.0733 21.6242 13.9287 22.9543 11.6721 24.0071C10.7339 24.4457 9.78372 24.8332 8.85523 25.2819C8.41328 25.4624 7.96526 25.6975 7.53637 25.9729C6.82922 26.3633 6.12589 26.7617 5.42447 27.1641C4.40358 27.7505 2.27067 28.747 2.50079 30.1962C2.54053 30.451 2.77174 30.6469 3.00111 30.7352C2.65524 30.9933 2.50906 31.4795 2.89688 31.8648C3.69502 32.6568 4.62474 33.295 5.57899 33.9018C5.59469 33.9141 5.60636 33.9283 5.62206 33.9406C5.77029 34.2005 5.97103 34.4257 6.27103 34.5692C6.33612 34.6024 6.40246 34.6226 6.46689 34.6388C6.57973 34.7258 6.69553 34.8138 6.80942 34.8977C7.63296 35.5149 8.42689 36.1683 9.31408 36.6911C9.69024 36.9118 10.0797 37.1138 10.4745 37.301C11.5434 38.1024 12.6432 38.8546 13.8762 39.3733C15.947 40.2435 18.1847 40.4844 20.3767 40.8728C22.6818 41.2814 24.9354 41.8255 27.2908 41.7639C28.441 41.735 29.5715 41.7994 30.7207 41.8204C31.9795 41.8435 33.2249 41.688 34.4783 41.5855C35.5939 41.4942 36.6974 41.559 37.8072 41.362C38.9699 41.157 40.1464 40.9135 41.2956 40.6336C43.6423 40.0607 46.0542 39.5579 48.3179 38.7014C49.2524 38.3485 50.1825 37.9705 51.0894 37.5542C52.1159 37.0836 53.244 36.7693 54.2189 36.19C55.211 35.6001 56.1189 34.8332 57.0305 34.1311C57.9148 33.4494 58.8276 32.8379 59.5649 31.9869C59.831 31.6804 60.1143 31.3164 60.3563 30.9178C60.9139 30.5344 61.5081 30.1607 61.9787 29.6929C62.2054 29.4693 62.3147 29.0301 62.1171 28.7492C61.686 28.1379 61.1195 28.02 60.4794 27.8458L60.4724 27.8467ZM46.5064 20.7369C46.5496 20.7656 46.5918 20.7973 46.634 20.8291C45.7371 20.597 44.8312 20.4086 43.9248 20.25C41.6712 19.8564 39.3976 19.7632 37.117 19.6241C37.0225 19.6172 36.9269 19.6133 36.8324 19.6064C40.1415 19.4294 43.3539 19.7026 46.5023 20.7388L46.5064 20.7369ZM35.2601 37.103C34.5599 37.4925 33.8162 37.8164 33.0308 37.9851C32.9007 38.0124 32.7667 38.0416 32.6326 38.0708C31.6337 38.003 30.6619 37.7744 29.6792 37.5954C28.8404 37.4442 27.9993 37.3089 27.1603 37.1676C26.4573 37.048 25.7096 37.0261 25.0174 36.8668C24.9737 36.858 24.9343 36.8373 24.8957 36.8236C24.5444 36.3543 24.2405 35.8083 23.9831 35.3289C22.5882 32.7368 22.6135 28.821 23.8262 26.1633C24.3002 25.1217 25.0493 24.0308 25.9266 23.1995C27.6671 22.6953 29.5834 22.5711 31.2403 22.913C32.7037 23.2162 33.7306 23.929 34.6995 25.0492C35.7376 26.2475 37.0341 27.6781 37.3841 29.2601C37.9762 31.9379 38.0063 35.5758 35.263 37.1041L35.2601 37.103ZM14.7656 35.9889C14.6897 35.9485 14.6119 35.9041 14.536 35.8638C14.827 35.9572 15.1231 36.0458 15.4162 36.1334C15.2011 36.0803 14.9839 36.0331 14.7656 35.9889ZM20.5718 23.1505C21.3941 22.878 22.2322 22.6646 23.0714 22.4482C23.035 22.4754 22.9986 22.5025 22.9611 22.5327C22.7272 22.7203 22.5139 22.9253 22.3174 23.1395C21.1796 23.9417 20.5447 24.9562 20.2036 26.2256C19.71 27.3973 19.6693 28.6398 19.6198 30.0196C19.5535 31.8982 18.8588 34.0581 19.9529 35.7945C20.0485 35.9488 20.1614 36.0826 20.2794 36.2115C20.3926 36.4757 20.5199 36.7383 20.6673 36.9913C20.2994 36.9072 19.9285 36.8221 19.5586 36.7341C18.3957 36.4508 17.2403 36.1369 16.0955 35.7933C14.9903 35.4604 13.8631 35.1331 12.8002 34.6815C12.6925 34.6365 12.5858 34.5885 12.4803 34.5376C12.4253 34.4947 12.3734 34.4528 12.3184 34.4099C11.4112 33.6426 10.7761 32.6177 9.94106 31.7792C9.1079 30.9446 8.18802 30.213 7.21187 29.5549C6.98772 29.405 6.75552 29.2589 6.51573 29.1435C6.64554 28.9289 6.80311 28.7209 6.98166 28.5102C7.5723 27.8177 8.34178 27.299 9.13744 26.8666C9.95322 26.4246 10.9586 26.2673 11.8411 25.9761C13.7795 25.3383 15.7149 24.7562 17.6766 24.2036C18.6684 23.9245 19.588 23.4726 20.5658 23.1484L20.5718 23.1505ZM54.9518 32.3621C55.0142 32.3275 55.0748 32.2889 55.1402 32.2553C55.2016 32.2237 55.262 32.195 55.3193 32.1652C55.1955 32.2315 55.0746 32.2988 54.9518 32.3621ZM58.4654 29.824C58.2187 30.1509 57.8584 30.3838 57.5049 30.579C57.0154 30.8462 56.494 31.0619 55.9835 31.2849C55.4528 31.5174 54.92 31.7558 54.4287 32.0658C53.9939 32.339 53.5851 32.6517 53.1823 32.9664C52.7552 33.3026 52.33 33.6428 51.8738 33.9386C51.4227 34.2294 50.9599 34.5061 50.4982 34.7799C49.9145 35.1239 49.3181 35.4567 48.7074 35.7543C48.603 35.7941 48.4986 35.8339 48.3942 35.8736C46.9062 36.4008 45.4126 36.7656 43.8573 37.0215C43.2995 37.1139 42.7824 37.3178 42.25 37.4895C41.7365 37.561 41.2221 37.6254 40.708 37.6799C39.9013 37.7674 39.0909 37.837 38.2808 37.8965C39.2721 36.8951 39.9531 35.6196 40.349 34.2527C40.8423 32.546 41.2455 30.5097 40.7544 28.7605C40.5015 27.8548 39.9378 27.1462 39.5078 26.3247C39.0367 25.4217 38.7354 24.4453 38.1444 23.6066C37.1688 22.2233 35.9552 21.1331 34.2718 20.7718C33.132 20.5269 31.9458 20.3089 30.7558 20.2334C31.4946 20.1017 32.2388 20.002 32.9837 19.9192C34.3495 19.9703 35.7177 20.0524 37.0719 20.1362C39.2898 20.2731 41.5079 20.3532 43.7 20.7317C45.3005 21.0067 46.9049 21.3834 48.4517 21.9034C48.6293 21.9867 48.8059 22.0729 48.9773 22.1739C50.5774 23.1174 52.1114 24.0775 53.6076 25.1345C53.8706 25.3818 54.1307 25.6281 54.3897 25.8773C55.0173 26.4816 55.6306 27.0976 56.3335 27.6217C56.9225 28.0618 57.5286 28.4913 58.0441 29.0157C58.2385 29.2118 58.4343 29.4319 58.5508 29.6873C58.525 29.7316 58.4962 29.7749 58.4634 29.82L58.4654 29.824ZM58.452 28.696C58.3642 28.6046 58.2683 28.517 58.1753 28.4305C58.2294 28.4664 58.2835 28.5024 58.3405 28.5394C58.4498 28.6083 58.5579 28.6802 58.6641 28.7481C58.6835 28.8252 58.697 28.9002 58.7034 28.976C58.6198 28.8727 58.533 28.7783 58.453 28.6931L58.452 28.696ZM59.2452 29.7838C59.2128 29.8091 59.1815 29.8314 59.1491 29.8566C59.1421 29.8106 59.1321 29.7636 59.1191 29.7155C59.201 29.504 59.2352 29.2855 59.2316 29.0702C59.2888 29.0973 59.3441 29.1203 59.4024 29.1444C59.4235 29.3391 59.3674 29.5531 59.2645 29.7673C59.2594 29.7721 59.2514 29.776 59.2452 29.7838Z" fill="#FCFCFC"/>
<path d="M31.657 25.6987C29.8403 25.0259 27.6839 25.9004 26.5201 27.3586C25.8335 28.2177 25.6737 29.1838 25.6862 30.258C25.6946 30.9864 25.5943 31.7665 25.6582 32.508C25.0497 32.1511 24.1189 32.813 24.5706 33.5453C25.5579 35.1401 27.2681 35.21 28.9486 35.4667L28.9545 35.4688C29.5488 35.5932 30.146 35.6719 30.6713 35.7551C31.1331 35.8291 31.4707 35.5379 31.6041 35.1909C31.829 35.0569 32.0383 34.9007 32.2419 34.7324C32.2743 34.7072 32.3048 34.6779 32.3371 34.6526C32.5093 34.6102 32.6784 34.5767 32.851 34.5613C33.2593 34.5226 33.6522 34.2544 33.6424 33.793C33.6279 33.0724 33.1364 32.4898 32.3706 32.7255C32.0739 32.8173 31.833 33.0057 31.6028 33.2113C31.3945 33.261 31.1883 33.3147 30.9847 33.3793C30.2949 33.5987 30 33.7512 29.3945 33.2918C28.4199 32.5541 28.4019 31.7587 28.557 30.6271C28.7131 29.4925 29.4259 28.2216 30.7617 28.3289C31.8339 28.416 32.9432 28.9911 33.11 30.1202C33.2477 31.0584 34.5463 30.7346 34.6429 29.9366C34.7642 28.9467 34.3201 28.2873 33.7079 27.5648C33.1005 26.8473 32.5797 26.0369 31.658 25.6958L31.657 25.6987ZM28.0612 27.9602C27.7741 28.2693 27.5379 28.6233 27.3668 29.0104C27.3858 28.9569 27.3989 28.9014 27.4249 28.8471C27.5649 28.5192 27.7891 28.2178 28.0642 27.9613L28.0612 27.9602Z" fill="#FCFCFC"/>
<path d="M8.50109 22.0104C9.17886 21.994 9.79923 21.5092 9.96765 20.8571C10.2735 19.6587 9.24685 17.836 7.91564 17.8473C7.75784 17.5672 7.5738 17.3045 7.33791 17.0936C6.72442 16.5344 5.93059 17.0745 6.02207 17.8325C6.15574 18.923 6.40315 20.1543 7.01417 21.0871C7.35259 21.6019 7.85022 22.0263 8.50109 22.0104ZM8.4774 20.4508C8.46401 20.4226 8.44872 20.3904 8.43342 20.3582C8.44252 20.3514 8.4476 20.3466 8.45373 20.3387C8.47503 20.4198 8.50654 20.538 8.50134 20.4492C8.52795 20.8632 8.36583 20.2005 8.4774 20.4508Z" fill="#FCFCFC"/>
<path d="M16.0156 18.7222C16.866 19.3389 18.1015 18.7319 17.8728 17.5608C17.7589 16.9787 17.1801 16.0775 16.5545 15.7781C16.394 15.3834 16.2697 14.9714 16.1378 14.5434C15.8392 13.5781 14.453 13.9509 14.6276 14.9357C14.7397 15.5606 14.8084 16.2603 14.9796 16.9163C14.8783 17.3516 14.8423 17.8102 14.8031 18.1272C14.7078 18.8555 15.5247 19.0591 16.0156 18.7222Z" fill="#FCFCFC"/>
<path d="M24.8889 15.9371C24.8889 15.9371 24.8944 15.9591 24.8942 15.9691C25.0495 16.5759 25.4595 17.0961 26.119 17.1501C26.2224 17.1602 26.3222 17.1522 26.4241 17.1383C26.8956 17.2224 27.4124 16.888 27.4073 16.4416C27.4291 16.3992 27.4508 16.3568 27.4677 16.3093C27.7788 15.397 27.1167 14.2789 26.3809 13.7063C26.396 13.4008 26.4051 13.0931 26.3793 12.7898C26.3208 12.1271 25.9189 11.4994 25.1571 11.7333C24.4363 11.955 24.0902 12.6275 24.1426 13.3449C24.159 13.5714 24.2023 13.7974 24.2677 14.0179C24.0736 14.3567 23.9566 14.7798 23.9332 15.2027C23.8973 15.8017 24.4384 16.0476 24.8919 15.9381L24.8889 15.9371Z" fill="#FCFCFC"/>
<path d="M34.3615 16.3742C34.9006 16.1648 34.9954 15.56 34.794 15.1674C34.8399 15.1136 34.8799 15.0576 34.9118 15.0054C35.1628 14.6099 35.1876 14.1641 35.2733 13.7165C35.4763 12.6755 35.7895 11.7104 35.6584 10.6408C35.602 10.1694 34.8944 9.88435 34.5204 10.1558C33.5418 10.8676 33.302 12.4538 33.1263 13.5681C33.0727 13.9067 33.2197 14.1796 33.4354 14.3533C33.3337 14.4609 33.2211 14.5612 33.1422 14.6702C32.4244 15.6452 33.1576 16.8453 34.3564 16.3791L34.3615 16.3742Z" fill="#FCFCFC"/>
<path d="M43.9249 17.4484C44.9214 17.6357 45.9984 16.8821 46.6764 16.2072C47.5729 15.3125 48.1364 13.935 47.4985 12.7487C47.3794 12.5291 47.0905 12.3261 46.831 12.3508C45.057 12.5356 42.9035 14.4642 42.7941 16.3041C42.7657 16.7788 43.1004 17.0315 43.4674 17.0617C43.5573 17.2508 43.7045 17.4102 43.9239 17.4514L43.9249 17.4484ZM46.1899 14.1253C46.0852 14.5327 45.7573 14.9376 45.4904 15.1803C45.4549 15.2145 45.4115 15.2425 45.373 15.2756C45.356 15.1258 45.298 14.9882 45.2127 14.8709C45.5146 14.5671 45.8596 14.302 46.1899 14.1253Z" fill="#FCFCFC"/>
<path d="M55.664 21.1292C56.361 21.0494 56.9235 20.6711 57.599 20.2662C58.3845 19.7967 59.349 19.6884 59.9896 18.9869C60.3512 18.5906 60.2802 17.8031 59.666 17.6783C58.6678 17.4771 57.3705 17.7879 56.5148 18.3328C56.0235 18.6428 55.5327 18.9229 55.0367 19.2178C54.5104 19.5321 54.2656 20.0134 54.2715 20.6172C54.2785 21.4154 55.2682 21.5935 55.6651 21.1262L55.664 21.1292Z" fill="#FCFCFC"/>
</g>
</g>
<defs>
<clipPath id="clip0_98_81">
<rect width="56.8693" height="36.5689" fill="white" transform="translate(12.2537) rotate(19.5776)"/>
</clipPath>
</defs>
</svg>
