<svg width="56" height="79" viewBox="0 0 56 79" fill="none" xmlns="http://www.w3.org/2000/svg">
<g clip-path="url(#clip0_10_1083)">
<mask id="mask0_10_1083" style="mask-type:luminance" maskUnits="userSpaceOnUse" x="-651" y="-293" width="872" height="698">
<path d="M220.196 -137.082L-539.035 -292.912L-650.1 248.222L109.131 404.051L220.196 -137.082Z" fill="white"/>
<path fill-rule="evenodd" clip-rule="evenodd" d="M35.5293 4.63612C34.4228 4.88238 32.9311 4.12713 32.0585 3.92375C32.9788 3.30347 34.3186 4.10847 35.5293 4.63612Z" fill="#050505"/>
<path fill-rule="evenodd" clip-rule="evenodd" d="M36.906 5.4608C36.7654 5.75157 35.9599 5.49723 35.3696 5.41653C35.231 5.6187 35.5127 5.70484 35.8092 5.77784C35.8736 6.27251 32.9424 5.6709 33.8827 5.11134C35.0535 5.35975 35.434 4.96448 36.906 5.4608Z" fill="#050505"/>
<path fill-rule="evenodd" clip-rule="evenodd" d="M43.083 8.08795C43.0277 7.64774 45.8336 8.26815 44.5166 8.65325C44.7267 8.59524 43.0792 8.06694 43.083 8.08795Z" fill="#050505"/>
<path fill-rule="evenodd" clip-rule="evenodd" d="M19.2956 3.20579C20.1379 3.57691 19.2683 3.69378 19.1355 3.98614C18.2893 3.61423 19.1636 3.49427 19.2956 3.20579Z" fill="#050505"/>
<path fill-rule="evenodd" clip-rule="evenodd" d="M48.5413 9.20834C50.0763 10.1667 46.8497 10.8072 45.8431 9.73883C46.5714 9.42304 48.2689 9.90495 48.5413 9.20834Z" fill="#050505"/>
<path fill-rule="evenodd" clip-rule="evenodd" d="M39.5093 7.8966C39.5936 7.84107 40.6758 7.63432 41.0496 7.94168C41.3538 8.19427 38.9494 8.2591 39.5093 7.8966Z" fill="#050505"/>
<path fill-rule="evenodd" clip-rule="evenodd" d="M35.8821 7.96539C37.4951 8.54325 36.0271 8.50088 36.1043 9.36637C34.4921 8.78462 35.9585 8.83476 35.8821 7.96539Z" fill="#050505"/>
<path fill-rule="evenodd" clip-rule="evenodd" d="M33.2941 7.97642C30.1836 7.02647 32.0399 8.54839 33.2941 7.97642V7.97642Z" fill="#050505"/>
<path fill-rule="evenodd" clip-rule="evenodd" d="M29.1668 7.94244C29.1161 7.49914 31.9205 8.12732 30.6042 8.50854C30.8151 8.44665 29.1661 7.92612 29.1668 7.94244Z" fill="#050505"/>
<path fill-rule="evenodd" clip-rule="evenodd" d="M16.2853 5.29861C15.7863 5.60079 14.9244 5.60188 13.7055 5.31126C13.8956 4.75958 15.0665 5.00799 16.2853 5.29861Z" fill="#050505"/>
<path fill-rule="evenodd" clip-rule="evenodd" d="M39.9615 10.7002C39.9994 10.1213 41.7441 10.9447 42.4957 10.9493C42.4656 11.5297 40.7123 10.7087 39.9615 10.7002Z" fill="#050505"/>
<path fill-rule="evenodd" clip-rule="evenodd" d="M24.6031 7.54797C25.6846 7.64048 25.4739 8.1151 25.4321 8.5354C25.0395 8.39817 24.9932 8.1702 24.4963 8.06821L24.6031 7.54797Z" fill="#050505"/>
<path fill-rule="evenodd" clip-rule="evenodd" d="M26.5295 8.21442L27.5234 8.41841L27.4158 8.94252L26.422 8.73853L26.5295 8.21442Z" fill="#050505"/>
<path fill-rule="evenodd" clip-rule="evenodd" d="M54.2269 14.1703C55.4026 14.5532 56.6409 15.4385 55.4508 15.7768C54.0491 15.5296 54.1528 14.8469 54.2269 14.1703Z" fill="#050505"/>
<path fill-rule="evenodd" clip-rule="evenodd" d="M51.9838 15.0653C53.0645 15.1617 52.8507 15.6316 52.8136 16.0488C52.4241 15.9163 52.3739 15.6875 51.8762 15.5894L51.9838 15.0653Z" fill="#050505"/>
<path fill-rule="evenodd" clip-rule="evenodd" d="M14.703 7.95968C16.3992 7.30444 16.2138 9.09511 14.703 7.95968V7.95968Z" fill="#050505"/>
<path fill-rule="evenodd" clip-rule="evenodd" d="M46.4791 14.2105C46.1933 14.4796 45.7332 14.6117 44.8815 14.4248C44.7664 13.8226 45.694 14.0736 46.4791 14.2105Z" fill="#050505"/>
<path fill-rule="evenodd" clip-rule="evenodd" d="M53.3635 15.8946C55.6603 16.5116 54.5728 16.6849 56.7283 17.1233C55.7898 17.4971 52.863 17.1108 53.3635 15.8946Z" fill="#050505"/>
<path fill-rule="evenodd" clip-rule="evenodd" d="M50.7796 15.9064C52.3199 15.9515 51.5336 16.668 51.556 17.1501C50.7381 16.7394 49.7647 16.1796 50.7796 15.9064Z" fill="#050505"/>
<path fill-rule="evenodd" clip-rule="evenodd" d="M32.7763 13.0245C34.1805 13.5555 34.2504 13.5698 35.7502 13.6349L35.5892 14.4191C34.8371 13.9047 32.4177 13.8653 32.7763 13.0245Z" fill="#050505"/>
<path fill-rule="evenodd" clip-rule="evenodd" d="M39.8297 16.3697C39.8676 15.7909 41.6123 16.6142 42.3631 16.6227C42.1772 17.2723 40.3893 16.8568 39.8297 16.3697Z" fill="#050505"/>
<path fill-rule="evenodd" clip-rule="evenodd" d="M27.9376 13.929L28.9276 14.1321L28.8208 14.6524L27.8308 14.4492L27.9376 13.929Z" fill="#050505"/>
<path fill-rule="evenodd" clip-rule="evenodd" d="M23.8676 13.6356C24.2349 13.8567 24.6154 14.0723 25.3011 14.2009C24.91 14.6871 24.4154 14.5936 23.76 14.1597L23.8676 13.6356Z" fill="#050505"/>
<path fill-rule="evenodd" clip-rule="evenodd" d="M12.9123 11.6583C9.79787 10.7075 11.6588 12.2263 12.9123 11.6583V11.6583Z" fill="#050505"/>
<path fill-rule="evenodd" clip-rule="evenodd" d="M20.347 13.1842C21.5918 13.8807 20.9141 14.1664 20.0801 14.4847C18.9367 14.1813 20.027 13.2844 20.347 13.1842Z" fill="#050505"/>
<path fill-rule="evenodd" clip-rule="evenodd" d="M28.2787 14.8121C29.3676 14.987 29.8072 15.3483 29.6047 15.9015C28.5119 15.7258 28.0731 15.3606 28.2787 14.8121Z" fill="#050505"/>
<path fill-rule="evenodd" clip-rule="evenodd" d="M46.4577 19.3606C44.6386 18.0324 45.1132 19.9586 46.4577 19.3606V19.3606Z" fill="#050505"/>
<path fill-rule="evenodd" clip-rule="evenodd" d="M53.4447 20.5236C50.3342 19.5737 52.1943 21.0964 53.4447 20.5236V20.5236Z" fill="#050505"/>
<path fill-rule="evenodd" clip-rule="evenodd" d="M35.988 17.4828C35.5454 18.3184 33.5191 17.3887 32.4685 17.0274C33.1734 16.1162 34.1847 17.3392 35.988 17.4828Z" fill="#050505"/>
<path fill-rule="evenodd" clip-rule="evenodd" d="M17.4953 14.5005C15.2761 13.2885 16.1203 15.1084 17.4953 14.5005V14.5005Z" fill="#050505"/>
<path fill-rule="evenodd" clip-rule="evenodd" d="M37.8116 18.6703C39.2424 19.0125 38.7531 20.1542 37.1011 19.6088C37.1307 19.1294 37.8199 19.1818 37.8116 18.6703Z" fill="#050505"/>
<path fill-rule="evenodd" clip-rule="evenodd" d="M44.1989 20.2524L45.6897 20.5584L45.5295 21.3387L44.0387 21.0327L44.1989 20.2524Z" fill="#050505"/>
<path fill-rule="evenodd" clip-rule="evenodd" d="M42.1691 20.1108C41.3389 21.5142 44.2906 20.6554 42.1691 20.1108V20.1108Z" fill="#050505"/>
<path fill-rule="evenodd" clip-rule="evenodd" d="M15.2982 15.1338C15.2339 14.6392 18.1697 15.2377 17.2287 15.8011C16.8284 15.5045 16.1649 15.2874 15.2982 15.1338Z" fill="#050505"/>
<path fill-rule="evenodd" clip-rule="evenodd" d="M21.6321 16.976C18.5186 16.0213 20.3817 17.5487 21.6321 16.976V16.976Z" fill="#050505"/>
<path fill-rule="evenodd" clip-rule="evenodd" d="M45.9241 21.9617L46.9102 22.1641L46.8034 22.6844L45.8173 22.482L45.9241 21.9617Z" fill="#050505"/>
<path fill-rule="evenodd" clip-rule="evenodd" d="M38.8678 21.0556C39.2035 20.4448 40.7974 21.4314 40.2518 21.8818C39.6179 21.6587 39.5655 21.2635 38.8678 21.0556Z" fill="#050505"/>
<path fill-rule="evenodd" clip-rule="evenodd" d="M14.0405 16.235C14.9068 16.3117 14.9347 16.629 14.9237 16.9585C14.514 16.8258 14.4324 16.9669 14.3773 17.1174C13.8037 16.9551 14.0552 16.5577 14.0405 16.235Z" fill="#050505"/>
<path fill-rule="evenodd" clip-rule="evenodd" d="M34.8013 20.7631C36.0772 21.2879 38.7099 21.4318 38.0577 22.5198C36.2717 21.8781 36.8796 21.6954 34.6411 21.5434L34.8013 20.7631Z" fill="#050505"/>
<path fill-rule="evenodd" clip-rule="evenodd" d="M40.1986 22.142L41.1886 22.3452C40.8341 22.5152 40.4904 22.6914 41.0818 22.8654C40.6213 23.2564 40.1731 22.7194 39.5949 22.5602C39.7311 22.3697 40.1452 22.4021 40.1986 22.142Z" fill="#050505"/>
<path fill-rule="evenodd" clip-rule="evenodd" d="M9.64576 17.5016C10.7055 17.6018 10.9175 17.9488 11.5762 18.1689C11.5131 18.8316 11.0985 19.1956 10.3193 19.2663C8.90514 19.0206 9.5327 18.1905 7.45302 18.1318C7.58923 17.9413 8.00255 17.9776 8.05594 17.7175L8.85085 17.6096L9.64964 17.5024L9.64576 17.5016Z" fill="#050505"/>
<path fill-rule="evenodd" clip-rule="evenodd" d="M27.6989 20.1187L29.1858 20.4239L29.0782 20.948L27.5913 20.6428L27.6989 20.1187Z" fill="#050505"/>
<path fill-rule="evenodd" clip-rule="evenodd" d="M51.0409 32.2366C50.9676 32.9093 51.552 33.3934 52.8113 33.6842C51.9738 34.2163 51.8353 35.3248 49.5163 34.6384C49.0763 34.0222 50.5157 33.12 47.8496 32.6659C48.6786 32.4314 48.3047 31.2178 50.1043 31.7733L50.2723 32.2164L51.0401 32.2405L51.0409 32.2366Z" fill="#050505"/>
<path fill-rule="evenodd" clip-rule="evenodd" d="M46.2773 26.509L46.4414 26.9513C45.2128 27.2211 44.8404 27.2417 44.5148 26.2848L45.2835 26.305L44.5682 26.0247L44.6224 25.7607L45.3902 25.7848L45.2292 25.3472C45.6308 24.9279 47.2069 26.2184 46.9957 26.794L46.2812 26.5098L46.2773 26.509Z" fill="#050505"/>
<path fill-rule="evenodd" clip-rule="evenodd" d="M24.5145 20.5535C24.4639 20.1102 27.2682 20.7383 25.9481 21.1188C26.1552 21.0561 24.5108 20.5325 24.5145 20.5535Z" fill="#050505"/>
<path fill-rule="evenodd" clip-rule="evenodd" d="M36.3033 23.5152C34.7964 22.3806 34.6032 24.1696 36.3033 23.5152V23.5152Z" fill="#050505"/>
<path fill-rule="evenodd" clip-rule="evenodd" d="M16.3746 19.963C16.2763 19.4168 18.7083 20.0454 17.8074 20.5321L16.8174 20.3289C16.9521 20.126 16.6781 20.0414 16.3746 19.963Z" fill="#050505"/>
<path fill-rule="evenodd" clip-rule="evenodd" d="M30.7996 22.6566L31.7934 22.8606L31.6867 23.3808L30.6928 23.1768L30.7996 22.6566Z" fill="#050505"/>
<path fill-rule="evenodd" clip-rule="evenodd" d="M17.2036 20.9503C16.4841 22.4453 19.4381 21.5951 17.2036 20.9503V20.9503Z" fill="#050505"/>
<path fill-rule="evenodd" clip-rule="evenodd" d="M13.6253 20.7621C15.1991 20.9597 15.0954 21.6424 14.8414 22.3671C11.218 21.2552 13.3213 21.5534 13.6253 20.7621Z" fill="#050505"/>
<path fill-rule="evenodd" clip-rule="evenodd" d="M23.0436 22.6952L24.0336 22.8984L23.9276 23.4147L22.9376 23.2115L23.0436 22.6952Z" fill="#050505"/>
<path fill-rule="evenodd" clip-rule="evenodd" d="M44.3006 27.3292C41.6209 27.4346 45.8671 28.3507 44.3006 27.3292V27.3292Z" fill="#050505"/>
<path fill-rule="evenodd" clip-rule="evenodd" d="M11.4274 21.3954C12.2851 21.6321 12.4663 22.0699 12.2047 22.6352C10.6379 22.4431 10.5721 21.6204 11.4274 21.3954Z" fill="#050505"/>
<path fill-rule="evenodd" clip-rule="evenodd" d="M15.8395 22.568C15.7842 22.1278 18.5932 22.7529 17.273 23.1333C17.484 23.0714 15.8357 22.547 15.8395 22.568Z" fill="#050505"/>
<path fill-rule="evenodd" clip-rule="evenodd" d="M19.8034 23.3815C18.9685 24.788 21.928 23.9309 19.8034 23.3815V23.3815Z" fill="#050505"/>
<path fill-rule="evenodd" clip-rule="evenodd" d="M29.1599 25.5771L31.1477 25.9851C31.0285 26.349 30.9148 26.706 31.4806 26.8666C31.0828 27.1491 30.3219 27.1305 29.3938 26.9805C29.9521 26.3304 28.8337 26.1615 29.1646 25.574L29.1599 25.5771Z" fill="#050505"/>
<path fill-rule="evenodd" clip-rule="evenodd" d="M15.6789 23.3522L16.6689 23.5554C16.7226 24.0034 16.1075 23.9055 16.011 24.2377L15.021 24.0345C14.9681 23.5826 15.5832 23.6805 15.6789 23.3522Z" fill="#050505"/>
<path fill-rule="evenodd" clip-rule="evenodd" d="M11.6043 23.0581C12.8224 23.1948 12.5817 23.7563 14.027 23.8304C13.4798 24.9197 12.8367 24.0514 10.893 24.0004C10.9265 23.5218 11.6149 23.5781 11.6035 23.0619L11.6043 23.0581Z" fill="#050505"/>
<path fill-rule="evenodd" clip-rule="evenodd" d="M16.5083 24.3358C17.3232 24.4262 17.3114 24.7595 17.9426 24.8972C18.0323 25.4456 15.6081 24.8186 16.5083 24.3358Z" fill="#050505"/>
<path fill-rule="evenodd" clip-rule="evenodd" d="M21.4094 25.6087C19.0346 26.1207 19.6731 24.5079 21.4094 25.6087V25.6087Z" fill="#050505"/>
<path fill-rule="evenodd" clip-rule="evenodd" d="M25.4264 26.1661C27.3163 26.558 26.9575 27.8923 24.7198 27.1053C25.1512 26.9552 25.372 26.6283 25.4264 26.1661Z" fill="#050505"/>
<path fill-rule="evenodd" clip-rule="evenodd" d="M16.3483 25.1161C17.4072 25.2201 17.6239 25.564 18.2749 25.7826C18.3401 26.2733 15.4035 25.6787 16.3483 25.1161Z" fill="#050505"/>
<path fill-rule="evenodd" clip-rule="evenodd" d="M42.559 30.7668C42.3351 31.089 41.2767 30.7261 40.5209 30.6236C40.785 30.0466 41.9675 30.2974 42.559 30.7668Z" fill="#050505"/>
<path fill-rule="evenodd" clip-rule="evenodd" d="M12.2772 24.8267C12.4178 24.5359 13.2234 24.7903 13.8184 24.8679L13.659 25.6443C13.029 25.422 12.9727 25.0261 12.278 24.8228L12.2772 24.8267Z" fill="#050505"/>
<path fill-rule="evenodd" clip-rule="evenodd" d="M20.2552 26.189C21.5553 26.6946 19.6023 27.2607 19.1623 26.5069C19.34 26.252 20.1842 26.5346 20.2552 26.189Z" fill="#050505"/>
<path fill-rule="evenodd" clip-rule="evenodd" d="M10.2406 24.6757C10.5804 25.5627 9.04317 24.9114 8.14914 24.7926C8.35963 24.3584 9.12128 24.3731 10.2406 24.6757Z" fill="#050505"/>
<path fill-rule="evenodd" clip-rule="evenodd" d="M29.0201 28.8012L30.014 29.0052C30.1291 29.6074 29.2007 29.3602 28.4164 29.2194C28.5604 29.0305 28.9667 29.0613 29.0201 28.8012Z" fill="#050505"/>
<path fill-rule="evenodd" clip-rule="evenodd" d="M45.3728 32.1575C46.9218 32.4957 45.8837 32.8814 45.6554 33.3039C45.2543 33.0112 44.5947 32.7949 43.728 32.6413C43.8686 32.3505 44.6741 32.6048 45.2652 32.6817L45.372 32.1614L45.3728 32.1575Z" fill="#050505"/>
<path fill-rule="evenodd" clip-rule="evenodd" d="M7.28347 26.5083C8.79141 26.8098 10.5796 27.0271 10.0972 27.8991C7.54707 27.4121 7.21458 28.3027 7.28347 26.5083Z" fill="#050505"/>
<path fill-rule="evenodd" clip-rule="evenodd" d="M38.4014 33.4414C38.364 33.9192 37.6795 33.8637 37.6909 34.3798C36.7154 33.9085 36.5687 32.9479 38.4014 33.4414Z" fill="#050505"/>
<path fill-rule="evenodd" clip-rule="evenodd" d="M16.43 29.7451C15.4619 28.5875 20.5645 30.1608 16.43 29.7451V29.7451Z" fill="#050505"/>
<path fill-rule="evenodd" clip-rule="evenodd" d="M28.1119 33.2271C29.632 33.7252 28.6184 34.0512 28.3419 34.6296C27.6998 34.1702 27.4192 33.4086 28.1119 33.2271Z" fill="#050505"/>
<path fill-rule="evenodd" clip-rule="evenodd" d="M35.0456 34.6502C34.8555 35.2019 33.6846 34.9535 32.4619 34.6621C32.1365 33.685 34.09 34.5754 35.0456 34.6502Z" fill="#050505"/>
<path fill-rule="evenodd" clip-rule="evenodd" d="M34.9387 35.1705C35.7995 35.4119 35.9768 35.8488 35.7144 36.418C34.3251 36.3271 34.8273 35.6938 33.842 35.4875C34.0274 35.2343 34.8639 35.5152 34.9387 35.1705Z" fill="#050505"/>
<path fill-rule="evenodd" clip-rule="evenodd" d="M32.4085 34.9222C32.849 35.8905 30.7683 34.7919 31.205 35.7594C30.0349 35.3494 31.2103 34.393 32.4085 34.9222Z" fill="#050505"/>
<path fill-rule="evenodd" clip-rule="evenodd" d="M47.952 39.7387C49.6513 39.0882 49.4589 40.8734 47.952 39.7387V39.7387Z" fill="#050505"/>
<path fill-rule="evenodd" clip-rule="evenodd" d="M15.6828 33.3868C13.3088 33.8948 13.9473 32.2821 15.6828 33.3868V33.3868Z" fill="#050505"/>
<path fill-rule="evenodd" clip-rule="evenodd" d="M13.2057 32.8784C13.0194 33.4308 11.8408 33.1808 10.622 32.8902C10.8159 32.3393 11.9821 32.5908 13.2057 32.8784Z" fill="#050505"/>
<path fill-rule="evenodd" clip-rule="evenodd" d="M21.0267 35.0257C20.8467 35.5876 18.9025 34.7111 17.9995 34.6755C18.5169 34.2638 20.3178 34.419 21.0267 35.0257Z" fill="#050505"/>
<path fill-rule="evenodd" clip-rule="evenodd" d="M15.308 35.2114C15.499 36.1731 13.3925 35.2593 13.1152 35.8416C12.5779 35.4239 12.3698 34.9199 10.7451 34.813C11.3447 33.9813 14.0352 34.671 15.308 35.2114Z" fill="#050505"/>
<path fill-rule="evenodd" clip-rule="evenodd" d="M20.4382 37.8909C19.9787 38.6907 18.4905 37.8795 17.4118 37.5368C18.2421 37.0396 19.214 37.4292 20.4382 37.8909Z" fill="#050505"/>
<path fill-rule="evenodd" clip-rule="evenodd" d="M12.6869 37.9304C13.0226 37.3196 14.6126 38.3054 14.067 38.7558C13.4339 38.5287 13.3815 38.1336 12.6869 37.9304Z" fill="#050505"/>
<path fill-rule="evenodd" clip-rule="evenodd" d="M19.6245 39.3542C20.9372 38.7538 22.6706 41.2094 19.4651 40.1307C19.8498 39.9912 20.3797 39.578 19.6245 39.3542Z" fill="#050505"/>
<path fill-rule="evenodd" clip-rule="evenodd" d="M24.5248 40.6311C25.9941 39.6421 26.9257 41.8845 24.5248 40.6311V40.6311Z" fill="#050505"/>
<path fill-rule="evenodd" clip-rule="evenodd" d="M48.4226 44.9939C49.0051 45.2308 49.372 45.5327 49.2524 45.9774C48.4383 45.8832 48.4532 45.5545 47.815 45.4113C47.9551 45.2216 48.3692 45.254 48.4226 44.9939Z" fill="#050505"/>
<path fill-rule="evenodd" clip-rule="evenodd" d="M7.46234 38.2134C7.24796 38.6468 6.48711 38.6282 5.3717 38.3264C5.03572 37.4402 6.5691 38.0907 7.46234 38.2134Z" fill="#050505"/>
<path fill-rule="evenodd" clip-rule="evenodd" d="M31.0402 44.1329C31.6157 43.458 32.6032 44.6196 33.5171 44.6413C33.2631 45.2284 31.3081 44.3456 31.0402 44.1329Z" fill="#050505"/>
<path fill-rule="evenodd" clip-rule="evenodd" d="M13.0894 40.9948C14.2297 41.7467 15.0821 41.1813 16.5068 41.9673C16.1669 42.7957 12.8717 41.7795 13.0894 40.9948Z" fill="#050505"/>
<path fill-rule="evenodd" clip-rule="evenodd" d="M23.8313 44.0126C24.4177 44.2503 24.783 44.56 24.6611 44.9962C23.8462 44.9058 23.858 44.5724 23.2315 44.4317C23.3677 44.2411 23.7787 44.2689 23.8313 44.0126Z" fill="#050505"/>
<path fill-rule="evenodd" clip-rule="evenodd" d="M14.1486 43.3847C13.3184 44.7882 16.2771 43.9349 14.1486 43.3847V43.3847Z" fill="#050505"/>
<path fill-rule="evenodd" clip-rule="evenodd" d="M42.8445 49.5416C42.7869 49.0928 45.5943 49.7257 44.2702 50.1053C44.4843 50.0481 42.8368 49.5198 42.8445 49.5416Z" fill="#050505"/>
<path fill-rule="evenodd" clip-rule="evenodd" d="M46.311 50.2532C46.5341 49.9348 47.5941 50.2899 48.3443 50.3994C47.9953 50.7202 48.6471 51.8614 47.5797 51.6019C45.5424 51.6126 47.6368 50.4363 46.3071 50.2524L46.311 50.2532Z" fill="#050505"/>
<path fill-rule="evenodd" clip-rule="evenodd" d="M35.3556 48.2796C37.198 48.233 35.469 49.2254 36.6777 49.3683C35.9711 50.0122 35.139 48.7045 35.3556 48.2796Z" fill="#050505"/>
<path fill-rule="evenodd" clip-rule="evenodd" d="M15.915 44.8316C14.4081 43.697 14.2118 45.4814 15.915 44.8316V44.8316Z" fill="#050505"/>
<path fill-rule="evenodd" clip-rule="evenodd" d="M40.1535 50.0775C40.4418 49.6189 40.7443 50.3728 40.5367 50.6943C40.2483 51.153 39.9412 50.4021 40.1535 50.0775Z" fill="#050505"/>
<path fill-rule="evenodd" clip-rule="evenodd" d="M13.8819 44.6854C13.3345 45.0464 12.2196 44.9389 10.8021 44.5914C11.4881 44.3438 12.6076 44.4481 13.8819 44.6854Z" fill="#050505"/>
<path fill-rule="evenodd" clip-rule="evenodd" d="M41.4193 51.4177C41.682 52.3456 39.7107 51.4433 39.7219 52.1577C38.5221 51.6363 40.3468 51.0843 41.4193 51.4177Z" fill="#050505"/>
<path fill-rule="evenodd" clip-rule="evenodd" d="M11.9138 46.7212C11.6303 46.9988 11.1711 47.1271 10.3193 46.9402C10.599 46.6617 11.0621 46.5343 11.9138 46.7212Z" fill="#050505"/>
<path fill-rule="evenodd" clip-rule="evenodd" d="M15.3278 47.6929C15.0481 47.9713 14.5858 48.0949 13.7341 47.908C13.6228 47.3066 14.5457 47.5607 15.3278 47.6929Z" fill="#050505"/>
<path fill-rule="evenodd" clip-rule="evenodd" d="M41.8819 54.2314C41.7844 53.6814 44.2078 54.3123 43.3085 54.7912L42.3185 54.588C42.4571 54.3859 42.1745 54.3036 41.878 54.2306L41.8819 54.2314Z" fill="#050505"/>
<path fill-rule="evenodd" clip-rule="evenodd" d="M11.5398 48.546C12.1223 48.7829 12.4884 49.0886 12.3696 49.5295C11.7871 49.2926 11.4248 48.9877 11.5398 48.546Z" fill="#050505"/>
<path fill-rule="evenodd" clip-rule="evenodd" d="M36.3202 53.6321C33.2058 52.6813 35.0667 54.2002 36.3202 53.6321V53.6321Z" fill="#050505"/>
<path fill-rule="evenodd" clip-rule="evenodd" d="M17.9277 50.1241C17.7165 50.5622 16.9548 50.5474 15.8371 50.2371C16.0515 49.8037 16.8131 49.8184 17.9277 50.1241Z" fill="#050505"/>
<path fill-rule="evenodd" clip-rule="evenodd" d="M5.81784 48.7269C3.59863 47.5148 4.4437 49.3309 5.81784 48.7269V48.7269Z" fill="#050505"/>
<path fill-rule="evenodd" clip-rule="evenodd" d="M32.1359 53.8535L33.6267 54.1594L33.5191 54.6836L32.0283 54.3776L32.1359 53.8535Z" fill="#050505"/>
<path fill-rule="evenodd" clip-rule="evenodd" d="M38.9242 56.064C35.8099 55.1133 37.6661 56.6352 38.9242 56.064V56.064Z" fill="#050505"/>
<path fill-rule="evenodd" clip-rule="evenodd" d="M26.7012 55.1817C27.0449 56.0695 25.5077 55.4182 24.6144 55.2956C25.0076 55.0162 25.7723 55.0356 26.7012 55.1817Z" fill="#050505"/>
<path fill-rule="evenodd" clip-rule="evenodd" d="M30.665 55.9953C31.4161 56.4165 31.6638 56.9245 30.9476 57.1416C30.2888 56.9215 30.6708 56.4011 30.665 55.9953Z" fill="#050505"/>
<path fill-rule="evenodd" clip-rule="evenodd" d="M44.0511 58.7427L45.5381 59.0479L45.4313 59.5681L43.9444 59.2629L44.0511 58.7427Z" fill="#050505"/>
<path fill-rule="evenodd" clip-rule="evenodd" d="M33.4854 57.3914C34.1111 57.6938 34.2877 58.1347 34.2618 58.6351L32.7749 58.3299C32.8061 57.8427 33.4945 57.899 33.4854 57.3914Z" fill="#050505"/>
<path fill-rule="evenodd" clip-rule="evenodd" d="M11.5686 53.4311C11.5141 52.987 14.3223 53.616 13.0022 53.9964C13.2131 53.9346 11.5641 53.414 11.5686 53.4311Z" fill="#050505"/>
<path fill-rule="evenodd" clip-rule="evenodd" d="M14.986 54.4037C15.213 54.0861 16.273 54.4412 17.0233 54.5507C16.8648 55.0077 17.5158 55.2263 17.3028 55.6924L15.3228 55.286C15.3756 54.5362 17.6158 54.9758 14.986 54.4037Z" fill="#050505"/>
<path fill-rule="evenodd" clip-rule="evenodd" d="M10.365 54.2684C5.47268 53.2279 12.765 54.7772 10.365 54.2684V54.2684Z" fill="#050505"/>
<path fill-rule="evenodd" clip-rule="evenodd" d="M6.51946 55.3808C8.21565 54.7255 8.02242 56.5146 6.51946 55.3808V55.3808Z" fill="#050505"/>
<path fill-rule="evenodd" clip-rule="evenodd" d="M5.4726 55.4369C4.89849 55.5335 1.19618 55.4169 2.00569 54.7253C3.64746 54.6901 3.67071 55.0104 5.4726 55.4369Z" fill="#050505"/>
<path fill-rule="evenodd" clip-rule="evenodd" d="M38.4683 63.2935C38.8695 63.5862 39.529 63.8025 40.3949 63.96C40.4593 64.4546 37.5234 63.8561 38.4683 63.2935Z" fill="#050505"/>
<path fill-rule="evenodd" clip-rule="evenodd" d="M45.7962 65.3396C45.8401 65.5793 45.5511 65.5483 45.2459 65.4978C44.8331 65.3604 44.7585 65.507 44.6956 65.6559C43.9383 65.3831 44.4405 64.7499 42.8185 64.7285C41.3677 64.0302 45.7664 64.933 45.7962 65.3396Z" fill="#050505"/>
<path fill-rule="evenodd" clip-rule="evenodd" d="M16.5011 59.598L17.495 59.802L17.3882 60.3222L16.3943 60.1182L16.5011 59.598Z" fill="#050505"/>
<path fill-rule="evenodd" clip-rule="evenodd" d="M2.41147 57.7945C2.44548 57.2148 4.19487 58.0351 4.9379 58.042C4.91086 58.6271 3.15918 57.7983 2.41147 57.7945Z" fill="#050505"/>
<path fill-rule="evenodd" clip-rule="evenodd" d="M29.1683 63.2862C29.4 62.9656 30.4591 63.3246 31.2055 63.4333C31.212 64.1508 30.035 63.893 29.0615 63.8065C29.4199 63.6373 29.7589 63.4641 29.1683 63.2862Z" fill="#050505"/>
<path fill-rule="evenodd" clip-rule="evenodd" d="M37.4363 65.7965L38.4263 65.9997L38.3195 66.5199L37.3295 66.3167L37.4363 65.7965Z" fill="#050505"/>
<path fill-rule="evenodd" clip-rule="evenodd" d="M11.0618 60.9254C12.4558 61.0132 11.9528 61.6504 12.935 61.852C12.7111 62.1742 11.652 61.8152 10.9009 61.7096L11.061 60.9293L11.0618 60.9254Z" fill="#050505"/>
<path fill-rule="evenodd" clip-rule="evenodd" d="M8.97571 61.0393C9.34382 61.2564 9.71889 61.479 10.4085 61.6084C9.6339 62.1494 9.21927 62.218 7.82476 61.6203C8.20506 61.4232 9.01806 61.582 8.97571 61.0393Z" fill="#050505"/>
<path fill-rule="evenodd" clip-rule="evenodd" d="M32.109 66.6006C33.806 65.9415 33.6158 67.7352 32.109 66.6006V66.6006Z" fill="#050505"/>
<path fill-rule="evenodd" clip-rule="evenodd" d="M38.6031 67.6624C39.418 67.7528 39.4023 68.0854 40.0358 68.2316C40.1263 68.7762 37.6982 68.1483 38.6031 67.6624Z" fill="#050505"/>
<path fill-rule="evenodd" clip-rule="evenodd" d="M31.7353 68.4214C31.9631 68.1 33.0223 68.459 33.7687 68.5677C33.5093 69.1416 32.3221 68.8939 31.7353 68.4214Z" fill="#050505"/>
<path fill-rule="evenodd" clip-rule="evenodd" d="M39.5595 70.5735C36.4412 69.6219 38.3052 71.1455 39.5595 70.5735V70.5735Z" fill="#050505"/>
<path fill-rule="evenodd" clip-rule="evenodd" d="M9.27038 64.6278C10.9227 65.4282 7.92515 64.8939 8.06684 65.4651C6.51515 64.7461 9.0599 64.9043 9.27038 64.6278Z" fill="#050505"/>
<path fill-rule="evenodd" clip-rule="evenodd" d="M22.0494 67.7928C21.7659 68.0704 21.3066 68.1986 20.4518 68.007C20.3367 67.4048 21.2682 67.6567 22.0494 67.7928Z" fill="#050505"/>
<path fill-rule="evenodd" clip-rule="evenodd" d="M1.35962 65.4437L2.84267 65.7481L2.73589 66.2683L1.25284 65.9639L1.35962 65.4437Z" fill="#050505"/>
<path fill-rule="evenodd" clip-rule="evenodd" d="M5.816 66.3585C2.7055 65.4085 4.5656 66.9312 5.816 66.3585V66.3585Z" fill="#050505"/>
<path fill-rule="evenodd" clip-rule="evenodd" d="M2.18516 66.4264C1.87352 66.8803 0.671697 66.6053 0.932112 67.5246C-0.32715 67.2338 -0.91543 66.7489 -0.838203 66.077C-0.194498 65.8975 0.977166 66.1421 2.18904 66.4272L2.18516 66.4264Z" fill="#050505"/>
<path fill-rule="evenodd" clip-rule="evenodd" d="M36.7708 74.0671L37.7646 74.2711C37.8797 74.8733 36.9569 74.6192 36.1701 74.4901C36.3071 74.2957 36.7205 74.3319 36.7708 74.0671Z" fill="#050505"/>
<path fill-rule="evenodd" clip-rule="evenodd" d="M19.3703 70.7709C18.5409 72.1705 21.4996 71.3172 19.3703 70.7709V70.7709Z" fill="#050505"/>
<path fill-rule="evenodd" clip-rule="evenodd" d="M20.6486 72.1135C20.5534 71.5721 22.9862 72.1968 22.0822 72.6788L21.0922 72.4756C21.23 72.2774 20.9483 72.1912 20.6486 72.1135Z" fill="#050505"/>
<path fill-rule="evenodd" clip-rule="evenodd" d="M29.1261 73.5864C29.7125 73.8241 30.0763 74.1213 29.9598 74.5707C29.3664 74.3275 29.0112 74.0281 29.1261 73.5864Z" fill="#050505"/>
<path fill-rule="evenodd" clip-rule="evenodd" d="M30.9495 74.7739C33.2191 75.2478 30.9925 76.1219 29.746 75.6111C29.3008 74.6459 31.3869 75.7375 30.9495 74.7739Z" fill="#050505"/>
<path fill-rule="evenodd" clip-rule="evenodd" d="M36.2905 76.4082C36.6265 77.2944 35.0931 76.6439 34.2038 76.5221C34.6016 76.2396 35.3586 76.2574 36.2905 76.4082Z" fill="#050505"/>
<path fill-rule="evenodd" clip-rule="evenodd" d="M22.3648 73.8251C23.2039 74.1916 22.3375 74.3131 22.2046 74.6055C21.3585 74.2336 22.2281 74.1167 22.3648 73.8251Z" fill="#050505"/>
<path fill-rule="evenodd" clip-rule="evenodd" d="M36.6799 77.0343L38.1669 77.3395L38.0601 77.8597L36.5732 77.5545L36.6799 77.0343Z" fill="#050505"/>
<path fill-rule="evenodd" clip-rule="evenodd" d="M57.2355 8.32251L57.389 8.85571C56.6872 8.6874 55.9893 8.51988 55.8495 8.80676C55.3265 8.63468 55.6177 8.22109 54.9663 8.08334L55.0197 7.82322L54.5228 7.72123C54.7005 7.4664 55.5447 7.74892 55.6156 7.40339L56.334 7.68838L56.6637 7.34338C57.0884 7.28489 57.5262 7.24124 58.2048 7.38457L58.0423 8.17656L57.2355 8.32251Z" fill="#050505"/>
<path fill-rule="evenodd" clip-rule="evenodd" d="M27.7585 2.22785C27.7267 1.59422 29.2492 2.23847 29.4056 1.75269C29.2035 1.90946 31.93 3.94176 32.7688 2.98917C33.0564 3.44066 30.8447 4.43919 29.3678 4.45973C29.5852 3.28248 28.3287 4.29904 28.699 2.69196L28.202 2.58996L28.2554 2.32985L27.7624 2.22865L27.7585 2.22785Z" fill="#050505"/>
<path fill-rule="evenodd" clip-rule="evenodd" d="M16.6058 3.73399C17.913 3.92945 18.7173 4.26851 18.4257 4.92072C17.6367 4.78306 16.5644 4.40923 16.3923 4.77445C15.1239 4.44938 17.1633 4.46743 16.6058 3.73399Z" fill="#050505"/>
<path fill-rule="evenodd" clip-rule="evenodd" d="M37.8246 11.0789C37.1228 10.9106 36.4319 10.7485 36.2851 11.0299C34.7469 9.94954 38.194 10.8957 38.8146 11.2821C38.5706 11.584 37.8566 11.5143 37.6645 11.8592C36.9546 11.5922 37.9279 11.5613 37.8246 11.0789Z" fill="#050505"/>
<path fill-rule="evenodd" clip-rule="evenodd" d="M47.3126 15.1949C46.2978 14.3635 48.8317 15.5997 49.7895 15.7033C49.2132 16.382 48.2219 15.2197 47.3126 15.1949Z" fill="#050505"/>
<path fill-rule="evenodd" clip-rule="evenodd" d="M55.2814 24.1534L54.2914 23.9502L53.5723 23.6691L53.7411 24.1083C52.523 23.9716 52.7598 23.4093 51.3176 23.3398C51.1645 22.7056 52.3375 23.1608 52.4638 22.7619L53.1829 23.043L53.015 22.5999C53.5808 22.7605 53.9082 22.7225 54.0575 22.5468C54.122 23.1791 55.9705 23.2995 56.3743 23.8356L56.05 24.1736L55.2783 24.1487L55.2814 24.1534Z" fill="#050505"/>
<path fill-rule="evenodd" clip-rule="evenodd" d="M53.8785 24.6788L54.1843 24.4705C54.7112 24.6434 54.4083 25.0546 55.0675 25.1939C54.5184 25.7205 52.9372 24.5341 52.1431 24.3226C52.2907 24.0373 53.0962 24.2917 53.6873 24.3685L53.8824 24.6796L53.8785 24.6788Z" fill="#050505"/>
<path fill-rule="evenodd" clip-rule="evenodd" d="M16.5716 16.4794C17.3469 15.9345 17.7646 15.8706 19.1553 16.4675C18.3806 16.7131 17.4651 16.6992 19.5454 17.0897C20.5097 17.9309 17.4965 16.6247 16.5716 16.4794Z" fill="#050505"/>
<path fill-rule="evenodd" clip-rule="evenodd" d="M32.5698 24.1042C33.0805 24.0998 35.991 26.7929 33.3463 25.3479C32.8882 25.096 32.0315 24.4994 32.5698 24.1042Z" fill="#050505"/>
<path fill-rule="evenodd" clip-rule="evenodd" d="M24.1161 27.5235C24.1161 27.5235 23.6176 27.4293 23.6192 27.4215C24.0733 26.6085 25.4149 29.2385 24.1161 27.5235Z" fill="#050505"/>
<path fill-rule="evenodd" clip-rule="evenodd" d="M12.6263 28.1512C12.215 28.3217 11.649 28.3593 11.0279 28.3693C9.80864 28.0018 11.9696 27.98 12.6263 28.1512Z" fill="#050505"/>
<path fill-rule="evenodd" clip-rule="evenodd" d="M24.6987 32.2554C25.5136 32.3457 25.4979 32.6783 26.1322 32.8207C24.4313 33.3414 27.1081 33.9798 26.7485 34.8447C25.2062 34.8882 24.1824 34.5931 23.335 33.873L23.6639 33.5319L22.9456 33.2469C23.0862 32.9561 23.8909 33.2143 24.4859 33.2919C24.7117 32.9013 24.1078 32.7491 24.1491 32.4096L24.6461 32.5116L24.6995 32.2515L24.6987 32.2554Z" fill="#050505"/>
<path fill-rule="evenodd" clip-rule="evenodd" d="M42.3244 36.9574C42.2571 37.2065 41.6774 37.0349 41.2772 37.0135C41.4934 36.2163 39.8726 35.9524 40.6617 34.9856C41.7072 34.6621 43.0282 35.3419 44.1325 35.698C42.1642 35.9049 44.8965 36.3322 42.932 36.5399L42.1557 36.5181L42.3244 36.9574Z" fill="#050505"/>
<path fill-rule="evenodd" clip-rule="evenodd" d="M46.6653 35.9509C47.5254 36.3337 46.309 36.1691 45.622 36.0078C45.6359 36.3343 46.4772 36.414 47.0477 36.5715C46.8731 36.831 46.0288 36.5485 45.951 36.8886C45.4249 36.7118 45.7231 36.3037 45.0677 36.1651C45.3513 35.8875 45.8105 35.7593 46.6615 35.9501L46.6653 35.9509Z" fill="#050505"/>
<path fill-rule="evenodd" clip-rule="evenodd" d="M16.9396 32.2894C17.8067 32.6777 16.5911 32.5091 15.8916 32.3494C15.86 32.6018 16.4597 32.6763 16.8321 32.8135C16.8964 33.3081 13.9614 32.7057 14.9055 32.147C15.7843 32.3597 16.016 32.0391 16.9396 32.2894Z" fill="#050505"/>
<path fill-rule="evenodd" clip-rule="evenodd" d="M44.0721 43.5589L44.0187 43.819L43.6897 44.1601L43.8585 44.5993C43.0832 45.1442 40.9339 43.7887 40.8313 44.2491L40.113 43.9641L40.2856 44.4041L39.2879 44.1993L39.552 43.4646L38.3543 43.7407C37.643 43.619 36.9441 43.4957 36.9208 43.1754L37.6886 43.1995L37.5237 42.761C37.5918 42.508 38.1708 42.6835 38.5679 42.7002L39.5622 43.4343L39.6074 42.6425L41.0982 42.9485L41.8134 43.2288L41.6524 42.7912L43.1355 43.0956L43.3081 43.5356L44.0759 43.5597L44.0721 43.5589Z" fill="#050505"/>
<path fill-rule="evenodd" clip-rule="evenodd" d="M35.0742 39.5394C34.294 39.8122 33.2336 39.8535 31.9441 39.7102C31.9409 38.7992 34.1803 39.716 35.0742 39.5394Z" fill="#050505"/>
<path fill-rule="evenodd" clip-rule="evenodd" d="M9.1052 37.7374C8.09587 36.8991 10.6359 38.1446 11.586 38.2465C11.0097 38.9253 10.023 37.7599 9.1052 37.7374Z" fill="#050505"/>
<path fill-rule="evenodd" clip-rule="evenodd" d="M22.9443 43.2846C23.0805 43.0941 23.4977 43.1312 23.5511 42.871L24.5372 43.0734C24.3974 43.3603 24.5511 43.5577 24.9243 43.691C24.6653 44.3418 24.1427 43.1624 22.9404 43.2838L22.9443 43.2846Z" fill="#050505"/>
<path fill-rule="evenodd" clip-rule="evenodd" d="M11.4956 41.2098C10.6107 41.5784 9.38645 42.6744 8.25088 41.8992C9.59719 41.8842 9.96193 41.073 11.4956 41.2098Z" fill="#050505"/>
<path fill-rule="evenodd" clip-rule="evenodd" d="M33.5251 47.0867C33.9301 47.3802 34.5858 47.5957 35.4633 47.7555C35.8828 48.1168 32.7378 48.1429 31.282 47.9816C30.281 46.8861 31.3017 46.7031 31.2208 45.7964C32.0318 45.886 32.0161 46.2186 32.6457 46.364L32.539 46.8843L33.5289 47.0875L33.5251 47.0867Z" fill="#050505"/>
<path fill-rule="evenodd" clip-rule="evenodd" d="M15.2624 45.5069C14.736 45.5485 12.7916 46.4077 13.2243 45.3637C14.1109 45.578 14.334 45.2597 15.2624 45.5069Z" fill="#050505"/>
<path fill-rule="evenodd" clip-rule="evenodd" d="M16.5361 46.8526C16.1248 47.023 15.5572 47.0684 14.9416 47.0715C13.7184 46.7031 15.8794 46.6814 16.5361 46.8526Z" fill="#050505"/>
<path fill-rule="evenodd" clip-rule="evenodd" d="M34.9974 62.5811C35.6242 61.8925 38.5214 63.5269 35.4904 62.6823C34.8638 62.8774 34.2165 62.522 34.9974 62.5811Z" fill="#050505"/>
<path fill-rule="evenodd" clip-rule="evenodd" d="M36.3061 68.8214C37.0137 69.0799 36.0404 69.1107 36.1467 69.5978C36.1058 69.8565 36.7071 69.9232 37.0787 70.0642C36.5932 70.7738 36.0706 69.5943 35.0987 69.6578C35.047 69.4166 35.336 69.4476 35.6459 69.495C35.6822 69.2395 35.0809 69.1727 34.7046 69.0348C34.8945 68.6813 36.206 69.2499 36.3022 68.8206L36.3061 68.8214Z" fill="#050505"/>
<path fill-rule="evenodd" clip-rule="evenodd" d="M39.1126 70.2066C40.137 69.1384 41.6403 70.3693 39.1126 70.2066V70.2066Z" fill="#050505"/>
<path fill-rule="evenodd" clip-rule="evenodd" d="M26.9534 69.0704C27.4199 69.3401 27.347 69.7742 28.3343 69.8919C27.9986 70.5027 26.4094 69.513 26.9534 69.0704Z" fill="#050505"/>
<path fill-rule="evenodd" clip-rule="evenodd" d="M11.3327 69.6594C9.54218 68.6648 11.9935 69.4754 11.8296 69.7614C11.6241 70.1319 11.4016 69.6978 11.3327 69.6594Z" fill="#050505"/>
</mask>
<g mask="url(#mask0_10_1083)">
<path d="M10.5816 19.1057C10.565 19.6202 10.5708 20.1635 10.7113 20.6617C10.8687 21.2159 11.2246 21.6895 11.4255 22.2283C11.6295 22.7719 11.8635 23.091 12.2296 23.5343C12.541 23.9097 12.7066 24.3645 12.9298 24.7947C12.9299 24.9323 12.9308 25.066 12.927 25.2027C12.7434 25.5454 12.604 25.9092 12.5291 26.2741C12.4398 26.709 12.502 27.1749 12.7528 27.5298C12.387 28.7008 11.992 29.8173 12.1891 31.1241C12.4238 32.6612 13.0975 34.0901 13.3704 35.6188C13.6668 37.2697 13.4899 39.058 13.1668 40.691C12.819 42.4645 11.6563 43.8321 11.1347 45.5457C10.8177 46.5973 12.5526 47.2123 12.9689 46.1892C13.5655 44.7216 15.0335 43.6797 15.5666 42.1667C16.0981 40.6615 16.5618 38.8753 16.5108 37.2708C16.4521 35.5069 15.8969 33.6977 15.3869 32.0232C14.9817 30.6858 15.3211 29.3475 15.6775 28.0249C16.4842 28.0569 17.2479 28.1206 18.0416 27.6241C18.26 27.4868 18.3891 27.311 18.4437 27.124C19.267 26.9369 20.0392 26.5452 20.9266 26.44C21.1008 26.4192 21.2796 26.4154 21.4607 26.4202C21.0647 27.1076 20.7657 27.8352 20.598 28.5735C20.2943 29.9151 20.0537 31.383 20.2131 32.7549C20.4054 34.4005 20.3753 36.0451 20.4813 37.6973C20.5878 39.3861 20.6969 41.1805 20.5725 42.8705C20.5217 43.5519 20.4835 44.1914 20.5741 44.8735C20.5944 45.0112 20.6209 45.1582 20.6535 45.3146C20.3321 46.782 19.7914 47.9576 18.9395 49.1908C18.5261 49.7856 18.2074 50.412 17.6995 50.9349C17.5042 51.1376 17.3044 51.3029 17.1431 51.5368C17.0162 51.7212 16.9203 52.0899 16.7216 52.1907C16.2829 52.4162 16.183 52.8044 16.2885 53.1578C15.9457 53.6255 15.6285 54.1066 15.3695 54.5996C14.313 56.6323 13.0437 61.1216 15.4106 62.7969C16.4314 63.5203 17.7499 62.0633 16.7214 61.3384C15.6015 60.5461 16.159 58.1845 16.4606 57.1095C16.9909 55.2156 18.3585 53.7364 19.5515 52.2213C20.0498 51.5872 20.6062 51.0055 21.0658 50.3433C21.5262 49.6771 21.7018 48.9 22.149 48.2392C22.7128 47.4042 22.7185 46.5881 22.6311 45.7326C22.8059 45.1374 22.9884 44.5437 23.2253 43.9611C23.4473 43.412 23.5122 42.8589 23.6457 42.2875C23.8141 41.5655 24.0662 40.889 24.1539 40.1463C24.4877 37.2978 23.8698 34.3752 23.8935 31.5197C23.9066 29.9971 24.3749 28.839 24.954 27.4568C25.0074 27.3343 25.057 27.2109 25.1105 27.0884C25.1595 27.0863 25.2084 27.0842 25.2582 27.0782C25.935 26.9744 26.1854 26.4836 26.6692 26.0974C27.1094 25.7468 27.5392 25.4466 27.9631 25.0764C27.9686 25.0695 27.9733 25.0664 27.9779 25.0633C28.5053 24.9975 29.0268 24.9994 29.5706 25.0503C29.3795 25.3509 29.203 25.6586 29.0398 25.9609C28.173 27.543 27.6106 29.1592 27.3094 30.9423C26.9473 33.081 26.4029 35.2997 26.7285 37.4785C26.9991 39.294 27.5982 41.3428 28.7295 42.809C29.9759 44.4242 31.0938 46.3893 31.6193 48.3826C31.7055 48.7118 31.759 49.0424 31.7884 49.3721C31.6914 49.9631 31.5547 50.55 31.4119 51.1276C30.9724 52.8945 29.9958 54.4985 28.9027 55.941C28.8417 56.0215 28.7776 56.0974 28.7135 56.1732C28.0058 56.5459 27.1933 56.7594 26.3289 57.0877C24.6452 57.7213 23.4253 58.8748 22.4439 60.3645C21.7624 61.398 21.2252 62.5176 20.5646 63.5675C19.8861 64.6461 19.2045 65.6997 18.7329 66.8935C18.3047 67.9749 18.0753 69.0728 17.8589 70.2057C17.6689 71.2106 17.4745 72.1376 17.757 73.1464C18.0129 74.0486 19.5436 74.0026 19.6464 73.0285C19.7385 72.1856 19.7995 71.3363 19.9778 70.5071C20.191 69.5273 20.736 68.745 21.3493 67.9646C22.5884 66.3821 24.0313 64.9506 25.5071 63.5948C27.0041 62.2149 28.5387 60.9277 29.8137 59.3283C30.9917 57.8465 32.0689 56.3238 32.8921 54.6196C34.3484 51.6049 35.8449 48.295 34.2555 45.0396C33.4523 43.394 32.6341 41.8019 31.4645 40.3845C30.3628 39.0498 29.8641 37.4585 29.9046 35.7433C29.9464 33.9232 30.0908 32.116 30.968 30.4835C31.4929 29.5029 32.0072 28.4756 32.7351 27.6297C32.9626 27.3689 33.2429 27.127 33.4719 26.8585C34.2677 27.1998 35.1038 27.4038 36.0449 27.5889C36.0876 27.5976 36.1256 27.6095 36.1675 27.6221C35.865 28.8992 35.4781 30.252 35.5641 31.528C35.6553 32.8778 36.243 34.2324 36.8846 35.4039C37.0525 35.7094 37.229 36.0126 37.4062 36.312C37.705 37.3403 37.9112 38.3658 38.3889 39.3499C38.7221 40.0332 38.8996 40.7453 39.1494 41.4601C39.3938 42.1616 39.9317 42.7737 40.1155 43.475C40.1567 43.6291 40.1932 43.7863 40.2258 43.9427C40.224 43.9908 40.223 44.0351 40.2212 44.0833C40.1104 45.5495 39.751 47.005 39.5028 48.4511C39.2328 50.0423 38.7226 51.3456 38.0926 52.8184C37.4609 54.299 36.5936 55.5087 35.7853 56.8843C35.046 58.1406 33.9027 59.5323 33.9207 61.0411C33.9294 61.7873 34.8508 62.1868 35.4411 61.7941C36.0175 61.4107 36.3683 60.884 36.7923 60.356C37.3101 59.7057 37.9309 59.1453 38.4309 58.4833C39.308 57.3241 40.0714 55.911 40.6192 54.5629C41.2198 53.0759 41.5576 51.5876 41.8795 50.0191C42.207 48.4235 42.485 46.931 42.3837 45.2959C42.3528 44.7959 42.2807 44.2997 42.1867 43.8111C42.2688 41.105 41.1813 38.4988 39.7408 36.2328C39.5657 35.9622 39.3945 35.6924 39.2241 35.4188C39.1881 35.3183 39.1521 35.2179 39.1083 35.1158C38.7744 34.2786 38.6551 33.4206 38.48 32.5391C38.3072 31.6662 38.0359 30.7406 38.0093 29.8451C37.9999 29.5559 38.0781 29.313 38.2013 29.0874C38.5162 29.3665 38.8663 29.6123 39.3118 29.7483C40.0304 29.9726 40.7521 30.0439 41.458 30.3304C41.7605 30.4531 42.0598 30.5914 42.3537 30.7367C42.6938 30.9522 43.0286 31.1544 43.3986 31.3032C43.6229 31.6688 43.9759 31.9598 44.3268 32.2017C44.3169 32.4667 44.3366 32.7256 44.3794 33.0096C44.4531 33.4981 44.425 33.9899 44.5042 34.4715C44.5887 34.9864 44.856 35.458 44.9871 35.9624C45.1473 36.5617 45.2515 37.1778 45.407 37.7802C45.6799 38.8557 46.0991 39.8885 46.2373 40.989C46.4062 42.3346 46.2188 43.5827 45.9487 44.8988C45.6945 46.1372 47.6162 46.5317 47.8704 45.2932C48.1557 43.9033 48.4418 42.5096 48.7348 41.1213C48.9889 39.9031 48.7049 38.8818 48.4871 37.676C48.2634 36.4203 47.8807 35.2292 47.4383 34.0339C47.334 33.7535 47.2732 33.4781 47.2426 33.2129C47.5296 33.1747 47.8123 33.0789 48.086 32.9085C48.7971 32.4598 48.899 31.8252 48.6815 31.1899C48.7662 31.0333 48.8114 30.8524 48.7976 30.6635C48.8524 30.5736 48.9065 30.4876 48.9536 30.3961C49.2047 29.9217 49.4372 29.4394 49.6511 28.9493C50.5478 27.6161 51.1938 26.2032 51.2782 24.5698C51.3661 22.8602 51.8976 21.355 51.1363 19.722C50.8157 19.0372 50.4358 18.3847 50.0138 17.76C49.5856 17.1259 49.569 16.3983 49.1283 15.7859C49.0272 15.6478 48.9134 15.5517 48.7855 15.4849C48.7005 15.2288 48.6155 14.9726 48.5484 14.708C48.171 13.255 47.5146 12.0966 46.3841 11.0999C45.2357 10.0915 43.9701 9.20056 42.7905 8.22614C41.5659 7.21418 40.2524 6.28106 38.8736 5.4883C37.5243 4.70967 36.0667 4.43883 34.5346 4.15673C32.792 3.83549 31.1017 3.33885 29.3084 3.52102C27.5975 3.69583 26.1286 4.28848 24.5407 4.88907C23.8172 5.16136 23.0861 5.41184 22.3742 5.70672C22.1414 5.63871 21.8715 5.67232 21.6094 5.86532C21.4611 5.9765 21.315 6.13666 21.1665 6.28825C20.8649 6.45695 20.574 6.65214 20.2954 6.86604C20.0805 6.94734 19.8749 7.02248 19.6601 7.22115C18.9651 7.86745 18.1553 8.30408 17.5144 9.02215C16.789 9.83618 15.8722 10.6757 14.9768 11.293C14.1188 11.8856 13.3822 12.4586 12.8389 13.3707C12.6485 13.6877 12.4703 14.0233 12.3069 14.3661C11.1758 15.639 10.6461 17.2538 10.5816 19.1057ZM13.3813 17.8839C13.392 18.226 13.4221 18.572 13.467 18.9251C13.4513 18.9422 13.4357 18.9592 13.424 18.977C13.3603 18.6564 13.3552 18.267 13.3852 17.8847L13.3813 17.8839ZM24.2576 7.07643C25.4583 6.64722 26.6132 6.06698 27.8506 5.75453C29.3908 5.36666 30.8348 5.38793 32.3831 5.70975C33.6371 5.96713 34.9311 6.14776 36.1723 6.46725C37.4058 6.78515 38.4469 7.48839 39.4935 8.18465C40.5114 8.8629 41.4363 9.63938 42.3768 10.4191C43.3451 11.2206 44.4243 11.9155 45.3387 12.7829C46.243 13.6401 46.5224 14.6442 46.8282 15.8155C47.1562 17.0561 47.8525 18.1579 48.0256 19.4436C48.2017 20.734 47.8885 21.9644 47.5768 23.2072C47.2595 24.4772 47.0276 25.7648 46.5776 26.9914C46.1634 27.4323 45.9507 27.9955 45.8071 28.577C45.7483 28.6661 45.6896 28.7552 45.627 28.8435C45.5479 28.9527 45.4123 29.1797 45.3101 29.2437C44.9905 29.4411 44.9197 29.2931 44.5569 29.1093C43.4219 28.5284 42.2892 28.1139 41.7263 26.8939C41.2281 25.8125 40.5591 25.307 39.3584 25.1253C38.852 25.0497 38.1394 25.0127 37.7646 24.5918C37.525 24.3201 37.5942 24.6135 37.6238 24.1341C37.6484 23.7386 37.805 23.35 37.8211 22.9365C37.8379 22.5394 37.4328 22.0881 37.0382 22.0395C36.5139 21.9724 36.0876 22.0386 35.5847 22.2024C34.9393 22.4098 34.5156 22.2662 33.8728 22.1262C33.1786 21.9796 32.449 21.927 31.7906 21.6462C31.243 21.4165 30.7653 21.0433 30.2733 20.7198C29.4746 20.1958 28.5502 19.6338 27.5614 19.9569C27.1239 20.0977 26.8122 20.3938 26.5037 20.6946C26.207 20.7996 25.9156 20.938 25.5862 21.0646C25.0209 21.2763 24.3881 21.4418 23.7323 21.5621C22.5856 21.2943 21.4183 20.634 20.2638 20.9958C19.7882 21.145 19.4351 21.4852 19.106 21.8668C18.3912 21.9588 17.7145 22.2002 17.1552 22.757C17.0334 22.8776 16.9387 23.0039 16.8634 23.1341C16.7555 23.1079 16.6445 23.077 16.5241 23.0523C16.4892 23.0451 16.4535 23.0418 16.4138 23.0377C16.2025 22.7071 15.9904 22.3804 15.7612 22.0582C15.76 21.9851 15.7619 21.9167 15.7599 21.8476C15.7515 20.9031 15.6105 20.0327 15.4668 19.0969C15.2477 17.6804 15.2561 16.4764 15.8792 15.1559C16.4826 13.8718 17.3075 12.9082 18.2733 11.8887C19.0836 11.0354 19.774 10.0766 20.5983 9.23434C20.8334 8.99535 21.0755 8.78205 21.3298 8.58746C21.4545 8.53212 21.5799 8.4729 21.7054 8.39348C21.8668 8.29713 22.0019 8.17112 22.1331 8.04431C22.795 7.65823 23.5077 7.35947 24.2685 7.08271L24.2576 7.07643Z" fill="black"/>
<path d="M21.3904 12.2168C21.5345 12.6186 21.8174 12.9356 22.1816 13.152C22.7551 13.4922 23.5243 13.5489 24.1511 13.3337C24.9391 13.0625 25.4592 12.263 25.1929 11.4315C25 10.8336 24.3414 10.573 23.7514 10.5895C23.6169 10.5942 23.4917 10.613 23.3726 10.6412C23.009 10.3036 22.4196 10.1988 21.9835 10.6676C21.5639 11.1155 21.1513 11.5487 21.3943 12.2176L21.3904 12.2168Z" fill="black"/>
<path d="M29.5892 15.7162C29.6659 15.7562 29.7451 15.7846 29.8313 15.7982C30.3408 15.8785 30.8965 15.5759 30.9917 15.033C31.0405 14.7558 31.1041 14.4856 31.1948 14.221C31.2666 14.0092 31.1805 13.6598 31.0547 13.4843C30.9258 13.3041 30.7656 13.1781 30.5576 13.1071C30.3574 13.0377 30.1228 13.0179 29.9211 13.0938C29.6836 13.1866 29.5281 13.3328 29.3887 13.5388C29.395 13.528 29.4013 13.5171 29.4122 13.5032C29.3903 13.5311 29.3676 13.5628 29.3457 13.5907C29.3019 13.6464 29.2496 13.7044 29.1988 13.7547C29.1832 13.7717 29.1628 13.7918 29.1433 13.8081C29.0957 13.8428 29.0512 13.8822 29.0083 13.9139C28.5879 14.2079 28.4106 14.835 28.7294 15.2727C28.9278 15.5481 29.2581 15.713 29.5908 15.7084L29.5892 15.7162Z" fill="black"/>
<path d="M36.2279 11.5804C36.4788 11.6197 36.7518 11.5908 36.9647 11.4403C37.1738 11.289 37.3342 11.0792 37.3876 10.8191L37.4864 10.3376C37.5366 10.0931 37.4813 9.81063 37.3424 9.60007C37.2097 9.39886 36.9635 9.21885 36.7204 9.18109C36.4695 9.14174 36.1965 9.17068 35.9836 9.32118C35.7745 9.47247 35.618 9.68309 35.5646 9.94321L35.4658 10.4246C35.4156 10.6692 35.4709 10.9516 35.6059 11.1614C35.7386 11.3626 35.9848 11.5426 36.2279 11.5804Z" fill="black"/>
</g>
</g>
<defs>
<clipPath id="clip0_10_1083">
<rect width="41.959" height="71.4337" fill="white" transform="translate(14.3622) rotate(11.5987)"/>
</clipPath>
</defs>
</svg>
