<svg width="116" height="23" viewBox="0 0 116 23" fill="none" xmlns="http://www.w3.org/2000/svg">
<path d="M18.8685 0V15.3603C18.8685 15.6723 18.4576 15.7881 18.2933 15.5228L8.69499 0H4.61348V22.396H8.03575L7.85966 6.19926C7.85595 5.88659 8.26744 5.76657 8.43364 6.03185L18.7116 22.396H22.2908V0H18.8685Z" fill="black"/>
<path d="M32.413 22.6459C30.759 22.6459 29.3046 22.2705 28.0485 21.5202C26.7924 20.7693 25.8082 19.7531 25.097 18.4704C24.3853 17.1877 24.0294 15.7542 24.0294 14.1693C24.0294 12.5844 24.3853 11.1509 25.097 9.86823C25.8082 8.58554 26.7924 7.56935 28.0485 6.81845C29.3046 6.06755 30.759 5.69271 32.413 5.69271C34.067 5.69271 35.4899 6.07309 36.746 6.83445C38.0021 7.59582 38.9857 8.61262 39.6974 9.88423C40.4086 11.1565 40.7651 12.585 40.7651 14.1693C40.7651 15.7536 40.4086 17.1877 39.6974 18.4704C38.9857 19.7531 38.0021 20.7693 36.746 21.5202C35.4899 22.2711 34.046 22.6459 32.413 22.6459ZM32.413 19.5493C33.2922 19.5493 34.1084 19.3358 34.8622 18.908C35.6159 18.4808 36.2282 17.8654 36.699 17.0627C37.1698 16.2601 37.4052 15.2957 37.4052 14.1693C37.4052 13.043 37.1698 12.0791 36.699 11.2759C36.2282 10.4733 35.6159 9.85776 34.8622 9.43061C34.1084 9.00346 33.2922 8.78927 32.413 8.78927C31.5338 8.78927 30.7121 9.00346 29.9484 9.43061C29.1841 9.85838 28.5669 10.4733 28.0961 11.2759C27.6253 12.0785 27.3899 13.043 27.3899 14.1693C27.3899 15.2957 27.6253 16.2601 28.0961 17.0627C28.5669 17.866 29.1897 18.4808 29.9645 18.908C30.7386 19.3358 31.5548 19.5493 32.4136 19.5493H32.413Z" fill="black"/>
<path d="M66.1346 0H62.2094L53.7319 22.396H57.5311L59.4649 17.0498C59.5539 16.8042 59.7874 16.6405 60.0494 16.6405H68.3249C68.5869 16.6405 68.8204 16.8042 68.9094 17.0498L70.8432 22.396H74.6424L66.1346 0ZM60.9132 13.0374L63.8084 4.84148C63.9048 4.5682 64.2916 4.56513 64.3929 4.83656L67.4519 13.0325C67.5272 13.235 67.3771 13.4498 67.1609 13.4498H61.2066C60.9923 13.4498 60.8421 13.2387 60.9138 13.0374H60.9132Z" fill="black"/>
<path d="M75.9671 22.396V0.464699L79.3578 0V22.396H75.9671Z" fill="black"/>
<path d="M81.566 22.396V6.90831L84.9568 6.44362V22.396H81.566ZM85.2503 3.27012C85.2503 4.36386 84.3599 5.25079 83.262 5.25079C82.1641 5.25079 81.2738 4.36386 81.2738 3.27012C81.2738 2.17639 82.1641 1.28946 83.262 1.28946C84.3599 1.28946 85.2503 2.17639 85.2503 3.27012Z" fill="black"/>
<path d="M92.8838 22.6459C91.7111 22.6459 90.6861 22.4163 89.8069 21.9578C88.9277 21.4992 88.2314 20.8684 87.7192 20.0657C87.2064 19.2631 86.95 18.3405 86.95 17.2973C86.95 16.1506 87.2484 15.1812 87.8446 14.3884C88.4415 13.5963 89.2366 12.9912 90.2307 12.5739C91.2249 12.1573 92.329 11.9486 93.543 11.9486C94.2338 11.9486 94.8615 11.9954 95.4269 12.0895C95.9922 12.1831 96.4945 12.2927 96.9338 12.4182C97.1636 12.4835 97.3681 12.5524 97.5467 12.6232C97.75 12.7044 97.9699 12.5536 97.9699 12.3351V11.98C97.9699 10.9373 97.593 10.1033 96.8399 9.47739C96.0861 8.85205 95.113 8.53938 93.9199 8.53938C93.1037 8.53938 92.329 8.72218 91.5962 9.08655C90.8634 9.45154 90.2666 9.94701 89.8063 10.5724L87.5141 8.78927C87.9744 8.143 88.5347 7.59028 89.194 7.13174C89.8532 6.67319 90.5909 6.31867 91.4077 6.06816C92.2239 5.81766 93.0926 5.69271 94.0138 5.69271C96.3159 5.69271 98.096 6.26081 99.3514 7.39702C100.608 8.53384 101.235 10.1237 101.235 12.1671V22.1449H97.9699V20.1741H97.7815C97.488 20.5914 97.1062 20.9871 96.6354 21.3626C96.1646 21.738 95.6147 22.0458 94.9869 22.2852C94.3592 22.5246 93.6573 22.6447 92.8832 22.6447L92.8838 22.6459ZM93.4806 19.8934C94.3598 19.8934 95.134 19.6854 95.8044 19.2681C96.4741 18.8514 97.0024 18.3036 97.3898 17.6259C97.7456 17.003 97.9384 16.3315 97.9668 15.6114C97.9718 15.4945 97.9069 15.3843 97.8031 15.3301C97.3595 15.0993 96.8498 14.9054 96.2752 14.7485C95.6258 14.5712 94.9252 14.4826 94.1714 14.4826C92.8103 14.4826 91.8372 14.754 91.2514 15.2957C90.6651 15.8385 90.3722 16.5156 90.3722 17.3286C90.3722 18.0795 90.6496 18.6944 91.2045 19.1739C91.7587 19.654 92.518 19.8934 93.4806 19.8934Z" fill="black"/>
<path d="M109.438 22.6459C108.161 22.6459 107.052 22.4526 106.109 22.0673C105.167 21.6814 104.392 21.1601 103.786 20.5034C103.178 19.8466 102.729 19.1327 102.436 18.3608L105.481 17.0474C105.858 17.9023 106.396 18.5541 107.098 19.0022C107.799 19.4509 108.61 19.6749 109.532 19.6749C110.369 19.6749 111.091 19.5241 111.698 19.2213C112.305 18.9191 112.609 18.4236 112.609 17.7355C112.609 17.2979 112.467 16.9378 112.185 16.6565C111.902 16.3752 111.526 16.1401 111.055 15.9524C110.584 15.7647 110.045 15.5979 109.438 15.452L107.523 15.0144C106.769 14.8267 106.051 14.5294 105.372 14.1231C104.692 13.7163 104.142 13.2005 103.723 12.5746C103.304 11.9492 103.096 11.2088 103.096 10.3539C103.096 9.39491 103.373 8.56584 103.928 7.86726C104.482 7.16867 105.231 6.63196 106.173 6.25651C107.115 5.88105 108.13 5.69333 109.218 5.69333C110.223 5.69333 111.138 5.82381 111.965 6.08417C112.792 6.34514 113.514 6.73105 114.132 7.2413C114.749 7.75277 115.236 8.38304 115.592 9.13394L112.672 10.4474C112.316 9.73898 111.834 9.24289 111.228 8.96161C110.62 8.68033 109.961 8.53938 109.249 8.53938C108.454 8.53938 107.789 8.70125 107.256 9.02439C106.722 9.34814 106.455 9.77037 106.455 10.2911C106.455 10.8118 106.69 11.2605 107.161 11.5738C107.632 11.8864 108.213 12.1369 108.904 12.3241L111.228 12.8872C112.818 13.2836 114.011 13.8831 114.807 14.6857C115.602 15.4889 116 16.4639 116 17.6105C116 18.6323 115.707 19.5241 115.121 20.2849C114.534 21.0462 113.744 21.6297 112.75 22.0366C111.756 22.4434 110.651 22.6465 109.438 22.6465V22.6459Z" fill="black"/>
<path d="M49.4483 19.5506C49.1549 19.6441 48.841 19.6915 48.5061 19.6915C47.7734 19.6915 47.2395 19.4933 46.9047 19.097C46.5698 18.7012 46.4024 17.6315 46.4024 16.7969V9.44292C46.4024 9.27181 46.5414 9.13333 46.7131 9.13333H50.296V6.5027H46.7131C46.5414 6.5027 46.4024 6.36422 46.4024 6.19311V2.77219L43.0116 3.23689V6.19311C43.0116 6.36422 42.8726 6.5027 42.7008 6.5027H40.6168V9.13333H42.7008C42.8726 9.13333 43.0116 9.27181 43.0116 9.44292V17.5164C43.0116 19.0176 43.4509 20.2061 44.3301 21.0819C45.2093 21.9578 46.3912 22.3954 47.8784 22.3954C48.3387 22.3954 48.778 22.3529 49.1969 22.2704C49.6152 22.1867 50.0236 22.0723 50.4215 21.9264V19.097C50.065 19.3056 49.7406 19.4564 49.4477 19.5506H49.4483Z" fill="black"/>
<path d="M2.10563 1.70307C2.16247 1.64768 2.20695 1.57997 2.23785 1.50242C2.26812 1.4261 2.28357 1.34485 2.28357 1.26115C2.28357 1.18421 2.26874 1.10789 2.23908 1.03464C2.20942 0.962016 2.16803 0.894928 2.11551 0.836456C2.06238 0.777368 1.99936 0.729359 1.92768 0.693661C1.85478 0.657347 1.77384 0.638882 1.68672 0.638882H0.868073V2.49768H1.2462V1.88526H1.57922L1.96228 2.49768H2.39293L1.96167 1.80278C2.0148 1.77755 2.06361 1.74431 2.10563 1.70246V1.70307ZM1.89988 1.26115C1.89988 1.31285 1.88938 1.36147 1.86961 1.40517C1.84984 1.44764 1.82327 1.48211 1.79052 1.50611C1.75963 1.5295 1.72441 1.54058 1.68363 1.54058H1.24558V0.982943H1.66881C1.70835 0.982943 1.74418 0.994638 1.77816 1.01864C1.814 1.04388 1.84366 1.07773 1.86652 1.11958C1.88876 1.16082 1.9005 1.20821 1.9005 1.26053L1.89988 1.26115Z" fill="black"/>
<path d="M1.61444 0C0.72412 0 0 0.72136 0 1.60829C0 2.49522 0.72412 3.21658 1.61444 3.21658C2.50476 3.21658 3.22888 2.49522 3.22888 1.60829C3.22888 0.72136 2.50414 0 1.61444 0ZM2.89092 1.60829C2.89092 2.30934 2.31817 2.8799 1.61444 2.8799C0.91071 2.8799 0.337964 2.30934 0.337964 1.60829C0.337964 0.907239 0.910092 0.336676 1.61444 0.336676C2.31879 0.336676 2.89092 0.907239 2.89092 1.60829Z" fill="black"/>
</svg>
