<svg width="93" height="85" viewBox="0 0 93 85" fill="none" xmlns="http://www.w3.org/2000/svg">
<g clip-path="url(#clip0_2048_39)">
<mask id="mask0_2048_39" style="mask-type:luminance" maskUnits="userSpaceOnUse" x="-666" y="-277" width="987" height="650">
<path d="M320.579 -222.713L-632.263 -276.584L-665.931 318.913L286.911 372.784L320.579 -222.713Z" fill="white"/>
<path fill-rule="evenodd" clip-rule="evenodd" d="M49.3588 2.81337C49.1796 3.30801 48.2521 3.40529 46.8413 3.24853C46.7894 2.44137 48.6499 2.40967 49.3588 2.81337Z" fill="#050505"/>
<path fill-rule="evenodd" clip-rule="evenodd" d="M72.9957 4.15007L74.2389 4.22036L74.1739 5.37037L72.9306 5.30008L72.9957 4.15007Z" fill="#050505"/>
<path fill-rule="evenodd" clip-rule="evenodd" d="M25.6587 2.62684C27.077 4.18666 27.3188 1.7257 25.6587 2.62684V2.62684Z" fill="#050505"/>
<path fill-rule="evenodd" clip-rule="evenodd" d="M43.7077 3.36001C43.4154 3.69853 42.8818 3.90364 41.8129 3.8261C42.105 3.49184 42.6437 3.28274 43.7077 3.36001Z" fill="#050505"/>
<path fill-rule="evenodd" clip-rule="evenodd" d="M91.5991 6.06762C91.4684 6.30834 91.8222 6.34973 92.2054 6.38851C91.862 6.59581 91.5372 6.81701 91.5345 7.21041C90.9127 6.99131 90.9295 6.5217 89.7043 6.53371C89.9915 6.19917 90.5302 5.99007 91.5991 6.06762Z" fill="#050505"/>
<path fill-rule="evenodd" clip-rule="evenodd" d="M54.8445 5.13828C54.2871 5.65966 52.0674 5.75704 51.0961 5.21352C51.72 4.20729 52.9378 5.1462 54.8445 5.13828Z" fill="#050505"/>
<path fill-rule="evenodd" clip-rule="evenodd" d="M13.156 3.06786C13.3676 2.69055 14.7257 2.91705 15.6571 2.92266C15.9642 3.35924 13.1958 3.48506 14.986 3.74882C13.8649 4.76771 13.9951 3.06825 13.1511 3.06759L13.156 3.06786Z" fill="#050505"/>
<path fill-rule="evenodd" clip-rule="evenodd" d="M77.2324 6.40401L78.4773 6.4744C78.7246 7.10438 77.5517 6.96962 76.5776 6.94021C76.7076 6.71229 77.2209 6.69425 77.2275 6.40374L77.2324 6.40401Z" fill="#050505"/>
<path fill-rule="evenodd" clip-rule="evenodd" d="M4.43286 2.86251C4.7027 2.3288 5.2123 3.09099 5.01966 3.47038C4.7547 4.00437 4.23998 3.24617 4.43286 2.86251Z" fill="#050505"/>
<path fill-rule="evenodd" clip-rule="evenodd" d="M30.5705 4.05292C31.6729 4.17953 33.705 3.94297 33.0228 4.77017C32.3041 4.7724 31.9204 4.64356 31.7967 4.40941C31.1529 4.55731 31.1113 5.03499 29.9031 4.87667C30.2377 4.66415 30.5726 4.44735 30.5705 4.05292Z" fill="#050505"/>
<path fill-rule="evenodd" clip-rule="evenodd" d="M76.532 7.79958C74.0747 6.6511 75.0161 8.63787 76.532 7.79958V7.79958Z" fill="#050505"/>
<path fill-rule="evenodd" clip-rule="evenodd" d="M37.9485 5.90613C35.1719 6.43786 40.5427 8.08473 37.9485 5.90613V5.90613Z" fill="#050505"/>
<path fill-rule="evenodd" clip-rule="evenodd" d="M29.1974 6.27689C28.6022 7.9802 32.0389 6.62625 29.1974 6.27689V6.27689Z" fill="#050505"/>
<path fill-rule="evenodd" clip-rule="evenodd" d="M58.4104 8.21103C58.6437 7.882 60.0768 8.07425 60.2729 8.31634C60.7972 8.96626 57.9643 8.85315 58.4104 8.21103Z" fill="#050505"/>
<path fill-rule="evenodd" clip-rule="evenodd" d="M4.89044 5.75983L6.1337 5.83012L6.10107 6.40726L4.85781 6.33697L4.89044 5.75983Z" fill="#050505"/>
<path fill-rule="evenodd" clip-rule="evenodd" d="M9.81867 6.90264C9.94426 6.6659 9.59071 6.62025 9.2075 6.58147C9.33723 6.35781 9.85098 6.33124 9.86737 6.04128L11.1026 6.11112C10.9719 6.35184 11.3303 6.39777 11.7086 6.43627C11.574 6.65966 11.0703 6.68251 11.0539 6.97247L9.81867 6.90264Z" fill="#050505"/>
<path fill-rule="evenodd" clip-rule="evenodd" d="M0.456696 6.94939C2.39815 7.19202 2.25156 6.32653 3.0112 5.94517C5.739 6.63086 5.83788 8.59944 7.20037 9.05364C6.85488 9.45842 6.24355 9.72388 5.88832 10.1281C3.77049 9.37404 2.75235 8.18926 -0.850489 8.02414C-1.00444 7.54826 -0.238028 7.56587 -0.178518 7.20493L0.749002 7.39881L0.461568 6.94967L0.456696 6.94939Z" fill="#050505"/>
<path fill-rule="evenodd" clip-rule="evenodd" d="M14.8289 6.61316L16.0722 6.68345L16.0398 7.25632L14.7965 7.18603L14.8289 6.61316Z" fill="#050505"/>
<path fill-rule="evenodd" clip-rule="evenodd" d="M72.0477 9.84824L73.9053 9.95326L73.873 10.5247L72.0154 10.4196L72.0477 9.84824Z" fill="#050505"/>
<path fill-rule="evenodd" clip-rule="evenodd" d="M78.2732 10.2003C78.8056 10.4485 79.6566 10.5822 80.7323 10.6259C80.1689 11.0133 80.1739 11.7023 78.2086 11.343C79.2716 10.8342 78.1661 10.9728 78.2732 10.2003Z" fill="#050505"/>
<path fill-rule="evenodd" clip-rule="evenodd" d="M54.6019 9.43626C55.4083 9.58451 55.5463 9.99015 56.4322 10.113C56.1393 10.8065 54.0192 9.99364 54.6019 9.43626Z" fill="#050505"/>
<path fill-rule="evenodd" clip-rule="evenodd" d="M63.3095 9.9285C65.5509 10.3124 63.6369 10.7956 63.8361 11.6812C61.5596 11.8311 63.3875 10.3658 61.411 10.3955C61.576 9.98479 63.2732 10.3979 63.3095 9.9285Z" fill="#050505"/>
<path fill-rule="evenodd" clip-rule="evenodd" d="M75.7307 10.9138L77.5932 11.0191C77.2495 11.2306 76.9153 11.447 76.9223 11.841C76.1658 11.6741 75.6687 11.4065 75.7259 10.9135L75.7307 10.9138Z" fill="#050505"/>
<path fill-rule="evenodd" clip-rule="evenodd" d="M35.2397 9.77745C35.2789 9.3425 39.8798 9.40546 38.9508 10.2744C36.5596 9.94637 36.7436 10.1496 35.2397 9.77745Z" fill="#050505"/>
<path fill-rule="evenodd" clip-rule="evenodd" d="M26.5283 9.2849C27.5347 9.26052 27.5779 9.61802 28.3747 9.6759C28.5914 10.2443 25.5257 9.93405 26.5283 9.2849Z" fill="#050505"/>
<path fill-rule="evenodd" clip-rule="evenodd" d="M21.5347 9.28972C22.3709 9.42683 22.0048 10.035 22.0877 10.4674C21.4852 10.4248 21.6306 10.0951 21.5022 9.86538C20.6661 10.1561 20.5184 9.92098 19.6396 9.76008C19.8089 9.3547 21.4982 9.76249 21.5347 9.28972Z" fill="#050505"/>
<path fill-rule="evenodd" clip-rule="evenodd" d="M63.8194 11.9632L65.0627 12.0335L65.03 12.6107L63.7868 12.5404L63.8194 11.9632Z" fill="#050505"/>
<path fill-rule="evenodd" clip-rule="evenodd" d="M17.7355 10.2235C17.9768 11.1312 16.1166 11.1587 15.2228 10.659C15.3971 10.1641 16.3295 10.0671 17.7355 10.2235Z" fill="#050505"/>
<path fill-rule="evenodd" clip-rule="evenodd" d="M95.4523 15.1917C94.772 15.3804 90.2462 15.806 91.1013 14.9457C93.092 14.664 93.1852 15.0036 95.4523 15.1917Z" fill="#050505"/>
<path fill-rule="evenodd" clip-rule="evenodd" d="M84.2325 15.136C84.8997 15.2421 84.6189 15.7225 85.4402 15.7775C84.852 16.5185 82.6967 15.3785 84.2325 15.136Z" fill="#050505"/>
<path fill-rule="evenodd" clip-rule="evenodd" d="M4.57655 11.2065C1.79397 12.1015 2.26284 10.28 4.57655 11.2065V11.2065Z" fill="#050505"/>
<path fill-rule="evenodd" clip-rule="evenodd" d="M3.91406 12.031C4.1839 11.4973 4.6935 12.2595 4.50086 12.6389C4.23614 13.1686 3.72166 12.4061 3.91406 12.031Z" fill="#050505"/>
<path fill-rule="evenodd" clip-rule="evenodd" d="M23.1806 13.4074L24.4158 13.4773C24.6682 14.1032 23.5047 13.9733 22.5161 13.9431C22.6507 13.7197 23.1596 13.6928 23.1757 13.4071L23.1806 13.4074Z" fill="#050505"/>
<path fill-rule="evenodd" clip-rule="evenodd" d="M54.8985 15.2007C55.2507 15.7135 57.8477 15.3418 57.9698 15.9487C58.1477 17.1246 53.8287 16.1389 54.8985 15.2007Z" fill="#050505"/>
<path fill-rule="evenodd" clip-rule="evenodd" d="M13.7951 13.7376C11.3427 12.5894 12.2793 14.5759 13.7951 13.7376V13.7376Z" fill="#050505"/>
<path fill-rule="evenodd" clip-rule="evenodd" d="M66.6832 16.4412L67.9264 16.5115L67.894 17.0844L66.6508 17.0141L66.6832 16.4412Z" fill="#050505"/>
<path fill-rule="evenodd" clip-rule="evenodd" d="M3.77857 14.3201C3.56187 14.7014 2.20915 14.4666 1.27257 14.465C1.485 13.814 2.97308 13.8981 3.77857 14.3201Z" fill="#050505"/>
<path fill-rule="evenodd" clip-rule="evenodd" d="M26.1848 15.3001C26.7636 16.1927 24.775 15.7295 23.6723 15.7313C24.1028 15.3664 25.0303 15.2691 26.1848 15.3001Z" fill="#050505"/>
<path fill-rule="evenodd" clip-rule="evenodd" d="M47.3128 16.7819C47.2823 17.0625 46.5416 16.9607 46.0614 16.9977C46.3694 17.2461 46.6819 17.4991 46.6257 17.8895C46.0641 17.554 44.3403 17.6704 44.8165 16.9273C45.3785 16.7367 46.2344 16.6995 47.3128 16.7819Z" fill="#050505"/>
<path fill-rule="evenodd" clip-rule="evenodd" d="M57.2565 17.6312C58.3203 17.5884 58.4141 17.9196 58.4625 18.2741C57.9391 18.1887 57.8761 18.3524 57.822 18.5295C57.0982 18.4414 57.3298 17.9784 57.2514 17.6352L57.2565 17.6312Z" fill="#050505"/>
<path fill-rule="evenodd" clip-rule="evenodd" d="M3.70305 15.7514C3.53188 15.2412 7.20901 15.4363 6.16678 16.1816C4.85699 16.223 4.53418 15.8925 3.70305 15.7514Z" fill="#050505"/>
<path fill-rule="evenodd" clip-rule="evenodd" d="M72.7264 19.946L73.9696 20.0163L73.9375 20.5849L72.6942 20.5146L72.7264 19.946Z" fill="#050505"/>
<path fill-rule="evenodd" clip-rule="evenodd" d="M34.0614 19.4823C33.917 19.0164 37.4443 19.2714 35.9077 19.8733C36.162 19.7764 34.0575 19.4649 34.0614 19.4823Z" fill="#050505"/>
<path fill-rule="evenodd" clip-rule="evenodd" d="M90.4052 27.2679C88.1948 25.8777 92.1928 26.2753 90.4052 27.2679V27.2679Z" fill="#050505"/>
<path fill-rule="evenodd" clip-rule="evenodd" d="M13.2959 22.6163C14.4352 21.8321 16.6046 22.9705 18.2706 22.8976C16.5965 23.2872 14.2483 23.3216 13.2959 22.6163Z" fill="#050505"/>
<path fill-rule="evenodd" clip-rule="evenodd" d="M93.5174 27.4433C93.2234 27.9753 91.7098 27.8597 92.1989 28.8046C90.6125 28.6806 89.8059 28.2492 89.7739 27.5188C90.5233 27.2312 91.9945 27.3186 93.5223 27.4436L93.5174 27.4433Z" fill="#050505"/>
<path fill-rule="evenodd" clip-rule="evenodd" d="M15.7325 23.6199C15.8044 24.2497 13.523 23.6235 12.6124 23.7349C13.0972 22.8537 14.2951 23.4529 15.7325 23.6199Z" fill="#050505"/>
<path fill-rule="evenodd" clip-rule="evenodd" d="M5.78312 23.0573C6.28087 23.141 6.38433 23.3822 7.00679 23.4173C6.63825 24.0681 4.06477 23.4221 5.78312 23.0573Z" fill="#050505"/>
<path fill-rule="evenodd" clip-rule="evenodd" d="M44.94 25.8497C45.4276 26.027 45.9251 26.2005 46.7817 26.2361C46.4027 26.8136 45.7846 26.7872 44.9077 26.4211L44.94 25.8497Z" fill="#050505"/>
<path fill-rule="evenodd" clip-rule="evenodd" d="M29.37 25.2481C30.7085 25.1908 30.5364 25.7258 30.5696 26.1779C30.0656 26.0937 29.9666 25.8565 29.3376 25.8209L29.37 25.2481Z" fill="#050505"/>
<path fill-rule="evenodd" clip-rule="evenodd" d="M13.1508 25.1961C12.939 24.628 15.9998 24.938 14.9969 25.5914L13.7568 25.5213C13.8827 25.2803 13.5291 25.2346 13.1508 25.1961Z" fill="#050505"/>
<path fill-rule="evenodd" clip-rule="evenodd" d="M81.459 31.069C81.9466 31.2463 82.4439 31.4241 83.3054 31.46C82.9218 32.0329 82.2988 32.0062 81.4267 31.6404L81.459 31.069Z" fill="#050505"/>
<path fill-rule="evenodd" clip-rule="evenodd" d="M25.9559 30.5196C25.6568 31.1413 22.6399 30.555 22.2237 30.3086C23.1055 29.1498 24.2603 30.4237 25.9559 30.5196Z" fill="#050505"/>
<path fill-rule="evenodd" clip-rule="evenodd" d="M3.54536 29.5397C5.18414 29.5468 5.56052 30.0515 5.34327 30.7878C4.44301 30.4888 3.39787 30.2501 3.54536 29.5397Z" fill="#050505"/>
<path fill-rule="evenodd" clip-rule="evenodd" d="M17.8506 30.3485L19.0988 30.4191L19.0664 30.992L17.8183 30.9214L17.8506 30.3485Z" fill="#050505"/>
<path fill-rule="evenodd" clip-rule="evenodd" d="M20.3238 30.7798L21.5622 30.8499L21.53 31.4185L20.2916 31.3484L20.3238 30.7798Z" fill="#050505"/>
<path fill-rule="evenodd" clip-rule="evenodd" d="M37.0541 32.8708C35.1573 31.8157 38.6858 31.1746 37.0541 32.8708V32.8708Z" fill="#050505"/>
<path fill-rule="evenodd" clip-rule="evenodd" d="M79.9835 35.0059C79.9024 34.5385 84.0843 34.6634 83.0808 35.4682C81.6335 35.4764 80.6909 35.2902 79.9835 35.0059Z" fill="#050505"/>
<path fill-rule="evenodd" clip-rule="evenodd" d="M86.8466 35.1109C87.6031 35.2777 88.0951 35.5493 88.0382 36.0381C87.0319 36.0624 86.9836 35.7089 86.1921 35.6428C86.327 35.4151 86.8305 35.3966 86.8469 35.1066L86.8466 35.1109Z" fill="#050505"/>
<path fill-rule="evenodd" clip-rule="evenodd" d="M66.2722 34.8091C60.2424 35.4669 62.6602 34.0263 66.2722 34.8091V34.8091Z" fill="#050505"/>
<path fill-rule="evenodd" clip-rule="evenodd" d="M86.1339 36.5059C83.681 35.3663 84.6181 37.3442 86.1339 36.5059V36.5059Z" fill="#050505"/>
<path fill-rule="evenodd" clip-rule="evenodd" d="M58.1465 34.924C59.1575 34.9042 59.2058 35.2577 59.9975 35.3196C60.2096 35.8834 57.1439 35.5732 58.1465 34.924Z" fill="#050505"/>
<path fill-rule="evenodd" clip-rule="evenodd" d="M5.79984 33.6903C5.31249 33.5088 4.81494 33.3352 3.95371 33.2951C4.19259 32.5214 6.15173 32.8162 5.79984 33.6903Z" fill="#050505"/>
<path fill-rule="evenodd" clip-rule="evenodd" d="M85.8132 42.2359C85.7412 41.6061 88.0276 42.2325 88.9379 42.1254C89.005 42.7549 86.7184 42.1328 85.8132 42.2359Z" fill="#050505"/>
<path fill-rule="evenodd" clip-rule="evenodd" d="M6.68241 40.3508C6.60561 39.7207 8.89196 40.3471 9.80204 40.2443C9.87421 40.8698 7.58786 40.2434 6.68241 40.3508Z" fill="#050505"/>
<path fill-rule="evenodd" clip-rule="evenodd" d="M18.4779 41.3047C14.5236 40.7475 17.067 42.0976 18.4779 41.3047V41.3047Z" fill="#050505"/>
<path fill-rule="evenodd" clip-rule="evenodd" d="M83.0211 47.5384L84.2643 47.6087L84.2317 48.1858L82.9884 48.1155L83.0211 47.5384Z" fill="#050505"/>
<path fill-rule="evenodd" clip-rule="evenodd" d="M46.2908 46.0398C46.1417 45.5694 49.6691 45.8244 48.1374 46.4265C48.3819 46.3291 46.2825 46.0137 46.2908 46.0398Z" fill="#050505"/>
<path fill-rule="evenodd" clip-rule="evenodd" d="M13.9308 44.4938C15.8902 45.1103 11.3122 45.5072 10.7898 44.8905C10.5573 44.0759 14.1682 45.3087 13.9308 44.4938Z" fill="#050505"/>
<path fill-rule="evenodd" clip-rule="evenodd" d="M15.7492 45.4579C16.3708 45.6813 16.3538 46.1552 17.5792 46.1389C17.3627 46.5159 16.0095 46.2897 15.0781 46.2841C15.4218 46.0725 15.7557 45.8604 15.7492 45.4579Z" fill="#050505"/>
<path fill-rule="evenodd" clip-rule="evenodd" d="M48.6991 47.6117C48.4824 47.0434 51.5481 47.3536 50.5406 48.0024L49.3006 47.9323C49.4262 47.6956 49.0728 47.6457 48.6991 47.6117Z" fill="#050505"/>
<path fill-rule="evenodd" clip-rule="evenodd" d="M9.49121 45.6826C5.53209 45.1251 8.08039 46.4755 9.49121 45.6826V45.6826Z" fill="#050505"/>
<path fill-rule="evenodd" clip-rule="evenodd" d="M37.3735 49.2736C38.9721 49.6464 36.5506 50.9724 35.4577 50.0252C35.5615 49.4835 37.5261 49.941 37.3735 49.2736Z" fill="#050505"/>
<path fill-rule="evenodd" clip-rule="evenodd" d="M4.37207 47.9777C0.417819 47.4204 2.95615 48.7746 4.37207 47.9777V47.9777Z" fill="#050505"/>
<path fill-rule="evenodd" clip-rule="evenodd" d="M38.5671 50.2025C40.0146 50.1901 40.9521 50.3802 41.6597 50.6603C41.7503 51.1326 37.5633 51.0116 38.5671 50.2025Z" fill="#050505"/>
<path fill-rule="evenodd" clip-rule="evenodd" d="M44.1546 50.8013C45.1609 50.7769 45.2041 51.1344 45.9961 51.192C46.2127 51.7604 43.1471 51.4501 44.1546 50.8013Z" fill="#050505"/>
<path fill-rule="evenodd" clip-rule="evenodd" d="M47.2476 51.2633C47.7619 50.7266 51.2662 51.3362 50.9423 52.0508C50.1706 51.6086 48.0193 51.7055 47.2476 51.2633Z" fill="#050505"/>
<path fill-rule="evenodd" clip-rule="evenodd" d="M6.19732 48.9424L7.44058 49.0127L7.40795 49.5899L6.16469 49.5196L6.19732 48.9424Z" fill="#050505"/>
<path fill-rule="evenodd" clip-rule="evenodd" d="M51.9138 56.9869C51.7645 56.5208 55.287 56.7755 53.7599 57.3822C54.0045 57.2848 51.905 56.9693 51.9138 56.9869Z" fill="#050505"/>
<path fill-rule="evenodd" clip-rule="evenodd" d="M16.4533 54.9826C12.4988 54.4296 15.0425 55.7755 16.4533 54.9826V54.9826Z" fill="#050505"/>
<path fill-rule="evenodd" clip-rule="evenodd" d="M31.9589 56.7201C33.9055 55.7692 34.0059 57.7042 31.9589 56.7201V56.7201Z" fill="#050505"/>
<path fill-rule="evenodd" clip-rule="evenodd" d="M48.1331 57.6352C48.7368 57.6779 48.5957 58.0128 48.7195 58.2427C49.4493 58.044 50.4074 57.9567 51.8443 58.1322C52.1517 59.1782 48.1262 57.9306 48.6712 59.0972C47.804 58.701 47.315 57.9276 48.1331 57.6352Z" fill="#050505"/>
<path fill-rule="evenodd" clip-rule="evenodd" d="M1.46783 55.2842L2.70621 55.3542L2.67383 55.9271L1.43544 55.857L1.46783 55.2842Z" fill="#050505"/>
<path fill-rule="evenodd" clip-rule="evenodd" d="M27.5727 57.0515C28.1566 58.0489 25.6133 57.3864 24.4315 57.4525C24.5552 56.8209 26.0306 56.9214 27.5727 57.0515Z" fill="#050505"/>
<path fill-rule="evenodd" clip-rule="evenodd" d="M61.1448 59.2368C61.9725 59.4766 62.2658 59.9135 62.3233 60.4528C60.4347 60.6377 61.2575 59.7536 61.1448 59.2368Z" fill="#050505"/>
<path fill-rule="evenodd" clip-rule="evenodd" d="M32.4869 58.4738L33.7253 58.5438L33.6926 59.121L32.4542 59.051L32.4869 58.4738Z" fill="#050505"/>
<path fill-rule="evenodd" clip-rule="evenodd" d="M67.223 62.1648L68.4662 62.2351L68.4336 62.8123L67.1903 62.742L67.223 62.1648Z" fill="#050505"/>
<path fill-rule="evenodd" clip-rule="evenodd" d="M73.4243 62.8026C75.3983 61.7784 75.8472 63.6939 77.7429 63.6211C76.6787 64.2895 74.0303 63.2355 73.4243 62.8026Z" fill="#050505"/>
<path fill-rule="evenodd" clip-rule="evenodd" d="M83.3546 63.6555C85.808 63.7514 82.2749 64.2874 82.0984 63.871C81.9947 63.6342 82.975 63.6383 83.3546 63.6555Z" fill="#050505"/>
<path fill-rule="evenodd" clip-rule="evenodd" d="M38.5424 61.6921C38.8071 61.1624 39.3267 61.9209 39.129 62.3043C38.8689 62.8385 38.3547 62.0718 38.5424 61.6921Z" fill="#050505"/>
<path fill-rule="evenodd" clip-rule="evenodd" d="M49.1065 62.5762L50.3449 62.6462L50.3125 63.2191L49.0741 63.1491L49.1065 62.5762Z" fill="#050505"/>
<path fill-rule="evenodd" clip-rule="evenodd" d="M51.5711 63.0031L52.8144 63.0733L52.782 63.6462L51.5387 63.5759L51.5711 63.0031Z" fill="#050505"/>
<path fill-rule="evenodd" clip-rule="evenodd" d="M69.5946 64.3084C71.5364 63.3573 71.6365 65.2965 69.5946 64.3084V64.3084Z" fill="#050505"/>
<path fill-rule="evenodd" clip-rule="evenodd" d="M64.5552 65.177C65.3068 65.3435 65.8088 65.6115 65.7514 66.1087C64.7453 66.1288 64.697 65.7753 63.905 65.7177C64.0352 65.4855 64.5436 65.4672 64.5598 65.1815L64.5552 65.177Z" fill="#050505"/>
<path fill-rule="evenodd" clip-rule="evenodd" d="M82.5568 66.769C78.6028 66.2075 81.1411 67.5616 82.5568 66.769V66.769Z" fill="#050505"/>
<path fill-rule="evenodd" clip-rule="evenodd" d="M10.9802 63.5795C12.2186 64.1971 12.1599 64.8911 11.4894 65.6189C9.23579 65.269 11.5993 64.7096 10.9802 63.5795Z" fill="#050505"/>
<path fill-rule="evenodd" clip-rule="evenodd" d="M14.0388 64.6141C14.7104 64.7291 14.425 65.2049 15.2466 65.2556C14.9391 66.0339 13.2909 65.1579 14.0388 64.6141Z" fill="#050505"/>
<path fill-rule="evenodd" clip-rule="evenodd" d="M80.598 68.377C81.7776 68.5677 83.262 68.6303 83.0346 69.3746C81.8547 69.1881 80.3706 69.1213 80.598 68.377Z" fill="#050505"/>
<path fill-rule="evenodd" clip-rule="evenodd" d="M61.9207 67.6125C63.4576 67.6608 64.9196 67.7392 65.6416 68.11C64.5099 68.4146 61.4837 68.8564 61.9207 67.6125Z" fill="#050505"/>
<path fill-rule="evenodd" clip-rule="evenodd" d="M72.4586 68.7786C73.1866 68.8711 72.9502 69.3335 73.0332 69.6811C71.2615 69.8081 71.4486 69.1801 69.9411 69.2148C69.5368 68.4119 72.8627 69.5857 72.4586 68.7786Z" fill="#050505"/>
<path fill-rule="evenodd" clip-rule="evenodd" d="M48.1234 68.8427L49.9846 68.9479C49.1872 69.9101 49.0252 69.8366 48.6499 70.5955C47.4774 70.4992 48.2699 69.6225 46.8324 69.6312C47.2534 69.3593 48.2769 69.4129 48.1234 68.8427Z" fill="#050505"/>
<path fill-rule="evenodd" clip-rule="evenodd" d="M80.45 70.9569C80.8188 70.3018 83.3971 70.9481 81.6788 71.313C81.1759 71.2332 81.0773 70.9923 80.45 70.9569Z" fill="#050505"/>
<path fill-rule="evenodd" clip-rule="evenodd" d="M50.5769 69.5556C52.5247 69.5331 53.3346 69.9639 52.9973 70.8389C52.8061 70.165 50.2894 70.412 50.5769 69.5556Z" fill="#050505"/>
<path fill-rule="evenodd" clip-rule="evenodd" d="M36.8596 69.3586C36.6804 69.8533 35.758 69.9466 34.3423 69.7895C33.7637 68.8927 35.757 69.3604 36.8596 69.3586Z" fill="#050505"/>
<path fill-rule="evenodd" clip-rule="evenodd" d="M46.1751 70.1684L47.4151 70.2385C47.5642 70.7089 46.7988 70.6999 46.744 71.0647L45.5039 70.9946C45.3551 70.5199 46.1154 70.5329 46.1702 70.1681L46.1751 70.1684Z" fill="#050505"/>
<path fill-rule="evenodd" clip-rule="evenodd" d="M64.8307 71.223C65.0595 71.8348 64.3598 71.9578 64.1484 72.3308C62.3851 72.1969 63.026 71.0439 64.8307 71.223Z" fill="#050505"/>
<path fill-rule="evenodd" clip-rule="evenodd" d="M51.1186 71.0222C52.5725 71.3653 52.4604 72.745 50.399 72.7054C51.1331 72.4047 51.1566 71.7301 51.1186 71.0222Z" fill="#050505"/>
<path fill-rule="evenodd" clip-rule="evenodd" d="M12.5029 69.7042C10.0556 68.552 10.9873 70.5382 12.5029 69.7042V69.7042Z" fill="#050505"/>
<path fill-rule="evenodd" clip-rule="evenodd" d="M26.827 70.2274L28.0751 70.298L28.0427 70.8708L26.7946 70.8003L26.827 70.2274Z" fill="#050505"/>
<path fill-rule="evenodd" clip-rule="evenodd" d="M61.0318 72.1613C61.1644 72.9217 60.7386 73.3767 59.1046 73.1988C58.9718 72.4427 59.398 71.9791 61.0318 72.1613Z" fill="#050505"/>
<path fill-rule="evenodd" clip-rule="evenodd" d="M86.54 73.6032C87.359 75.0253 83.9027 74.1699 82.1405 74.216C82.0143 73.1631 85.4754 74.0188 86.54 73.6032Z" fill="#050505"/>
<path fill-rule="evenodd" clip-rule="evenodd" d="M67.8622 72.8347C68.9476 72.9645 69.2447 73.4048 69.0376 74.0476C67.7325 74.0935 67.4002 73.7582 66.5737 73.6216C66.8089 73.2585 67.6934 73.2315 67.8622 72.8347Z" fill="#050505"/>
<path fill-rule="evenodd" clip-rule="evenodd" d="M16.1899 70.7747C16.3036 70.1467 18.8374 70.8043 19.9434 70.6954C19.3592 71.691 18.4064 70.6471 16.1899 70.7747Z" fill="#050505"/>
<path fill-rule="evenodd" clip-rule="evenodd" d="M6.85921 70.2471C7.9699 70.2757 8.15245 70.671 9.32318 70.673C9.49363 71.196 5.81698 70.9924 6.85921 70.2471Z" fill="#050505"/>
<path fill-rule="evenodd" clip-rule="evenodd" d="M47.271 72.8185C47.3062 72.7991 47.2431 72.5346 47.2871 72.5328C50.2821 72.4541 44.2314 74.2038 47.271 72.8185Z" fill="#050505"/>
<path fill-rule="evenodd" clip-rule="evenodd" d="M72.7875 73.9745C72.2518 74.4746 71.9198 75.0847 70.8442 75.2977C69.2093 74.7903 71.1955 73.7433 72.7875 73.9745Z" fill="#050505"/>
<path fill-rule="evenodd" clip-rule="evenodd" d="M75.8823 74.4361C73.8404 73.448 73.9454 75.3875 75.8823 74.4361V74.4361Z" fill="#050505"/>
<path fill-rule="evenodd" clip-rule="evenodd" d="M82.7091 75.1097C83.1334 74.5208 86.5489 75.0611 87.065 75.356C85.7304 76.7421 84.9868 75.4571 82.7091 75.1097Z" fill="#050505"/>
<path fill-rule="evenodd" clip-rule="evenodd" d="M82.6898 75.3959C84.3579 75.7469 82.0976 76.6372 81.4175 75.8972C81.5856 75.5987 82.6589 75.7706 82.6898 75.3959Z" fill="#050505"/>
<path fill-rule="evenodd" clip-rule="evenodd" d="M40.3643 73.5771C41.6744 73.5314 41.9969 73.8662 42.838 74.0036C43.0041 74.5178 39.3272 74.3184 40.3643 73.5771Z" fill="#050505"/>
<path fill-rule="evenodd" clip-rule="evenodd" d="M52.1661 74.5311C50.1291 73.5432 50.2244 75.4822 52.1661 74.5311V74.5311Z" fill="#050505"/>
<path fill-rule="evenodd" clip-rule="evenodd" d="M69.5965 75.23C69.1614 75.5904 68.2339 75.6877 67.0792 75.6609C66.5054 74.7643 68.4938 75.2318 69.5965 75.23Z" fill="#050505"/>
<path fill-rule="evenodd" clip-rule="evenodd" d="M72.0525 75.943C71.7652 76.2775 71.2219 76.4821 70.1576 76.409C69.9052 75.7831 71.0784 75.9136 72.0525 75.943Z" fill="#050505"/>
<path fill-rule="evenodd" clip-rule="evenodd" d="M78.9001 76.3303C78.9984 76.5801 78.6364 76.5854 78.2554 76.581C78.3386 76.9243 79.3769 76.8887 80.1053 76.9727C79.9918 77.5964 77.4577 76.9431 76.3572 77.0437C76.2099 76.2767 77.6996 76.3824 78.8952 76.33L78.9001 76.3303Z" fill="#050505"/>
<path fill-rule="evenodd" clip-rule="evenodd" d="M89.4088 78.0773C87.4633 77.6459 87.9972 77.9718 85.6717 77.8661C85.8257 77.0433 89.7452 76.7077 89.4088 78.0773Z" fill="#050505"/>
<path fill-rule="evenodd" clip-rule="evenodd" d="M73.873 76.9073C76.26 76.6231 73.9271 78.1937 76.3093 77.9092C76.0928 78.2862 74.7399 78.0557 73.8084 78.0501L73.8732 76.9031L73.873 76.9073Z" fill="#050505"/>
<path fill-rule="evenodd" clip-rule="evenodd" d="M12.2747 73.7163C8.31538 73.1631 10.8637 74.5135 12.2747 73.7163V73.7163Z" fill="#050505"/>
<path fill-rule="evenodd" clip-rule="evenodd" d="M55.1746 76.4286C55.0002 76.9235 54.0778 77.0168 52.6621 76.8598C52.6102 76.0526 54.4702 76.0295 55.1746 76.4286Z" fill="#050505"/>
<path fill-rule="evenodd" clip-rule="evenodd" d="M40.8572 75.9067C40.5701 76.1434 40.2825 76.3886 39.5826 76.4047C42.9467 77.5078 40.9652 77.4558 37.0277 77.4175C37.1755 76.7915 36.568 76.47 35.2103 76.449C36.6436 75.6514 38.0995 75.3179 40.8572 75.9067Z" fill="#050505"/>
<path fill-rule="evenodd" clip-rule="evenodd" d="M7.89312 74.0428L9.13638 74.1131L9.10424 74.6817L7.86098 74.6114L7.89312 74.0428Z" fill="#050505"/>
<path fill-rule="evenodd" clip-rule="evenodd" d="M14.111 74.3946C15.6124 74.7618 15.6807 76.2286 13.3914 76.0778C14.3646 75.2602 13.2501 74.9533 14.111 74.3946Z" fill="#050505"/>
<path fill-rule="evenodd" clip-rule="evenodd" d="M25.2952 75.3091C25.5068 74.9318 26.86 75.158 27.7961 75.1681C27.5839 75.8149 26.1009 75.7268 25.2952 75.3091Z" fill="#050505"/>
<path fill-rule="evenodd" clip-rule="evenodd" d="M50.1873 76.4341C51.6898 76.6944 50.4316 77.8938 48.8777 77.5065C48.2237 76.5626 49.8947 76.8624 50.1873 76.4341Z" fill="#050505"/>
<path fill-rule="evenodd" clip-rule="evenodd" d="M58.2769 76.8915L61.3855 77.0672C60.9883 77.8677 58.3964 78.064 58.2769 76.8915Z" fill="#050505"/>
<path fill-rule="evenodd" clip-rule="evenodd" d="M7.84246 74.9016C9.68352 74.5856 9.58762 76.2817 7.79367 75.7646L7.84246 74.9016Z" fill="#050505"/>
<path fill-rule="evenodd" clip-rule="evenodd" d="M17.7617 76.0362C14.8404 75.0711 16.206 76.8894 17.7617 76.0362V76.0362Z" fill="#050505"/>
<path fill-rule="evenodd" clip-rule="evenodd" d="M61.9248 78.5335C56.9951 78.4045 64.9693 78.6158 61.9248 78.5335V78.5335Z" fill="#050505"/>
<path fill-rule="evenodd" clip-rule="evenodd" d="M0.953597 75.3779L4.06216 75.5536C3.64157 75.817 2.61813 75.7634 2.77116 76.3421C2.20874 76.0017 0.481351 76.1227 0.953597 75.3779Z" fill="#050505"/>
<path fill-rule="evenodd" clip-rule="evenodd" d="M48.1329 79.7639C46.2584 78.8565 46.3928 80.8014 43.7236 80.3761C44.2687 80.0727 44.5905 79.6537 44.4282 78.9802C46.3903 79.1168 48.1795 78.4208 48.1331 79.7597L48.1329 79.7639Z" fill="#050505"/>
<path fill-rule="evenodd" clip-rule="evenodd" d="M83.0093 80.8743L84.2575 80.9448L84.2253 81.5134L82.9772 81.4429L83.0093 80.8743Z" fill="#050505"/>
<path fill-rule="evenodd" clip-rule="evenodd" d="M69.2941 80.6733C68.7386 81.0748 67.263 80.9785 66.1532 81.07C65.5692 80.0727 68.108 80.7305 69.2941 80.6733Z" fill="#050505"/>
<path fill-rule="evenodd" clip-rule="evenodd" d="M82.8936 82.8775C83.0145 82.5506 84.0401 82.7027 84.7722 82.6971L84.6912 84.1298C82.3827 83.8025 85.2072 83.2008 82.8936 82.8775Z" fill="#050505"/>
<path fill-rule="evenodd" clip-rule="evenodd" d="M47.4407 80.8735C47.1484 81.212 46.6099 81.4168 45.5459 81.3395C45.2932 80.7178 46.4569 80.8435 47.4407 80.8735Z" fill="#050505"/>
<path fill-rule="evenodd" clip-rule="evenodd" d="M32.4419 81.1779C29.3351 80.2152 30.0756 82.0452 32.4419 81.1779V81.1779Z" fill="#050505"/>
<path fill-rule="evenodd" clip-rule="evenodd" d="M75.9527 84.2069C74.6425 84.2569 74.315 83.9218 73.4837 83.785C73.6425 82.9598 76.4697 83.2608 75.9527 84.2069Z" fill="#050505"/>
<path fill-rule="evenodd" clip-rule="evenodd" d="M76.6233 83.3849L78.4907 83.4905L78.4584 84.0619L76.591 83.9563L76.6233 83.3849Z" fill="#050505"/>
<path fill-rule="evenodd" clip-rule="evenodd" d="M88.5965 4.17059C90.5631 4.14034 90.7598 4.8115 92.931 4.7071C92.4844 4.91329 91.9221 5.4344 92.8825 5.56585C92.0331 6.15215 88.0252 5.62982 87.924 4.99834L88.26 4.58874L88.5965 4.17059Z" fill="#050505"/>
<path fill-rule="evenodd" clip-rule="evenodd" d="M6.86839 3.86165C7.76103 3.98069 6.20814 5.25156 4.31851 4.87042C3.77815 3.79408 7.12414 4.78474 6.86839 3.86165Z" fill="#050505"/>
<path fill-rule="evenodd" clip-rule="evenodd" d="M52.6645 10.4751C52.3791 10.0868 55.7548 10.5215 55.1171 11.187C53.413 11.3003 53.8994 10.5492 52.6645 10.4751Z" fill="#050505"/>
<path fill-rule="evenodd" clip-rule="evenodd" d="M71.3279 11.5301C73.0927 10.7744 70.1953 12.4072 71.9019 12.4224C71.6055 12.8334 71.1155 12.2667 70.0394 12.3171C70.2743 11.9582 71.1589 11.9313 71.3279 11.5301Z" fill="#050505"/>
<path fill-rule="evenodd" clip-rule="evenodd" d="M15.8317 21.8987C14.0302 20.8019 17.4624 20.4813 15.8317 21.8987V21.8987Z" fill="#050505"/>
<path fill-rule="evenodd" clip-rule="evenodd" d="M48.6421 59.6738C48.486 59.156 51.0502 59.7929 50.4672 60.3545C49.0872 60.4305 49.6179 59.759 48.6421 59.6738Z" fill="#050505"/>
<path fill-rule="evenodd" clip-rule="evenodd" d="M37.8054 63.6647C37.63 63.6548 35.9951 63.6095 35.9392 63.5592C35.1464 62.7986 40.9317 63.8715 37.8054 63.6647Z" fill="#050505"/>
<path fill-rule="evenodd" clip-rule="evenodd" d="M70.5132 70.108C70.7008 69.3786 71.5558 70.5648 72.9982 70.2485C72.8655 70.9554 70.8877 70.2147 70.5132 70.108Z" fill="#050505"/>
<path fill-rule="evenodd" clip-rule="evenodd" d="M69.1842 71.4692C68.7119 71.712 68.0316 71.8361 67.2894 71.9353C65.7353 71.7234 68.3601 71.3756 69.1842 71.4692Z" fill="#050505"/>
<path fill-rule="evenodd" clip-rule="evenodd" d="M55.9597 73.5974C55.7607 74.1776 53.6299 73.74 53.4262 74.3157C52.8923 74.3369 52.8381 74.171 52.8188 73.9942L52.8511 73.4217C54.0047 74.0269 54.4086 73.5397 55.9548 73.5971L55.9597 73.5974Z" fill="#050505"/>
<path fill-rule="evenodd" clip-rule="evenodd" d="M81.3673 76.7563C79.0623 76.5404 83.2312 76.1473 82.6074 76.8264C84.0393 77.3865 82.3803 76.7879 81.3673 76.7563Z" fill="#050505"/>
<path fill-rule="evenodd" clip-rule="evenodd" d="M62.6251 77.1375C63.3287 77.2287 62.9548 77.4433 62.6092 77.4195C62.965 78.3011 63.9548 77.2212 65.0989 77.5602C64.6225 78.8105 61.0556 77.9231 62.6251 77.1375Z" fill="#050505"/>
<path fill-rule="evenodd" clip-rule="evenodd" d="M67.5571 78.2775C64.0761 77.9781 69.5623 78.4465 67.5571 78.2775V78.2775Z" fill="#050505"/>
<path fill-rule="evenodd" clip-rule="evenodd" d="M-2.18665 75.7656C-1.99443 75.0407 -1.13436 76.223 0.303192 75.9064C0.165671 76.613 -1.8073 75.8726 -2.18665 75.7656Z" fill="#050505"/>
<path fill-rule="evenodd" clip-rule="evenodd" d="M3.98225 76.9806L5.85324 77.0864C5.43579 77.8128 6.04327 78.1343 7.66568 78.0546C7.53083 78.2784 7.02608 78.3013 7.00965 78.5918L5.77208 78.5219C6.49023 77.491 3.45895 77.9368 3.98201 76.9848L3.98225 76.9806Z" fill="#050505"/>
<path fill-rule="evenodd" clip-rule="evenodd" d="M72.3197 82.2785C72.002 82.0296 71.6941 81.7812 71.7457 81.3863C72.8663 81.4111 73.0389 81.8102 74.2194 81.8127C74.367 82.4799 72.4022 82.0265 72.3035 82.5642C71.6015 82.4689 71.9698 82.2545 72.3199 82.2743L72.3197 82.2785Z" fill="#050505"/>
</mask>
<g mask="url(#mask0_2048_39)">
<path d="M22.0722 39.185C22.291 39.2916 22.5147 39.3986 22.7489 39.4932C23.5702 39.8354 24.4201 40.1063 25.1979 40.5275C25.914 40.9151 26.5425 41.2978 27.3684 41.4731C28.2765 41.6659 29.0703 42.0622 29.9893 42.2342C30.918 42.4067 31.8847 42.4271 32.8066 42.6335C34.4188 42.9946 35.9768 43.7085 37.6568 43.8206C37.6368 43.8281 37.6168 43.8355 37.5966 43.8472C37.108 44.1025 36.687 44.3744 36.3042 44.7471C36.2268 44.8198 36.1734 44.8983 36.1252 44.9727C35.3617 45.7696 34.815 46.7073 34.3114 47.6603C33.6053 48.9962 32.8988 50.3406 32.2933 51.7122C31.5596 53.3637 30.8793 55.0225 30.0214 56.6241C29.1688 58.2175 28.2445 59.781 27.4543 61.395C26.703 62.9255 26.2616 64.5078 25.6592 66.0853C25.0509 67.6796 24.0843 69.1293 23.5815 70.7596C23.4862 71.0628 23.4003 71.3708 23.3196 71.6749C22.633 73.0119 21.972 74.3289 21.4723 75.7321C21.2168 76.4463 21.0048 77.1715 20.6774 77.8602C20.3112 78.6324 19.9566 79.2853 19.889 80.1344C19.8251 80.9194 21.0385 81.5023 21.7026 80.9098C22.8663 79.8655 22.8491 78.5273 23.4497 77.2412C24.1394 75.7629 24.8201 74.4427 25.2415 72.8679C25.3033 72.6399 25.3699 72.4123 25.4363 72.1888C25.6335 71.8143 25.8257 71.4394 26.0131 71.0642C27.616 67.8718 29.0895 64.6334 30.6829 61.4361C32.1884 58.4096 34.0887 55.5769 35.7038 52.5994C36.5336 51.0648 37.049 49.3838 37.9691 47.8928C38.6419 46.7994 39.4356 45.8156 39.1626 44.5058C39.0937 44.1676 38.7718 43.8965 38.4015 43.7899C38.6994 43.7081 38.91 43.5272 39.03 43.3068C39.0734 43.3178 39.1121 43.3243 39.1555 43.3353C40.5357 43.6491 41.9337 43.9938 43.353 44.1341C44.3153 44.2314 45.2805 44.2774 46.2506 44.3236C46.2338 44.7941 46.5536 45.2751 47.2406 45.314C47.9276 45.3528 48.3152 44.8947 48.3421 44.4205C51.6845 44.6094 55.0269 44.7984 58.3694 44.9874C59.8652 45.0719 61.3863 45.2265 62.8828 45.2125C63.6115 45.2066 64.3425 45.1579 65.0697 45.0919C64.8208 45.3435 64.7323 45.6986 64.9744 46.0851C66.2075 48.0493 67.653 49.8883 68.9775 51.7933C69.0407 51.9726 69.1039 52.1519 69.1619 52.3352C70.3839 55.9659 72.1423 59.447 73.8724 62.9093C75.6505 66.473 77.5984 69.9733 79.6769 73.4125C81.5941 76.5897 83.2713 79.8647 85.7928 82.7289C86.4451 83.4687 87.9829 82.8098 87.6575 81.9085C85.2982 75.3976 81.5763 69.4696 78.1083 63.376C76.2987 60.1963 74.5141 57.0052 72.7199 53.8135C72.2047 52.8972 71.6288 52.016 71.0328 51.1466C70.9745 50.9675 70.9062 50.7922 70.8479 50.6132C70.2894 48.9058 69.5195 47.2207 69.1686 45.4736C69.1229 45.2439 69.0773 45.0142 69.0314 44.7887C70.5476 44.6858 72.0557 44.5525 73.5192 44.2581C73.6127 44.2462 73.7111 44.2346 73.8044 44.2271C74.6945 44.1317 75.5659 44.0223 76.412 43.753C77.1435 43.5243 77.8264 43.2029 78.4911 42.8591C78.8839 42.6541 79.2721 42.4446 79.665 42.2397C79.9387 42.1523 80.2076 42.0646 80.4907 41.9863C81.7826 41.6136 83.1371 41.1716 84.324 40.5829C84.9728 40.2596 85.4878 39.7958 86.1771 39.5348C86.8164 39.2923 87.2456 39.0509 87.6982 38.5664C88.603 37.6061 89.2304 36.3643 89.6401 35.1703C89.7043 34.9853 89.7539 34.7995 89.7987 34.6135C90.0344 34.4211 90.1828 34.1294 90.1452 33.7587C90.0901 33.177 90.1183 32.5914 89.9991 32.0189C89.8685 31.39 89.5247 30.8134 89.275 30.2164C88.8918 29.299 88.5795 28.3384 87.6564 27.7204C87.5339 27.6407 87.4147 27.5868 87.2892 27.5583C87.0185 27.3329 86.7007 27.1607 86.3336 27.0842C86.0512 26.6311 85.663 26.2362 85.2182 25.8896C84.6293 25.1534 83.6855 24.6415 82.6271 24.1702C82.476 24.0759 82.32 23.9814 82.1689 23.8871C81.2054 23.2926 80.1772 22.8059 79.2027 22.2322C78.3086 21.7059 77.4216 21.1414 76.3761 20.8723C76.3086 20.8556 76.2409 20.8432 76.1734 20.8265C75.1554 20.3318 74.1098 19.8912 72.9849 19.5576C70.9273 18.9484 68.8155 18.5204 66.764 17.8901C66.7539 16.5994 66.5764 15.2436 66.1134 14.0945C64.7847 10.7963 62.3765 8.17423 59.231 6.05911C57.6207 4.97371 55.9789 3.83939 54.0426 3.2456C52.112 2.63927 50.0154 2.54645 47.9905 2.4834C45.8922 2.42049 43.8356 2.31278 41.7988 2.80624C40.5797 3.10162 39.4198 3.55894 38.2648 4.01653C37.8664 4.1483 37.4715 4.30171 37.0904 4.47303C36.8906 4.54745 36.6909 4.62188 36.4914 4.69204C34.8607 5.26417 33.2959 6.57294 32.0526 7.64273C30.6862 8.81271 29.6879 10.2178 28.9122 11.7469C28.3841 12.7885 28.0119 13.9247 27.7857 15.0734C25.8909 14.6963 23.8815 14.9641 22.0034 15.2437C20.9335 15.4061 19.8676 15.5858 18.7911 15.6921C17.5622 15.8155 16.2773 15.8029 15.0665 16.0387C14.4882 16.1518 13.9314 16.3174 13.3655 16.4697C12.7848 16.6255 12.192 16.7377 11.6027 16.8715C11.1075 16.985 10.6123 17.0984 10.1086 17.19C10.1086 17.19 10.1037 17.1897 10.0988 17.1894C9.39374 17.0381 8.79086 17.154 8.26284 17.4156C8.25309 17.4151 8.24335 17.4145 8.23336 17.4182C7.2322 17.5759 6.48017 18.082 6.10103 18.9092C5.91145 19.3228 5.72796 19.7153 5.46699 20.0949C5.18484 20.5033 4.88808 20.9108 4.71558 21.3682C4.6584 21.515 4.63046 21.6634 4.6125 21.8081C4.42345 21.7803 4.19352 21.8702 4.15221 22.0821C3.99643 22.8491 3.56143 23.5403 3.29966 24.2798C3.05541 24.9689 3.00021 25.6858 3.21444 26.3923C3.6634 27.8749 4.91581 28.8929 6.27851 29.7757C6.6935 30.0435 7.1085 30.3113 7.52398 30.5705C8.05846 31.0593 8.62873 31.5201 9.20923 31.973C9.32621 32.0653 9.44782 32.1622 9.56407 32.2674C9.50706 32.757 9.81696 33.3274 10.5293 33.4363C10.6602 33.4565 10.9658 33.7567 11.0506 33.8129C11.3947 34.0381 11.7765 34.2011 12.1259 34.4181C12.6974 34.7718 13.1748 35.2317 13.7251 35.6142C14.8675 36.416 16.2502 37.2057 17.5679 37.7602C18.7996 38.2799 20.1648 38.4257 21.4029 38.92C21.6275 39.0098 21.8471 39.1037 22.0717 39.1935L22.0722 39.185ZM62.3541 11.5975C62.3994 11.66 62.4399 11.7223 62.4852 11.7849C62.544 11.8697 62.6076 11.9547 62.6612 12.0434C62.7063 12.1103 62.7465 12.1768 62.7916 12.2437C62.8636 12.3549 62.9308 12.4616 62.9977 12.5768C63.0289 12.63 63.0649 12.6835 63.0961 12.7367C63.1093 12.7631 63.1276 12.7856 63.1408 12.812C63.2922 13.0735 63.4285 13.3426 63.555 13.6112C63.8387 14.2144 64.0239 14.8292 64.2229 15.4577C64.2852 15.6541 64.3569 15.8553 64.4291 16.048C64.493 16.6473 64.4879 17.2556 64.5471 17.8505C64.6362 18.6956 64.4527 19.521 64.5077 20.3641C64.5626 21.2073 64.6878 22.0201 64.6302 22.8655C64.6225 23.0022 64.6152 23.1304 64.5931 23.262C64.4337 23.1416 64.2232 23.0611 63.9647 23.0508C62.4436 22.9819 60.8693 23.4201 59.3639 23.5921C59.1768 23.6158 58.9854 23.6307 58.799 23.6416C58.7475 23.5144 58.6617 23.3895 58.517 23.2699C56.1211 21.2958 53.2752 20.2777 50.1722 19.9179C50.2949 19.822 50.413 19.7215 50.5311 19.6211C51.4769 18.8002 52.0918 17.8663 52.5878 16.7886C52.8771 16.1663 53.2578 15.5707 53.355 14.8904C53.429 14.3588 53.4411 13.798 53.4479 13.2455C53.453 13.1558 53.4532 13.0658 53.4532 12.9801C53.4521 12.8257 53.456 12.6717 53.4598 12.5176C53.5113 10.3089 52.1694 7.50285 49.3835 7.15247C47.7188 6.94263 45.8895 6.87778 44.2113 6.90719C42.9538 6.93039 41.6418 7.13909 40.6663 7.88113C39.343 8.89496 38.9288 10.3416 38.9305 11.8676C38.7321 12.6964 38.7309 13.5835 38.9106 14.468C39.0476 15.1573 39.3933 15.7854 39.7486 16.4184C39.9601 17.0861 40.2788 17.7599 40.6879 18.3917C40.964 19.1273 41.2884 19.8743 41.9023 20.4276C41.2106 20.6456 40.5537 20.9385 39.9195 21.2627C39.1798 21.6366 38.3755 21.8569 37.699 22.3244C37.3438 22.21 36.9839 22.0911 36.6119 22.0143C35.6454 21.8182 34.7015 21.6534 33.7601 21.4459C33.6523 21.1055 33.3403 20.8307 32.8129 20.8223C32.5639 20.8168 32.3179 20.8458 32.0711 20.8875C31.6282 20.6825 31.2076 20.4273 30.7383 20.255C30.5326 20.1748 30.3609 20.1008 30.219 20.0156C30.1532 19.9691 30.0874 19.9225 30.0219 19.8716C29.7889 19.6699 29.6718 19.4061 29.6173 18.9873C29.6039 18.8794 29.5955 18.7674 29.5872 18.6555C29.9959 16.6128 30.3138 14.5349 30.9545 12.5396C31.2371 11.9512 31.5581 11.3736 31.9469 10.8084C32.7782 9.59103 33.9695 8.66403 35.2169 7.78305C35.8993 7.29874 36.566 6.74497 37.3846 6.44408C38.1584 6.15781 38.9328 5.94871 39.6851 5.6098C41.3956 4.83644 43.2242 4.30978 45.1794 4.30889C46.0544 4.30693 46.949 4.30607 47.8469 4.33112C49.1272 4.51066 50.4104 4.72464 51.671 4.99307C53.2987 5.33797 54.9094 5.81049 56.3569 6.57809C56.8267 6.82752 57.2906 7.09377 57.7388 7.38055C59.5233 8.58295 61.152 9.94798 62.3682 11.6068L62.3541 11.5975ZM42.994 14.0003C42.9952 13.9789 42.9967 13.9533 42.9979 13.9319C42.9967 13.9533 42.9952 13.9789 42.9989 14.0006C42.9989 14.0006 42.9989 14.0006 42.994 14.0003ZM48.234 18.8397C47.1561 19.576 46.3124 19.4554 45.0176 19.3608C44.9104 19.3547 44.7835 19.3518 44.6466 19.3527C44.1151 19.0697 43.6172 18.6258 43.2346 18.3042C43.1646 18.2445 43.0996 18.1851 43.0345 18.1257C44.1652 17.8382 45.1502 17.0153 45.7357 16.1697C46.6457 14.8582 46.4056 13.2245 45.6259 11.8861C45.1983 11.1504 44.8324 10.2725 44.1571 9.76719C44.2073 9.74431 44.2577 9.71716 44.3033 9.68973C45.1659 9.21561 46.81 9.18427 47.791 9.55689C48.0159 9.64247 48.2398 9.74514 48.4533 9.86007C46.5573 10.5415 46.5397 13.3607 46.9903 14.8134C47.2629 15.6989 47.8436 16.6661 48.9281 16.9374C49.2078 17.0046 49.4855 17.0203 49.7608 16.993C49.8714 17.025 49.9732 17.0393 50.0709 17.0406C49.6106 17.7475 48.9563 18.3405 48.2242 18.8392L48.234 18.8397ZM43.1679 22.0764C44.6718 21.7585 46.5656 21.6342 48.1174 21.679C49.8546 21.7301 51.3505 21.9004 53.0029 22.4139C53.8196 22.6658 54.6912 23.0708 55.4856 23.5443C55.2469 23.5308 55.0132 23.5133 54.7745 23.4998C53.3518 23.4194 51.972 23.6157 50.5486 23.6338C48.8707 23.6589 47.1902 23.5553 45.5148 23.4477C45.2127 23.4307 44.916 23.4053 44.6144 23.3797C43.854 23.2553 43.0885 23.1348 42.3282 23.0104C41.9503 22.9505 41.5936 22.8617 41.2311 22.7898C41.8397 22.4856 42.4803 22.2218 43.1631 22.0761L43.1679 22.0764ZM67.6044 41.4121C67.2275 40.9879 66.62 41.0135 66.1897 41.2764C66.2011 41.247 66.2174 41.2179 66.2288 41.1886C66.4196 40.6679 66.08 40.1901 65.5396 39.9795C64.8369 39.6998 63.9344 39.8416 63.3808 40.2946C62.9659 40.6312 62.8863 41.261 63.305 41.6362C63.5699 41.8783 63.9595 41.9903 64.3193 41.9378C64.6801 42.0396 65.0407 42.06 65.3987 41.9517C65.5281 41.9119 65.6438 41.8541 65.7453 41.787C65.7064 41.8705 65.6674 41.954 65.6334 42.0378C65.4265 42.4976 65.6399 42.874 66.0044 43.0832C59.9377 43.5288 53.7619 42.7939 47.6797 42.4757C44.7507 42.323 42.0319 42.0836 39.1876 41.3827C37.833 41.049 36.4879 40.72 35.1216 40.4199C33.765 40.1203 32.1663 39.8671 30.9436 39.2751C29.6446 38.6487 28.3384 38.322 26.9333 37.9297C25.4274 37.506 23.9995 36.9109 22.5276 36.4034C21.8806 36.0025 21.2838 35.5787 20.5736 35.26C20.0397 35.0198 19.7109 34.6969 19.2557 34.3625C18.8567 34.07 18.3782 33.8886 18.0102 33.5678C17.6466 33.2558 17.3828 32.9066 16.9783 32.6265C16.489 32.2903 15.9466 32.0282 15.4626 31.6836C14.6031 31.065 13.6502 30.3682 12.8784 29.6688C12.1716 29.0288 11.7344 28.2026 11.0987 27.5152C10.5644 26.9364 9.91279 26.4452 9.27136 25.9461C9.89148 26.2169 10.5228 26.4626 11.1653 26.6832C11.8797 27.015 12.573 27.3757 13.2821 27.7158C14.1052 28.1138 14.7288 28.5819 15.473 29.0783C18.4782 31.0826 22.2378 31.9338 25.7623 32.8789C29.7731 33.9542 33.8797 34.9793 37.8151 36.2648C38.3143 36.4259 38.8073 36.6123 39.305 36.799C39.3087 37.2535 39.6251 37.7086 40.2977 37.7424C41.0727 37.7819 41.8539 37.7961 42.6298 37.8185C42.7945 37.8449 42.9544 37.8711 43.1195 37.889C44.0763 37.9988 44.9944 38.0122 45.9363 38.2112C46.8975 38.4155 47.8053 38.6983 48.7424 38.9827C50.4484 39.4992 52.1089 39.0916 53.8554 39.2375C55.665 39.3912 57.3659 39.4788 59.1683 39.3279C60.0229 39.2562 60.8644 39.4152 61.7243 39.3352C62.7024 39.2405 63.6866 39.2961 64.6612 39.1755C66.5466 38.9392 68.4152 38.4834 70.2857 38.1649C72.097 37.8558 73.6559 37.3439 75.3306 36.6842C76.1205 36.3732 76.9399 36.1452 77.743 35.8606C78.6308 35.5465 79.4374 35.112 80.3428 34.8332C81.87 34.3624 82.9964 33.8046 84.0037 32.6743C84.4524 32.1725 84.9659 31.6486 85.2251 31.0418C85.2655 31.0184 85.306 30.9949 85.3466 30.9672C85.5086 30.8692 85.6708 30.767 85.8239 30.6513C86.2211 31.2353 86.4521 31.9041 86.8341 32.4957C87.0813 32.8783 87.4623 33.2299 87.7387 33.6141C87.6958 34.1131 87.565 34.6115 87.3304 35.1297C86.861 36.1704 86.434 37.3249 85.2042 37.8082C84.7293 37.9957 84.3547 38.2231 83.939 38.4867C83.3102 38.8884 82.6803 39.1356 81.9803 39.4132C80.82 39.8791 79.6335 40.202 78.4298 40.5712C77.1164 40.9769 75.8955 41.5637 74.6133 42.0226C72.7625 42.6852 70.6134 42.8294 68.5252 42.9342C68.3157 42.4038 68.027 41.8903 67.6044 41.4121ZM51.7359 36.9575C51.4925 36.9395 51.2545 36.9132 51.0218 36.8786C51.4791 36.9173 51.9363 36.956 52.3934 36.999C52.1741 36.9866 51.9549 36.9742 51.7361 36.9532L51.7359 36.9575ZM6.96331 24.7527C6.96331 24.7527 6.98815 24.7455 7.00301 24.742C6.99278 24.75 6.98231 24.7623 6.97208 24.7703C6.97233 24.766 6.96282 24.7612 6.96331 24.7527ZM27.5899 19.9184C27.3421 20.2387 27.3531 20.7365 27.6309 21.0951C27.2325 21.2269 26.8415 21.3976 26.4589 21.5946C25.3415 22.1658 24.1929 22.6837 23.0484 23.2148C22.0447 23.6766 21.1662 24.0856 20.0921 24.4106C19.5499 24.5771 19.1548 24.8205 18.6985 25.1118C18.2421 25.4032 17.7164 25.5363 17.301 25.8815C16.4397 26.5914 17.4306 27.9975 18.5273 27.4466C19.5184 26.9497 20.6338 26.7599 21.6435 26.277C22.844 25.7062 24.155 25.3432 25.4476 24.9577C26.6706 24.5939 27.8982 24.2347 29.1171 23.8579C29.8037 23.6438 30.4816 23.4121 31.1726 23.2069C31.3665 23.1493 31.602 23.0469 31.8422 22.949C31.9192 22.9705 31.9959 22.9963 32.0729 23.0178C32.3134 23.0871 32.5543 23.1479 32.7955 23.2044C34.2616 23.643 35.8098 23.9234 37.2848 24.2897C37.5499 24.3561 37.8065 24.4006 38.0589 24.432C38.0581 24.4448 38.0576 24.4534 38.0569 24.4662C37.9755 25.906 37.7516 27.2734 37.5393 28.6929C37.4939 28.9775 37.4517 29.2923 37.4043 29.6111C36.9098 30.5775 36.5207 31.5798 36.4847 32.6493C36.4547 33.5262 37.9561 34.1169 38.4748 33.2418C39.0631 32.2593 39.3001 31.0941 39.5144 29.9833C39.98 29.0967 40.5655 28.2511 41.1008 27.5142C41.5408 26.909 42.295 25.9316 42.334 25.068C43.0961 25.1625 43.8594 25.2357 44.6234 25.296C46.5627 25.6628 48.4986 26.0037 50.4294 26.4344C50.9847 26.5558 51.5513 26.6478 52.1341 26.715C52.0575 27.1179 52.2587 27.5364 52.8581 27.656C53.0418 27.6921 53.3096 28.4873 53.3891 28.6375C53.6846 29.2029 54.0552 29.7381 54.3758 30.292C54.6879 30.824 54.9586 31.3965 55.306 31.909C55.3828 32.0205 55.6284 32.2572 55.8312 32.4744C55.9315 32.7758 56.0568 33.0658 56.2178 33.3321C56.6963 34.1177 58.2992 33.9512 58.262 32.9676C58.2491 32.5897 58.1194 32.2909 57.9399 32.0065C57.8382 31.645 57.8253 31.2671 57.7635 30.8907C57.6489 30.2371 57.4157 29.6067 57.2961 28.957C57.1947 28.4155 57.1969 27.8585 57.0363 27.3265C56.9743 27.1258 56.8973 26.9329 56.8202 26.74C57.0314 26.7219 57.2426 26.7038 57.4445 26.6767C58.4236 26.5649 59.3888 26.178 60.328 25.9054C60.7292 25.8123 61.1233 25.6717 61.5277 25.6089C62.0058 25.5373 62.4846 25.6287 62.9642 25.6172C63.2973 25.6061 63.6298 25.6034 63.9482 25.5914C64.0859 25.6635 64.2445 25.711 64.4345 25.7218C64.7073 25.7372 64.9855 25.7444 65.264 25.7472C65.4663 25.8873 65.6624 26.0484 65.8189 26.1344C66.2551 26.3733 66.7319 26.5846 67.1951 26.7779C68.0928 27.1544 69.029 27.3659 69.8987 27.8051C71.4338 28.5777 73.276 29.539 75.0517 29.6866C76.0978 29.7714 76.638 28.4304 75.6974 27.9487C74.7286 27.4481 73.6787 27.0845 72.7157 26.5671C71.8475 26.1023 71.0216 25.5799 70.1481 25.1233C69.3505 24.7053 68.5038 24.2932 67.607 24.0753C67.2983 24.0021 66.9881 23.9546 66.677 23.9241C67.0397 22.6974 66.7491 21.3523 66.7039 20.0768C67.1203 20.2332 67.5482 20.3603 67.9858 20.4879C68.9957 20.7807 69.9206 21.193 70.8853 21.5948C73.0246 22.4872 75.2308 23.2334 77.4035 24.0548C78.1932 24.3524 78.9717 24.675 79.7448 25.0058C79.962 25.1424 80.1744 25.2744 80.3862 25.4193C81.4602 26.1358 83.2403 27.2436 83.3693 28.5067C83.4004 28.8213 83.3932 29.121 83.3524 29.4101C82.8775 30.1162 81.8814 30.3556 81.0036 30.666C80.0259 31.0136 79.0261 31.3214 78.0703 31.7131C77.0946 32.1122 76.0324 32.3993 75.0844 32.8258C73.1484 33.6978 71.2087 34.5482 69.2144 35.327C68.1999 35.7196 67.2298 36.1062 66.1217 36.2536C64.989 36.4039 63.9652 36.616 62.8774 36.9231C62.6935 36.977 62.5052 37.0221 62.3171 37.0629C61.6582 37.047 61.0002 37.0141 60.3429 36.9684C59.1309 36.8784 57.9313 36.742 56.7168 36.6948C55.4634 36.6454 54.2256 36.5797 52.9773 36.4405C50.5242 36.169 48.054 36.115 45.6102 35.7668C43.2051 35.4251 40.8396 34.9014 38.4489 34.479C38.1757 34.3822 37.8975 34.2893 37.6185 34.2092C33.9112 33.1253 30.1718 32.0909 26.435 31.0953C26.1027 31.008 25.7706 30.9163 25.4383 30.829C25.1795 30.7372 24.9205 30.6497 24.6615 30.5622C22.6568 29.8831 20.6357 29.2331 18.6309 28.554C17.6931 28.1109 16.7885 27.5969 15.9341 26.9743C14.4785 25.919 12.5585 25.2104 10.8911 24.4433C9.76199 23.9251 8.68218 23.1397 7.44838 22.83C7.28207 22.4862 7.11576 22.1425 7.14266 21.8397C7.20345 21.1103 8.53984 20.4701 9.14163 20.1141C11.0374 19.004 13.1362 18.8827 15.3137 18.41C17.4119 17.9543 19.57 17.8235 21.7178 17.6149C22.8189 17.5057 23.9691 17.305 25.0665 17.2599C25.581 17.2375 26.0876 17.3562 26.6065 17.3426C26.9051 17.3338 27.2011 17.2863 27.4963 17.2515C27.3971 18.1417 27.315 19.0757 27.589 19.9355L27.5899 19.9184ZM66.8902 45.2248C66.8186 45.1093 66.7308 45.0186 66.6324 44.9445C66.7257 44.9369 66.8238 44.9296 66.9171 44.922C66.9474 45.078 66.9726 45.238 66.998 45.3938C66.9622 45.336 66.9212 45.2823 66.8902 45.2248ZM3.91376 26.2132C3.72611 25.5554 3.82008 24.9307 4.06071 24.3057C4.03881 24.8659 4.09999 25.4265 4.24959 25.9793C4.50558 26.8982 5.14306 27.8128 5.77612 28.633C5.52754 28.4475 5.28457 28.2494 5.06716 28.0314C4.53949 27.5087 4.10995 26.8929 3.91376 26.2132Z" fill="#0B0A0A"/>
<path d="M32.1006 35.6674C31.9415 35.6284 31.7763 35.6105 31.6201 35.6059C31.2094 35.5227 30.8218 35.6337 30.5633 35.8848C30.2133 36.1093 29.9784 36.4603 29.9815 36.9234C29.9852 37.3779 30.3357 37.8349 30.8639 37.9162C30.8826 37.9301 30.8965 37.9438 30.9155 37.9534C31.3975 38.2464 32.0758 38.3533 32.6324 38.1919C32.9651 38.0993 33.3475 37.9066 33.425 37.5724C33.5359 37.0815 33.4743 36.6151 33.0811 36.22C32.8269 35.9613 32.4714 35.7655 32.1003 35.6717L32.1006 35.6674Z" fill="#0B0A0A"/>
<path d="M49.4958 39.6596C49.3495 39.3942 48.9372 39.1652 48.6091 39.1766C48.1976 39.1919 47.842 39.2576 47.5159 39.492C47.256 39.6787 47.0974 39.9784 47.0661 40.2723C46.9943 40.4183 46.951 40.5787 46.9416 40.7453C46.9136 41.2409 47.3835 41.7475 47.9696 41.7549C48.0086 41.7571 48.0481 41.7508 48.0921 41.749C48.7242 41.9819 49.4194 41.7898 49.8425 41.3079C50.3543 40.7283 50.0758 40.0353 49.496 39.6554L49.4958 39.6596Z" fill="#0B0A0A"/>
<path d="M62.3441 59.4159C62.7341 59.7809 63.1415 60.0954 63.5578 60.4275C64.3859 61.0829 64.9829 62.021 65.5712 62.8558C65.8922 63.3154 66.2333 63.7675 66.6664 64.1478C66.8945 64.3493 67.066 64.5132 67.1775 64.7896C67.2714 65.0306 67.3726 65.2292 67.5725 65.4119C67.7631 65.5856 68.0071 65.5051 68.1045 65.3392C68.1045 65.3392 68.1089 65.348 68.1135 65.3525C68.3295 65.6819 68.6074 66.0405 69.0104 66.1747C69.4709 66.3293 69.9758 66.2164 70.4494 66.2261C70.8645 66.2324 70.8787 65.7232 70.5341 65.5922C69.9503 65.3707 69.3125 65.2403 68.7737 64.9141C68.6745 64.8528 68.5856 64.7835 68.5017 64.7101C68.4132 64.5466 68.3298 64.379 68.2406 64.2282C67.6335 63.2081 66.9987 62.1607 66.2296 61.2386C65.6668 60.5596 64.9874 60.0411 64.2887 59.5173C63.9506 59.1853 63.6116 58.8704 63.2073 58.5861C63.0803 58.4975 62.9476 58.4257 62.8099 58.3536C62.7026 58.2619 62.5952 58.1743 62.4831 58.0823C62.2542 57.8936 62.0088 57.7383 61.7347 57.6585C61.665 57.5946 61.6004 57.5266 61.5307 57.4627C61.0121 56.9533 60.5213 56.557 59.8556 56.2279C59.0946 55.8549 58.3071 55.5189 57.5135 55.204C56.696 54.8792 55.8813 54.6788 54.9977 54.6589C54.4754 54.6465 53.9328 54.5601 53.4039 54.5773C52.3115 54.3613 51.1599 54.3262 50.061 54.3112C49.4015 54.3039 48.7377 54.2878 48.0834 54.3622C47.7341 54.4025 47.3831 54.4727 47.0369 54.5431C46.8793 54.5642 46.7215 54.5896 46.5631 54.6235C46.2764 54.6801 45.9851 54.7322 45.6982 54.7931C44.8799 54.914 44.0497 54.9871 43.2483 55.1561C43.173 55.1047 43.0812 55.0866 42.9762 55.1279C42.5967 55.2693 42.1755 55.1983 41.8002 55.3528C41.4248 55.5073 41.1446 55.7958 40.787 55.9813C40.5101 56.1242 40.2532 56.3454 39.979 56.5271C39.8513 56.4513 39.7078 56.396 39.5526 56.3744C39.1063 56.3149 38.6249 56.3562 38.1762 56.3394C37.708 56.3215 37.2629 56.4121 36.8245 56.5587C36.0324 56.8226 35.2309 57.253 34.7815 57.9391C34.3321 58.6251 34.5084 59.398 35.2251 59.8628C35.489 60.0363 35.8004 60.1482 36.1196 60.2091C36.3957 60.4262 36.7555 60.4594 37.1153 60.4069C37.2403 60.444 37.3762 60.4602 37.5182 60.4554C38.1984 60.4424 38.8688 60.3432 39.4674 60.0427C39.7354 59.9721 39.9955 59.8668 40.2254 59.777C40.6102 59.6273 40.9814 59.4597 41.3433 59.283C41.442 59.2671 41.5358 59.251 41.6249 59.2303C42.1995 59.0957 42.6262 58.7255 43.0706 58.3863C43.2289 58.2666 43.3872 58.147 43.5499 58.0362C43.6614 58.0511 43.7684 58.0614 43.8807 58.0635C43.8948 58.0729 43.9141 58.0782 43.9284 58.0833C43.9655 58.2054 44.0716 58.3186 44.2416 58.3368C44.4165 58.3552 44.5792 58.3301 44.7383 58.2834C44.7902 58.3163 44.8526 58.337 44.9357 58.3374C44.9503 58.3383 44.9649 58.3391 44.9795 58.3399C45.0173 58.3635 45.0504 58.3825 45.0741 58.3967C45.4632 58.603 45.8906 58.7386 46.313 58.8739C46.7835 59.0248 47.2214 59.2339 47.6865 59.393C48.2282 59.5822 48.8107 59.6537 49.3577 59.8347C49.871 60.0051 50.3559 60.2468 50.8635 60.4341C50.9929 60.48 51.113 60.5168 51.2338 60.5408C51.2959 60.5657 51.3532 60.5904 51.4151 60.6196C51.6054 60.7118 51.7594 60.8405 51.9288 60.9572C52.0372 61.0277 52.151 61.0898 52.2702 61.1437C52.4751 61.3224 52.6699 61.5092 52.8597 61.6956C53.4752 62.309 54.2741 63.0485 54.3563 63.9275C54.3617 64.005 54.362 64.0864 54.3626 64.1636C54.3681 64.584 55.0332 64.5787 55.0515 64.1683C55.057 64.07 55.0529 63.9712 55.0438 63.8721C55.0369 63.7346 55.0254 63.5925 55.0036 63.4584C55.2001 63.6152 55.5798 63.4695 55.5704 63.2033C55.5554 62.8638 55.5952 62.506 55.3826 62.2026C55.1069 61.8055 54.5589 61.6417 54.1473 61.3998C53.9156 61.2624 53.7153 61.0882 53.4779 60.9634C53.3973 60.9203 53.3115 60.8811 53.2255 60.8462C53.1979 60.8147 53.1706 60.7789 53.1431 60.7473C53.4031 60.8177 53.6574 60.9007 53.9286 60.946C54.4417 61.035 54.9676 60.9833 55.486 60.9783C56.038 61.4167 56.5218 61.937 57.0431 62.3993C57.2478 62.5823 57.6505 62.4637 57.6277 62.1752C57.6117 61.9386 57.5101 61.7485 57.3699 61.5477C57.2114 61.3245 57.1015 61.1083 56.9932 60.8621C56.7856 60.3832 56.4746 60.0913 55.9678 59.8912C54.8251 59.4409 53.603 59.1832 52.3885 58.9645C51.7353 58.8462 51.1031 58.7033 50.4745 58.4963C49.8556 58.2898 49.2601 58.0162 48.6295 57.8434C48.5813 57.8321 48.5333 57.8165 48.4851 57.8052C48.9009 57.713 49.3123 57.6119 49.71 57.493C50.2271 57.3379 50.734 57.1909 51.2589 57.0705C51.5669 57.0708 51.8745 57.0753 52.1774 57.0796C52.2799 57.0811 52.382 57.0912 52.4841 57.1012C53.2514 57.4489 53.9313 57.9588 54.7762 58.1437C54.9935 58.1903 55.2123 58.2112 55.4318 58.2194C56.1642 58.3208 56.9249 58.2652 57.6691 58.243C58.3899 58.6352 58.9912 59.1535 59.6109 59.69C60.161 60.1626 60.7795 60.549 61.3663 60.9765C61.4124 61.0262 61.4584 61.076 61.5042 61.13C61.7158 61.3648 61.9386 61.5746 62.1609 61.7929C62.3237 62.025 62.4515 62.2722 62.4991 62.5535C62.5321 62.7482 62.6997 62.8091 62.8578 62.7795C62.8715 62.7974 62.8849 62.8196 62.9034 62.8378C62.9675 62.9143 63.0418 62.9828 63.1111 63.0553C63.1501 63.1432 63.184 63.2351 63.223 63.323C63.168 63.4314 63.1802 63.5606 63.2963 63.6701C63.4912 63.8525 63.5998 64.2658 63.6448 64.5084C63.709 64.8421 63.7299 65.1647 63.9634 65.4436C64.0319 65.5289 64.1111 65.5977 64.1961 65.6497C64.2614 65.7048 64.3321 65.7516 64.4179 65.7908C64.4942 65.8251 64.5709 65.8509 64.6532 65.8641C65.1161 66.3231 65.8791 66.8334 66.4775 66.5373C66.7188 66.418 66.6778 66.1071 66.4699 65.9796C66.2811 65.8618 66.0659 65.7768 65.8515 65.6789C65.9257 65.4903 65.823 65.2316 65.5397 65.2284C65.4323 65.2266 65.3195 65.2331 65.2069 65.2353C65.1933 65.2174 65.1794 65.2038 65.1657 65.1859C65.0343 65.0027 64.9482 64.7964 64.8821 64.5826C64.9454 64.4148 64.8661 64.2603 64.9345 64.0884C64.9919 63.9374 65.1081 63.8711 65.1085 63.6911C65.1177 63.1816 64.5497 62.768 64.3144 62.3475C64.0172 61.8121 63.6337 61.3318 63.2252 60.863C63.0417 60.6512 62.8528 60.4476 62.6176 60.2843C62.3262 60.0793 62.0764 59.9151 61.8624 59.6373C61.5755 59.2653 61.289 58.8848 60.9717 58.5326C61.0146 58.5522 61.0623 58.572 61.1052 58.5916C61.5769 58.8068 61.9771 59.078 62.3485 59.4248L62.3441 59.4159ZM35.388 59.1434C35.4564 59.143 35.5302 59.1343 35.6038 59.1299C35.5999 59.1983 35.5958 59.2709 35.6066 59.3401C35.5171 59.2793 35.4426 59.2151 35.3877 59.1477L35.388 59.1434ZM35.613 58.449C35.5438 58.4622 35.4697 58.4752 35.3959 58.4838C35.4994 58.3825 35.6365 58.2917 35.7778 58.214C35.7101 58.2873 35.6519 58.3654 35.613 58.449ZM36.6026 59.5336C36.5304 59.5123 36.4637 59.4828 36.4071 59.4454C36.3993 59.4106 36.3964 59.3762 36.3934 59.3417C36.4539 59.3966 36.5301 59.4309 36.613 59.4356C36.6113 59.4655 36.6045 59.4994 36.6026 59.5336ZM38.0233 58.0066C38.0233 58.0066 38.0077 58.0229 37.9975 58.0309C37.8374 58.0947 37.6823 58.1588 37.523 58.2098C37.7665 58.0521 38.0291 57.9041 38.2953 57.7777C38.1979 57.8579 38.1053 57.9384 38.0233 58.0066ZM45.3674 55.5416C45.4766 55.5135 45.5906 55.4857 45.6995 55.4618C45.9857 55.4137 46.2719 55.3656 46.5584 55.3132C46.1625 55.398 45.763 55.4611 45.3672 55.5459L45.3674 55.5416ZM54.4367 60.3447C54.2126 60.332 53.9889 60.3108 53.7675 60.2511C53.3387 60.1412 52.9405 60.0072 52.5123 59.9744C52.4893 59.9474 52.4616 59.9201 52.4386 59.8931C53.1227 59.9832 53.8161 60.0825 54.4416 60.345L54.4367 60.3447ZM48.1778 55.1133C48.4129 55.1052 48.6523 55.1059 48.8864 55.1148C48.6518 55.1144 48.4124 55.1138 48.1778 55.1133ZM51.8967 55.0407C51.8967 55.0407 51.8918 55.0405 51.887 55.0402C51.887 55.0402 51.8967 55.0407 51.9016 55.041L51.8967 55.0407ZM53.4864 55.8849C53.4864 55.8849 53.4962 55.8855 53.501 55.8858C53.501 55.8858 53.4913 55.8852 53.4864 55.8849ZM56.0685 55.5166C55.9684 55.4724 55.8685 55.4239 55.7632 55.3836C55.8699 55.3982 55.9715 55.4168 56.0729 55.4397C56.0714 55.4653 56.07 55.491 56.0685 55.5166ZM58.4551 57.8288C58.5077 57.849 58.5555 57.8688 58.6083 57.8846C58.6449 57.9296 58.6817 57.9702 58.7183 58.0152C58.6288 57.9544 58.5394 57.8936 58.4551 57.8288ZM59.9186 57.1015C59.9347 57.0767 59.951 57.0476 59.9575 57.018C60.0713 57.0802 60.1798 57.1506 60.288 57.2253C60.1632 57.1839 60.0433 57.1429 59.9186 57.1015Z" fill="#0B0A0A"/>
<path d="M70.4888 76.399C69.8564 76.3461 69.2037 76.3907 68.5873 76.2272C68.4718 76.195 68.3666 76.1548 68.2569 76.1057C68.1129 75.9733 67.974 75.8368 67.839 75.7178C66.9072 74.9065 65.9375 74.0759 64.8906 73.3995C64.1172 72.9014 63.2941 72.5892 62.4464 72.2798C62.0095 72.0537 61.5816 71.8409 61.097 71.6806C60.9435 71.6291 60.7939 71.5949 60.6392 71.5647C60.5057 71.5058 60.3719 71.451 60.2384 71.3921C59.9567 71.2733 59.668 71.1927 59.3849 71.1852C59.2994 71.1418 59.209 71.0981 59.1237 71.0505C58.4541 70.704 57.8523 70.4557 57.1021 70.3233C56.2504 70.1722 55.3865 70.0634 54.5263 69.9762C53.6368 69.8873 52.7946 69.9126 51.9514 70.1306C51.4554 70.2569 50.9091 70.3246 50.4163 70.481C49.3067 70.5683 48.2008 70.8486 47.1586 71.1283C46.5282 71.2984 45.8983 71.4599 45.3023 71.7134C44.9818 71.8496 44.6795 72.0082 44.377 72.1711C44.2365 72.236 44.096 72.301 43.955 72.3744C43.7031 72.5059 43.4464 72.6371 43.1944 72.7729C42.4617 73.1086 41.7021 73.4043 41.0014 73.7804C40.9149 73.7541 40.8167 73.7614 40.7298 73.8293C40.4229 74.0691 39.9952 74.1135 39.693 74.3579C39.3905 74.6065 39.2241 74.9572 38.9543 75.2333C38.7468 75.4445 38.5747 75.7219 38.3797 75.9723C38.2304 75.9339 38.0747 75.9208 37.922 75.9422C37.4784 76.0071 37.0387 76.1751 36.6027 76.279C36.1518 76.3864 35.7636 76.5959 35.3971 76.8538C34.7401 77.3224 34.1279 77.9478 33.9471 78.7262C33.7613 79.5044 34.2011 80.1978 35.0425 80.4468C35.3548 80.5416 35.6859 80.5647 36.0101 80.5358C36.3447 80.6705 36.7003 80.6049 37.0216 80.4559C37.1533 80.459 37.2866 80.4366 37.4208 80.397C38.0624 80.2018 38.6596 79.927 39.12 79.4773C39.348 79.3359 39.5579 79.1677 39.7471 79.0199C40.0593 78.7718 40.3525 78.514 40.6364 78.2472C40.7216 78.2092 40.8071 78.1669 40.888 78.12C41.3831 77.8351 41.6589 77.3664 41.9625 76.9249C42.0691 76.7681 42.1806 76.6115 42.2918 76.4593C42.4002 76.444 42.5089 76.4244 42.6131 76.396C42.6326 76.3971 42.6472 76.3979 42.6667 76.399C42.7486 76.5065 42.8861 76.5829 43.0539 76.5538C43.2217 76.5247 43.3723 76.456 43.5091 76.3695C43.5717 76.3859 43.64 76.3897 43.7145 76.3682C43.7293 76.3648 43.7393 76.3611 43.7542 76.3576C43.7976 76.3687 43.8361 76.3794 43.8651 76.3853C44.3046 76.4788 44.7582 76.4958 45.2023 76.5081C45.7 76.5234 46.189 76.6067 46.6859 76.6348C47.2657 76.6676 47.8423 76.5845 48.4226 76.6087C48.9688 76.631 49.5104 76.7345 50.0556 76.7739C50.1921 76.7816 50.3238 76.7848 50.4466 76.7746C50.5148 76.7784 50.5777 76.7906 50.6454 76.803C50.8535 76.8404 51.0491 76.9244 51.2509 76.9872C51.3805 77.0288 51.5062 77.0531 51.6371 77.0733C51.8946 77.1865 52.1414 77.3161 52.3883 77.4458C53.1858 77.8638 54.199 78.3583 54.5879 79.1732C54.6179 79.2477 54.648 79.3223 54.6777 79.4011C54.8263 79.7995 55.4574 79.6166 55.3332 79.2196C55.3044 79.1237 55.2656 79.0315 55.222 78.939C55.1659 78.8072 55.1047 78.6795 55.0386 78.5514C55.2825 78.6467 55.5893 78.4069 55.4861 78.1567C55.3479 77.836 55.2651 77.4842 54.9607 77.2484C54.5576 76.9427 53.9815 76.9316 53.5091 76.8149C53.244 76.7484 52.9913 76.6356 52.7209 76.5774C52.629 76.5594 52.5321 76.5453 52.44 76.5315C52.4022 76.508 52.3647 76.4801 52.3269 76.4566C52.5959 76.4546 52.8689 76.4658 53.1393 76.4382C53.6606 76.382 54.1356 76.1945 54.6276 76.0509C55.3064 76.3207 55.9456 76.6869 56.5981 76.9895C56.8552 77.1112 57.1954 76.8861 57.074 76.6135C56.974 76.3936 56.8119 76.2344 56.6101 76.0858C56.3803 75.9143 56.2046 75.7372 56.0157 75.5336C55.6523 75.1316 55.2575 74.9379 54.7035 74.8808C53.464 74.7593 52.2128 74.8429 50.9892 74.958C50.3308 75.0193 49.6787 75.0553 49.0107 75.0261C48.3524 74.9975 47.6934 74.8959 47.0335 74.8972C46.9847 74.8945 46.9307 74.9 46.8817 74.9015C47.24 74.7032 47.5987 74.4963 47.934 74.2709C48.3707 73.9827 48.7969 73.7068 49.2513 73.4496C49.5444 73.3676 49.8323 73.2896 50.125 73.2119C50.2242 73.1875 50.3231 73.1673 50.4217 73.1515C51.27 73.2766 52.0934 73.5846 52.9616 73.5308C53.1823 73.5176 53.3995 73.4784 53.6078 73.4259C54.3369 73.3257 55.0408 73.0655 55.7328 72.8432C56.5536 73.0224 57.3019 73.3605 58.0792 73.7044C58.7658 74.009 59.4875 74.2127 60.1919 74.4625C60.2533 74.5003 60.3149 74.5337 60.3764 74.5715C60.6554 74.7373 60.9405 74.882 61.2304 75.027C61.4649 75.2031 61.6733 75.4077 61.8152 75.6644C61.9127 75.8413 62.0927 75.8558 62.2337 75.7823C62.2525 75.7962 62.2761 75.8104 62.2949 75.8243C62.3797 75.8806 62.475 75.9245 62.5649 75.9768C62.629 76.0532 62.6982 76.1257 62.7672 76.2025C62.7558 76.3176 62.8075 76.4405 62.9598 76.5134C63.2071 76.6345 63.4553 77 63.5845 77.2216C63.7581 77.5229 63.8974 77.8265 64.2134 78.0287C64.3077 78.0897 64.4079 78.134 64.5088 78.1654C64.5899 78.2 64.6764 78.2263 64.7685 78.2401C64.8508 78.2533 64.9339 78.2537 65.0172 78.2498C65.6154 78.5622 66.5184 78.8447 66.9832 78.4039C67.1693 78.2258 67.0242 77.939 66.7835 77.8739C66.5669 77.8146 66.3288 77.7882 66.0962 77.7537C66.1027 77.5526 65.9099 77.3317 65.6417 77.4065C65.5374 77.4349 65.4327 77.4718 65.3284 77.5002C65.3097 77.4863 65.2907 77.4767 65.2719 77.4628C65.0845 77.3193 64.928 77.1476 64.792 76.9599C64.7921 76.7842 64.6673 76.6571 64.668 76.4728C64.6672 76.3142 64.7558 76.2164 64.6921 76.0456C64.5194 75.5558 63.8392 75.3116 63.4721 74.9737C63.003 74.54 62.4756 74.1844 61.9178 73.8486C61.6673 73.6973 61.4166 73.5502 61.1383 73.4574C60.7931 73.3393 60.4951 73.2496 60.1939 73.0439C59.7891 72.7682 59.3851 72.4796 58.9645 72.2244C59.0132 72.2271 59.0614 72.2384 59.1099 72.2455C59.6332 72.3265 60.104 72.4731 60.5796 72.7057C61.0742 72.948 61.5718 73.139 62.0832 73.3436C63.0966 73.7481 63.9937 74.4803 64.842 75.124C65.306 75.476 65.7902 75.8162 66.3285 76.0653C66.6143 76.1971 66.8331 76.3038 67.0347 76.5423C67.209 76.7451 67.3757 76.9088 67.6279 77.0302C67.8706 77.1468 68.0693 77.0037 68.1043 76.8171C68.1043 76.8171 68.1138 76.8219 68.1184 76.8265C68.4362 77.0845 68.8269 77.3509 69.2559 77.3708C69.748 77.3987 70.1871 77.1535 70.634 77.0287C71.0311 76.9226 70.8632 76.4331 70.4937 76.3993L70.4888 76.399ZM34.9153 78.9781C34.8547 79.0133 34.7894 79.0439 34.7244 79.0702C34.7852 78.9451 34.885 78.8221 34.9892 78.708C34.9501 78.7958 34.9253 78.8887 34.9153 78.9781ZM34.9478 79.7C35.0126 79.678 35.0823 79.6562 35.1475 79.6256C35.1632 79.695 35.1888 79.7608 35.2244 79.8228C35.1186 79.7911 35.0282 79.7474 34.9481 79.6957L34.9478 79.7ZM36.0173 79.7176C35.9995 79.6866 35.9817 79.6556 35.969 79.6206C36.0453 79.6549 36.1276 79.6681 36.2116 79.6515C36.2197 79.6819 36.2226 79.7164 36.2356 79.7471C36.1576 79.7427 36.0845 79.7386 36.0221 79.7179L36.0173 79.7176ZM37.0437 77.9027C37.0437 77.9027 37.0328 77.9235 37.0274 77.9317C36.8993 78.0359 36.7763 78.1361 36.639 78.2312C36.8174 78.0142 37.0103 77.8022 37.2216 77.6084C37.1571 77.7119 37.0977 77.8114 37.0437 77.9027ZM43.1394 73.5713C43.2354 73.5167 43.3316 73.4578 43.4275 73.4033C43.6838 73.2806 43.9351 73.1576 44.1918 73.0264C43.8487 73.217 43.4875 73.3809 43.1446 73.5673L43.1394 73.5713ZM45.6495 72.4017C45.8685 72.3326 46.097 72.2684 46.325 72.2127C46.1014 72.2772 45.878 72.3374 45.6495 72.4017ZM53.4099 75.7163C53.1968 75.7686 52.9748 75.8032 52.7449 75.8073C52.2996 75.8164 51.8803 75.797 51.455 75.8844C51.4219 75.8654 51.3887 75.8464 51.3556 75.8273C52.0357 75.7286 52.7251 75.639 53.4096 75.7206L53.4099 75.7163ZM49.1463 71.3307C49.1463 71.3307 49.1414 71.3304 49.1365 71.3301L49.1463 71.3307ZM50.948 71.7111C50.948 71.7111 50.9577 71.7117 50.9626 71.712C50.9626 71.712 50.9528 71.7114 50.948 71.7111ZM52.9307 70.6189C53.034 70.6076 53.1421 70.5965 53.2452 70.5895C53.2486 70.6154 53.2569 70.6416 53.2654 70.6635C53.1541 70.6444 53.0425 70.6295 52.9307 70.6189ZM56.3345 72.23C56.388 72.233 56.4465 72.2363 56.5001 72.2394C56.5471 72.272 56.5991 72.3049 56.6512 72.3336C56.5457 72.2976 56.4402 72.2617 56.3347 72.2257L56.3345 72.23ZM57.4665 71.141C57.473 71.1114 57.4747 71.0815 57.4718 71.0471C57.6021 71.0759 57.7271 71.1129 57.8567 71.1545C57.7252 71.1471 57.5936 71.1397 57.4618 71.1365L57.4665 71.141Z" fill="#0B0A0A"/>
</g>
</g>
<defs>
<clipPath id="clip0_2048_39">
<rect width="87.6764" height="80.089" fill="white" transform="translate(4.52081) rotate(3.23591)"/>
</clipPath>
</defs>
</svg>
