<svg width="43" height="52" viewBox="0 0 43 52" fill="none" xmlns="http://www.w3.org/2000/svg">
<path d="M15.9559 29.2743C15.8791 29.1856 15.7555 29.1301 15.642 29.1301C15.5285 29.1301 15.405 29.1819 15.3282 29.2743C15.2747 29.3371 15.2414 29.411 15.2213 29.4887C15.1813 29.4591 15.1412 29.4258 15.1011 29.3963C15.0677 29.3704 15.0343 29.3445 15.001 29.3149C14.9843 29.3002 14.9709 29.2854 14.9542 29.2706C14.7773 29.1043 14.5001 29.0636 14.3299 29.2706C14.193 29.4369 14.1529 29.7215 14.2831 29.9063C14.2364 29.9839 14.203 30.0689 14.1996 30.1687C14.193 30.3203 14.1996 30.4681 14.2097 30.6196C14.0861 31.2332 14.1663 31.8763 14.5302 32.3716C14.8908 32.8558 15.5352 33.0184 16.0694 32.841C16.2597 32.7781 16.3999 32.5601 16.5101 32.3864C16.5869 32.2644 16.6437 32.1313 16.6904 31.9946C16.7739 31.7469 16.7772 31.466 16.7204 31.211C16.7138 31.1851 16.7071 31.163 16.7004 31.1371C16.7004 31.1186 16.7038 31.1038 16.7071 31.089C16.7138 31.0151 16.7171 30.9412 16.7104 30.8636C16.6871 30.5938 16.6236 30.3572 16.5168 30.117C16.4066 29.8657 16.2497 29.6365 16.0861 29.4295C16.0427 29.3741 15.9993 29.3223 15.9525 29.2706L15.9559 29.2743ZM15.7255 31.2369C15.7054 31.2517 15.6854 31.2628 15.6654 31.2775C15.642 31.2849 15.6186 31.2923 15.5919 31.2997C15.5652 31.2997 15.5385 31.2997 15.5118 31.2997C15.4851 31.2923 15.4617 31.2849 15.435 31.2775C15.4083 31.2628 15.3816 31.2443 15.3549 31.2258C15.3215 31.1925 15.2881 31.1593 15.258 31.1186C15.228 31.0706 15.2046 31.0225 15.1813 30.9708C15.1412 30.8562 15.1145 30.7379 15.0978 30.6196C15.0978 30.6086 15.0978 30.5975 15.0978 30.5864C15.1212 30.6049 15.1445 30.6233 15.1679 30.6418C15.2213 30.6825 15.2781 30.749 15.3382 30.7823C15.3482 30.7897 15.3549 30.7971 15.3649 30.8044C15.3916 30.8303 15.4216 30.8562 15.4484 30.8821C15.4984 30.9301 15.5485 30.9819 15.5986 31.0336C15.6453 31.0853 15.6888 31.1371 15.7322 31.1888C15.7388 31.1962 15.7422 31.1999 15.7455 31.2073C15.7455 31.211 15.7522 31.2147 15.7555 31.2221C15.7489 31.2295 15.7388 31.2406 15.7322 31.248L15.7255 31.2369Z" fill="#232121"/>
<path d="M13.6917 25.1606C13.7017 25.216 13.7051 25.2678 13.7184 25.3232C13.8319 25.8628 14.5064 25.7261 14.5765 25.2678C14.9538 25.0571 15.2376 24.669 15.478 24.2957C15.7851 23.8189 16.0222 23.2904 16.2125 22.747C16.2559 22.6288 16.296 22.5068 16.3327 22.3811C16.4362 22.2481 16.4596 22.1039 16.4329 21.9709C16.4796 21.7417 16.5097 21.5089 16.4996 21.2797C16.4896 21.0469 16.4496 20.7512 16.2926 20.5738C16.2259 20.4999 16.1357 20.4444 16.0422 20.4038C16.0422 20.3927 16.0456 20.3816 16.0489 20.3668C16.0923 19.9861 15.6449 19.7717 15.3845 19.9454C14.4897 20.5368 13.7685 21.6124 13.3879 22.6731C13.1976 23.2054 13.0974 23.8337 13.261 24.3918C13.3478 24.6801 13.4914 24.9462 13.6917 25.1569V25.1606Z" fill="#232121"/>
<path d="M19.1975 27.9622C19.1942 28.1137 19.2676 28.2615 19.3812 28.3539V28.3613C19.4012 28.4353 19.4212 28.5055 19.4446 28.5794C19.6282 29.1301 19.8987 29.6882 20.3628 30.0061C20.3895 30.0246 20.4229 30.0393 20.4529 30.0578C20.5765 30.213 20.7 30.3646 20.8235 30.5198C20.9804 30.7194 21.2876 30.6972 21.4479 30.5198C21.548 30.4089 21.5848 30.2648 21.5681 30.1243C21.7884 30.0393 21.9888 29.8989 22.0389 29.6623C22.1791 29.0155 21.735 28.3355 21.3544 27.903C21.0205 27.526 20.5564 27.1305 20.0623 26.9975C20.0389 26.7499 19.8653 26.5207 19.6216 26.5318C19.3812 26.5429 19.1775 26.7462 19.1775 27.0234C19.1942 27.3338 19.1975 27.648 19.1875 27.9622H19.1975ZM20.3995 28.2726C20.3995 28.2726 20.4362 28.3022 20.4429 28.3096C20.4629 28.3281 20.483 28.3465 20.503 28.3613C20.5531 28.4057 20.5998 28.4537 20.6466 28.5055C20.7401 28.6053 20.8269 28.7088 20.9103 28.8159C20.917 28.8233 20.9203 28.827 20.9237 28.8344C20.9404 28.8603 20.9571 28.8862 20.9738 28.912C21.0072 28.9675 21.0405 29.0229 21.0673 29.0784C21.0906 29.119 21.1073 29.1634 21.1274 29.2077C21.1207 29.1929 21.1274 29.2151 21.1374 29.2447C21.1307 29.2447 21.1207 29.2484 21.114 29.2521C21.1073 29.2521 21.104 29.2521 21.0973 29.2521C21.0673 29.2521 21.0339 29.2521 21.0038 29.2521C20.9971 29.2521 20.9871 29.2484 20.9771 29.2447C20.9103 29.1634 20.8469 29.0784 20.7835 28.9934C20.7401 28.9379 20.7 28.8788 20.6566 28.8196C20.6499 28.8086 20.6499 28.8086 20.6466 28.8049C20.6466 28.8049 20.6466 28.8049 20.6399 28.7975C20.6199 28.7679 20.5998 28.7383 20.5798 28.7088C20.4729 28.5498 20.3795 28.3798 20.2927 28.2061C20.326 28.232 20.3661 28.2541 20.3995 28.28V28.2726Z" fill="#232121"/>
<path d="M42.8873 2.40033C42.303 -1.43616 36.9175 0.16792 34.9142 1.46893C33.2815 2.52969 32.0261 4.07834 30.5036 5.26846C28.8442 6.56577 27.295 7.98875 25.8193 9.53739C25.3919 9.50413 24.9579 9.48934 24.5272 9.48195C21.0615 9.4376 17.5691 10.1583 14.4206 11.792C11.7162 13.1965 9.58265 15.695 8.22376 18.6149C7.05851 21.1171 6.9283 23.7302 7.23213 26.4024C7.21544 27.3819 7.27553 28.3392 7.41576 29.2484C7.57269 30.2685 7.8231 31.2812 8.1503 32.2644C8.12025 32.3346 8.09354 32.4048 8.07351 32.4861C7.40241 34.9773 -4.13318 49.499 1.5862 50.9257C4.67794 51.6945 7.86984 49.0925 10.1736 47.1779C12.3305 45.3853 14.5041 43.541 16.6042 41.6228C18.0933 42.0958 19.5757 41.8963 21.1349 41.863C22.7175 41.9 24.3435 42.2067 25.8961 41.7299C27.4453 41.2495 29.1147 40.2885 30.4836 39.3756C31.7457 38.5329 32.6939 37.3686 33.779 36.2857C34.8508 35.2175 35.6153 34.3489 36.1963 32.8631C36.7839 31.3514 37.5752 29.8582 37.7522 28.2024C37.9625 26.2472 37.8958 24.0776 37.4283 22.1742C37.1011 20.8399 36.6571 19.5278 36.1128 18.2638C37.4283 16.1127 38.687 13.9061 40.0626 11.8142C41.0509 10.3136 42.2062 8.85732 42.6569 7.02408C42.9975 5.63807 43.1043 3.82331 42.8873 2.40033ZM13.4557 15.1036C15.3721 13.1299 18.7911 12.0581 21.3586 11.9213C22.8845 11.84 24.4637 11.707 26.0163 11.8031C26.3835 12.0766 26.8543 12.1764 27.295 11.9398C27.8459 12.0248 28.3902 12.1505 28.921 12.3279C31.4285 13.1632 32.2699 15.2552 33.375 17.5319C32.7707 18.5003 32.1497 19.4502 31.4919 20.352C29.7991 22.6842 28.4369 25.3306 26.5071 27.4706C24.3168 29.8989 21.9396 32.1054 19.746 34.5374C18.4539 35.9715 17.0883 37.291 15.6893 38.5735C14.868 38.2446 14.0967 37.7863 13.4022 37.1431C12.217 36.0491 11.3288 34.6335 10.6711 33.0923C10.7713 32.4972 10.5342 32.0278 10.1636 31.7469C9.96328 31.1371 9.78966 30.5198 9.64609 29.8989C9.41571 28.901 9.18199 27.8365 9.01505 26.7536C8.97833 22.4366 10.6043 18.0383 13.4557 15.1036ZM4.98511 47.3923C4.27728 47.7767 3.54274 48.0243 2.75145 48.0687C2.77482 48.0687 2.74143 48.0687 2.68133 48.0687C2.71138 47.9467 2.75479 47.8247 2.81822 47.7101C3.45927 46.0543 4.25725 44.3135 5.15539 42.8092C6.0936 41.2347 6.98506 39.6232 7.95999 38.0746C8.46415 37.2762 9.07849 36.4261 9.60602 35.5391C10.2871 36.7255 11.0985 37.8158 12.0267 38.7509C12.5842 39.3127 13.1952 39.8006 13.8396 40.2293C13.3956 40.6248 12.9482 41.0166 12.5008 41.4084C10.1068 43.5188 7.75298 45.8843 4.98177 47.3886L4.98511 47.3923ZM35.1279 27.0751C35.1112 29.0969 34.6905 30.6418 33.3683 32.087C32.4234 33.1182 31.3283 33.9682 30.3734 34.9884C28.5538 36.9325 25.6891 39.6491 22.9379 39.4088C22.6107 39.3793 22.3836 39.5234 22.2434 39.7452C22.0998 39.5456 21.8828 39.4125 21.5857 39.4088C20.7576 39.4051 19.9062 39.3866 19.0582 39.3127C19.1517 39.224 19.2452 39.1353 19.3353 39.0429C22.0598 36.3559 24.5939 33.4212 27.2917 30.6972C29.8392 28.1211 31.5887 24.9647 33.6788 22.0115C33.9994 21.5606 34.3099 21.0986 34.617 20.6329C35.1446 22.6879 35.1479 24.8095 35.1312 27.0788L35.1279 27.0751ZM39.4283 7.79286C38.5969 9.27497 37.5619 10.6277 36.6737 12.0692C35.9993 13.1632 35.3349 14.2905 34.6638 15.4178C34.2832 14.7821 33.8725 14.1648 33.4351 13.5809C33.0445 12.9341 32.5904 12.339 32.0195 11.8585C31.7056 11.5961 31.3784 11.3669 31.0412 11.1637C30.4335 10.7534 29.7891 10.4392 29.1214 10.199C30.7741 8.62447 32.5236 7.17192 34.203 5.63067C35.228 4.68818 36.3699 3.81961 37.6353 3.34652C38.3999 3.06192 39.0042 3.01387 39.8022 3.05083C39.9024 3.05453 40.1094 3.12476 40.2596 3.15063C40.253 3.33543 40.2696 3.57567 40.2663 3.66068C40.2296 5.19084 40.1795 6.45489 39.4249 7.79656L39.4283 7.79286Z" fill="#232121"/>
</svg>
