<svg width="80" height="80" viewBox="0 0 80 80" fill="none" xmlns="http://www.w3.org/2000/svg">
<g clip-path="url(#clip0_10_1647)">
<mask id="mask0_10_1647" style="mask-type:luminance" maskUnits="userSpaceOnUse" x="-398" y="-408" width="1193" height="858">
<path d="M776.111 -407.665L-397.375 -240.784L-379.309 449.085L794.177 282.205L776.111 -407.665Z" fill="white"/>
<path fill-rule="evenodd" clip-rule="evenodd" d="M47.1412 6.8248C49.4314 5.27206 49.7479 7.46755 47.1412 6.8248V6.8248Z" fill="#050505"/>
<path fill-rule="evenodd" clip-rule="evenodd" d="M68.5786 3.44335C69.932 3.14655 69.9955 5.10977 67.8512 4.87816C68.4315 4.49757 68.6536 4.00895 68.5786 3.44335Z" fill="#050505"/>
<path fill-rule="evenodd" clip-rule="evenodd" d="M36.4354 9.01798C33.8287 8.37523 34.1512 10.5699 36.4354 9.01798V9.01798Z" fill="#050505"/>
<path fill-rule="evenodd" clip-rule="evenodd" d="M37.9656 8.8004C38.6889 9.05027 40.7945 8.49747 40.2898 9.46346C38.3088 9.94389 37.526 9.72236 37.9656 8.8004Z" fill="#050505"/>
<path fill-rule="evenodd" clip-rule="evenodd" d="M51.7637 7.17102C53.3586 7.12801 53.3913 7.45621 52.5519 8.06242L51.0218 8.28003C50.7916 7.77126 51.7388 7.60179 51.7637 7.17102Z" fill="#050505"/>
<path fill-rule="evenodd" clip-rule="evenodd" d="M25.7412 11.8701C25.5902 11.1663 28.4494 11.331 29.5607 10.9891C29.7057 11.6938 26.8465 11.5291 25.7412 11.8701Z" fill="#050505"/>
<path fill-rule="evenodd" clip-rule="evenodd" d="M31.8678 10.9989C33.1015 10.7291 33.1961 11.123 34.1748 11.0037C34.4976 11.6036 30.7012 11.9895 31.8678 10.9989Z" fill="#050505"/>
<path fill-rule="evenodd" clip-rule="evenodd" d="M40.3161 10.4681C46.3808 10.4502 46.4646 8.36169 40.3161 10.4681V10.4681Z" fill="#050505"/>
<path fill-rule="evenodd" clip-rule="evenodd" d="M62.5389 7.63571C64.167 7.25017 64.0154 7.90264 64.0951 8.41294L61.7908 8.74062C62.1919 8.41533 62.5749 8.09259 62.5329 7.63656L62.5389 7.63571Z" fill="#050505"/>
<path fill-rule="evenodd" clip-rule="evenodd" d="M53.3633 9.60627C53.0464 9.00551 56.8371 8.63039 55.6702 9.61105L54.1341 9.82951C54.2707 9.52691 53.8379 9.55866 53.3633 9.60627Z" fill="#050505"/>
<path fill-rule="evenodd" clip-rule="evenodd" d="M63.3504 9.18456C58.4259 9.50234 61.6908 10.439 63.3504 9.18456V9.18456Z" fill="#050505"/>
<path fill-rule="evenodd" clip-rule="evenodd" d="M69.471 8.3141C67.331 10.541 73.1704 8.82134 69.471 8.3141V8.3141Z" fill="#050505"/>
<path fill-rule="evenodd" clip-rule="evenodd" d="M64.156 10.7391L66.4542 10.4123C66.5718 10.9917 65.5364 11.2433 65.721 11.8529C64.6891 11.7761 64.2742 11.3433 64.156 10.7391Z" fill="#050505"/>
<path fill-rule="evenodd" clip-rule="evenodd" d="M43.5039 14.6747L45.0401 14.4562L45.0574 15.1194L43.5213 15.3379L43.5039 14.6747Z" fill="#050505"/>
<path fill-rule="evenodd" clip-rule="evenodd" d="M-0.869763 23.3149C-1.69388 23.1241 -1.14193 22.1215 -3.19405 22.6469C-2.19131 21.8386 0.188857 21.4206 2.13858 20.8949C1.45167 21.5739 1.92397 22.5897 0.660523 23.1022L-0.105832 23.0473L-0.875634 23.3207L-0.869763 23.3149Z" fill="#050505"/>
<path fill-rule="evenodd" clip-rule="evenodd" d="M65.7297 12.1797L67.2659 11.9612L67.2833 12.6245L65.7471 12.8429L65.7297 12.1797Z" fill="#050505"/>
<path fill-rule="evenodd" clip-rule="evenodd" d="M10.5867 20.3542C9.83302 22.3939 13.9087 20.0209 10.5867 20.3542V20.3542Z" fill="#050505"/>
<path fill-rule="evenodd" clip-rule="evenodd" d="M25.9149 18.5074C25.7641 17.8085 28.6233 17.9732 29.7346 17.6314C29.8794 18.3311 27.0202 18.1664 25.9149 18.5074Z" fill="#050505"/>
<path fill-rule="evenodd" clip-rule="evenodd" d="M59.6116 13.3824C59.1131 13.8955 57.9895 14.2291 56.5627 14.4817C56.7273 13.8671 57.857 13.5376 59.6116 13.3824Z" fill="#050505"/>
<path fill-rule="evenodd" clip-rule="evenodd" d="M34.3398 17.3092C33.6678 18.1003 32.11 18.6398 29.7753 18.9569C30.4473 18.1658 32.005 17.6214 34.3398 17.3092Z" fill="#050505"/>
<path fill-rule="evenodd" clip-rule="evenodd" d="M12.1663 21.7989C11.976 22.5811 12.385 23.0197 13.7311 22.9028C12.551 24.0692 7.37865 22.281 12.1663 21.7989Z" fill="#050505"/>
<path fill-rule="evenodd" clip-rule="evenodd" d="M39.7565 18.536C39.8742 18.4298 41.3906 17.6876 42.0461 17.8775C42.5861 18.0293 39.0518 19.2224 39.7565 18.536Z" fill="#050505"/>
<path fill-rule="evenodd" clip-rule="evenodd" d="M48.9468 16.8963C49.8422 16.8186 49.6047 17.4088 49.7348 17.7778C46.7091 18.1534 49.9943 18.2575 48.2307 18.9902C47.2195 19.0148 47.0034 18.5835 45.9151 18.6538C45.9307 18.3287 46.8505 18.2625 47.4366 18.1046C47.5672 17.8029 47.1285 17.8404 46.6598 17.8822C46.8214 17.3823 48.9431 17.4433 48.9407 16.8922L48.9468 16.8963Z" fill="#050505"/>
<path fill-rule="evenodd" clip-rule="evenodd" d="M4.5644 25.205C5.45992 25.1323 5.22841 25.7216 5.35866 26.0955C3.5852 26.452 2.41693 26.4592 1.52159 26.3083C0.945811 25.4811 5.14618 26.0313 4.5704 25.2041L4.5644 25.205Z" fill="#050505"/>
<path fill-rule="evenodd" clip-rule="evenodd" d="M51.3085 19.2281C52.4471 19.24 53.2596 19.4474 54.3861 19.4561C54.543 20.1541 51.6776 19.9853 50.5724 20.3313C50.9676 20.0118 51.3564 19.6783 51.3085 19.2281Z" fill="#050505"/>
<path fill-rule="evenodd" clip-rule="evenodd" d="M19.9883 27.0106C19.6715 26.4148 23.4619 26.0297 22.2952 27.0154L20.759 27.2338C20.8957 26.9312 20.4567 26.9589 19.9823 27.0114L19.9883 27.0106Z" fill="#050505"/>
<path fill-rule="evenodd" clip-rule="evenodd" d="M29.1812 25.7032L30.7113 25.4856L30.7288 26.1538L29.1986 26.3714L29.1812 25.7032Z" fill="#050505"/>
<path fill-rule="evenodd" clip-rule="evenodd" d="M16.2031 29.213C10.1232 30.2565 19.9507 28.5708 16.2031 29.213V29.213Z" fill="#050505"/>
<path fill-rule="evenodd" clip-rule="evenodd" d="M51.4302 23.8756C51.1108 24.3284 50.4759 24.6919 49.1552 24.8598C48.7706 24.2041 50.2308 24.0759 51.4302 23.8756Z" fill="#050505"/>
<path fill-rule="evenodd" clip-rule="evenodd" d="M25.4162 28.9015C26.0627 28.7499 26.1458 28.9318 26.193 29.1238C26.4447 29.5351 28.1203 29.123 29.262 29.0202C28.2393 30.2189 26.1174 29.9195 24.6681 30.0014C25.0692 29.6811 25.4581 29.3525 25.4102 28.9023L25.4162 28.9015Z" fill="#050505"/>
<path fill-rule="evenodd" clip-rule="evenodd" d="M7.12336 34.8363C11.4745 34.2423 8.1136 37.0005 5.654 37.3751C5.73458 36.7725 4.69362 36.8112 4.85118 36.1579C6.52104 35.985 7.2803 35.5392 7.12336 34.8363Z" fill="#050505"/>
<path fill-rule="evenodd" clip-rule="evenodd" d="M33.1836 31.801C35.804 31.5873 34.3878 34.0888 31.7142 34.3398C30.9719 33.1339 34.3564 33.1195 33.1836 31.801Z" fill="#050505"/>
<path fill-rule="evenodd" clip-rule="evenodd" d="M14.0468 35.1831C15.1973 35.4169 17.4806 34.9779 17.1479 36.0735C15.9974 35.8396 13.714 36.2736 14.0468 35.1831Z" fill="#050505"/>
<path fill-rule="evenodd" clip-rule="evenodd" d="M40.8634 31.3695C40.1097 33.4092 44.1914 31.0354 40.8634 31.3695V31.3695Z" fill="#050505"/>
<path fill-rule="evenodd" clip-rule="evenodd" d="M10.2967 38.7169C10.7422 37.7892 11.0814 38.7792 11.0648 38.6077C11.1861 39.7877 9.30892 40.7849 10.2967 38.7169Z" fill="#050505"/>
<path fill-rule="evenodd" clip-rule="evenodd" d="M14.1511 39.1674C17.0912 39.6634 17.4854 37.4662 14.1511 39.1674V39.1674Z" fill="#050505"/>
<path fill-rule="evenodd" clip-rule="evenodd" d="M8.07392 41.6958C8.34536 41.0213 9.0516 41.7704 8.85337 42.2507C8.58193 42.9252 7.87583 42.181 8.07392 41.6958Z" fill="#050505"/>
<path fill-rule="evenodd" clip-rule="evenodd" d="M47.9231 36.6897C43.0105 37.0008 46.2636 37.9491 47.9231 36.6897V36.6897Z" fill="#050505"/>
<path fill-rule="evenodd" clip-rule="evenodd" d="M32.6674 41.5319C33.0156 42.1779 32.1683 42.4822 31.9399 42.9618C30.3411 42.8563 29.8012 41.7904 32.6674 41.5319Z" fill="#050505"/>
<path fill-rule="evenodd" clip-rule="evenodd" d="M32.7107 43.1849C31.8236 43.8079 32.0955 44.7628 29.6851 44.9466C29.7591 44.0915 30.7677 43.5059 32.7107 43.1849Z" fill="#050505"/>
<path fill-rule="evenodd" clip-rule="evenodd" d="M77.9072 36.7576L79.4374 36.54C79.81 37.1974 78.3679 37.328 77.1567 37.535C77.2934 37.2373 77.9219 37.0884 77.9072 36.7576Z" fill="#050505"/>
<path fill-rule="evenodd" clip-rule="evenodd" d="M2.12385 49.5368C4.09883 49.2857 2.96513 50.8429 5.97829 49.9872L6.01315 51.3186C4.87847 50.9981 3.02989 51.246 3.73229 52.3086C-0.043888 51.857 -0.479355 51.3278 -4.74481 51.5121C-3.10291 50.0416 0.192752 51.0037 0.585006 49.4228L0.982136 49.8681L2.12385 49.5368Z" fill="#050505"/>
<path fill-rule="evenodd" clip-rule="evenodd" d="M63.3904 40.1534C58.466 40.4712 61.7308 41.4078 63.3904 40.1534V40.1534Z" fill="#050505"/>
<path fill-rule="evenodd" clip-rule="evenodd" d="M10.5486 48.3386C11.5329 48.6656 14.5936 47.7833 13.6497 49.229C12.4992 48.9952 10.222 49.4333 10.5486 48.3386Z" fill="#050505"/>
<path fill-rule="evenodd" clip-rule="evenodd" d="M27.4043 45.9416C28.35 45.9462 28.9876 46.1436 28.9605 46.7188L26.6623 47.0456C27.0635 46.7253 27.4462 46.3926 27.4043 45.9416Z" fill="#050505"/>
<path fill-rule="evenodd" clip-rule="evenodd" d="M57.2903 42.0294C59.5802 40.4667 59.8968 42.6672 57.2903 42.0294V42.0294Z" fill="#050505"/>
<path fill-rule="evenodd" clip-rule="evenodd" d="M29.7287 46.6096C31.3952 46.308 32.1721 46.5353 32.053 47.2776C29.6882 47.3655 30.6067 48.3973 28.2359 48.4861C28.0905 48.2236 28.5278 48.1316 28.9953 48.0452C28.9629 47.7269 28.0465 47.9218 27.4564 47.9263C27.1295 47.1729 30.9476 47.6186 29.7285 46.6046L29.7287 46.6096Z" fill="#050505"/>
<path fill-rule="evenodd" clip-rule="evenodd" d="M58.0783 42.9108C60.1209 42.0242 59.5988 44.1651 60.3853 42.9206C61.5327 43.0356 61.5234 43.8318 61.9589 44.361C59.6251 44.4793 58.0212 44.1808 58.0783 42.9108Z" fill="#050505"/>
<path fill-rule="evenodd" clip-rule="evenodd" d="M15.1945 49.3472C17.1962 48.9681 18.4921 49.0024 18.2809 49.9068C16.2851 50.285 14.9834 50.2565 15.1945 49.3472Z" fill="#050505"/>
<path fill-rule="evenodd" clip-rule="evenodd" d="M23.6394 49.1447C24.033 48.3038 27.2583 48.4214 25.1782 49.2587C24.5645 49.2814 24.4135 49.0346 23.6394 49.1447Z" fill="#050505"/>
<path fill-rule="evenodd" clip-rule="evenodd" d="M1.44873 52.9662L2.97889 52.7486L2.99625 53.4118L1.4661 53.6294L1.44873 52.9662Z" fill="#050505"/>
<path fill-rule="evenodd" clip-rule="evenodd" d="M34.392 48.2813C29.4734 48.5933 32.7324 49.5358 34.392 48.2813V48.2813Z" fill="#050505"/>
<path fill-rule="evenodd" clip-rule="evenodd" d="M6.05367 52.6392L9.88206 52.0947C10.4844 53.0175 4.91484 54.4604 6.05367 52.6392Z" fill="#050505"/>
<path fill-rule="evenodd" clip-rule="evenodd" d="M16.7767 51.1142C18.9742 50.8514 18.2171 52.3004 18.3676 53.2179C16.7781 52.7782 15.5092 52.3923 16.7767 51.1142Z" fill="#050505"/>
<path fill-rule="evenodd" clip-rule="evenodd" d="M44.3555 47.1923L45.8916 46.9738L45.9091 47.642L44.373 47.8604L44.3555 47.1923Z" fill="#050505"/>
<path fill-rule="evenodd" clip-rule="evenodd" d="M32.8932 50.1587C33.1897 49.2919 35.8689 49.7157 35.2088 50.4951C33.5215 50.9238 34.1001 50.0169 32.8932 50.1587Z" fill="#050505"/>
<path fill-rule="evenodd" clip-rule="evenodd" d="M29.8329 50.5939C31.4996 50.2972 32.2763 50.5196 32.1572 51.2619C30.4847 51.5643 29.714 51.3411 29.8329 50.5939Z" fill="#050505"/>
<path fill-rule="evenodd" clip-rule="evenodd" d="M27.5433 51.2523C28.8992 51.5115 30.6236 53.6509 26.845 54.0243C25.2712 53.036 26.8747 52.4006 27.5433 51.2523Z" fill="#050505"/>
<path fill-rule="evenodd" clip-rule="evenodd" d="M58.9592 47.1126C55.2747 46.7125 57.1275 48.466 58.9592 47.1126V47.1126Z" fill="#050505"/>
<path fill-rule="evenodd" clip-rule="evenodd" d="M7.69701 56.7424C3.19933 56.3388 5.64662 59.4037 7.69701 56.7424V56.7424Z" fill="#050505"/>
<path fill-rule="evenodd" clip-rule="evenodd" d="M5.46818 59.7221C5.54501 58.9759 8.71676 59.1161 10.056 58.7368C9.43301 60.0177 8.17281 59.0444 5.46818 59.7221Z" fill="#050505"/>
<path fill-rule="evenodd" clip-rule="evenodd" d="M29.972 55.9047C29.4066 58.002 33.4882 55.6282 29.972 55.9047V55.9047Z" fill="#050505"/>
<path fill-rule="evenodd" clip-rule="evenodd" d="M1.65723 60.9298L3.18738 60.7122L3.22199 62.0337L1.69183 62.2513L1.65723 60.9298Z" fill="#050505"/>
<path fill-rule="evenodd" clip-rule="evenodd" d="M39.959 55.483C35.0464 55.7941 38.3053 56.7316 39.959 55.483V55.483Z" fill="#050505"/>
<path fill-rule="evenodd" clip-rule="evenodd" d="M70.5921 51.1266C65.6795 51.4378 68.9444 52.3744 70.5921 51.1266V51.1266Z" fill="#050505"/>
<path fill-rule="evenodd" clip-rule="evenodd" d="M75.9626 50.3629C77.9584 49.9847 79.788 49.7046 79.049 50.9225C78.4711 50.4732 75.3006 51.5301 75.9626 50.3629Z" fill="#050505"/>
<path fill-rule="evenodd" clip-rule="evenodd" d="M7.79239 60.3901C9.46185 60.2024 9.45846 60.9928 9.36596 61.8306C6.80064 62.5382 8.15075 60.9651 7.79239 60.3901Z" fill="#050505"/>
<path fill-rule="evenodd" clip-rule="evenodd" d="M10.8701 60.6181C11.816 60.6277 12.4593 60.8144 12.4262 61.3904C11.4802 61.3759 10.843 61.1933 10.8701 60.6181Z" fill="#050505"/>
<path fill-rule="evenodd" clip-rule="evenodd" d="M35.4435 59.4535C33.8511 59.824 33.4093 59.5143 32.3745 59.5571C32.4872 58.5723 35.9898 58.2382 35.4435 59.4535Z" fill="#050505"/>
<path fill-rule="evenodd" clip-rule="evenodd" d="M27.0186 60.6516L28.5487 60.434L28.5661 61.0972L27.0359 61.3148L27.0186 60.6516Z" fill="#050505"/>
<path fill-rule="evenodd" clip-rule="evenodd" d="M22.4831 63.6315C22.1578 64.09 21.5227 64.4486 20.2022 64.6215C20.5275 64.1629 21.1564 63.8002 22.4831 63.6315Z" fill="#050505"/>
<path fill-rule="evenodd" clip-rule="evenodd" d="M41.6457 61.2393C41.5506 61.9781 39.738 62.221 37.8346 62.442C37.0193 61.4401 40.2093 61.5876 41.6457 61.2393Z" fill="#050505"/>
<path fill-rule="evenodd" clip-rule="evenodd" d="M42.4162 61.4576C42.7268 60.6682 46.1871 60.7872 47.7722 60.368C46.5291 60.9671 43.6362 61.8156 42.4162 61.4576Z" fill="#050505"/>
<path fill-rule="evenodd" clip-rule="evenodd" d="M64.6279 57.9709C66.7876 57.6439 66.0826 59.473 63.9032 59.7382C63.637 59.0011 63.9899 58.4491 64.6279 57.9709Z" fill="#050505"/>
<path fill-rule="evenodd" clip-rule="evenodd" d="M7.18664 66.4676L8.7228 66.2491C9.09537 66.9065 7.64114 67.0338 6.44193 67.2391C6.57894 66.9514 7.20119 66.7934 7.19264 66.4667L7.18664 66.4676Z" fill="#050505"/>
<path fill-rule="evenodd" clip-rule="evenodd" d="M33.2583 64.0962C33.1134 63.3915 35.9727 63.5612 37.084 63.2193C37.2288 63.9191 34.3696 63.7544 33.2583 64.0962Z" fill="#050505"/>
<path fill-rule="evenodd" clip-rule="evenodd" d="M66.2189 60.0746C66.6969 59.0081 67.8654 60.1584 69.2852 59.6385C69.1927 60.4764 66.6954 60.1012 66.2189 60.0746Z" fill="#050505"/>
<path fill-rule="evenodd" clip-rule="evenodd" d="M23.3207 66.1752C24.6101 66.6526 23.2597 66.6062 23.3553 67.4967C21.1033 67.5189 20.9893 67.5351 18.7528 68.1512C17.8438 66.7901 21.8201 66.8308 23.3207 66.1752Z" fill="#050505"/>
<path fill-rule="evenodd" clip-rule="evenodd" d="M74.6525 59.2032C69.734 59.5202 72.9929 60.4577 74.6525 59.2032V59.2032Z" fill="#050505"/>
<path fill-rule="evenodd" clip-rule="evenodd" d="M31.7801 66.3035C31.863 65.5565 35.0348 65.7016 36.3741 65.3224C35.9645 66.4735 33.4942 66.2088 31.7801 66.3035Z" fill="#050505"/>
<path fill-rule="evenodd" clip-rule="evenodd" d="M37.9127 65.4314C40.3654 64.7945 39.5195 66.0723 40.9992 65.996C39.7012 67.2586 38.9724 65.4198 36.4 66.3172C36.5827 65.9335 37.9184 65.8777 37.9128 65.4363L37.9127 65.4314Z" fill="#050505"/>
<path fill-rule="evenodd" clip-rule="evenodd" d="M21.8426 68.3824C21.237 69.4074 22.9451 69.085 22.6541 69.9312C19.2235 70.0266 16.4964 69.1576 21.8426 68.3824Z" fill="#050505"/>
<path fill-rule="evenodd" clip-rule="evenodd" d="M27.9692 67.5112C23.0506 67.8232 26.3096 68.7656 27.9692 67.5112V67.5112Z" fill="#050505"/>
<path fill-rule="evenodd" clip-rule="evenodd" d="M26.4505 68.3928L27.9866 68.1744C28.3592 68.8318 26.9052 68.969 25.6999 69.1702C25.8429 68.8816 26.4651 68.7236 26.4505 68.3928Z" fill="#050505"/>
<path fill-rule="evenodd" clip-rule="evenodd" d="M45.6566 67.6636C47.1065 67.6015 50.2593 66.557 49.5084 67.7816C47.9504 67.1685 45.9778 69.5803 45.6566 67.6636Z" fill="#050505"/>
<path fill-rule="evenodd" clip-rule="evenodd" d="M54.0988 67.1287C54.3762 66.4534 55.0825 67.2025 54.8842 67.6827C54.6127 68.3523 53.9007 67.6139 54.0988 67.1287Z" fill="#050505"/>
<path fill-rule="evenodd" clip-rule="evenodd" d="M61.0021 66.4749C61.1865 67.5366 57.4421 68.2977 57.9358 66.911L61.0021 66.4749Z" fill="#050505"/>
<path fill-rule="evenodd" clip-rule="evenodd" d="M31.9017 70.9461C33.5743 70.6486 34.3511 70.871 34.2261 71.619C32.5595 71.9156 31.7827 71.6932 31.9017 70.9461Z" fill="#050505"/>
<path fill-rule="evenodd" clip-rule="evenodd" d="M71.7427 65.6181C71.9073 65.4606 73.9462 64.6639 74.8004 64.8505C75.9816 65.1097 70.4565 66.8691 71.7427 65.6181Z" fill="#050505"/>
<path fill-rule="evenodd" clip-rule="evenodd" d="M6.64468 75.2135C6.6919 75.177 6.58199 74.8896 6.63586 74.8769C10.3129 74.0709 3.05548 77.5322 6.64468 75.2135Z" fill="#050505"/>
<path fill-rule="evenodd" clip-rule="evenodd" d="M25.7778 72.1548L28.0821 71.8271L28.1081 72.8219L25.8039 73.1496L25.7778 72.1548Z" fill="#050505"/>
<path fill-rule="evenodd" clip-rule="evenodd" d="M51.8499 69.1128C51.9598 68.7097 53.2347 68.6377 54.1335 68.4602L54.1595 69.45C53.1543 69.4738 52.944 69.0367 51.8499 69.1128Z" fill="#050505"/>
<path fill-rule="evenodd" clip-rule="evenodd" d="M76.3539 65.3002C77.5816 65.0313 77.6822 65.4243 78.6547 65.3009C78.9716 65.9017 75.1809 66.2768 76.3539 65.3002Z" fill="#050505"/>
<path fill-rule="evenodd" clip-rule="evenodd" d="M62.6018 68.92C62.8553 68.4816 64.6349 68.3577 64.9 68.5932C65.6148 69.2069 62.1117 69.7548 62.6018 68.92Z" fill="#050505"/>
<path fill-rule="evenodd" clip-rule="evenodd" d="M29.6791 73.9299C30.625 73.9444 31.2684 74.1312 31.2353 74.7072C30.2894 74.6976 29.646 74.5059 29.6791 73.9299Z" fill="#050505"/>
<path fill-rule="evenodd" clip-rule="evenodd" d="M6.72287 78.193L9.0211 77.8662L9.04728 78.866C7.37467 79.1634 6.59778 78.9361 6.72287 78.193Z" fill="#050505"/>
<path fill-rule="evenodd" clip-rule="evenodd" d="M56.2733 3.19632C58.3514 3.20383 54.5406 4.18791 54.772 4.74617C52.0628 4.56014 56.6806 3.79913 56.2733 3.19632Z" fill="#050505"/>
<path fill-rule="evenodd" clip-rule="evenodd" d="M4.40795 19.2358C6.55842 18.786 2.52016 20.7463 5.2109 20.458C4.80602 21.0968 2.22884 20.2015 0.596932 20.4435C0.23066 19.5666 4.7801 20.1069 4.40795 19.2358Z" fill="#050505"/>
<path fill-rule="evenodd" clip-rule="evenodd" d="M63.4113 11.5108C64.1173 12.4834 60.9212 12.3318 60.371 12.9416C58.9034 13.0162 62.0551 11.7036 63.4113 11.5108Z" fill="#050505"/>
<path fill-rule="evenodd" clip-rule="evenodd" d="M66.5292 42.7126C68.1736 42.7172 62.1257 45.6737 62.7035 43.5895C65.9161 42.7601 65.2623 42.863 66.5292 42.7126Z" fill="#050505"/>
<path fill-rule="evenodd" clip-rule="evenodd" d="M1.60506 58.9352C-2.02987 58.5877 2.96161 57.8381 3.10916 57.7227C3.21536 57.6381 3.05741 55.9764 3.84237 56.2821C5.33339 56.8699 2.76208 58.2689 1.60506 58.9352Z" fill="#050505"/>
<path fill-rule="evenodd" clip-rule="evenodd" d="M-0.09652 67.3343L-0.467469 67.8888L-1.22955 67.9971L-0.873023 67.1218L-2.78294 67.5573L-5.07518 67.8833L-4.70423 67.3288L-5.10136 66.8835L-5.11872 66.2203C-3.52019 65.8539 -3.08456 66.1595 -2.04973 66.1167C-2.17188 64.9021 -3.18775 65.439 -5.12741 65.8887C-4.11528 64.2892 -8.11011 65.6074 -7.47787 64.2209C-5.01598 64.1639 -5.09698 63.3706 -4.43748 62.795C-1.72236 62.5181 -2.52944 63.4377 0.161539 62.4688C-1.3894 63.7326 0.700868 62.8243 2.46859 62.4786C3.69346 63.2532 4.91723 64.4454 1.76998 65.2407C6.90379 65.0968 1.98433 65.8361 1.06 67.3387L-0.09652 67.3343Z" fill="#050505"/>
<path fill-rule="evenodd" clip-rule="evenodd" d="M66.1407 57.0901C63.288 57.4014 68.3753 55.9427 67.6709 56.8725C69.4855 57.1659 67.3881 56.8829 66.1407 57.0901Z" fill="#050505"/>
<path fill-rule="evenodd" clip-rule="evenodd" d="M48.5839 61.9168C45.9472 61.2784 51.5821 60.2585 53.163 60.6C52.3417 61.4371 49.3926 60.5996 48.5839 61.9168Z" fill="#050505"/>
<path fill-rule="evenodd" clip-rule="evenodd" d="M71.5513 58.3178C71.9582 57.2962 72.7647 58.652 73.8583 58.3226C73.1371 59.533 72.3364 58.1664 71.5513 58.3178Z" fill="#050505"/>
<path fill-rule="evenodd" clip-rule="evenodd" d="M5.75486 70.6702C9.2376 70.7264 4.92169 71.514 4.25944 72.2143C1.09515 71.8992 6.98142 71.5092 5.75486 70.6702Z" fill="#050505"/>
<path fill-rule="evenodd" clip-rule="evenodd" d="M11.9076 70.7938C3.20353 72.3694 14.9488 70.5501 11.9076 70.7938V70.7938Z" fill="#050505"/>
<path fill-rule="evenodd" clip-rule="evenodd" d="M23.4248 70.1545C24.0252 72.1507 27.033 70.4015 23.4248 70.1545V70.1545Z" fill="#050505"/>
<path fill-rule="evenodd" clip-rule="evenodd" d="M69.3982 63.9545C70.6972 63.6505 70.8451 64.007 70.9396 64.396C71.7141 64.0722 71.7117 63.5211 73.2206 63.4109L73.2467 64.4057C71.2954 64.6435 69.3026 64.902 69.3922 63.9553L69.3982 63.9545Z" fill="#050505"/>
<path fill-rule="evenodd" clip-rule="evenodd" d="M3.56963 75.3129C0.716875 75.6242 5.80421 74.1655 5.10578 75.0945C6.92048 75.3928 4.82898 75.104 3.56963 75.3129Z" fill="#050505"/>
<path fill-rule="evenodd" clip-rule="evenodd" d="M12.8 75.6646C10.7373 75.0985 14.5551 75.0673 13.5246 73.8973C15.8862 73.2286 16.5412 75.2419 18.1385 73.9069C19.8317 73.7058 18.4993 75.2664 18.9526 75.7882C17.8352 75.4354 15.0206 76.0542 12.8173 76.3278L13.1988 75.9457L12.8 75.6646Z" fill="#050505"/>
<path fill-rule="evenodd" clip-rule="evenodd" d="M67.1809 67.5982C69.9961 66.3136 75.6382 66.2614 74.1277 68.6074C71.6915 68.4968 71.5635 68.8976 68.7691 69.3695C69.1742 68.5071 69.3726 67.5747 71.786 67.2762C70.7391 66.3967 68.3939 68.3796 67.1809 67.5982Z" fill="#050505"/>
<path fill-rule="evenodd" clip-rule="evenodd" d="M68.0098 69.8153C69.8102 69.7977 66.0883 71.6485 64.9669 70.9137C64.3971 70.0856 68.5795 70.6384 68.0098 69.8153Z" fill="#050505"/>
</mask>
<g mask="url(#mask0_10_1647)">
<path d="M28.8618 45.0243C28.7931 44.9138 28.6541 44.8262 28.5098 44.7982C28.3654 44.7702 28.1914 44.7932 28.0636 44.8696C27.9751 44.9213 27.9085 44.9894 27.8577 45.0646C27.8164 45.0242 27.7763 44.98 27.735 44.9396C27.701 44.9047 27.667 44.8697 27.6342 44.831C27.6178 44.8116 27.6056 44.7931 27.5892 44.7737C27.4185 44.5585 27.0794 44.4482 26.7952 44.6199C26.5668 44.7578 26.423 45.0416 26.5282 45.2644C26.4434 45.333 26.3732 45.4125 26.3364 45.5147C26.2784 45.6694 26.2386 45.8236 26.2019 45.9825C25.8445 46.5852 25.7364 47.2686 26.0375 47.8694C26.338 48.4579 27.1043 48.7845 27.8416 48.733C28.1041 48.715 28.3537 48.5245 28.5505 48.3724C28.688 48.2655 28.8036 48.1421 28.9077 48.0125C29.0947 47.7775 29.1907 47.4885 29.2018 47.2113C29.2017 47.183 29.2005 47.1584 29.2004 47.1301C29.2065 47.111 29.2155 47.0966 29.2246 47.0821C29.2572 47.0075 29.2856 46.932 29.3025 46.8503C29.3609 46.5661 29.3574 46.3064 29.3 46.0321C29.2419 45.7456 29.1172 45.4705 28.9767 45.2166C28.9396 45.1487 28.9013 45.0846 28.8588 45.0196L28.8618 45.0243ZM27.928 46.9929C27.8977 47.0032 27.8686 47.0097 27.8383 47.02C27.8062 47.0219 27.7741 47.0238 27.7377 47.0248C27.7037 47.0183 27.6697 47.0117 27.6358 47.0051C27.6042 46.9909 27.5769 46.9775 27.5454 46.9633C27.5162 46.9415 27.4883 46.9158 27.4603 46.8902C27.4287 46.8476 27.3971 46.805 27.3722 46.7557C27.3497 46.6987 27.3357 46.6434 27.3228 46.5842C27.3093 46.4561 27.3139 46.3274 27.3313 46.2013C27.3349 46.1898 27.3386 46.1784 27.3422 46.167C27.3659 46.1918 27.3896 46.2166 27.4132 46.2414C27.4679 46.2966 27.5184 46.3792 27.5839 46.4283C27.5943 46.4384 27.6003 46.4477 27.6107 46.4578C27.6362 46.4911 27.6659 46.5252 27.6915 46.5585C27.7395 46.6204 27.7863 46.6861 27.8331 46.7519C27.8756 46.8168 27.9139 46.8809 27.9522 46.945C27.9583 46.9542 27.9613 46.9589 27.9632 46.9673C27.962 46.9711 27.9692 46.9766 27.9711 46.985C27.9602 46.991 27.9438 47 27.9329 47.006L27.928 46.9929Z" fill="#FCFCFC"/>
<path d="M27.3264 40.2213C27.321 40.281 27.3083 40.3352 27.3072 40.3958C27.2754 40.9806 28.1777 41.0056 28.4165 40.5499C28.9651 40.4255 29.4528 40.0949 29.8804 39.7689C30.4267 39.3525 30.9007 38.8655 31.3201 38.3516C31.4139 38.2403 31.5047 38.1243 31.5924 38.0036C31.7675 37.8918 31.8443 37.7488 31.8538 37.6049C31.9881 37.38 32.1023 37.1471 32.1644 36.9081C32.2277 36.6654 32.2733 36.3503 32.1316 36.1286C32.0708 36.0359 31.9743 35.9564 31.8687 35.8915C31.8723 35.88 31.8802 35.8694 31.8893 35.855C32.0688 35.4728 31.5698 35.1413 31.1819 35.2565C29.8509 35.6463 28.5826 36.5786 27.7522 37.5795C27.3364 38.0819 27.0038 38.7056 27.0296 39.3219C27.0459 39.6408 27.1416 39.9508 27.3276 40.2175L27.3264 40.2213Z" fill="#FCFCFC"/>
<path d="M33.4131 44.469C33.3593 44.6246 33.4045 44.7952 33.5187 44.9185L33.5162 44.9262C33.5176 45.0074 33.5201 45.0848 33.5257 45.1668C33.5794 45.7804 33.7411 46.423 34.2275 46.8653C34.2555 46.891 34.2931 46.9145 34.3253 46.9409C34.4317 47.1316 34.5393 47.3184 34.6457 47.509C34.7801 47.7537 35.178 47.8064 35.4397 47.6628C35.6033 47.5731 35.6971 47.4334 35.7217 47.2843C36.0297 47.2509 36.3303 47.1553 36.4712 46.9235C36.8608 46.2906 36.5181 45.4794 36.1753 44.9393C35.8738 44.468 35.4127 43.9456 34.8277 43.6865C34.8789 43.4252 34.7329 43.1459 34.4193 43.0973C34.11 43.0496 33.7846 43.2092 33.6941 43.4952C33.614 43.8198 33.5156 44.1448 33.4003 44.4665L33.4131 44.469ZM34.8402 45.0855C34.8402 45.0855 34.8773 45.1251 34.8834 45.1343C34.9028 45.1583 34.9222 45.1824 34.9429 45.2025C34.9921 45.2607 35.0359 45.3218 35.0784 45.3867C35.1647 45.5127 35.2413 45.6409 35.3125 45.772C35.3185 45.7813 35.3216 45.786 35.3234 45.7944C35.3362 45.8252 35.349 45.856 35.3618 45.8868C35.3861 45.9523 35.4105 46.0177 35.4263 46.0815C35.4428 46.1292 35.4495 46.1791 35.4605 46.2298C35.4569 46.2129 35.4581 46.2375 35.4612 46.2704C35.4527 46.2688 35.4388 46.2701 35.4291 46.2723C35.4206 46.2707 35.4163 46.2698 35.4078 46.2682C35.3696 46.2608 35.3272 46.2526 35.2889 46.2452C35.2805 46.2435 35.2689 46.2372 35.2574 46.231C35.199 46.1306 35.1461 46.0272 35.0932 45.9239C35.0561 45.856 35.0245 45.7851 34.9886 45.7133C34.9837 45.7003 34.9837 45.7003 34.9807 45.6956C34.9807 45.6956 34.9807 45.6956 34.9746 45.6864C34.9588 45.6509 34.9429 45.6155 34.9271 45.58C34.8431 45.3897 34.7798 45.1912 34.7261 44.9905C34.7601 45.0255 34.8038 45.0582 34.8378 45.0931L34.8402 45.0855Z" fill="#FCFCFC"/>
<path d="M71.8846 23.9254C72.3943 19.8223 65.0217 20.151 62.0494 21.0001C59.6267 21.6925 57.5246 22.9814 55.1998 23.8346C52.666 24.7646 50.2312 25.8514 47.8488 27.086C47.3162 26.9464 46.7691 26.8242 46.2237 26.7105C41.8309 25.8109 37.1543 25.6943 32.6169 26.6046C28.7191 27.3878 25.1901 29.4406 22.5086 32.1191C20.2097 34.4143 19.1909 37.0789 18.7048 39.9114C18.3637 40.9181 18.1276 41.9208 18.0091 42.8937C17.8755 43.985 17.8633 45.0918 17.9584 46.187C17.8973 46.2521 17.8404 46.318 17.7884 46.397C16.1215 48.8025 -3.2899 60.9468 3.51764 63.8281C7.1984 65.3831 12.1072 63.4842 15.662 62.076C18.9902 60.7574 22.3565 59.3896 25.6536 57.9274C27.3928 58.7824 29.3432 58.9417 31.337 59.2915C33.3375 59.7195 35.3051 60.4366 37.4352 60.3271C39.5622 60.2129 41.999 59.6324 44.0379 59.0275C45.918 58.4688 47.504 57.5009 49.2376 56.6506C50.9493 55.8124 52.2052 55.1044 53.4292 53.7142C54.67 52.2989 56.1639 50.9529 56.9296 49.2877C57.8355 47.3218 58.459 45.0663 58.486 42.9869C58.5056 41.5293 58.3693 40.0658 58.0899 38.6273C60.4652 36.7315 62.7864 34.7645 65.2188 32.9445C66.9656 31.6394 68.9102 30.4211 70.0819 28.6403C70.9676 27.2939 71.696 25.4474 71.8846 23.9254ZM30.3085 29.7845C33.3901 28.2198 38.088 27.9559 41.3978 28.4473C43.3648 28.7393 45.4166 28.991 47.3596 29.4727C47.7373 29.8454 48.3034 30.0644 48.9411 29.9288C49.614 30.1523 50.265 30.416 50.8822 30.7299C53.7982 32.2096 54.1851 34.5758 54.8472 37.1976C53.7624 38.0481 52.6625 38.8753 51.5316 39.644C48.6174 41.6338 46.021 44.0292 42.8681 45.7622C39.2898 47.7286 35.5462 49.4201 31.9625 51.3894C29.8511 52.551 27.6837 53.5763 25.4858 54.5552C24.5487 54.0134 23.7175 53.3504 23.0444 52.5157C21.8943 51.0947 21.227 49.415 20.8938 47.6624C21.2155 47.073 21.0673 46.5302 20.6877 46.149C20.6321 45.4703 20.6128 44.7906 20.633 44.1144C20.6658 43.0278 20.7162 41.8717 20.8575 40.713C22.2203 36.2489 25.7242 32.1105 30.3085 29.7845ZM8.99376 61.019C7.9681 61.2413 6.95313 61.3159 5.93235 61.1668C5.96207 61.1725 5.91961 61.1643 5.84319 61.1495C5.92122 61.031 6.01625 60.9158 6.13433 60.8132C7.49021 59.2624 9.07341 57.6624 10.7067 56.3313C12.414 54.9375 14.0738 53.4942 15.8193 52.1362C16.7211 51.4365 17.7799 50.7105 18.7404 49.9251C19.2192 51.3173 19.895 52.6423 20.7701 53.836C21.2957 54.5531 21.9134 55.2071 22.5929 55.8083C21.8991 56.1071 21.2022 56.4012 20.5053 56.6952C16.7718 58.2834 13.0061 60.1447 8.99072 61.0144L8.99376 61.019ZM53.9603 47.4778C53.279 49.5601 52.2395 51.0508 50.0862 52.2165C48.5479 53.0479 46.8777 53.6554 45.3303 54.4729C42.3814 56.0309 37.8514 58.1286 34.4311 57.203C34.0247 57.0918 33.6889 57.1847 33.4381 57.379C33.3207 57.1376 33.0882 56.9468 32.7115 56.8698C31.6597 56.662 30.583 56.4332 29.5287 56.148C29.6765 56.0795 29.8244 56.011 29.9692 55.9378C34.3112 53.8361 38.4921 51.4318 42.8123 49.2853C46.8931 47.2544 50.1487 44.428 53.7709 41.8953C54.3257 41.509 54.8715 41.1087 55.4141 40.7037C55.414 42.9544 54.7256 45.1446 53.9634 47.4825L53.9603 47.4778ZM65.7251 28.6383C64.1839 29.963 62.4259 31.104 60.8259 32.3728C59.6109 33.3357 58.3979 34.3353 57.1764 35.3334C56.8999 34.5835 56.5792 33.8454 56.2137 33.135C55.9281 32.3713 55.5449 31.6453 54.9757 31.0088C54.6623 30.6607 54.321 30.3436 53.9586 30.0507C53.3197 29.4776 52.6028 28.9947 51.8321 28.5822C54.448 27.3645 57.1471 26.2965 59.7861 25.1197C61.3973 24.3996 63.1331 23.7845 64.8968 23.6081C65.962 23.5027 66.7462 23.602 67.749 23.8367C67.8751 23.8652 68.1155 23.9887 68.2981 24.0524C68.2292 24.2415 68.172 24.4935 68.14 24.5804C67.5937 26.1505 67.1173 27.4426 65.7196 28.6413L65.7251 28.6383Z" fill="#FCFCFC"/>
</g>
</g>
<defs>
<clipPath id="clip0_10_1647">
<rect width="78.0594" height="68.4095" fill="white" transform="matrix(0.990039 -0.140792 0.0261778 0.999657 0 10.9902)"/>
</clipPath>
</defs>
</svg>
