<svg width="142" height="106" viewBox="0 0 142 106" fill="none" xmlns="http://www.w3.org/2000/svg">
<g clip-path="url(#clip0_47_2367)">
<mask id="mask0_47_2367" style="mask-type:luminance" maskUnits="userSpaceOnUse" x="-805" y="-470" width="1090" height="862">
<path d="M284.458 -303.261L-686.316 -469.122L-804.956 225.267L165.818 391.128L284.458 -303.261Z" fill="white"/>
<path fill-rule="evenodd" clip-rule="evenodd" d="M118.587 17.7354L119.862 17.9534L119.749 18.616L118.473 18.398L118.587 17.7354Z" fill="#050505"/>
<path fill-rule="evenodd" clip-rule="evenodd" d="M21.5818 1.50522C22.2523 1.70695 21.8996 2.24657 22.7335 2.38906C22.3031 3.26405 20.7396 2.06888 21.5818 1.50522Z" fill="#050505"/>
<path fill-rule="evenodd" clip-rule="evenodd" d="M57.5242 8.67672C58.5883 9.17643 59.6218 9.67603 59.1444 10.6763C56.5859 10.6699 57.3975 9.56773 57.5242 8.67672Z" fill="#050505"/>
<path fill-rule="evenodd" clip-rule="evenodd" d="M67.0352 10.3018C69.3773 10.3789 67.6941 11.7679 67.958 12.5257C66.1642 11.7219 67.5396 11.6851 67.0352 10.3018Z" fill="#050505"/>
<path fill-rule="evenodd" clip-rule="evenodd" d="M139.569 24.7608L136.397 24.2189C136.571 23.2026 140.357 23.47 139.569 24.7608Z" fill="#050505"/>
<path fill-rule="evenodd" clip-rule="evenodd" d="M80.0579 14.2495L79.9439 14.917C76.7942 14.7224 79.0812 12.9392 80.0579 14.2495Z" fill="#050505"/>
<path fill-rule="evenodd" clip-rule="evenodd" d="M69.1098 13.4095C66.7551 11.792 67.4376 14.2262 69.1098 13.4095V13.4095Z" fill="#050505"/>
<path fill-rule="evenodd" clip-rule="evenodd" d="M82.4754 15.3496C84.0968 16.0265 82.232 17.1333 80.3461 16.3599C80.6464 15.7088 82.1711 15.9949 82.4754 15.3496Z" fill="#050505"/>
<path fill-rule="evenodd" clip-rule="evenodd" d="M85.4193 17.2267C84.6914 17.4202 85.0096 18.4283 83.3478 17.8982C83.3579 17.1514 84.0503 16.9261 85.4193 17.2267Z" fill="#050505"/>
<path fill-rule="evenodd" clip-rule="evenodd" d="M78.3929 16.3697C80.3238 16.192 79.9842 18.1798 78.2219 17.371L78.3929 16.3697Z" fill="#050505"/>
<path fill-rule="evenodd" clip-rule="evenodd" d="M127.82 24.8145C127.088 25.3919 125.259 25.1205 123.269 24.7189C124.316 24.3902 126.146 24.6567 127.82 24.8145Z" fill="#050505"/>
<path fill-rule="evenodd" clip-rule="evenodd" d="M133.926 27.2319C133.445 26.9652 132.952 26.7117 132.082 26.5733C132.776 25.2921 135.978 26.3418 133.926 27.2319Z" fill="#050505"/>
<path fill-rule="evenodd" clip-rule="evenodd" d="M61.2239 13.7849C62.3232 13.8395 62.3768 14.2434 62.3815 14.6646C61.8506 14.5124 61.7579 14.6965 61.6891 14.8899C60.9538 14.7079 61.2559 14.1955 61.2239 13.7849Z" fill="#050505"/>
<path fill-rule="evenodd" clip-rule="evenodd" d="M43.8857 12.1916C42.3197 14.8978 46.7971 13.212 43.8857 12.1916V12.1916Z" fill="#050505"/>
<path fill-rule="evenodd" clip-rule="evenodd" d="M82.5406 18.796C82.192 19.162 81.609 19.3444 80.5245 19.1437C80.3492 18.3754 81.5328 18.6546 82.5406 18.796Z" fill="#050505"/>
<path fill-rule="evenodd" clip-rule="evenodd" d="M99.5889 22.0574L100.86 22.2745L100.746 22.9371L99.4757 22.72L99.5889 22.0574Z" fill="#050505"/>
<path fill-rule="evenodd" clip-rule="evenodd" d="M56.3826 15.3574C56.4923 15.2838 57.8524 14.9778 58.345 15.3542C58.7427 15.658 55.6874 15.8385 56.3826 15.3574Z" fill="#050505"/>
<path fill-rule="evenodd" clip-rule="evenodd" d="M114.111 24.8822L115.377 25.0984L115.263 25.766L113.997 25.5497L114.111 24.8822Z" fill="#050505"/>
<path fill-rule="evenodd" clip-rule="evenodd" d="M130.536 28.0268C132.137 28.3414 132.899 28.9331 132.838 29.7994C130.831 29.6155 130.063 29.0279 130.536 28.0268Z" fill="#050505"/>
<path fill-rule="evenodd" clip-rule="evenodd" d="M122.061 27.9581C121.376 28.4409 119.951 28.3512 118.15 27.9769C118.365 27.1368 120.378 27.6756 122.061 27.9581Z" fill="#050505"/>
<path fill-rule="evenodd" clip-rule="evenodd" d="M21.8853 11.1809L24.4169 11.6135L24.1309 13.2874C23.1179 12.6682 21.7573 12.1691 21.8853 11.1809Z" fill="#050505"/>
<path fill-rule="evenodd" clip-rule="evenodd" d="M67.5098 18.9761C66.6579 20.9122 70.3746 19.7014 67.5098 18.9761V18.9761Z" fill="#050505"/>
<path fill-rule="evenodd" clip-rule="evenodd" d="M33.2358 13.4637L35.7675 13.8963C36.3097 15.1785 31.9634 14.8409 33.2358 13.4637Z" fill="#050505"/>
<path fill-rule="evenodd" clip-rule="evenodd" d="M110.427 27.3393C108.071 25.7268 108.749 28.1601 110.427 27.3393V27.3393Z" fill="#050505"/>
<path fill-rule="evenodd" clip-rule="evenodd" d="M102.764 26.3787C104.909 26.5041 103.668 27.2459 103.228 27.4886C103.193 27.8158 103.958 27.88 104.437 28.0387C104.27 28.4202 103.238 28.1209 102.478 28.0526L102.763 26.3837L102.764 26.3787Z" fill="#050505"/>
<path fill-rule="evenodd" clip-rule="evenodd" d="M115.896 29.6531C115.94 29.6349 115.913 29.3175 115.953 29.3193C119.05 29.5561 112.583 30.9533 115.896 29.6531Z" fill="#050505"/>
<path fill-rule="evenodd" clip-rule="evenodd" d="M25.2876 14.1721C25.7904 14.8476 27.5329 15.1146 26.9037 16.1658C25.7994 16.1105 25.7517 15.7024 25.7461 15.2861C25.2109 15.369 24.654 15.4584 23.7887 15.2901C23.9119 14.6292 25.5935 15.1626 25.2876 14.1721Z" fill="#050505"/>
<path fill-rule="evenodd" clip-rule="evenodd" d="M130.997 32.9201C127.603 33.1708 133.035 34.1502 130.997 32.9201V32.9201Z" fill="#050505"/>
<path fill-rule="evenodd" clip-rule="evenodd" d="M15.6096 13.5543L16.8755 13.7705L16.7622 14.4331L15.4964 14.2168L15.6096 13.5543Z" fill="#050505"/>
<path fill-rule="evenodd" clip-rule="evenodd" d="M30.1229 16.3723C30.4038 15.9537 31.759 16.3647 32.7157 16.4769C32.0312 16.9547 32.4258 18.263 30.5252 17.8152C30.5529 17.2046 31.4237 17.2509 31.3887 16.5886L30.1179 16.3715L30.1229 16.3723Z" fill="#050505"/>
<path fill-rule="evenodd" clip-rule="evenodd" d="M64.288 22.5531C60.0871 22.8301 66.7943 22.3866 64.288 22.5531V22.5531Z" fill="#050505"/>
<path fill-rule="evenodd" clip-rule="evenodd" d="M122.643 32.1798L123.914 32.3969L123.8 33.0645L122.529 32.8474L122.643 32.1798Z" fill="#050505"/>
<path fill-rule="evenodd" clip-rule="evenodd" d="M52.1883 20.8293C53.2262 20.9144 53.2218 21.3289 54.0325 21.488C54.1701 22.178 51.065 21.4834 52.1883 20.8293Z" fill="#050505"/>
<path fill-rule="evenodd" clip-rule="evenodd" d="M45.1096 20.307C46.2685 19.2949 46.2053 21.13 45.6259 21.0823C45.2468 21.0585 44.9108 20.4832 45.1096 20.307Z" fill="#050505"/>
<path fill-rule="evenodd" clip-rule="evenodd" d="M24.1961 16.7338C22.0777 17.5306 26.3664 18.1454 24.1961 16.7338V16.7338Z" fill="#050505"/>
<path fill-rule="evenodd" clip-rule="evenodd" d="M112.914 31.8916C114.29 31.9679 114.038 32.576 114.008 33.1092C113.502 32.9612 113.43 32.6669 112.8 32.5592L112.914 31.8916Z" fill="#050505"/>
<path fill-rule="evenodd" clip-rule="evenodd" d="M123.05 33.6235C122.707 33.9903 122.12 34.1669 121.035 33.9662C120.859 33.2029 122.046 33.4879 123.05 33.6235Z" fill="#050505"/>
<path fill-rule="evenodd" clip-rule="evenodd" d="M138.833 36.6637L140.104 36.8808L139.99 37.5484L138.719 37.3312L138.833 36.6637Z" fill="#050505"/>
<path fill-rule="evenodd" clip-rule="evenodd" d="M12.6747 15.4523C14.0639 15.8435 12.6452 17.1496 12.91 17.9024L10.3734 17.469C10.7846 16.6471 10.8904 15.9679 12.6747 15.4523Z" fill="#050505"/>
<path fill-rule="evenodd" clip-rule="evenodd" d="M36.6363 20.2333C37.7803 19.5777 39.9776 21.2195 39.5752 22.1096C37.1607 21.9483 38.4139 20.5935 36.6363 20.2333Z" fill="#050505"/>
<path fill-rule="evenodd" clip-rule="evenodd" d="M74.6608 26.7301C72.3003 25.1167 72.9886 27.5467 74.6608 26.7301V26.7301Z" fill="#050505"/>
<path fill-rule="evenodd" clip-rule="evenodd" d="M83.4788 28.5853C84.8561 28.8668 84.696 29.6546 84.4595 30.4705C83.32 30.3219 83.194 29.8338 81.9799 29.7033C82.3976 29.2619 83.0619 29.0217 83.4788 28.5853Z" fill="#050505"/>
<path fill-rule="evenodd" clip-rule="evenodd" d="M93.6152 30.3172C93.3609 30.8787 92.3929 30.8928 90.9646 30.5513C91.2189 29.9898 92.1869 29.9757 93.6152 30.3172Z" fill="#050505"/>
<path fill-rule="evenodd" clip-rule="evenodd" d="M113.898 33.7826C113.546 34.1428 112.967 34.331 111.883 34.1254C111.707 33.3621 112.895 33.642 113.898 33.7826Z" fill="#050505"/>
<path fill-rule="evenodd" clip-rule="evenodd" d="M125.765 36.8407C128.322 36.0778 128.821 38.3011 125.765 36.8407V36.8407Z" fill="#050505"/>
<path fill-rule="evenodd" clip-rule="evenodd" d="M96.5592 32.1942C96.8786 31.5207 99.5752 32.6326 98.9768 33.2944C97.2076 33.2433 97.8142 32.4138 96.5592 32.1942Z" fill="#050505"/>
<path fill-rule="evenodd" clip-rule="evenodd" d="M110.55 34.2412C110.301 34.8036 109.328 34.8168 107.9 34.4753C108.154 33.9138 109.122 33.8997 110.55 34.2412Z" fill="#050505"/>
<path fill-rule="evenodd" clip-rule="evenodd" d="M137.116 39.1235C137.317 38.3939 139.826 39.4379 140.975 39.4394C140.771 40.1581 138.261 39.1192 137.116 39.1235Z" fill="#050505"/>
<path fill-rule="evenodd" clip-rule="evenodd" d="M121.27 36.4162C122.835 36.7349 121.261 37.5785 121.042 37.7514C120.134 37.4167 119.523 36.9842 118.62 36.6504C118.892 35.4151 121.101 37.0487 121.27 36.4162Z" fill="#050505"/>
<path fill-rule="evenodd" clip-rule="evenodd" d="M135.845 38.9064C135.118 39.4796 133.284 39.2123 131.293 38.8157C131.004 37.4588 134.359 38.9037 135.845 38.9064Z" fill="#050505"/>
<path fill-rule="evenodd" clip-rule="evenodd" d="M93.9034 32.4276C93.8492 33.7617 91.7506 33.157 91.3098 32.328C90.7847 32.1716 90.692 32.3557 90.6174 32.5532C88.4217 31.4397 92.5868 32.0898 93.9034 32.4276Z" fill="#050505"/>
<path fill-rule="evenodd" clip-rule="evenodd" d="M57.7231 26.5895C58.607 27.0379 59.6526 27.437 59.4004 28.2553C57.6312 28.2043 58.2337 27.3689 56.9836 27.1502C57.1487 26.9015 57.676 26.925 57.7281 26.5903L57.7231 26.5895Z" fill="#050505"/>
<path fill-rule="evenodd" clip-rule="evenodd" d="M82.4442 30.8132C81.8976 31.0223 81.6356 31.4493 81.5799 32.0448C80.5419 31.9597 80.5422 31.5393 79.7365 31.3812L79.8506 30.7136C80.9797 30.9527 81.2565 30.5283 82.4442 30.8132Z" fill="#050505"/>
<path fill-rule="evenodd" clip-rule="evenodd" d="M134.351 40.0252C134.561 39.3023 137.066 40.3405 138.205 40.3403C138.01 41.0657 135.5 40.0268 134.351 40.0252Z" fill="#050505"/>
<path fill-rule="evenodd" clip-rule="evenodd" d="M105.718 35.8203C105.929 35.0974 108.438 36.1363 109.578 36.1362C109.648 36.4405 109.281 36.4085 108.885 36.3614L108.771 37.029C107.585 36.6775 107.787 35.8815 105.718 35.8203Z" fill="#050505"/>
<path fill-rule="evenodd" clip-rule="evenodd" d="M20.5743 22.6522L23.1109 23.0856C22.423 23.9423 23.8572 24.1002 23.4612 24.8631C21.9687 24.5979 21.5009 25.123 19.6017 24.5472C19.7668 24.2986 20.2941 24.322 20.3511 23.9882C20.2771 23.7038 19.7728 23.5459 19.8298 23.2121L20.8118 23.2056L20.5743 22.6522Z" fill="#050505"/>
<path fill-rule="evenodd" clip-rule="evenodd" d="M25.7625 22.8465C26.1097 22.2495 26.5309 23.1931 26.2789 23.6218C25.9325 24.2137 25.5104 23.2751 25.7625 22.8465Z" fill="#050505"/>
<path fill-rule="evenodd" clip-rule="evenodd" d="M51.16 26.8474L52.4308 27.0645C52.261 27.4303 52.4635 27.6803 52.9471 27.8398C52.6711 28.2592 51.3209 27.8491 50.3585 27.741C50.737 27.5288 51.1114 27.3108 51.16 26.8474Z" fill="#050505"/>
<path fill-rule="evenodd" clip-rule="evenodd" d="M54.2709 27.7173C54.2909 26.9722 56.5509 27.9479 57.495 27.9246C57.4816 28.6607 55.2257 27.6907 54.2709 27.7173Z" fill="#050505"/>
<path fill-rule="evenodd" clip-rule="evenodd" d="M9.22961 20.3653C9.51782 19.9941 10.9642 20.3797 11.1259 20.6893C11.5783 21.5101 8.6807 21.0663 9.22961 20.3653Z" fill="#050505"/>
<path fill-rule="evenodd" clip-rule="evenodd" d="M16.1943 21.5552C17.0115 21.9153 17.254 22.4695 17.237 23.1075C16.1387 22.8378 15.8903 22.2878 16.1943 21.5552Z" fill="#050505"/>
<path fill-rule="evenodd" clip-rule="evenodd" d="M28.8095 24.0593C26.8495 22.6733 26.6782 24.9616 28.8095 24.0593V24.0593Z" fill="#050505"/>
<path fill-rule="evenodd" clip-rule="evenodd" d="M31.4091 24.1548C32.2509 24.4011 31.7882 25.0758 31.8164 25.5985C30.667 25.4482 30.5459 24.961 29.3318 24.8305C29.5185 24.2163 31.4716 24.9551 31.4091 24.1548Z" fill="#050505"/>
<path fill-rule="evenodd" clip-rule="evenodd" d="M70.6946 30.8669C71.5081 31.1289 71.5869 31.6244 72.4817 31.8593C72.5466 32.1677 72.184 32.1366 71.7934 32.0903L70.5226 31.8732L70.6937 30.8719L70.6946 30.8669Z" fill="#050505"/>
<path fill-rule="evenodd" clip-rule="evenodd" d="M113.099 38.4606C113.854 38.7382 114.327 39.1063 114.19 39.6724C111.945 39.5914 112.113 38.7895 113.099 38.4606Z" fill="#050505"/>
<path fill-rule="evenodd" clip-rule="evenodd" d="M132.681 42.1446C132.578 41.522 136.332 42.1532 135.16 42.9167C134.011 42.7615 133.889 42.2792 132.681 42.1446Z" fill="#050505"/>
<path fill-rule="evenodd" clip-rule="evenodd" d="M89.5929 34.7828C92.5927 34.9569 94.9748 37.9993 90.5165 37.0018C91.6316 35.7977 89.3219 35.7107 89.5929 34.7828Z" fill="#050505"/>
<path fill-rule="evenodd" clip-rule="evenodd" d="M27.4356 24.5065L28.7014 24.7227C28.8776 25.486 27.6899 25.2011 26.6911 25.0663C26.8554 24.8226 27.3786 24.8402 27.4356 24.5065Z" fill="#050505"/>
<path fill-rule="evenodd" clip-rule="evenodd" d="M64.1372 31.1207C64.9408 31.381 65.0246 31.8773 65.9194 32.1122C65.99 32.4165 65.6167 32.3886 65.232 32.3383L63.9711 32.1229L64.1422 31.1215L64.1372 31.1207Z" fill="#050505"/>
<path fill-rule="evenodd" clip-rule="evenodd" d="M38.0364 27.3483C42.8897 29.0542 43.3547 26.9905 38.0364 27.3483V27.3483Z" fill="#050505"/>
<path fill-rule="evenodd" clip-rule="evenodd" d="M9.40386 23.1433C9.77444 23.7552 12.5192 23.5987 11.7694 24.578C10.0952 24.3894 9.06457 23.9929 9.40386 23.1433Z" fill="#050505"/>
<path fill-rule="evenodd" clip-rule="evenodd" d="M31.5882 26.9336L34.7503 27.4739C34.1704 28.4156 32.7516 28.7065 30.0884 28.0566C30.2657 27.6767 31.2886 27.9694 32.0467 28.0477C31.76 27.7218 31.4792 27.3918 31.5873 26.9386L31.5882 26.9336Z" fill="#050505"/>
<path fill-rule="evenodd" clip-rule="evenodd" d="M47.3764 29.9746C51.0691 31.4464 51.6081 29.4876 47.3764 29.9746V29.9746Z" fill="#050505"/>
<path fill-rule="evenodd" clip-rule="evenodd" d="M99.9656 38.9597C99.8231 38.2688 102.932 38.9692 101.805 39.6175L100.539 39.4012C100.707 39.1376 100.345 39.04 99.9656 38.9597Z" fill="#050505"/>
<path fill-rule="evenodd" clip-rule="evenodd" d="M108.201 40.3668L109.467 40.583C109.638 41.3455 108.454 41.0664 107.456 40.9266C107.622 40.678 108.144 40.7006 108.201 40.3668Z" fill="#050505"/>
<path fill-rule="evenodd" clip-rule="evenodd" d="M135.282 46.0294C134.208 45.1691 132.975 45.5328 131.474 45.3789C131.754 44.4319 135.825 44.4611 135.282 46.0294Z" fill="#050505"/>
<path fill-rule="evenodd" clip-rule="evenodd" d="M113.785 42.013C116.425 43.3357 117.614 41.4315 113.785 42.013V42.013Z" fill="#050505"/>
<path fill-rule="evenodd" clip-rule="evenodd" d="M25.6505 27.2984C25.5524 26.6766 29.3061 27.3128 28.131 28.0606C26.7809 27.9786 26.4964 27.5505 25.6505 27.2984Z" fill="#050505"/>
<path fill-rule="evenodd" clip-rule="evenodd" d="M42.6475 30.8894C38.6525 29.8121 41.0781 31.6724 42.6475 30.8894V30.8894Z" fill="#050505"/>
<path fill-rule="evenodd" clip-rule="evenodd" d="M74.9116 36.7454C77.1567 38.0776 77.9058 35.9957 74.9116 36.7454V36.7454Z" fill="#050505"/>
<path fill-rule="evenodd" clip-rule="evenodd" d="M48.1853 32.8661C49.7573 33.6526 49.2913 36.2904 48.8188 36.7532C48.3022 36.3983 47.4505 36.1502 46.3442 35.9868C46.8646 35.1836 46.2862 34.7413 44.6091 34.6598C45.2877 33.6785 47.156 33.5978 48.1853 32.8661Z" fill="#050505"/>
<path fill-rule="evenodd" clip-rule="evenodd" d="M84.1325 40.0385L85.3983 40.2548C85.5744 41.0181 84.3867 40.7331 83.3822 40.6025C83.549 40.3439 84.0854 40.374 84.1325 40.0385Z" fill="#050505"/>
<path fill-rule="evenodd" clip-rule="evenodd" d="M10.505 28.1511C11.6092 28.4166 11.8525 28.9658 11.5427 29.7025L9.64151 29.3776C9.65926 28.7654 10.5368 28.8025 10.505 28.1511Z" fill="#050505"/>
<path fill-rule="evenodd" clip-rule="evenodd" d="M14.3076 28.8007L16.2088 29.1256L16.0378 30.1269L14.1365 29.8021L14.3076 28.8007Z" fill="#050505"/>
<path fill-rule="evenodd" clip-rule="evenodd" d="M17.4697 29.341L20.0113 29.7752C19.6059 30.593 17.8722 30.3942 16.6161 30.5693C17.1586 30.3543 17.4256 29.9282 17.4747 29.3418L17.4697 29.341Z" fill="#050505"/>
<path fill-rule="evenodd" clip-rule="evenodd" d="M50.9531 35.7437L52.219 35.96L52.1041 36.6326L50.8382 36.4163L50.9531 35.7437Z" fill="#050505"/>
<path fill-rule="evenodd" clip-rule="evenodd" d="M21.6281 31.764C22.8683 33.7448 23.462 30.8981 21.6281 31.764V31.764Z" fill="#050505"/>
<path fill-rule="evenodd" clip-rule="evenodd" d="M11.3197 31.0385C12.4861 31.8069 12.1289 31.146 13.8513 31.471C13.4793 32.0637 13.377 32.8717 11.722 32.4813C11.9036 31.8971 11.0676 31.6466 11.3147 31.0376L11.3197 31.0385Z" fill="#050505"/>
<path fill-rule="evenodd" clip-rule="evenodd" d="M32.6925 35.7207C32.7125 34.9755 34.9667 35.9554 35.9174 35.923C35.533 36.1394 35.1644 36.3532 35.1208 36.8175C33.855 36.6012 34.4567 35.7709 32.6933 35.7157L32.6925 35.7207Z" fill="#050505"/>
<path fill-rule="evenodd" clip-rule="evenodd" d="M28.1975 35.2963L29.4683 35.5134L29.3534 36.1859L28.0826 35.9688L28.1975 35.2963Z" fill="#050505"/>
<path fill-rule="evenodd" clip-rule="evenodd" d="M31.3696 35.8382L32.6355 36.0545L32.5206 36.727L31.2547 36.5107L31.3696 35.8382Z" fill="#050505"/>
<path fill-rule="evenodd" clip-rule="evenodd" d="M41.9704 38.68C44.5272 39.2348 41.7908 39.5517 42.9511 40.5652C40.7628 40.5451 42.1412 39.3552 41.9704 38.68Z" fill="#050505"/>
<path fill-rule="evenodd" clip-rule="evenodd" d="M46.9297 40.2144C47.7877 40.8737 50.5215 40.9306 49.8678 42.0956C47.7833 41.8266 46.883 41.1754 46.9297 40.2144Z" fill="#050505"/>
<path fill-rule="evenodd" clip-rule="evenodd" d="M71.6357 44.4355C72.4443 44.6967 72.5281 45.193 73.4229 45.4279C73.0218 46.2208 70.9573 45.0272 71.6357 44.4355Z" fill="#050505"/>
<path fill-rule="evenodd" clip-rule="evenodd" d="M82.3508 46.6098C83.2465 46.8397 82.404 47.6443 83.4497 47.8332C83.5203 48.1375 83.1429 48.1038 82.7581 48.0535L81.4873 47.8363C81.51 47.2249 82.3826 47.2612 82.3508 46.6098Z" fill="#050505"/>
<path fill-rule="evenodd" clip-rule="evenodd" d="M94.7388 50.444L92.2021 50.0106C92.2603 48.8925 95.4053 49.2042 94.7388 50.444Z" fill="#050505"/>
<path fill-rule="evenodd" clip-rule="evenodd" d="M41.6274 40.6877L42.8933 40.904L42.7801 41.5665L41.5142 41.3503L41.6274 40.6877Z" fill="#050505"/>
<path fill-rule="evenodd" clip-rule="evenodd" d="M61.8543 44.482C54.6351 42.8691 57.142 44.7023 61.8543 44.482V44.482Z" fill="#050505"/>
<path fill-rule="evenodd" clip-rule="evenodd" d="M53.4952 43.7408C53.7712 43.3213 55.1314 43.7332 56.0889 43.8404C55.7823 44.5879 54.2642 44.3233 53.4952 43.7408Z" fill="#050505"/>
<path fill-rule="evenodd" clip-rule="evenodd" d="M78.2633 47.629L80.1645 47.9539C80.2504 48.5274 79.4651 48.4291 79.3572 48.8516L78.0864 48.6345L78.2583 47.6282L78.2633 47.629Z" fill="#050505"/>
<path fill-rule="evenodd" clip-rule="evenodd" d="M38.2852 41.1421L40.1914 41.4678L39.9633 42.8029C39.0794 42.3545 38.0322 41.9654 38.2852 41.1421Z" fill="#050505"/>
<path fill-rule="evenodd" clip-rule="evenodd" d="M127.576 56.7414C128.669 55.9078 129.978 57.603 132.019 57.5005C131.563 58.5815 128.974 57.17 127.576 56.7414Z" fill="#050505"/>
<path fill-rule="evenodd" clip-rule="evenodd" d="M88.8682 50.4766C85.9993 49.0277 87.143 51.3047 88.8682 50.4766V50.4766Z" fill="#050505"/>
<path fill-rule="evenodd" clip-rule="evenodd" d="M19.7935 38.6749C20.6724 39.1224 21.7196 39.5116 21.4674 40.3299C20.9364 40.0289 20.3946 39.7313 20.2016 40.1136C19.3549 39.8664 19.8184 39.1867 19.7935 38.6749Z" fill="#050505"/>
<path fill-rule="evenodd" clip-rule="evenodd" d="M65.9972 46.9074C65.284 47.3444 64.1726 47.3904 63.4036 46.8078C64.116 46.3758 65.2266 46.3348 65.9972 46.9074Z" fill="#050505"/>
<path fill-rule="evenodd" clip-rule="evenodd" d="M115.48 55.0235C115.201 55.9397 114.136 56.255 112.081 55.8117C112.456 54.9631 113.936 54.9699 115.48 55.0235Z" fill="#050505"/>
<path fill-rule="evenodd" clip-rule="evenodd" d="M118.647 55.5646C119.518 56.2671 120.955 57.6098 119.519 58.1182C118.085 57.6014 117.234 56.0614 118.647 55.5646Z" fill="#050505"/>
<path fill-rule="evenodd" clip-rule="evenodd" d="M68.4768 47.6746L69.7426 47.8908L69.6286 48.5584L68.3627 48.3421L68.4768 47.6746Z" fill="#050505"/>
<path fill-rule="evenodd" clip-rule="evenodd" d="M29.7598 41.4031C31.6876 41.7222 33.962 41.9262 33.3962 43.055C32.4146 42.4309 29.34 42.485 29.7598 41.4031Z" fill="#050505"/>
<path fill-rule="evenodd" clip-rule="evenodd" d="M58.7986 47.0568C59.0049 46.328 61.5089 47.3711 62.659 47.3677C62.4477 48.0956 59.9438 47.0525 58.7986 47.0568Z" fill="#050505"/>
<path fill-rule="evenodd" clip-rule="evenodd" d="M13.6335 40.3706C10.7608 39.0338 15.7043 38.9555 13.6335 40.3706V40.3706Z" fill="#050505"/>
<path fill-rule="evenodd" clip-rule="evenodd" d="M15.5867 40.3608C15.45 39.6658 18.565 40.3621 17.4359 41.0203L16.1701 40.804C16.3377 40.5404 15.9804 40.4486 15.5917 40.3617L15.5867 40.3608Z" fill="#050505"/>
<path fill-rule="evenodd" clip-rule="evenodd" d="M126.489 59.309C125.492 61.1333 129.216 59.9133 126.489 59.309V59.309Z" fill="#050505"/>
<path fill-rule="evenodd" clip-rule="evenodd" d="M42.7263 45.6796C43.4342 44.7956 44.2498 46.3911 45.9033 46.2224C45.605 46.9816 43.0795 45.9451 42.7263 45.6796Z" fill="#050505"/>
<path fill-rule="evenodd" clip-rule="evenodd" d="M73.8375 50.6568C75.3456 51.1298 73.8816 52.4025 72.3444 51.7707C72.0377 50.7851 73.7144 51.3177 73.8375 50.6568Z" fill="#050505"/>
<path fill-rule="evenodd" clip-rule="evenodd" d="M111.852 57.1518C112.955 57.4223 113.204 57.9724 112.901 58.6999C111.056 58.6719 111.333 57.95 109.79 57.83C109.728 57.0247 111.684 57.7743 111.857 57.1526L111.852 57.1518Z" fill="#050505"/>
<path fill-rule="evenodd" clip-rule="evenodd" d="M32.5269 44.2857C32.5519 43.5414 34.8061 44.5213 35.7518 44.488C35.7367 45.234 33.4767 44.2583 32.5269 44.2857Z" fill="#050505"/>
<path fill-rule="evenodd" clip-rule="evenodd" d="M30.6255 43.9609C31.5919 44.4644 31.9326 45.102 31.0328 45.4046C30.1919 45.1532 30.6496 44.4777 30.6255 43.9609Z" fill="#050505"/>
<path fill-rule="evenodd" clip-rule="evenodd" d="M39.2781 46.8133L40.5439 47.0296L40.3158 48.3647L39.05 48.1484L39.2781 46.8133Z" fill="#050505"/>
<path fill-rule="evenodd" clip-rule="evenodd" d="M69.0003 52.235C68.911 51.6814 72.5047 52.3569 70.8437 52.8986C71.109 52.8107 68.9996 52.2093 69.0003 52.235Z" fill="#050505"/>
<path fill-rule="evenodd" clip-rule="evenodd" d="M15.1306 43.0311C15.5935 44.269 13.0705 43.2175 11.8544 43.1584C12.4748 42.7568 13.9764 43.0287 15.1306 43.0311Z" fill="#050505"/>
<path fill-rule="evenodd" clip-rule="evenodd" d="M4.82798 42.3014C5.06856 41.4914 6.99359 42.574 7.35965 42.7339C6.77569 43.6699 6.06305 42.1894 4.82798 42.3014Z" fill="#050505"/>
<path fill-rule="evenodd" clip-rule="evenodd" d="M7.93803 43.1763C10.0702 42.269 9.89893 44.5573 7.93803 43.1763V43.1763Z" fill="#050505"/>
<path fill-rule="evenodd" clip-rule="evenodd" d="M13.6417 44.1508C13.6275 44.8918 11.3666 43.921 10.4184 43.9385C10.6268 43.1076 12.9158 43.5551 13.6417 44.1508Z" fill="#050505"/>
<path fill-rule="evenodd" clip-rule="evenodd" d="M85.0761 57.3914C80.5001 56.7839 83.0291 55.4676 85.0761 57.3914V57.3914Z" fill="#050505"/>
<path fill-rule="evenodd" clip-rule="evenodd" d="M10.3597 44.2823L12.261 44.6071L12.0907 45.6035C10.7005 45.4275 10.1213 44.9901 10.3597 44.2823Z" fill="#050505"/>
<path fill-rule="evenodd" clip-rule="evenodd" d="M112.272 62.3765C114.399 61.4733 114.228 63.7566 112.272 62.3765V62.3765Z" fill="#050505"/>
<path fill-rule="evenodd" clip-rule="evenodd" d="M14.0489 45.5945C15.3768 46.1649 13.192 47.1708 11.8616 46.9435C11.4043 45.5836 13.3759 46.0948 14.0489 45.5945Z" fill="#050505"/>
<path fill-rule="evenodd" clip-rule="evenodd" d="M86.9211 58.0451C88.4903 58.3696 86.9165 59.2082 86.6913 59.3902C86.1919 59.2331 86.1138 58.9428 85.4833 58.8351L85.5974 58.1676C86.3227 58.3479 86.737 58.2854 86.9211 58.0451Z" fill="#050505"/>
<path fill-rule="evenodd" clip-rule="evenodd" d="M126.207 64.7572C127.245 64.8422 127.245 65.2576 128.05 65.4208C128.197 66.1125 125.082 65.4162 126.207 64.7572Z" fill="#050505"/>
<path fill-rule="evenodd" clip-rule="evenodd" d="M48.8386 51.8871C49.5982 52.1656 50.066 52.5378 49.9325 53.1097C48.8995 53.0255 48.9057 52.601 48.0991 52.4478C48.265 52.1942 48.7865 52.2218 48.8436 51.888L48.8386 51.8871Z" fill="#050505"/>
<path fill-rule="evenodd" clip-rule="evenodd" d="M106.283 63.0759C106.428 62.5571 106.198 61.7488 107.146 61.8493C107.007 62.3689 107.232 63.1714 106.283 63.0759Z" fill="#050505"/>
<path fill-rule="evenodd" clip-rule="evenodd" d="M29.7124 49.3064C29.493 50.0226 27.9955 49.7565 26.4362 49.4337C27.0517 49.0312 28.564 49.2999 29.7124 49.3064Z" fill="#050505"/>
<path fill-rule="evenodd" clip-rule="evenodd" d="M80.4102 57.9683L81.681 58.1854L81.5669 58.853L80.2961 58.6359L80.4102 57.9683Z" fill="#050505"/>
<path fill-rule="evenodd" clip-rule="evenodd" d="M4.83603 46.0816C5.07163 45.6296 10.1802 46.2 9.21105 47.1777C6.97098 47.0719 6.85882 46.2631 4.83603 46.0816Z" fill="#050505"/>
<path fill-rule="evenodd" clip-rule="evenodd" d="M75.8069 58.2073C73.8402 56.8305 73.6739 59.1196 75.8069 58.2073V58.2073Z" fill="#050505"/>
<path fill-rule="evenodd" clip-rule="evenodd" d="M51.6685 54.4318C51.9049 53.6159 53.83 54.6986 54.2051 54.8652C53.9645 55.6752 52.0386 54.5976 51.6685 54.4318Z" fill="#050505"/>
<path fill-rule="evenodd" clip-rule="evenodd" d="M88.4223 60.7114C88.9234 60.8585 88.9957 61.1529 89.6319 61.2565C89.159 61.9909 86.5929 60.9526 88.4223 60.7114Z" fill="#050505"/>
<path fill-rule="evenodd" clip-rule="evenodd" d="M31.9686 51.4095C33.0621 51.4682 33.1149 51.8771 33.1195 52.2983C32.5945 52.142 32.5026 52.3211 32.4379 52.5203C31.6977 52.3374 32.0056 51.8209 31.9686 51.4095Z" fill="#050505"/>
<path fill-rule="evenodd" clip-rule="evenodd" d="M82.6046 60.4044C84.7303 60.3421 82.9105 61.5744 85.0271 61.5054C84.6945 62.5253 81.773 61.5339 82.6046 60.4044Z" fill="#050505"/>
<path fill-rule="evenodd" clip-rule="evenodd" d="M19.0665 50.5844C22.3802 49.879 22.6846 52.2536 19.0665 50.5844V50.5844Z" fill="#050505"/>
<path fill-rule="evenodd" clip-rule="evenodd" d="M30.9853 53.3078C29.8673 52.2862 27.8827 53.3468 26.6095 52.2166C27.5582 52.0762 32.063 51.6051 30.9853 53.3078Z" fill="#050505"/>
<path fill-rule="evenodd" clip-rule="evenodd" d="M34.9069 53.2908C37.0391 52.3835 36.8637 54.6659 34.9069 53.2908V53.2908Z" fill="#050505"/>
<path fill-rule="evenodd" clip-rule="evenodd" d="M83.5795 62.2938C83.0839 62.9218 82.3903 63.3929 80.2463 62.7549C80.2036 62.1374 81.1677 61.1895 79.2036 61.2026C81.1107 60.0877 81.3401 61.8548 83.5795 62.2938Z" fill="#050505"/>
<path fill-rule="evenodd" clip-rule="evenodd" d="M43.096 55.0283C43.4105 54.354 46.1021 55.465 45.5136 56.1284C44.9623 56.0958 44.936 55.8913 44.9353 55.6861C44.3238 55.5867 44.374 56.0106 44.1957 56.2468C42.8808 57.3347 44.4626 54.9542 43.101 55.0292L43.096 55.0283Z" fill="#050505"/>
<path fill-rule="evenodd" clip-rule="evenodd" d="M98.9033 64.2249C97.945 65.1686 100.91 64.8292 99.946 65.7771C98.388 65.716 96.9694 65.7659 94.8148 65.2491C95.9813 64.7613 96.7831 63.9857 98.8975 64.229L98.9033 64.2249Z" fill="#050505"/>
<path fill-rule="evenodd" clip-rule="evenodd" d="M42.9811 55.7009C38.977 54.6168 41.4068 56.483 42.9811 55.7009V55.7009Z" fill="#050505"/>
<path fill-rule="evenodd" clip-rule="evenodd" d="M57.4943 58.5189C57.7961 59.5036 54.546 57.7742 54.8478 58.7589C52.7209 57.811 56.2311 58.1082 57.4943 58.5189Z" fill="#050505"/>
<path fill-rule="evenodd" clip-rule="evenodd" d="M14.0014 53.4978C13.9033 52.876 17.657 53.5122 16.481 54.265C15.3424 54.1114 15.2155 53.6283 14.0014 53.4978Z" fill="#050505"/>
<path fill-rule="evenodd" clip-rule="evenodd" d="M85.5506 66.0659C84.5551 66.4803 81.9139 66.6289 81.0028 65.981C81.9992 65.5616 84.6354 65.4121 85.5506 66.0659Z" fill="#050505"/>
<path fill-rule="evenodd" clip-rule="evenodd" d="M119.194 71.4705C120.006 71.8347 120.253 72.3897 120.232 73.0219C118.235 72.8396 118.111 71.7982 119.194 71.4705Z" fill="#050505"/>
<path fill-rule="evenodd" clip-rule="evenodd" d="M8.24066 52.857C8.2314 53.9578 5.25311 53.5976 4.32329 52.8799C4.53919 52.0349 6.557 52.5745 8.24066 52.857Z" fill="#050505"/>
<path fill-rule="evenodd" clip-rule="evenodd" d="M57.0373 61.1941L60.2044 61.7352C60.9971 62.9269 55.894 62.055 57.0373 61.1941Z" fill="#050505"/>
<path fill-rule="evenodd" clip-rule="evenodd" d="M15.7308 54.8289C17.1085 55.1976 16.241 56.926 14.2327 55.942C14.3558 55.2811 16.0325 55.8137 15.7308 54.8289Z" fill="#050505"/>
<path fill-rule="evenodd" clip-rule="evenodd" d="M97.4735 68.7951C97.9738 68.9472 98.0519 69.2374 98.6881 69.341C98.523 69.5897 97.9908 69.5654 97.9337 69.8992C97.4376 69.7529 97.3603 69.4577 96.7249 69.3491C96.9 69.1021 97.4165 69.1289 97.4735 68.7951Z" fill="#050505"/>
<path fill-rule="evenodd" clip-rule="evenodd" d="M76.509 65.5516C76.8 66.5396 73.5623 64.7969 73.8583 65.7857C71.7413 64.8395 75.2407 65.1401 76.509 65.5516Z" fill="#050505"/>
<path fill-rule="evenodd" clip-rule="evenodd" d="M85.3225 67.401C83.3666 66.0209 83.1895 68.3132 85.3225 67.401V67.401Z" fill="#050505"/>
<path fill-rule="evenodd" clip-rule="evenodd" d="M50.47 61.4462L51.7308 61.6617L51.6168 62.3292L50.3559 62.1138L50.47 61.4462Z" fill="#050505"/>
<path fill-rule="evenodd" clip-rule="evenodd" d="M66.3104 64.1526C66.8398 64.6122 68.6306 64.6567 68.0397 65.4838C66.6495 65.3078 66.072 64.8605 66.3104 64.1526Z" fill="#050505"/>
<path fill-rule="evenodd" clip-rule="evenodd" d="M80.0824 67.5414C82.6353 66.7727 83.1392 68.9968 80.0824 67.5414V67.5414Z" fill="#050505"/>
<path fill-rule="evenodd" clip-rule="evenodd" d="M35.0881 59.8539L36.3589 60.071L36.2449 60.7386L34.9741 60.5214L35.0881 59.8539Z" fill="#050505"/>
<path fill-rule="evenodd" clip-rule="evenodd" d="M97.0173 71.4654C99.3801 71.8998 96.834 72.7774 98.06 73.0176C96.8387 73.9164 95.8931 71.4373 97.0173 71.4654Z" fill="#050505"/>
<path fill-rule="evenodd" clip-rule="evenodd" d="M77.9489 68.5458C78.45 68.693 78.5273 68.9882 79.1627 69.0967C78.6906 69.8262 76.1295 68.7887 77.9489 68.5458Z" fill="#050505"/>
<path fill-rule="evenodd" clip-rule="evenodd" d="M19.5991 58.92C20.3488 59.1968 20.8265 59.5707 20.698 60.1435C19.9442 59.8609 19.4706 59.4928 19.5991 58.92Z" fill="#050505"/>
<path fill-rule="evenodd" clip-rule="evenodd" d="M122.714 77.5734C120.803 76.7085 118.868 77.3315 119.031 76.257C120.561 76.2723 123.177 76.1809 122.714 77.5734Z" fill="#050505"/>
<path fill-rule="evenodd" clip-rule="evenodd" d="M85.444 70.5186L86.7098 70.7349C86.881 71.4973 85.6983 71.2132 84.6945 71.0776C84.8663 70.8198 85.387 70.8524 85.444 70.5186Z" fill="#050505"/>
<path fill-rule="evenodd" clip-rule="evenodd" d="M93.6222 72.2594C95.9613 72.4437 95.9967 73.3726 95.8687 74.3608C93.3016 74.2555 94.0731 73.0594 93.6222 72.2594Z" fill="#050505"/>
<path fill-rule="evenodd" clip-rule="evenodd" d="M4.04614 58.329L5.94737 58.6538L5.83332 59.3214L3.93209 58.9965L4.04614 58.329Z" fill="#050505"/>
<path fill-rule="evenodd" clip-rule="evenodd" d="M115.574 77.384C111.579 76.3016 114.01 78.1628 115.574 77.384V77.384Z" fill="#050505"/>
<path fill-rule="evenodd" clip-rule="evenodd" d="M82.5081 72.4217C82.2371 72.8419 80.867 72.4284 79.9136 72.327C80.2251 71.5804 81.7374 71.849 82.5081 72.4217Z" fill="#050505"/>
<path fill-rule="evenodd" clip-rule="evenodd" d="M126.288 79.5582C126.35 80.3634 124.389 79.613 124.216 80.2347C122.422 79.5488 125.205 79.291 126.288 79.5582Z" fill="#050505"/>
<path fill-rule="evenodd" clip-rule="evenodd" d="M64.0743 69.6157C66.2064 68.7084 66.0352 70.9967 64.0743 69.6157V69.6157Z" fill="#050505"/>
<path fill-rule="evenodd" clip-rule="evenodd" d="M3.18366 59.5506C3.08057 58.9279 6.83509 59.5592 5.66326 60.3178C4.51883 60.1684 4.39858 59.6761 3.18366 59.5506Z" fill="#050505"/>
<path fill-rule="evenodd" clip-rule="evenodd" d="M107.679 77.7527C108.235 77.7862 108.257 77.9849 108.257 78.1951C108.378 78.6823 109.804 78.7413 110.736 78.9622C109.964 79.9839 109.532 78.9256 107.507 78.7541L107.679 77.7527Z" fill="#050505"/>
<path fill-rule="evenodd" clip-rule="evenodd" d="M72.7168 72.4664C73.9709 72.5422 73.3846 74.1494 71.9103 73.3592L72.0244 72.6916C72.5544 72.8488 72.6472 72.6647 72.7168 72.4664Z" fill="#050505"/>
<path fill-rule="evenodd" clip-rule="evenodd" d="M94.782 76.9234C95.3958 77.0385 95.2037 77.4159 95.2984 77.6987C95.3412 78.1059 96.4115 78.1811 97.1475 78.3582C97.0079 79.7135 95.3678 78.9667 93.8623 78.4788C94.4648 78.1818 94.8545 77.7254 94.7829 76.9184L94.782 76.9234Z" fill="#050505"/>
<path fill-rule="evenodd" clip-rule="evenodd" d="M100.486 77.8979L101.752 78.1142L101.638 78.7818L100.372 78.5655L100.486 77.8979Z" fill="#050505"/>
<path fill-rule="evenodd" clip-rule="evenodd" d="M104.288 78.5476C105.042 78.8302 105.516 79.1982 105.382 79.7702C104.343 79.6901 104.349 79.2706 103.538 79.1116C103.703 78.8629 104.23 78.8913 104.287 78.5526L104.288 78.5476Z" fill="#050505"/>
<path fill-rule="evenodd" clip-rule="evenodd" d="M61.7738 71.6273C63.1222 71.7192 63.4125 72.1431 64.2526 72.3994C64.3498 73.0262 60.5962 72.39 61.7738 71.6273Z" fill="#050505"/>
<path fill-rule="evenodd" clip-rule="evenodd" d="M70.5924 73.4776C69.1058 73.926 69.5073 74.656 67.0774 74.9433C65.1493 73.6397 69.4222 72.4624 70.5924 73.4776Z" fill="#050505"/>
<path fill-rule="evenodd" clip-rule="evenodd" d="M34.9904 68.0818C34.4969 68.459 33.5289 68.473 32.3398 68.316C31.8763 67.2011 33.8558 67.9649 34.9904 68.0818Z" fill="#050505"/>
<path fill-rule="evenodd" clip-rule="evenodd" d="M19.7285 65.8178C21.5149 66.4255 20.3482 66.4364 20.1299 67.2656C17.4445 66.776 18.7569 66.2414 19.7285 65.8178Z" fill="#050505"/>
<path fill-rule="evenodd" clip-rule="evenodd" d="M65.9206 74.0586C63.9638 72.6834 63.7933 74.9667 65.9206 74.0586V74.0586Z" fill="#050505"/>
<path fill-rule="evenodd" clip-rule="evenodd" d="M78.0262 75.7782L79.2921 75.9945L79.1201 77.0008L77.2189 76.676C77.1371 76.1083 77.9183 76.2007 78.0262 75.7782Z" fill="#050505"/>
<path fill-rule="evenodd" clip-rule="evenodd" d="M120.479 83.0315C120.135 83.3983 119.552 83.5807 118.463 83.3792C118.811 83.0132 119.405 82.8275 120.479 83.0315Z" fill="#050505"/>
<path fill-rule="evenodd" clip-rule="evenodd" d="M84.9329 77.3069C85.9717 77.387 85.9705 77.8123 86.7771 77.9655C86.6062 78.2183 86.0855 78.1858 86.0276 78.5245L84.7618 78.3083L84.9338 77.3019L84.9329 77.3069Z" fill="#050505"/>
<path fill-rule="evenodd" clip-rule="evenodd" d="M125.489 84.2361C126.742 84.3169 126.158 85.9142 124.682 85.1339L124.796 84.4663C125.327 84.6186 125.419 84.4394 125.488 84.2411L125.489 84.2361Z" fill="#050505"/>
<path fill-rule="evenodd" clip-rule="evenodd" d="M37.9855 69.6292C37.8624 70.2901 36.1798 69.7617 36.4916 70.7481C34.3026 70.1639 36.1698 69.2523 37.9855 69.6292Z" fill="#050505"/>
<path fill-rule="evenodd" clip-rule="evenodd" d="M122.896 84.1366C123.655 84.415 124.123 84.7872 123.996 85.35C123.242 85.0674 122.768 84.7044 122.896 84.1366Z" fill="#050505"/>
<path fill-rule="evenodd" clip-rule="evenodd" d="M87.3504 78.4071C88.4989 78.5623 88.6259 79.0454 89.83 79.1742C89.3414 79.5522 88.3742 79.5613 87.1793 79.4084L87.3504 78.4071Z" fill="#050505"/>
<path fill-rule="evenodd" clip-rule="evenodd" d="M91.7314 79.4991C90.7359 81.3184 94.4527 80.1076 91.7314 79.4991V79.4991Z" fill="#050505"/>
<path fill-rule="evenodd" clip-rule="evenodd" d="M44.7319 72.156C43.5587 71.7864 47.4085 72.7569 45.1904 73.27C45.3297 73.2323 41.3957 71.1399 42.1391 72.0514C41.6361 71.4374 42.8262 71.5586 44.7319 72.156Z" fill="#050505"/>
<path fill-rule="evenodd" clip-rule="evenodd" d="M72.6678 76.5804C73.5596 76.9224 76.0055 76.7507 75.777 77.4602C76.0315 78.8112 71.5483 77.4812 72.6678 76.5804Z" fill="#050505"/>
<path fill-rule="evenodd" clip-rule="evenodd" d="M115.756 83.9422C115.412 84.309 114.829 84.4914 113.735 84.2841C113.564 83.5216 114.751 83.8115 115.756 83.9422Z" fill="#050505"/>
<path fill-rule="evenodd" clip-rule="evenodd" d="M58.666 74.5367C60.6008 74.9339 59.6891 76.5625 57.7496 76.1029C57.8859 75.634 58.0106 75.1733 57.2861 74.988C57.5071 74.6515 58.5853 74.9792 58.666 74.5367Z" fill="#050505"/>
<path fill-rule="evenodd" clip-rule="evenodd" d="M101.759 81.8994C101.884 82.9923 99.961 82.8227 99.113 82.1344C99.3624 81.572 100.33 81.5579 101.759 81.8994Z" fill="#050505"/>
<path fill-rule="evenodd" clip-rule="evenodd" d="M118.23 84.7134L119.495 84.9297C119.672 85.693 118.488 85.4139 117.485 85.2733C117.65 85.0246 118.177 85.0481 118.23 84.7134Z" fill="#050505"/>
<path fill-rule="evenodd" clip-rule="evenodd" d="M83.3258 79.0883C84.2256 79.3241 83.3731 80.127 84.4255 80.3068C84.1891 81.1227 82.2591 80.0392 81.8939 79.8743C82.1913 79.479 83.0952 79.5412 83.3308 79.0892L83.3258 79.0883Z" fill="#050505"/>
<path fill-rule="evenodd" clip-rule="evenodd" d="M93.2913 81.8216C94.4569 82.595 94.1006 81.9291 95.823 82.2542C96.9104 83.0962 95.3526 82.7942 95.537 83.9281C95.48 83.0057 93.3143 82.7638 93.2913 81.8216Z" fill="#050505"/>
<path fill-rule="evenodd" clip-rule="evenodd" d="M100.837 83.4647C98.4826 81.8472 99.1593 84.2854 100.837 83.4647V83.4647Z" fill="#050505"/>
<path fill-rule="evenodd" clip-rule="evenodd" d="M41.1655 73.9514C41.0953 75.1699 39.9484 75.5431 37.7025 75.0825C37.5459 73.697 39.3751 73.8454 41.1655 73.9514Z" fill="#050505"/>
<path fill-rule="evenodd" clip-rule="evenodd" d="M34.077 73.4273C35.2318 72.4094 35.1727 74.2503 34.5983 74.2034C34.2151 74.1738 33.8782 73.6036 34.077 73.4273Z" fill="#050505"/>
<path fill-rule="evenodd" clip-rule="evenodd" d="M115.242 86.9512L117.143 87.276L116.972 88.2774C115.577 88.1005 114.997 87.6632 115.242 86.9512Z" fill="#050505"/>
<path fill-rule="evenodd" clip-rule="evenodd" d="M6.13699 68.9971C5.99447 68.3062 9.10451 69.0017 7.98119 69.6557L6.71039 69.4386C6.87719 69.18 6.51581 69.0824 6.13699 68.9971Z" fill="#050505"/>
<path fill-rule="evenodd" clip-rule="evenodd" d="M20.5914 72.159C21.4323 72.4103 20.9804 73.0817 20.9938 73.6018L19.7329 73.3864C19.8964 73.1169 19.5441 73.026 19.1595 72.9449C19.6253 72.6707 20.6735 72.8447 20.5964 72.1598L20.5914 72.159Z" fill="#050505"/>
<path fill-rule="evenodd" clip-rule="evenodd" d="M60.9817 80.0904C59.3349 80.25 58.5127 78.6636 57.8147 79.5493C55.761 78.5319 62.2245 78.4979 60.9817 80.0904Z" fill="#050505"/>
<path fill-rule="evenodd" clip-rule="evenodd" d="M115.591 88.7336C113.23 87.1203 113.913 89.5544 115.591 88.7336V88.7336Z" fill="#050505"/>
<path fill-rule="evenodd" clip-rule="evenodd" d="M103.553 86.6769C104.308 86.9545 104.776 87.3267 104.648 87.8945C102.399 87.8077 102.561 87.0099 103.553 86.6769Z" fill="#050505"/>
<path fill-rule="evenodd" clip-rule="evenodd" d="M122.561 89.9244L123.826 90.1407L123.712 90.8083L122.446 90.592L122.561 89.9244Z" fill="#050505"/>
<path fill-rule="evenodd" clip-rule="evenodd" d="M6.4814 70.7788C6.34385 70.0887 9.45389 70.7842 8.3256 71.4374L7.05977 71.2211C7.22828 70.9525 6.86605 70.8599 6.4814 70.7788Z" fill="#050505"/>
<path fill-rule="evenodd" clip-rule="evenodd" d="M31.1403 75.3354C31.6173 74.6068 34.1734 75.6434 32.3491 75.8855C31.843 75.7375 31.7757 75.444 31.1403 75.3354Z" fill="#050505"/>
<path fill-rule="evenodd" clip-rule="evenodd" d="M99.6366 86.6948C101.432 86.981 100.514 88.6137 98.7161 88.2551C98.3566 87.2195 99.7627 87.5418 99.6366 86.6948Z" fill="#050505"/>
<path fill-rule="evenodd" clip-rule="evenodd" d="M105.34 87.6693C106.718 87.7406 106.466 88.3487 106.431 88.8811C105.936 88.7298 105.858 88.4396 105.227 88.3319L105.341 87.6643L105.34 87.6693Z" fill="#050505"/>
<path fill-rule="evenodd" clip-rule="evenodd" d="M29.239 75.0105C28.8912 75.3715 28.3075 75.5589 27.2188 75.3524C27.5666 74.9914 28.1503 74.804 29.239 75.0105Z" fill="#050505"/>
<path fill-rule="evenodd" clip-rule="evenodd" d="M67.2075 81.836C67.2226 81.09 69.4768 82.0699 70.4316 82.0434C70.4124 82.7835 68.1524 81.8078 67.2075 81.836Z" fill="#050505"/>
<path fill-rule="evenodd" clip-rule="evenodd" d="M18.3589 73.8335C15.4792 72.3879 16.6328 74.6666 18.3589 73.8335V73.8335Z" fill="#050505"/>
<path fill-rule="evenodd" clip-rule="evenodd" d="M7.46206 72.664C7.2127 73.2264 6.2447 73.2405 4.81634 72.899C4.87126 71.9496 6.78895 72.1183 7.46206 72.664Z" fill="#050505"/>
<path fill-rule="evenodd" clip-rule="evenodd" d="M29.0111 76.3457C30.2052 75.9652 30.6655 76.6796 32.8706 76.6616C33.2411 77.9913 29.421 76.6977 29.0111 76.3457Z" fill="#050505"/>
<path fill-rule="evenodd" clip-rule="evenodd" d="M74.6355 84.1409C75.0349 83.5375 79.1863 84.298 77.6885 85.3496C76.5011 85.0031 76.2176 84.3599 74.6355 84.1409Z" fill="#050505"/>
<path fill-rule="evenodd" clip-rule="evenodd" d="M128.5 93.344C128.742 92.529 130.657 93.6099 131.032 93.7765C130.862 94.0243 130.345 94.0026 130.288 94.3364L129.017 94.1192C129.192 93.7543 128.984 93.5035 128.5 93.344Z" fill="#050505"/>
<path fill-rule="evenodd" clip-rule="evenodd" d="M94.7377 88.606C92.6674 88.3138 91.3359 88.6913 89.039 87.6324C90.3661 86.7721 94.5965 86.9207 94.7377 88.606Z" fill="#050505"/>
<path fill-rule="evenodd" clip-rule="evenodd" d="M104.425 89.2305C105.212 89.7085 105.507 90.3434 106.785 90.6694C105.692 91.503 104.388 89.8036 102.347 89.9111C102.284 89.1109 104.237 89.8496 104.42 89.2297L104.425 89.2305Z" fill="#050505"/>
<path fill-rule="evenodd" clip-rule="evenodd" d="M14.9588 74.6267C14.8212 73.9367 17.9263 74.6313 16.8021 75.2903L15.5313 75.0732C15.6998 74.8046 15.3376 74.712 14.9538 74.6259L14.9588 74.6267Z" fill="#050505"/>
<path fill-rule="evenodd" clip-rule="evenodd" d="M41.6272 78.8447L44.1588 79.2773C44.4656 80.2629 42.788 79.7353 42.6649 80.3962C41.5616 80.1256 41.3191 79.5715 41.6272 78.8447Z" fill="#050505"/>
<path fill-rule="evenodd" clip-rule="evenodd" d="M4.18674 72.7863C4.16403 73.3977 3.29148 73.3614 3.32238 74.0178C2.24661 73.5264 1.86412 72.8048 -0.366024 72.7006C0.64581 72.3403 2.22523 72.4255 4.18674 72.7863Z" fill="#050505"/>
<path fill-rule="evenodd" clip-rule="evenodd" d="M35.2369 78.0913C36.322 78.528 35.2215 78.7194 35.0649 79.0977C33.9757 78.6552 35.0794 78.4746 35.2369 78.0913Z" fill="#050505"/>
<path fill-rule="evenodd" clip-rule="evenodd" d="M85.2945 86.6439C86.8645 86.9634 85.2891 87.812 85.0655 87.984C83.6712 87.8022 83.0969 87.3657 83.3354 86.6578C83.8169 86.9196 84.3033 87.1821 85.1796 87.3165L85.2945 86.6439Z" fill="#050505"/>
<path fill-rule="evenodd" clip-rule="evenodd" d="M25.6159 77.1397L26.8817 77.356C27.0578 78.1193 25.8693 77.8393 24.8664 77.6987C25.0423 77.4467 25.5638 77.4743 25.6159 77.1397Z" fill="#050505"/>
<path fill-rule="evenodd" clip-rule="evenodd" d="M8.3908 74.8838C8.30317 74.3202 11.896 75.0007 10.2359 75.5374C10.5012 75.4494 8.39506 74.8589 8.3908 74.8838Z" fill="#050505"/>
<path fill-rule="evenodd" clip-rule="evenodd" d="M93.936 89.4996L95.2068 89.7168L95.0928 90.3843L93.822 90.1672L93.936 89.4996Z" fill="#050505"/>
<path fill-rule="evenodd" clip-rule="evenodd" d="M55.8596 83.3376C55.5109 83.7036 54.928 83.886 53.8443 83.6803C54.1871 83.3184 54.7709 83.131 55.8596 83.3376Z" fill="#050505"/>
<path fill-rule="evenodd" clip-rule="evenodd" d="M71.0694 85.9363C72.4538 86.1164 71.1539 87.1761 71.4138 87.7179C70.3646 87.2207 69.9766 86.2623 71.0694 85.9363Z" fill="#050505"/>
<path fill-rule="evenodd" clip-rule="evenodd" d="M72.9707 86.2611C72.113 88.2014 75.8372 86.9765 72.9707 86.2611V86.2611Z" fill="#050505"/>
<path fill-rule="evenodd" clip-rule="evenodd" d="M0.671818 74.252C1.1729 74.3991 1.24934 74.6993 1.88062 74.802C1.72049 75.0516 1.19316 75.0281 1.13613 75.3619C0.6359 75.2098 0.558614 74.9146 -0.0718205 74.8068C0.09328 74.5582 0.614791 74.5858 0.67267 74.247L0.671818 74.252Z" fill="#050505"/>
<path fill-rule="evenodd" clip-rule="evenodd" d="M5.74016 75.118C5.4908 75.6804 4.51784 75.6936 3.09444 75.353C3.58802 74.9759 4.55517 74.9668 5.74016 75.118Z" fill="#050505"/>
<path fill-rule="evenodd" clip-rule="evenodd" d="M67.8453 85.729L69.7465 86.0538C68.2538 87.0755 70.9183 87.0897 68.7731 87.9538L67.5023 87.7366C65.9827 86.3439 69.1376 87.1957 67.8453 85.729Z" fill="#050505"/>
<path fill-rule="evenodd" clip-rule="evenodd" d="M74.8098 86.9189C75.2905 87.1856 75.7778 87.4432 76.659 87.5783C76.4939 87.827 75.9666 87.8036 75.9095 88.1374L74.6387 87.9202L74.8098 86.9189Z" fill="#050505"/>
<path fill-rule="evenodd" clip-rule="evenodd" d="M100.792 91.358C93.5822 89.7468 96.0833 91.5841 100.792 91.358V91.358Z" fill="#050505"/>
<path fill-rule="evenodd" clip-rule="evenodd" d="M23.3674 78.8167L24.6333 79.033L24.5184 79.7055L23.2525 79.4893L23.3674 78.8167Z" fill="#050505"/>
<path fill-rule="evenodd" clip-rule="evenodd" d="M55.006 84.5658C52.1271 83.1152 53.274 85.4031 55.006 84.5658V84.5658Z" fill="#050505"/>
<path fill-rule="evenodd" clip-rule="evenodd" d="M122.227 95.7073L123.492 95.9235L123.377 96.5961L122.112 96.3798L122.227 95.7073Z" fill="#050505"/>
<path fill-rule="evenodd" clip-rule="evenodd" d="M75.16 88.6963C75.1792 87.9561 77.4342 88.931 78.3832 88.9086C78.174 89.7445 75.8859 89.292 75.16 88.6963Z" fill="#050505"/>
<path fill-rule="evenodd" clip-rule="evenodd" d="M9.77783 78.2177L11.6791 78.5425L11.565 79.2101L9.66378 78.8852L9.77783 78.2177Z" fill="#050505"/>
<path fill-rule="evenodd" clip-rule="evenodd" d="M114.279 96.4156C114.48 95.686 116.989 96.73 118.138 96.7315C117.172 97.033 114.888 96.9146 114.279 96.4156Z" fill="#050505"/>
<path fill-rule="evenodd" clip-rule="evenodd" d="M13.5233 79.2011C11.4057 79.9929 15.6944 80.6077 13.5233 79.2011V79.2011Z" fill="#050505"/>
<path fill-rule="evenodd" clip-rule="evenodd" d="M61.049 87.3211C61.4379 88.6335 58.4779 87.3587 57.1325 87.339C57.8674 86.8954 59.891 87.4309 61.049 87.3211Z" fill="#050505"/>
<path fill-rule="evenodd" clip-rule="evenodd" d="M120.556 97.8316C120.666 97.7531 122.026 97.4471 122.514 97.8227C122.912 98.1265 119.86 98.3177 120.556 97.8316Z" fill="#050505"/>
<path fill-rule="evenodd" clip-rule="evenodd" d="M33.7444 82.9995C35.2567 83.4476 34.8741 84.5205 37.3757 84.6505C37.3064 84.9668 36.5571 84.7773 36.0529 84.768C35.8861 85.0267 36.2466 85.1293 36.6271 85.2045C36.6121 85.9505 34.352 84.9748 33.4071 85.003C34.6907 84.6071 33.0364 84.0629 33.7493 83.0003L33.7444 82.9995Z" fill="#050505"/>
<path fill-rule="evenodd" clip-rule="evenodd" d="M43.1885 84.9566C45.3257 84.0502 45.1494 86.3376 43.1885 84.9566V84.9566Z" fill="#050505"/>
<path fill-rule="evenodd" clip-rule="evenodd" d="M56.5541 86.8966C55.5431 87.252 53.9628 87.1717 52.008 86.8018C52.2599 85.8656 54.7536 86.6403 56.5541 86.8966Z" fill="#050505"/>
<path fill-rule="evenodd" clip-rule="evenodd" d="M65.4299 88.4131C64.936 89.0312 64.2366 89.5065 62.0918 88.8734C62.0321 87.8172 64.276 88.5287 65.4299 88.4131Z" fill="#050505"/>
<path fill-rule="evenodd" clip-rule="evenodd" d="M29.1355 83.2426C28.7877 83.6036 28.2098 83.7869 27.131 83.5821C26.945 82.8171 28.1376 83.1029 29.1355 83.2426Z" fill="#050505"/>
<path fill-rule="evenodd" clip-rule="evenodd" d="M4.31111 79.6832C4.3532 80.603 3.24933 80.6349 1.60751 80.257C1.56372 79.3471 2.66844 79.3102 4.31111 79.6832Z" fill="#050505"/>
<path fill-rule="evenodd" clip-rule="evenodd" d="M44.227 86.503C45.7826 86.9072 44.4571 88.1164 42.7892 87.2931C43.255 87.0189 44.3024 87.1978 44.227 86.503Z" fill="#050505"/>
<path fill-rule="evenodd" clip-rule="evenodd" d="M129.147 101.012C130.36 102.583 125.007 101.833 125.922 100.81C127.423 101.205 127.397 100.431 129.147 101.012Z" fill="#050505"/>
<path fill-rule="evenodd" clip-rule="evenodd" d="M6.78499 80.4545C7.46138 80.6521 7.10366 81.1909 7.94173 81.3392C7.92171 82.0844 5.66749 81.1045 4.71183 81.136C4.65513 80.3316 6.60655 81.0803 6.78414 80.4595L6.78499 80.4545Z" fill="#050505"/>
<path fill-rule="evenodd" clip-rule="evenodd" d="M16.0639 83.4088C14.1961 83.1871 14.2465 82.3241 12.3746 82.0965C13.112 80.9202 16.6519 82.2992 16.0639 83.4088Z" fill="#050505"/>
<path fill-rule="evenodd" clip-rule="evenodd" d="M49.2424 87.7086C51.2138 88.4299 48.4701 88.5508 47.2221 88.0504C47.6149 86.9178 48.9354 88.3688 49.2424 87.7086Z" fill="#050505"/>
<path fill-rule="evenodd" clip-rule="evenodd" d="M78.9696 93.1311C79.0774 93.0983 80.4131 92.7266 80.927 93.1272C81.8091 93.7957 76.7829 93.8496 78.9696 93.1311Z" fill="#050505"/>
<path fill-rule="evenodd" clip-rule="evenodd" d="M113.244 98.6435L114.515 98.8607C114.691 99.6239 113.503 99.339 112.495 99.2025C112.66 98.9539 113.187 98.9773 113.244 98.6435Z" fill="#050505"/>
<path fill-rule="evenodd" clip-rule="evenodd" d="M71.9431 92.2742C68.948 93.0289 69.6939 90.9362 71.9431 92.2742V92.2742Z" fill="#050505"/>
<path fill-rule="evenodd" clip-rule="evenodd" d="M115.662 99.7437C116.879 98.839 117.829 101.324 116.699 101.295C114.346 100.862 116.888 99.9839 115.662 99.7437Z" fill="#050505"/>
<path fill-rule="evenodd" clip-rule="evenodd" d="M62.3792 90.9888L64.2804 91.3136C64.9658 91.8768 64.4342 91.8783 64.1101 92.31L66.0114 92.6348C64.597 93.3776 62.2537 91.7826 62.3792 90.9888Z" fill="#050505"/>
<path fill-rule="evenodd" clip-rule="evenodd" d="M82.0219 94.3448C82.2434 95.1415 80.7298 94.6112 80.5809 95.1241C79.0253 94.7199 80.7666 93.8278 82.0219 94.3448Z" fill="#050505"/>
<path fill-rule="evenodd" clip-rule="evenodd" d="M5.86439 82.0148C3.90263 80.6388 3.73306 82.9171 5.86439 82.0148V82.0148Z" fill="#050505"/>
<path fill-rule="evenodd" clip-rule="evenodd" d="M61 91.4351C60.5073 91.8072 59.5384 91.8263 58.3493 91.6692C58.5987 91.1068 59.5717 91.0936 61 91.4351Z" fill="#050505"/>
<path fill-rule="evenodd" clip-rule="evenodd" d="M3.16081 82.5887C4.38242 81.8078 5.62167 83.6449 5.46521 84.3514C2.48959 84.4839 4.57329 82.9633 3.16081 82.5887Z" fill="#050505"/>
<path fill-rule="evenodd" clip-rule="evenodd" d="M51.3219 90.8172C52.3615 90.8923 52.3563 91.3118 53.167 91.4709C53.3045 92.1609 50.1986 91.4713 51.3219 90.8172Z" fill="#050505"/>
<path fill-rule="evenodd" clip-rule="evenodd" d="M96.26 98.8335C96.5062 99.6652 91.6633 99.3043 92.4526 98.183C93.9489 98.3361 95.1851 97.9782 96.26 98.8335Z" fill="#050505"/>
<path fill-rule="evenodd" clip-rule="evenodd" d="M96.9466 98.6124C97.3221 99.2252 100.063 99.0628 99.313 100.042C98.9415 99.4352 96.2018 99.5927 96.9466 98.6124Z" fill="#050505"/>
<path fill-rule="evenodd" clip-rule="evenodd" d="M111.465 101.431L112.731 101.648L112.617 102.315L111.351 102.099L111.465 101.431Z" fill="#050505"/>
<path fill-rule="evenodd" clip-rule="evenodd" d="M47.4056 90.8351C48.077 91.0319 47.7193 91.5706 48.5583 91.714C48.1319 92.5948 46.5651 91.3888 47.4056 90.8351Z" fill="#050505"/>
<path fill-rule="evenodd" clip-rule="evenodd" d="M117.751 102.854C119.282 103.459 116.993 104.242 115.617 103.863C115.922 103.213 117.035 103.188 117.751 102.854Z" fill="#050505"/>
<path fill-rule="evenodd" clip-rule="evenodd" d="M19.4664 86.4C19.7799 87.3457 21.358 87.8871 21.6558 88.8352C19.3256 89.078 19.6144 88.2249 17.9674 87.518C18.3307 87.0366 20.0115 87.575 19.4664 86.4Z" fill="#050505"/>
<path fill-rule="evenodd" clip-rule="evenodd" d="M86.5778 98.2098C84.2272 96.5982 84.8998 99.0306 86.5778 98.2098V98.2098Z" fill="#050505"/>
<path fill-rule="evenodd" clip-rule="evenodd" d="M110.601 102.658C108.645 101.283 108.474 103.566 110.601 102.658V102.658Z" fill="#050505"/>
<path fill-rule="evenodd" clip-rule="evenodd" d="M66.8773 15.0841C64.7338 12.3799 69.1883 16.1506 66.8203 15.4179C66.7765 15.4053 66.9012 15.1241 66.8773 15.0841Z" fill="#050505"/>
<path fill-rule="evenodd" clip-rule="evenodd" d="M124.593 28.3907C127.348 29.0101 126.848 27.7248 129.083 28.8143C128.74 29.1762 128.157 29.3586 127.074 29.1529C126.898 29.5228 127.111 29.7695 127.589 29.9332C127.461 30.3523 123.808 29.3076 124.593 28.3907Z" fill="#050505"/>
<path fill-rule="evenodd" clip-rule="evenodd" d="M39.1697 16.8874C38.5646 17.5583 35.5974 16.4155 34.0386 16.3594C34.7178 16.1217 35.4094 15.9014 36.1117 15.6779C38.1043 15.7671 37.1713 16.8024 39.1647 16.8866L39.1697 16.8874Z" fill="#050505"/>
<path fill-rule="evenodd" clip-rule="evenodd" d="M41.6445 17.6537L41.4734 18.6551C40.9473 18.355 40.4105 18.0582 40.2075 18.4388C39.0637 18.3459 40.3941 17.1376 41.6445 17.6537Z" fill="#050505"/>
<path fill-rule="evenodd" clip-rule="evenodd" d="M67.5122 22.7604C62.238 22.7412 71.8006 22.8984 67.5122 22.7604V22.7604Z" fill="#050505"/>
<path fill-rule="evenodd" clip-rule="evenodd" d="M115.383 32.6571C115.689 31.8274 116.407 33.3037 117.925 33.0913C117.688 33.9072 115.764 32.8196 115.383 32.6571Z" fill="#050505"/>
<path fill-rule="evenodd" clip-rule="evenodd" d="M125.308 39.516C124.7 39.1865 124.785 38.6318 123.522 38.5186C125.506 38.6883 126.948 37.3915 125.308 39.516Z" fill="#050505"/>
<path fill-rule="evenodd" clip-rule="evenodd" d="M129.913 39.267C129.827 38.632 132.374 39.6619 131.7 40.2594C130.264 40.1987 130.905 39.4724 129.913 39.267Z" fill="#050505"/>
<path fill-rule="evenodd" clip-rule="evenodd" d="M55.835 30.0457C55.6077 30.5093 53.9233 29.8421 53.8148 30.3876C52.251 29.9717 54.5929 29.5412 55.835 30.0457Z" fill="#050505"/>
<path fill-rule="evenodd" clip-rule="evenodd" d="M13.0915 24.4655C14.2819 24.7048 13.3403 25.6411 14.8225 25.7867C14.6598 26.4101 12.1158 25.2422 13.0915 24.4655Z" fill="#050505"/>
<path fill-rule="evenodd" clip-rule="evenodd" d="M7.7951 24.9347C7.78025 23.8555 9.47803 26.0888 9.75421 24.9208C10.3047 24.9584 10.3269 25.1571 10.3268 25.3673L10.2127 26.0348C8.44352 25.9838 9.05101 25.1493 7.7951 24.9347Z" fill="#050505"/>
<path fill-rule="evenodd" clip-rule="evenodd" d="M42.826 33.6733C44.5175 32.624 43.4984 34.1932 42.7689 34.007C41.8154 33.757 42.7587 33.7079 42.826 33.6733Z" fill="#050505"/>
<path fill-rule="evenodd" clip-rule="evenodd" d="M68.5798 39.4475C66.6783 39.3636 68.0095 36.2071 68.5798 39.4475V39.4475Z" fill="#050505"/>
<path fill-rule="evenodd" clip-rule="evenodd" d="M12.122 30.1398C11.8016 29.7723 15.9521 30.5379 15.175 31.3485C13.1061 31.2873 12.8218 30.6491 12.122 30.1398Z" fill="#050505"/>
<path fill-rule="evenodd" clip-rule="evenodd" d="M131.199 54.6123C130.302 54.8692 130.185 54.5722 129.303 54.2883C130.451 53.7307 133.661 55.1559 133.57 56.0479L131.033 55.6145L131.204 54.6131L131.199 54.6123Z" fill="#050505"/>
<path fill-rule="evenodd" clip-rule="evenodd" d="M127.345 54.2972C127.894 54.6423 128.204 55.0695 128.444 55.5207C128.028 56.311 127.169 54.7286 127.345 54.2972Z" fill="#050505"/>
<path fill-rule="evenodd" clip-rule="evenodd" d="M111.865 60.9328C111.581 61.8482 109.64 61.4908 109.049 62.1692C106.774 61.5448 109.405 60.8611 108.869 59.3904C110.202 58.7362 111.8 60.6551 111.572 58.8216C113.031 59.1631 112.879 59.9627 111.985 60.2611L110.821 60.4058L111.87 60.9337L111.865 60.9328Z" fill="#050505"/>
<path fill-rule="evenodd" clip-rule="evenodd" d="M117.275 59.801L117.389 59.1335L119.921 59.566C119.082 59.9303 119.119 60.9673 117.162 60.4636L117.275 59.801Z" fill="#050505"/>
<path fill-rule="evenodd" clip-rule="evenodd" d="M125 60.4286C126.614 60.7865 124.024 60.8464 124.772 61.7588C123.632 61.523 123.357 61.9374 122.173 61.6633C122.514 60.7423 122.843 60.6089 125 60.4286Z" fill="#050505"/>
<path fill-rule="evenodd" clip-rule="evenodd" d="M98.893 56.6604C98.3786 56.8904 97.6546 56.9717 96.8836 56.999C95.3189 56.5881 98.0643 56.4573 98.893 56.6604Z" fill="#050505"/>
<path fill-rule="evenodd" clip-rule="evenodd" d="M106.799 63.8511C107.582 63.6977 108.573 63.6978 110.019 64.0526C109.753 64.566 110.521 64.7332 110.483 65.1626L109.474 65.39L109.681 66.0612C108.606 65.8622 108.006 66.0262 107.671 66.4048C108.684 66.547 110.061 66.9772 110.259 66.5035L111.184 66.8308L112.161 66.8284C114.448 67.9164 114.384 67.9311 117.688 68.8034L118.411 69.3575L118.153 69.9133C115.346 69.5928 116.614 70.963 114.757 70.7073L114.531 70.1507L113.549 70.1572L113.606 69.8235C112.86 69.8242 111.901 70.1423 112.861 70.3833C111.655 71.4334 112.046 69.4441 110.382 69.6161L110.784 69.1722L109.803 69.1738C107.882 68.4559 108.174 69.4389 107.158 69.4088C105.575 69.1947 105.286 68.5507 104.105 68.2001L104.485 67.9165L104.219 67.5326L104.39 66.5312C105.736 67.4432 105.108 66.5719 106.348 66.5223C105.001 65.9742 103.76 64.5625 105.477 63.9637L106.402 64.2909L106.805 63.847L106.799 63.8511Z" fill="#050505"/>
<path fill-rule="evenodd" clip-rule="evenodd" d="M115.897 65.9184L114.982 65.5928C114.038 64.7496 115.11 65.1737 115.209 64.2676L119.006 64.9165L118.632 65.191L118.893 65.5791C118.63 65.9545 120.528 67.0428 120.736 66.2427C121.845 67.5858 118.318 66.5524 115.492 66.3772L115.892 65.9225L115.897 65.9184Z" fill="#050505"/>
<path fill-rule="evenodd" clip-rule="evenodd" d="M107.938 72.4647L108.592 72.4072C109.886 73.3514 111.715 72.5768 114.3 73.3826C112.773 73.3216 111.264 74.079 112.687 75.1681L112.057 75.0604L112 75.3942C110.939 75.6846 108.078 75.4162 107.505 74.9698L107.909 74.5209L106.932 74.5283L106.989 74.1945L108.726 74.2246L107.79 73.3008C107.499 72.9692 107.217 72.6491 107.331 72.1918L107.933 72.4639L107.938 72.4647Z" fill="#050505"/>
<path fill-rule="evenodd" clip-rule="evenodd" d="M106.238 74.7585L106.874 74.867C106.166 75.751 105.35 74.1555 103.702 74.3251C104.013 73.5785 105.531 73.843 106.295 74.4247L106.238 74.7585Z" fill="#050505"/>
<path fill-rule="evenodd" clip-rule="evenodd" d="M33.6917 48.9506C33.8585 48.6919 33.5021 48.5951 33.1224 48.5149C33.0468 48.2097 33.4152 48.2368 33.8049 48.288L35.0707 48.5042C34.0612 48.7317 34.0895 49.762 32.3118 49.4018C32.1755 48.7941 32.9155 48.859 33.6917 48.9506Z" fill="#050505"/>
<path fill-rule="evenodd" clip-rule="evenodd" d="M117.971 63.3501C117.746 63.8038 116.054 63.1457 115.956 63.6929C114.391 63.282 116.725 62.8398 117.971 63.3501Z" fill="#050505"/>
<path fill-rule="evenodd" clip-rule="evenodd" d="M123.801 67.4431C122.382 66.2983 125.953 65.8214 123.801 67.4431V67.4431Z" fill="#050505"/>
<path fill-rule="evenodd" clip-rule="evenodd" d="M49.1369 53.9993C51.3128 53.4943 49.3783 55.1583 52.1899 55.208C50.9342 56.547 49.5607 54.7485 49.1369 53.9993Z" fill="#050505"/>
<path fill-rule="evenodd" clip-rule="evenodd" d="M16.0085 49.3748C16.3226 48.6132 17.6349 50.0526 18.489 50.137C17.6873 51.0614 16.8618 49.4642 16.0085 49.3748Z" fill="#050505"/>
<path fill-rule="evenodd" clip-rule="evenodd" d="M98.5612 66.2276C97.5516 66.455 96.8531 66.9253 95.2288 66.6837C95.1675 65.6375 97.4131 66.3391 98.5612 66.2276Z" fill="#050505"/>
<path fill-rule="evenodd" clip-rule="evenodd" d="M70.6319 61.7941C70.8869 62.335 68.0202 62.1887 69.8254 62.6869C68.6482 63.5368 67.8824 60.8424 70.6319 61.7941Z" fill="#050505"/>
<path fill-rule="evenodd" clip-rule="evenodd" d="M22.4137 53.8993C23.8442 53.9592 23.2074 54.6964 24.1951 54.8959C24.2816 55.5259 21.7336 54.501 22.4137 53.8993Z" fill="#050505"/>
<path fill-rule="evenodd" clip-rule="evenodd" d="M131.409 72.5218C132.845 72.5825 132.198 73.318 133.19 73.5183C133.277 74.1484 130.729 73.1234 131.409 72.5218Z" fill="#050505"/>
<path fill-rule="evenodd" clip-rule="evenodd" d="M128.644 73.4284C128.916 73.0032 130.28 73.4209 131.237 73.5281C129.762 74.1169 130.207 74.0853 130.26 75.4222C129.082 76.1849 130.256 73.5604 128.644 73.4284Z" fill="#050505"/>
<path fill-rule="evenodd" clip-rule="evenodd" d="M17.6899 54.815C18.8531 53.9575 19.2429 55.9519 20.7429 56.0236C20.5728 56.2715 20.0554 56.2497 19.9984 56.5835L18.7276 56.3664C19.0307 55.6388 18.7873 55.0896 17.6899 54.815Z" fill="#050505"/>
<path fill-rule="evenodd" clip-rule="evenodd" d="M121.441 73.572C122.116 73.7746 121.759 74.3134 122.603 74.4575C122.154 74.6936 121.731 74.9239 122.488 75.1301C121.824 75.8472 120.05 73.6369 121.441 73.572Z" fill="#050505"/>
<path fill-rule="evenodd" clip-rule="evenodd" d="M7.8407 55.1985C8.14184 54.3629 8.84952 55.8425 10.3724 55.631C10.1359 56.4469 8.21172 55.3593 7.8407 55.1985Z" fill="#050505"/>
<path fill-rule="evenodd" clip-rule="evenodd" d="M4.79076 57.7692C1.55696 55.7349 2.3114 58.1967 4.79076 57.7692V57.7692Z" fill="#050505"/>
<path fill-rule="evenodd" clip-rule="evenodd" d="M109.989 75.7428C112.569 76.6964 109.535 76.2754 109.126 76.9644C106.898 76.0402 110.68 76.7222 109.989 75.7428Z" fill="#050505"/>
<path fill-rule="evenodd" clip-rule="evenodd" d="M66.4918 70.7158C67.041 69.2355 69.1293 71.6945 69.7208 70.9239C70.3963 71.1265 70.0337 71.6644 70.8775 71.8086C70.1054 72.4407 68.8338 70.6134 66.4918 70.7158Z" fill="#050505"/>
<path fill-rule="evenodd" clip-rule="evenodd" d="M74.2107 71.3475L75.4815 71.5647C75.3138 71.8283 75.6761 71.9209 76.0607 72.002C75.9896 72.3283 75.2412 72.1338 74.7329 72.1187C74.8052 72.413 75.3113 72.561 75.2542 72.8948C74.7515 73.6242 73.8022 71.9443 74.2115 71.3426L74.2107 71.3475Z" fill="#050505"/>
<path fill-rule="evenodd" clip-rule="evenodd" d="M5.2061 62.993C5.31023 62.3238 3.54599 62.2736 4.16341 61.4408C5.51265 61.5277 5.80126 61.9616 6.64301 62.208C6.23027 62.6502 5.556 62.8888 5.14907 63.3268C4.43453 63.1432 4.85365 62.9328 5.2061 62.993Z" fill="#050505"/>
<path fill-rule="evenodd" clip-rule="evenodd" d="M35.6258 68.1904C35.8409 67.858 36.92 68.1808 37.0057 67.7391C37.0461 67.4127 36.2764 67.3428 35.7977 67.1841C35.9625 66.8174 36.997 67.1018 37.751 67.1743C37.7145 67.7167 37.2303 68.3979 38.1583 68.618C37.5195 68.8882 36.6986 68.6095 35.6266 68.1854L35.6258 68.1904Z" fill="#050505"/>
<path fill-rule="evenodd" clip-rule="evenodd" d="M12.1756 64.1838C12.4347 64.0127 13.0582 62.7554 12.925 63.6248C12.7295 64.8886 10.5641 64.0469 11.5402 64.0753C11.6262 64.0797 12.1415 64.2036 12.1756 64.1838Z" fill="#050505"/>
<path fill-rule="evenodd" clip-rule="evenodd" d="M14.0768 64.5086C12.2246 63.8076 14.6918 64.1984 14.7643 64.2825C14.9019 64.4342 15.6745 65.1149 14.0768 64.5086Z" fill="#050505"/>
<path fill-rule="evenodd" clip-rule="evenodd" d="M46.7943 71.4778C46.0875 72.8337 48.0791 69.0414 46.7943 71.4778V71.4778Z" fill="#050505"/>
<path fill-rule="evenodd" clip-rule="evenodd" d="M62.0661 73.7435C62.6801 73.6485 62.2071 75.8185 60.511 75.1903C61.2353 74.868 61.3458 74.0717 62.0661 73.7435Z" fill="#050505"/>
<path fill-rule="evenodd" clip-rule="evenodd" d="M25.0793 68.7983C26.2733 67.5512 26.1805 69.171 27.5597 69.5605C27.094 69.8347 26.0407 69.6598 26.1179 70.3447C25.3256 70.1375 25.4641 69.2075 26.2889 69.3433C26.3343 69.0178 25.558 68.9569 25.0793 68.7983Z" fill="#050505"/>
<path fill-rule="evenodd" clip-rule="evenodd" d="M13.6207 67.1789C13.0764 69.0189 13.9344 66.1199 13.6207 67.1789V67.1789Z" fill="#050505"/>
<path fill-rule="evenodd" clip-rule="evenodd" d="M17.7725 69.611C19.5409 69.667 18.9301 70.4907 20.1901 70.7111C20.1326 71.6755 16.3311 69.7646 16.2736 70.729C14.2639 69.8729 18.4605 70.6976 17.7725 69.611Z" fill="#050505"/>
<path fill-rule="evenodd" clip-rule="evenodd" d="M22.6199 75.5973C22.9879 76.7625 20.8544 76.0032 20.4856 76.6067C19.4294 76.3596 21.0558 75.0634 22.6199 75.5973Z" fill="#050505"/>
<path fill-rule="evenodd" clip-rule="evenodd" d="M27.9863 78.5753C29.7807 79.0767 26.919 78.9313 27.1749 79.4672C25.1304 78.7846 27.9971 78.9309 27.9863 78.5753Z" fill="#050505"/>
<path fill-rule="evenodd" clip-rule="evenodd" d="M66.3505 86.8528C63.1284 86.7535 65.0838 88.2566 66.3505 86.8528V86.8528Z" fill="#050505"/>
<path fill-rule="evenodd" clip-rule="evenodd" d="M97.9749 92.5944C99.1161 93.0611 100.202 93.5542 101.667 93.9174C101.061 93.9369 97.2488 94.1828 97.9749 92.5944Z" fill="#050505"/>
<path fill-rule="evenodd" clip-rule="evenodd" d="M79.3119 91.1285C79.813 91.2756 79.8853 91.57 80.5216 91.6735L80.4066 92.3461C79.1059 91.9752 78.6955 92.2845 77.8188 92.2423C75.9939 91.5306 80.1855 92.3545 79.3169 91.1293L79.3119 91.1285Z" fill="#050505"/>
<path fill-rule="evenodd" clip-rule="evenodd" d="M68.9481 90.7267C69.2434 89.8953 69.9611 91.3766 71.4798 91.1593C71.2433 91.9751 69.3133 90.8917 68.9481 90.7267Z" fill="#050505"/>
<path fill-rule="evenodd" clip-rule="evenodd" d="M29.4856 85.0201C31.0727 85.7783 27.9333 86.0623 26.7308 85.9235C26.3163 84.6119 29.6179 86.1297 29.4856 85.0201Z" fill="#050505"/>
<path fill-rule="evenodd" clip-rule="evenodd" d="M41.3076 92.198C40.7572 92.1603 40.7291 91.9658 40.7292 91.7556C40.1191 91.918 39.2383 91.87 38.1405 91.6569C38.4505 89.6333 36.937 90.5078 40.0296 88.1957L41.9308 88.5205L41.5271 88.9694L42.5042 88.962C43.6713 89.2178 42.7031 90.1599 43.5419 90.5134L42.5657 90.5158L42.8024 91.0741L42.6305 92.0805L41.7063 91.7482L41.3084 92.193L41.3076 92.198Z" fill="#050505"/>
<path fill-rule="evenodd" clip-rule="evenodd" d="M125.06 102.031C124.17 101.674 125.187 101.643 125.06 102.031V102.031Z" fill="#050505"/>
<path fill-rule="evenodd" clip-rule="evenodd" d="M84.9667 96.2169C84.238 96.4154 84.5521 97.4176 82.8935 96.8984C84.2933 96.271 83.3791 95.4022 84.9667 96.2169Z" fill="#050505"/>
<path fill-rule="evenodd" clip-rule="evenodd" d="M124.602 104.707L127.764 105.247C128.689 106.682 126.071 107.055 124.145 107.382C126.179 106.929 124.762 106.016 124.602 104.707Z" fill="#050505"/>
<path fill-rule="evenodd" clip-rule="evenodd" d="M32.3794 18.4755C31.1933 19.0778 31.5659 20.8745 28.2347 19.8285C28.7747 18.7313 29.5267 17.7984 32.3794 18.4755Z" fill="#050505"/>
</mask>
<g mask="url(#mask0_47_2367)">
<path d="M6.02587 48.8639C5.84474 48.9971 5.82856 49.2712 6.00258 49.4188C6.30198 49.6699 6.63215 49.8904 6.97736 50.0827C7.12189 50.1638 7.27307 50.2358 7.4193 50.3069C7.48041 50.6968 7.73797 51.0433 8.23933 51.129C10.6568 51.542 13.0935 51.9327 15.4542 52.618C16.535 52.9308 17.5755 53.3291 18.6832 53.544C19.2267 53.6522 19.7704 53.7297 20.3198 53.8031C21.5469 54.1563 22.7815 54.4955 24.0247 54.7848C26.2008 55.295 28.394 55.6748 30.5313 56.3528C31.5052 56.6627 32.4638 57.0624 33.4731 57.2553C33.7014 57.2943 33.9198 57.3316 34.1207 57.4121C33.7692 57.6751 33.5815 58.1455 33.7565 58.6163C33.7737 58.6654 33.79 58.7195 33.8014 58.7727C33.8775 58.7754 33.9501 58.8289 33.9511 58.9726C33.9517 59.0291 33.9721 59.089 33.9966 59.1547C33.9437 59.1354 33.8958 59.117 33.8586 59.0952C33.9006 59.5075 33.8539 59.9302 33.9373 60.3392C34.0587 60.9445 34.2704 61.5293 34.4233 62.1296C34.7534 63.4268 34.8599 64.7473 34.9688 66.0837C35.1928 68.8394 36.0203 71.4418 36.4763 74.1552C36.706 75.5019 36.7683 76.8713 36.94 78.2286C37.1205 79.654 37.4369 81.0617 37.6696 82.4807C38.0455 84.7957 38.405 87.0875 38.8207 89.3787C38.9184 89.9132 39.3757 90.4066 39.9631 90.3173C40.2407 90.2776 40.4821 90.1804 40.6947 90.0424C41.1436 90.196 41.6501 90.0723 41.8515 89.4914C42.4962 87.6019 43.3393 85.7771 43.97 83.8801C44.5947 82.018 44.829 80.0481 45.1336 78.1159C45.474 75.9745 45.8523 73.8498 46.4292 71.759C46.7021 70.7597 47.0089 69.7712 47.267 68.7694C47.299 68.6415 47.336 68.5146 47.3789 68.3834C47.8729 68.6319 48.3755 68.9793 48.7986 69.1644C49.5555 69.4885 50.2824 69.8691 51.0327 70.2024C52.6382 70.9125 54.3322 71.4634 55.9979 72.03C59.3353 73.1591 62.6961 74.2409 66.0243 75.394C67.5437 75.9203 68.9085 76.7533 70.3644 77.4122C71.4191 77.9668 72.458 78.5544 73.4684 79.2193C74.7627 80.0762 75.9687 80.8821 77.3674 81.5467C78.8512 82.2514 80.1478 83.1548 81.7957 83.4672C82.3549 83.573 82.7348 83.2636 82.8965 82.8554C82.961 82.8664 83.0247 82.8824 83.0892 82.8934C83.3957 83.9405 85.1846 83.6668 85.1275 82.4162C85.0704 81.1656 83.8917 79.8414 83.1391 78.9232C81.9807 77.5101 80.9328 76.0185 79.7162 74.6468C77.4462 72.0849 75.3232 69.4098 72.8469 67.0384C71.5783 65.8218 70.5092 64.424 69.2223 63.2248C68.3237 62.3842 67.4908 61.4882 66.6529 60.5913C66.3343 60.1831 66.0091 59.784 65.6682 59.3874C65.7372 59.1326 65.7005 58.8392 65.4981 58.5585C65.0761 57.9788 64.6275 57.4048 64.1565 56.8423C64.1322 56.7152 64.113 56.5888 64.1003 56.4533C64.031 55.6929 64.2781 54.9045 64.4256 54.1606C64.6465 54.0343 64.8757 53.8889 65.1439 53.7245C66.7697 52.7307 68.7084 52.298 70.409 51.4349C73.5023 49.8663 76.8125 48.6425 79.7451 46.7286C79.8392 46.7754 79.9401 46.8132 80.0592 46.8335C81.3449 47.0532 81.7082 45.1361 80.5398 44.7981C80.5102 44.7623 80.4805 44.7264 80.4451 44.6947C80.4156 44.6282 80.3852 44.5666 80.3441 44.5083C79.8276 43.7637 79.0835 43.693 78.2436 43.5854C76.9891 43.4223 75.7409 43.1629 74.49 42.9492C72.0427 42.5311 69.5954 42.1129 67.1432 41.694C64.6909 41.275 62.1195 40.8357 59.6127 40.4073C58.3469 40.1911 57.081 39.9748 55.8152 39.7585C55.2295 39.6584 54.638 39.5318 54.0438 39.4815C54.0438 39.4815 54.0437 39.4815 54.0388 39.4807C53.6248 39.1228 53.1643 38.798 52.8056 38.4752C52.7965 38.4686 52.7883 38.4569 52.7792 38.4502C52.5346 37.9982 52.2949 37.5471 51.9822 37.1348C51.3847 36.3559 50.7112 35.7229 50.22 34.8597C49.1959 33.0491 48.5074 31.0088 47.3405 29.2866C46.2147 27.6227 44.8513 26.1233 43.709 24.4669C43.4548 24.1004 43.1824 23.7514 42.9033 23.4114C42.7406 23.1375 42.5671 22.8669 42.3812 22.6096C42.2825 22.4696 42.1422 22.3636 41.991 22.2917C41.8947 22.1675 41.7985 22.0434 41.7071 21.9201C41.2019 21.2288 40.9872 20.5717 40.216 20.1221C39.747 19.8471 39.0236 20.1337 38.8267 20.6282C38.6148 21.1508 38.5622 21.6084 38.564 22.1061C38.4648 22.5967 38.4591 23.1085 38.4817 23.6045C38.4951 23.9145 38.5045 24.2186 38.5138 24.5227C38.4901 24.8109 38.4714 25.1 38.4576 25.3899C38.3895 27.224 38.4447 29.0536 38.3509 30.8886C38.1939 33.8407 37.6373 36.7399 37.1113 39.6392C37.0448 39.6996 36.9815 39.7709 36.9273 39.8488C36.5723 39.983 36.1713 40.0273 35.809 40.1448C35.2144 40.3355 34.6369 40.6059 34.0562 40.8349C32.8352 41.3133 31.5826 41.4377 30.3983 42.0301C29.1817 42.6323 27.9599 43.2645 26.6925 43.7452C25.3977 44.2367 24.0378 44.4812 22.6917 44.7947C21.3514 45.1041 20.044 45.4601 18.6851 45.6688C17.5516 45.8443 16.4942 46.3815 15.3596 46.6234C14.0707 46.9006 12.7158 46.9665 11.4441 47.2927C10.2893 47.5927 9.25978 48.2064 8.04088 48.2238C7.79991 48.2287 7.60744 48.3087 7.46277 48.4378C6.95828 48.49 6.42797 48.5737 6.02005 48.8681L6.02587 48.8639ZM53.0087 41.6222C53.0033 41.7136 53.0096 41.7967 53.0316 41.8773C52.7678 41.8066 52.5282 41.6836 52.3314 41.4603C52.2967 41.4236 52.268 41.3828 52.2383 41.347C52.2977 41.3879 52.3572 41.4288 52.4224 41.4656C52.6231 41.5768 52.8158 41.6149 53.0087 41.6222ZM55.0987 41.7691C55.198 41.786 55.2973 41.803 55.3966 41.8199C55.2881 41.827 55.1787 41.8391 55.0702 41.8462C55.0745 41.8213 55.0887 41.7981 55.0987 41.7691ZM45.9173 65.9341C45.8994 66.0387 45.8815 66.1434 45.8578 66.2521C45.8459 66.3218 45.8232 66.3949 45.8063 66.4638C45.7987 66.5086 45.7869 66.5476 45.7743 66.5916C45.7599 66.6456 45.7465 66.6945 45.7272 66.7476C45.7246 66.7626 45.7212 66.7825 45.7137 66.7966C45.7401 66.6422 45.7566 66.486 45.778 66.3308C45.814 66.06 45.8369 65.7768 45.9366 65.5221C46.0388 65.2524 46.2305 65.1775 46.4523 65.1949C46.1909 65.3194 45.982 65.5555 45.9214 65.9399L45.9173 65.9341ZM6.91839 49.2318C6.98803 49.2129 7.06179 49.1999 7.12972 49.191C7.12944 49.2524 7.12915 49.3139 7.13468 49.3713C7.06036 49.3278 6.9869 49.2794 6.91343 49.2309L6.91839 49.2318Z" fill="#FCFCFC"/>
<path d="M33.8006 58.7777C33.8282 58.8849 33.846 58.9905 33.8579 59.1002C33.5373 58.9429 33.669 58.7705 33.8006 58.7777Z" fill="#FCFCFC"/>
<path d="M64.7404 66.4019C66.0658 66.6284 65.7176 68.6967 64.3872 68.4694C63.0568 68.2421 63.4101 66.1746 64.7404 66.4019Z" fill="#FCFCFC"/>
<path d="M58.026 63.4192C58.099 63.5598 58.1761 63.7063 58.255 63.8428C58.2591 63.8487 58.2624 63.8595 58.2714 63.8662C58.1886 64.2314 58.2805 64.5906 58.5327 64.8491C58.7275 65.3233 59.3785 65.6396 59.8524 65.4078C60.342 65.1736 60.6964 64.8035 60.8149 64.2597C60.8919 63.8986 60.8515 63.5071 60.7215 63.1619C60.4025 62.3075 59.5415 61.7554 58.6408 62.0629C58.1524 62.2307 57.7741 62.9198 58.0318 63.415L58.026 63.4192ZM59.1196 63.4471C59.064 63.4735 59.0175 63.5065 58.9669 63.5338C58.9669 63.5338 58.9677 63.5288 58.9735 63.5247C58.9901 63.5172 59.0407 63.49 59.1205 63.4421L59.1196 63.4471ZM58.26 63.8437C58.26 63.8437 58.2641 63.8495 58.2723 63.8612C58.2731 63.8562 58.269 63.8504 58.26 63.8437Z" fill="#FCFCFC"/>
<path d="M60.9136 45.1724C61.5192 45.2759 62.1199 45.3785 62.7255 45.482C63.2815 45.5769 63.6772 46.1316 63.581 46.6946C63.4848 47.2575 62.9324 47.6502 62.3714 47.5544C61.7658 47.4509 61.1652 47.3483 60.5595 47.2448C60.0036 47.1498 59.6079 46.5951 59.7041 46.0322C59.8002 45.4692 60.3527 45.0765 60.9136 45.1724Z" fill="#FCFCFC"/>
<path d="M70.5954 33.0906C70.4957 33.1659 70.4859 33.3129 70.584 33.3963C70.749 33.5373 70.9331 33.6559 71.1197 33.7596C71.199 33.8039 71.2791 33.8432 71.3642 33.8834C71.3988 34.0995 71.5404 34.2878 71.8184 34.3353C73.1487 34.5626 74.4866 34.7758 75.7856 35.1567C76.3793 35.3299 76.9505 35.5454 77.5635 35.6655C77.8604 35.7214 78.1641 35.7681 78.4636 35.809C79.1409 36.0017 79.819 36.1893 80.5022 36.347C81.7006 36.6287 82.9069 36.8348 84.0792 37.2094C84.6175 37.3783 85.1414 37.6011 85.6957 37.7061C85.8198 37.7273 85.9439 37.7485 86.0538 37.7929C85.8602 37.9393 85.7605 38.194 85.8536 38.456C85.8643 38.4835 85.8691 38.5151 85.8797 38.5425C85.9203 38.5443 85.9616 38.5719 85.9628 38.6541C85.9577 38.684 85.9725 38.7173 85.9864 38.7556C85.9575 38.7455 85.9285 38.7354 85.9104 38.7221C85.9333 38.9465 85.9082 39.1832 85.9519 39.406C86.0183 39.7352 86.136 40.063 86.2181 40.3897C86.3978 41.1024 86.4573 41.8304 86.516 42.5633C86.6406 44.0767 87.091 45.5072 87.3465 47.0019C87.4706 47.7409 87.5052 48.4954 87.6027 49.2401C87.7034 50.0264 87.8778 50.7997 88.005 51.5802C88.2119 52.8513 88.4105 54.1106 88.6398 55.3701C88.6915 55.666 88.9469 55.9353 89.2667 55.8874C89.4192 55.8621 89.5502 55.8128 89.6707 55.7359C89.9162 55.824 90.1939 55.7535 90.3047 55.434C90.6614 54.3926 91.1239 53.3898 91.4699 52.3517C91.8133 51.3285 91.9426 50.2431 92.109 49.1794C92.295 48.0012 92.5041 46.8371 92.8191 45.6809C92.969 45.1323 93.1388 44.587 93.2788 44.0367C93.2957 43.9678 93.3184 43.8948 93.3403 43.8267C93.6129 43.9656 93.8869 44.156 94.1199 44.2573C94.5339 44.4357 94.932 44.6473 95.346 44.8257C96.2293 45.2176 97.1586 45.5199 98.0762 45.8305C99.9115 46.4517 101.757 47.0439 103.59 47.68C104.424 47.9712 105.173 48.4275 105.975 48.79C106.556 49.0944 107.129 49.418 107.68 49.7838C108.392 50.254 109.051 50.7 109.827 51.0632C110.645 51.4491 111.356 51.9501 112.262 52.1202C112.57 52.1728 112.777 52.0082 112.866 51.7825C112.901 51.7885 112.936 51.7944 112.976 51.8012C113.143 52.3783 114.13 52.2239 114.093 51.5409C114.062 50.8537 113.415 50.1278 113.001 49.6212C112.362 48.8455 111.787 48.0244 111.119 47.2693C109.873 45.8617 108.704 44.3905 107.343 43.0863C106.644 42.4184 106.055 41.6512 105.351 40.9874C104.857 40.5288 104.4 40.0353 103.938 39.541C103.762 39.3161 103.585 39.0962 103.397 38.8795C103.437 38.7376 103.412 38.5796 103.301 38.4222C103.07 38.1007 102.822 37.7867 102.563 37.4808C102.549 37.4118 102.541 37.3437 102.533 37.2656C102.497 36.8492 102.633 36.416 102.713 36.0042C102.838 35.9332 102.963 35.8572 103.107 35.7638C104.003 35.2145 105.069 34.9814 106.004 34.5053C107.705 33.6422 109.526 32.969 111.136 31.9162C111.188 31.9404 111.24 31.9647 111.31 31.9766C112.015 32.097 112.215 31.0443 111.573 30.8576C111.555 30.8392 111.538 30.8209 111.521 30.8026C111.506 30.7693 111.487 30.7302 111.467 30.701C111.184 30.2938 110.772 30.2541 110.312 30.191C109.622 30.1039 108.937 29.9561 108.252 29.839L104.216 29.1495C102.836 28.9137 101.456 28.678 100.076 28.4422C99.3814 28.3234 98.6865 28.2047 97.9915 28.086C97.6688 28.0308 97.3438 27.9599 97.016 27.9347C96.7892 27.737 96.5383 27.5608 96.3388 27.3831C96.3338 27.3823 96.3297 27.3765 96.3256 27.3706C96.1893 27.1218 96.058 26.8737 95.8868 26.6496C95.5609 26.2248 95.1866 25.8737 94.9205 25.3976C94.3555 24.3986 93.979 23.2832 93.3392 22.333C92.7192 21.417 91.9712 20.5919 91.3445 19.6849C91.2055 19.4817 91.054 19.2918 90.9017 19.1068C90.8097 18.9578 90.7176 18.8088 90.6148 18.663C90.5613 18.5872 90.4846 18.528 90.3995 18.4878C90.3443 18.422 90.295 18.352 90.2456 18.282C89.9684 17.9014 89.8508 17.5429 89.423 17.2955C89.1629 17.1434 88.7681 17.3015 88.66 17.5753C88.5444 17.8632 88.5167 18.1148 88.5163 18.3865C88.4604 18.6538 88.4583 18.9355 88.4727 19.2097C88.4794 19.38 88.4869 19.5454 88.4935 19.7157C88.482 19.8727 88.4697 20.0346 88.4632 20.1925C88.4237 21.2009 88.4563 22.2063 88.406 23.2181C88.3231 24.8395 88.0152 26.4327 87.7221 28.0285C87.6855 28.0633 87.6481 28.103 87.6205 28.1445C87.424 28.2186 87.2053 28.2427 87.0054 28.306C86.6803 28.4145 86.3592 28.5596 86.0415 28.6848C85.368 28.9491 84.6821 29.0165 84.0289 29.3407C83.3592 29.6724 82.6869 30.019 81.9926 30.2849C81.2817 30.5582 80.5334 30.6919 79.7941 30.8629C79.0597 31.0348 78.3367 31.2292 77.5918 31.3429C76.9679 31.4363 76.3853 31.7367 75.7653 31.8666C75.055 32.017 74.313 32.0543 73.6125 32.2371C72.9766 32.4002 72.4128 32.7397 71.7421 32.7482C71.6088 32.751 71.5043 32.7947 71.4261 32.8634C71.1503 32.8932 70.8569 32.9353 70.6343 33.1024L70.5954 33.0906ZM96.4268 29.1107C96.4232 29.1614 96.4305 29.2087 96.4385 29.2511C96.2922 29.2107 96.1608 29.1422 96.0538 29.0213C96.0365 29.003 96.02 28.9797 96.0036 28.9563C96.0349 28.9822 96.0671 29.0031 96.1043 29.0248C96.2166 29.085 96.32 29.1078 96.4268 29.1107ZM97.5732 29.1886C97.6278 29.198 97.6824 29.2073 97.737 29.2166C97.6749 29.2214 97.6177 29.227 97.5556 29.2318C97.5582 29.2168 97.5657 29.2027 97.5682 29.1878L97.5732 29.1886ZM92.5293 42.473C92.5191 42.5328 92.5098 42.5876 92.4995 42.6474C92.4927 42.6872 92.481 42.7262 92.4692 42.7652C92.4649 42.7901 92.4615 42.8101 92.4523 42.8341C92.4472 42.864 92.4371 42.8931 92.4279 42.9171C92.4262 42.9271 92.4245 42.9371 92.4236 42.942C92.4381 42.8573 92.4476 42.7718 92.4571 42.6863C92.4768 42.5409 92.4892 42.379 92.5437 42.2396C92.5998 42.0902 92.7035 42.0516 92.8244 42.062C92.68 42.1296 92.5651 42.2638 92.5351 42.4689L92.5293 42.473ZM71.0871 33.2926C71.1244 33.2835 71.1667 33.2754 71.2031 33.2714C71.1972 33.3062 71.202 33.3378 71.2068 33.3694C71.1647 33.3468 71.1234 33.3193 71.0871 33.2926Z" fill="#FCFCFC"/>
<path d="M85.865 38.54C85.8804 38.599 85.8909 38.6572 85.8956 38.7195C85.7213 38.6334 85.7938 38.5381 85.865 38.54Z" fill="#FCFCFC"/>
<path d="M102.877 42.7285C103.607 42.8531 103.413 43.989 102.683 43.8643C101.954 43.7396 102.148 42.6038 102.877 42.7285Z" fill="#FCFCFC"/>
<path d="M99.1872 41.093C99.2299 41.1721 99.2676 41.2503 99.3111 41.3244C99.3111 41.3244 99.3144 41.3352 99.3194 41.3361C99.2745 41.5386 99.3225 41.7365 99.4617 41.8782C99.5707 42.1378 99.9292 42.3119 100.191 42.1874C100.458 42.0587 100.657 41.8517 100.718 41.5545C100.762 41.3569 100.738 41.1375 100.667 40.9511C100.492 40.4803 100.018 40.1787 99.5235 40.3506C99.2573 40.4436 99.0493 40.8233 99.1872 41.093ZM99.7874 41.1084C99.7592 41.1241 99.731 41.1398 99.7027 41.1555C99.7135 41.1522 99.7368 41.1356 99.7816 41.1125L99.7874 41.1084ZM99.3111 41.3244C99.3111 41.3244 99.3111 41.3244 99.3144 41.3352C99.3144 41.3352 99.3152 41.3302 99.3111 41.3244Z" fill="#FCFCFC"/>
<path d="M100.774 31.0583L101.772 31.2288C102.079 31.2814 102.293 31.5845 102.241 31.8934C102.188 32.2023 101.885 32.4172 101.578 32.3647L100.58 32.1942C100.272 32.1416 100.058 31.8384 100.111 31.5296C100.164 31.2207 100.466 31.0057 100.774 31.0583Z" fill="#FCFCFC"/>
<path d="M114.633 27.8067C114.575 27.8481 114.571 27.9295 114.625 27.9745C114.719 28.0521 114.82 28.1206 114.927 28.18C114.974 28.2034 115.016 28.226 115.063 28.2494C115.083 28.3708 115.162 28.4765 115.316 28.5028C116.061 28.6301 116.812 28.7482 117.537 28.9592C117.868 29.0568 118.19 29.1783 118.53 29.2468C118.699 29.2757 118.868 29.3045 119.033 29.3275C119.412 29.4385 119.788 29.5387 120.171 29.6297C120.84 29.7849 121.514 29.9053 122.174 30.1103C122.474 30.2077 122.77 30.33 123.077 30.3876C123.146 30.3995 123.216 30.4113 123.278 30.4373C123.167 30.5159 123.111 30.6652 123.163 30.8075C123.171 30.8241 123.173 30.8399 123.175 30.8557C123.195 30.8591 123.223 30.8741 123.222 30.9148C123.219 30.9298 123.226 30.9514 123.237 30.9739C123.222 30.9713 123.208 30.9638 123.194 30.9563C123.208 31.0818 123.191 31.2122 123.22 31.3402C123.26 31.5264 123.321 31.7061 123.372 31.8891C123.472 32.2907 123.505 32.6962 123.537 33.1068C123.607 33.9544 123.858 34.7562 124.001 35.5908C124.073 36.0081 124.093 36.4269 124.145 36.8458C124.202 37.2864 124.297 37.7179 124.37 38.156C124.489 38.8684 124.598 39.5741 124.723 40.2774C124.751 40.4412 124.894 40.5937 125.077 40.5686C125.161 40.5572 125.238 40.5243 125.301 40.4838C125.441 40.5333 125.596 40.4931 125.657 40.3139C125.858 39.733 126.113 39.1715 126.309 38.5898C126.499 38.0172 126.572 37.4093 126.668 36.8156C126.771 36.1563 126.892 35.5054 127.069 34.8588C127.153 34.55 127.25 34.2488 127.328 33.9392C127.335 33.8993 127.352 33.8612 127.364 33.8222C127.514 33.8991 127.669 34.0077 127.803 34.0613C128.036 34.1626 128.262 34.2781 128.49 34.3786C128.984 34.5963 129.506 34.7676 130.018 34.9422C131.046 35.2922 132.078 35.6223 133.106 35.9774C133.574 36.1393 133.995 36.3959 134.44 36.6001C134.764 36.7683 135.085 36.9513 135.392 37.1576C135.792 37.4207 136.163 37.6687 136.593 37.8755C137.051 38.0922 137.448 38.3703 137.953 38.4667C138.127 38.4964 138.24 38.4029 138.292 38.2785C138.312 38.2819 138.331 38.2853 138.351 38.2887C138.444 38.6122 138.995 38.5269 138.979 38.1447C138.962 37.7624 138.598 37.3516 138.365 37.0708C138.01 36.6359 137.685 36.1753 137.313 35.7528C136.615 34.9619 135.964 34.143 135.199 33.4125C134.809 33.0381 134.479 32.6074 134.087 32.238C133.809 31.9803 133.555 31.7061 133.296 31.4261C133.2 31.3019 133.098 31.177 132.991 31.0561C133.015 30.9781 133 30.8883 132.938 30.8009C132.81 30.6201 132.671 30.4477 132.522 30.2735C132.513 30.2361 132.51 30.1946 132.507 30.153C132.486 29.9186 132.563 29.6755 132.607 29.4472C132.675 29.4075 132.744 29.3629 132.83 29.3109C133.331 29.0069 133.926 28.8727 134.452 28.6087C135.403 28.1252 136.422 27.7507 137.325 27.1615C137.353 27.1765 137.387 27.1875 137.422 27.1934C137.819 27.2613 137.93 26.6701 137.569 26.5675C137.561 26.5558 137.553 26.5442 137.539 26.5366C137.532 26.515 137.52 26.4975 137.508 26.48C137.347 26.2527 137.121 26.2295 136.862 26.1953C136.477 26.145 136.092 26.0639 135.705 25.9977L133.446 25.6118C132.672 25.4795 131.903 25.348 131.128 25.2157C130.741 25.1496 130.349 25.0826 129.962 25.0164C129.783 24.9859 129.601 24.9445 129.415 24.9281C129.285 24.8188 129.144 24.7178 129.034 24.6169C129.034 24.6169 129.029 24.616 129.025 24.6102C128.951 24.4695 128.873 24.333 128.777 24.2039C128.594 23.9623 128.387 23.768 128.233 23.5008C127.919 22.9447 127.705 22.3184 127.346 21.7854C126.999 21.2749 126.577 20.8132 126.23 20.3027C126.152 20.1919 126.068 20.0853 125.984 19.9787C125.932 19.8929 125.88 19.8121 125.822 19.7305C125.788 19.6889 125.748 19.6563 125.701 19.6329C125.671 19.5971 125.642 19.5563 125.613 19.5204C125.455 19.3089 125.392 19.1084 125.156 18.9655C125.012 18.8794 124.787 18.9692 124.725 19.1227C124.662 19.2861 124.643 19.4265 124.648 19.576C124.622 19.7255 124.616 19.8833 124.62 20.0379C124.625 20.1309 124.628 20.229 124.628 20.3212C124.623 20.4126 124.613 20.4981 124.613 20.5903C124.593 21.156 124.609 21.7177 124.579 22.2817C124.531 23.1913 124.359 24.0796 124.196 24.9747C124.172 24.9912 124.158 25.0144 124.139 25.0368C124.03 25.0796 123.904 25.0941 123.797 25.127C123.613 25.1878 123.435 25.2703 123.255 25.3369C122.878 25.4827 122.492 25.5245 122.13 25.7036C121.755 25.8908 121.38 26.0831 120.987 26.2313C120.588 26.3836 120.171 26.4611 119.757 26.5543C119.347 26.6484 118.94 26.7583 118.526 26.8209C118.175 26.8736 117.85 27.0387 117.505 27.1131C117.108 27.1989 116.69 27.2199 116.3 27.3174C115.942 27.41 115.629 27.5975 115.255 27.6054C115.178 27.6076 115.122 27.634 115.075 27.672C114.919 27.6864 114.756 27.7149 114.633 27.8067ZM129.09 25.575C129.085 25.5999 129.09 25.6315 129.097 25.6531C129.013 25.6337 128.944 25.5911 128.884 25.5244C128.875 25.5128 128.862 25.5003 128.854 25.4886C128.872 25.5019 128.89 25.5153 128.909 25.5237C128.97 25.5596 129.029 25.5698 129.09 25.57L129.09 25.575ZM129.73 25.6229C129.76 25.628 129.79 25.6331 129.825 25.639C129.793 25.6439 129.757 25.643 129.726 25.6478C129.728 25.6379 129.729 25.6329 129.73 25.6229ZM126.907 33.057C126.902 33.0869 126.896 33.1218 126.89 33.1567C126.887 33.1766 126.882 33.2015 126.879 33.2215C126.876 33.2364 126.875 33.2464 126.872 33.2613C126.87 33.2763 126.866 33.2962 126.859 33.3103C126.858 33.3153 126.857 33.3202 126.856 33.3252C126.865 33.2754 126.872 33.2306 126.876 33.1799C126.889 33.1002 126.895 33.0088 126.923 32.9317C126.953 32.8495 127.013 32.824 127.084 32.8309C127.001 32.868 126.936 32.9442 126.922 33.0596L126.907 33.057ZM114.905 27.9198C114.905 27.9198 114.947 27.9117 114.969 27.9051C114.965 27.925 114.968 27.9408 114.969 27.9616C114.946 27.9474 114.923 27.9332 114.9 27.919L114.905 27.9198Z" fill="#FCFCFC"/>
<path d="M123.18 30.8565C123.19 30.889 123.195 30.9206 123.199 30.9571C123.1 30.9094 123.14 30.8547 123.18 30.8565Z" fill="#FCFCFC"/>
<path d="M132.702 33.2011C133.109 33.2706 133 33.9083 132.593 33.8387C132.186 33.7692 132.294 33.1315 132.702 33.2011Z" fill="#FCFCFC"/>
<path d="M130.636 32.2841C130.659 32.3291 130.682 32.374 130.705 32.414C130.705 32.414 130.705 32.414 130.709 32.4198C130.685 32.5336 130.713 32.6408 130.791 32.7209C130.852 32.8698 131.051 32.9652 131.196 32.8926C131.346 32.8208 131.457 32.7066 131.491 32.538C131.516 32.4243 131.501 32.3038 131.462 32.1998C131.364 31.9369 131.097 31.7682 130.82 31.8644C130.668 31.9154 130.555 32.1268 130.631 32.2783L130.636 32.2841ZM130.971 32.2953C130.971 32.2953 130.938 32.3101 130.925 32.3234C130.93 32.3242 130.948 32.3118 130.97 32.3003L130.971 32.2953Z" fill="#FCFCFC"/>
<path d="M131.524 26.6677L132.08 26.7627C132.253 26.7924 132.373 26.9614 132.343 27.1358C132.313 27.3102 132.145 27.43 131.971 27.4004L131.415 27.3054C131.241 27.2757 131.122 27.1066 131.152 26.9322C131.181 26.7579 131.35 26.638 131.524 26.6677Z" fill="#FCFCFC"/>
</g>
</g>
<defs>
<clipPath id="clip0_47_2367">
<rect width="129.349" height="84.746" fill="white" transform="translate(14.2725) rotate(9.69565)"/>
</clipPath>
</defs>
</svg>
