<svg width="53" height="34" viewBox="0 0 53 34" fill="none" xmlns="http://www.w3.org/2000/svg">
<path d="M52.3169 32.5064C51.9921 32.2372 51.6183 32.0282 51.3012 31.7518C51.2639 31.7194 51.2305 31.6852 51.1951 31.6529C51.1895 31.4874 51.1381 31.3284 51.0753 31.1672C50.9675 30.8955 50.8922 30.617 50.819 30.333C50.7685 30.135 50.7142 29.9369 50.6598 29.7406C50.6835 29.7077 50.6977 29.6672 50.7008 29.6208C50.7193 29.3203 50.5368 29.0692 50.375 28.8278C50.3447 28.7398 50.3145 28.65 50.2804 28.5619C50.1801 28.2977 50.0741 28.0335 49.941 27.7853C49.879 27.6687 49.8015 27.5667 49.7241 27.4591C49.6431 27.3458 49.5985 27.2185 49.5251 27.1017C49.3821 26.8719 49.1543 26.6866 48.9549 26.5057C48.7872 26.3533 48.6254 26.1918 48.4362 26.0632C48.2806 25.8814 48.1094 25.7178 47.9384 25.5449C47.7618 25.3664 47.6237 25.1682 47.4762 24.9681C47.2291 24.6319 46.9074 24.229 46.4819 24.1155C46.423 24.0288 46.3642 23.9401 46.3054 23.8534C46.3414 23.7799 46.3454 23.6908 46.2916 23.6283C46.0007 23.2967 45.6043 22.9944 45.4198 22.589C45.3112 22.3526 45.3232 22.0853 45.3349 21.8311C45.3491 21.5565 45.3476 21.2946 45.3027 21.0224C45.258 20.7409 45.1941 20.4627 45.1456 20.183C45.1187 20.0319 45.0278 19.7698 45.1169 19.6269C45.1762 19.5316 45.3055 19.4584 45.3927 19.3916C45.4993 19.3104 45.6078 19.2329 45.7181 19.1574C45.9424 19.0064 46.1906 18.8949 46.4169 18.7439C46.6161 18.6109 46.8466 18.525 47.0402 18.3863C47.2067 18.2656 47.3114 18.1082 47.3787 17.9183C47.511 17.5535 47.5271 17.1155 47.46 16.7369C47.2958 15.7933 46.535 15.1262 46.1574 14.2726C45.9515 13.8054 45.8299 13.3123 45.6105 12.8505C45.5036 12.6252 45.454 12.39 45.3661 12.1596C45.2837 11.9441 45.1531 11.7536 44.9953 11.5847C44.6982 11.2679 44.2682 11.0205 43.8237 10.9827C43.4191 10.9495 42.9137 11.0701 42.742 10.6056C42.6203 10.2778 42.6237 9.89524 42.2624 9.71999C41.9481 9.56808 41.5725 9.59499 41.232 9.58552C41.0836 9.58221 40.9226 9.54703 40.7858 9.61642C40.624 9.69825 40.5913 9.87585 40.54 10.0307C40.4025 10.4512 40.2091 10.9818 40.5524 11.3554C40.8474 11.676 41.3742 11.9366 41.8083 12.0114C41.8766 12.0222 42.0444 12.0092 42.1178 12.0443C42.0913 12.04 42.1198 12.1223 42.1151 12.1594C42.0964 12.3039 41.968 12.3418 41.8361 12.3668C41.1303 12.5089 39.2628 12.6028 37.7966 12.6239C37.7892 12.6144 37.7819 12.6031 37.7745 12.5937C37.0975 11.6832 36.5174 10.7025 35.8152 9.81187C35.2959 9.15385 34.8462 8.45094 34.2646 7.85096C33.8122 7.02353 33.2595 6.17157 32.6189 5.49226C32.2364 5.0862 31.8374 4.73364 31.5093 4.2805C31.1924 3.84061 30.8677 3.40426 30.5042 2.99863C30.0277 2.46601 29.4679 1.99097 28.9137 1.52164C28.8667 1.41842 28.8196 1.31521 28.7668 1.21372C28.6102 0.913013 28.4082 0.602005 28.0883 0.448111C27.8023 0.309835 27.4701 0.26898 27.1546 0.250785C27.1546 0.250785 27.1508 0.2507 27.1489 0.250658C27.1209 0.227742 27.0947 0.206724 27.0667 0.183808C26.8 -0.0469136 26.4781 -0.0392436 26.2295 0.0908032C26.1421 0.0832786 26.0548 0.0738973 25.9616 0.0718148C23.672 -0.0183425 22.9531 2.44357 21.7183 3.87044C21.3954 4.24402 21.0499 4.6041 20.7063 4.96608C20.227 5.43462 19.7512 5.91252 19.2867 6.39811C19.1851 6.42928 19.0828 6.48829 18.991 6.58655C18.6357 6.96127 18.31 7.3738 17.9992 7.7978C17.6393 8.204 17.2869 8.61593 16.9439 9.03365C16.5958 9.26549 16.2479 9.48806 15.9625 9.8049C15.6205 10.1836 15.3586 10.631 15.0352 11.0269C14.3118 11.9135 13.7297 12.9407 12.9622 13.7632C12.8196 13.916 12.6826 14.0764 12.5474 14.2369C11.7194 15.0431 10.9422 15.8728 10.2684 16.833C9.89607 17.3652 9.50176 17.8598 9.2647 18.4656C9.21004 18.6037 9.15347 18.7418 9.09504 18.8779C8.77478 19.2999 8.43776 19.7066 8.06723 20.0809C7.92156 20.204 7.77589 20.3271 7.63035 20.4445C7.49064 20.5566 7.36408 20.6764 7.24124 20.7999C7.17537 20.8486 7.11326 20.8992 7.04553 20.946C5.86707 21.7593 4.08247 22.769 3.60299 24.2071C3.50098 24.3349 3.40283 24.4609 3.31038 24.587C2.6711 25.4587 1.9669 26.4201 1.49098 27.3865C1.02117 28.3364 0.814074 29.3645 0.489691 30.3622C0.309036 30.9173 -0.11822 31.517 0.031091 32.1241C0.0779692 32.3146 0.16581 32.4633 0.283023 32.5774C0.274897 32.6794 0.27615 32.7871 0.290412 32.9082C0.327305 33.1988 0.677779 33.4295 0.95947 33.4302C1.64474 33.4288 2.27573 33.1476 2.95847 33.0922C3.50583 33.0469 4.05212 32.9662 4.59948 32.9209C5.36059 33.0122 6.19467 32.8358 6.93457 32.778C8.37628 32.6634 12.9589 32.5373 14.4018 32.3727C15.1538 32.2873 15.911 32.2225 16.6662 32.1613C17.4042 32.1017 18.1085 31.8592 18.8421 31.8292C20.4616 31.7632 22.0842 32.0446 23.7014 31.9953C24.3891 31.9735 25.0352 31.7743 25.713 31.6873C26.555 31.5779 27.4144 31.5377 28.262 31.434C29.707 31.2601 31.1573 31.2684 32.6033 31.1298C34.1486 30.9823 35.7839 31.2138 37.337 31.2188C38.1287 31.2216 38.902 31.12 39.6448 31.4208C40.3048 31.6863 41.0418 31.7474 41.7323 31.93C43.1397 32.2995 44.6578 32.6548 46.1243 32.617C46.5281 32.6074 46.9477 32.5722 47.3424 32.464C47.3709 32.4646 47.3994 32.4653 47.4298 32.4678C47.6788 32.4845 47.9193 32.5345 48.1662 32.5585C48.4131 32.5826 48.6629 32.5622 48.9097 32.5919C49.1507 32.6195 49.3874 32.6713 49.6309 32.6804C50.0968 32.6983 50.5428 32.751 50.9992 32.8503C51.234 32.902 51.4769 32.9334 51.7205 32.9333C51.8205 32.9727 51.9265 32.9992 52.0444 33.0018C52.1471 33.0041 52.2248 32.939 52.261 32.8581C52.3788 32.7845 52.427 32.5999 52.3093 32.5044L52.3169 32.5064ZM49.1367 31.4434C49.1367 31.4434 49.1288 31.4562 49.123 31.4617C49.1132 31.4726 49.1053 31.4836 49.0955 31.4964C49.0843 31.4868 49.075 31.4773 49.0658 31.466C49.0664 31.4381 49.0709 31.4104 49.0715 31.3825C49.0919 31.4053 49.1143 31.4243 49.1386 31.4434L49.1367 31.4434ZM49.9814 30.7397C50.0141 30.8054 50.0468 30.8712 50.0795 30.9369C50.0665 30.9236 50.0515 30.9122 50.0385 30.8989C50.0189 30.8446 50.0011 30.7921 49.9814 30.7378L49.9814 30.7397ZM48.5402 31.7161C48.5275 31.7716 48.5186 31.8253 48.5135 31.8772C48.4832 31.8709 48.451 31.8665 48.4187 31.862C48.4168 31.862 48.413 31.8619 48.4111 31.8619C48.456 31.8146 48.4972 31.7653 48.5383 31.7161L48.5402 31.7161ZM42.3277 17.8854C42.31 17.8293 42.2472 17.67 42.3 17.6098C42.2746 17.639 42.3264 17.6216 42.3398 17.6182C42.5656 17.5675 42.7965 17.5411 43.0225 17.4848C43.235 17.4301 43.4753 17.3315 43.6961 17.3327C43.7855 17.3347 43.8761 17.3683 43.967 17.3852C43.7683 17.4978 43.6743 17.609 43.655 17.8612C43.6145 18.3655 43.8297 18.844 43.8311 19.3456C43.8324 19.6112 43.7957 19.876 43.8351 20.1425C43.8727 20.4034 43.9466 20.6577 44.0224 20.912C44.0489 20.9981 44.0715 21.0877 44.0942 21.1774C44.0477 21.1299 44.0032 21.0806 43.9567 21.035C43.5849 20.6608 43.2131 20.2847 42.849 19.9032C42.8218 19.8487 42.8021 19.7944 42.7996 19.7405C42.7799 19.4484 42.6094 19.2514 42.3949 19.1482C42.4302 19.0226 42.441 18.8873 42.4474 18.7797C42.4663 18.4625 42.4252 18.1885 42.3277 17.8854ZM41.4445 13.3072C41.6718 13.2751 42.0235 13.1325 42.196 13.324C42.3721 13.5211 42.5388 13.718 42.7305 13.9025C42.8365 14.0052 42.9544 14.0914 43.086 14.1612C43.1725 14.2059 43.2157 14.231 43.2747 14.3103C43.4702 14.5729 43.6425 14.8535 43.8148 15.1323C43.9395 15.332 44.0701 15.5243 44.1622 15.7363C44.0955 15.7404 44.0287 15.7445 43.9619 15.7523C43.7997 15.7709 43.6408 15.8082 43.4787 15.8213C43.1641 15.844 42.8577 15.761 42.5453 15.7726C42.3986 15.7786 42.258 15.8498 42.1152 15.8485C41.9821 15.8455 41.8596 15.7907 41.7241 15.8063C41.4703 15.8359 41.3245 16.0426 41.2829 16.272C41.1884 16.8085 41.2898 17.3476 41.3591 17.8767C41.3673 17.9326 41.3755 17.9867 41.3838 18.0408C41.3319 17.982 41.28 17.9233 41.2261 17.8663C41.1165 17.7543 41.0065 17.6552 40.8965 17.5581C40.8356 17.4787 40.7765 17.3993 40.7137 17.3218C40.4087 16.936 40.0844 16.5647 39.7582 16.1952C39.6003 15.9502 39.452 15.6998 39.3272 15.4258C39.0339 14.7896 38.759 14.1834 38.4284 13.5946C39.4022 13.5477 41.162 13.3436 41.4446 13.3035L41.4445 13.3072ZM34.6861 11.5105C34.7211 11.5614 34.7542 11.6123 34.7892 11.6614C34.7423 11.6287 34.6936 11.5961 34.6449 11.5653C34.6586 11.547 34.6724 11.5287 34.6842 11.5104L34.6861 11.5105ZM18.5255 9.60581C19.1254 9.10839 19.6475 8.52378 20.1095 7.90253C20.7485 7.04376 21.4453 6.23086 22.1741 5.43911C22.811 4.74561 23.3433 4.05163 23.8494 3.25862C24.2803 2.58653 24.9242 1.43809 25.8356 1.45102C26.1724 1.45483 26.4489 1.51673 26.6939 1.62065C26.8716 1.75279 27.0433 1.89409 27.1968 2.08327C27.5354 2.49578 27.7971 2.93815 28.1028 3.37221C28.8082 4.36876 29.6256 5.29536 30.3736 6.26313C30.7282 6.72244 31.1229 7.09162 31.5468 7.43731C31.6544 7.63847 31.7696 7.83423 31.8946 8.02463C32.3062 8.64496 33.3125 9.3956 33.5359 10.1696C33.2404 10.5104 32.9773 10.85 32.5702 11.0805C32.3657 11.1967 32.154 11.2923 31.9442 11.3935C31.5005 11.482 31.0794 11.5803 30.8575 11.7853C30.4391 12.1716 30.3295 12.7821 30.3076 13.3872C30.2282 13.6826 30.1172 13.9514 29.773 13.9381C29.4972 13.9282 29.1543 13.6995 28.8431 13.4994C28.4701 13.1716 28.146 12.7947 27.7867 12.4523C27.3586 12.0452 26.8462 11.7403 26.4082 11.3478C26.0634 11.0373 25.8668 10.6596 25.3823 10.5392C24.8942 10.4168 24.38 10.5874 24.0052 10.9022C23.6945 11.1609 23.502 11.4909 23.3055 11.8339C23.2439 11.9421 23.1464 12.2 23.0332 12.3201C23.0121 12.2472 22.9852 12.176 22.9487 12.1083C22.8558 11.9335 22.7217 11.8079 22.5714 11.7265C22.5056 11.6117 22.4397 11.4988 22.37 11.3876C22.0556 10.7602 21.7903 10.1506 20.9361 10.0497C20.3097 9.97631 19.7199 10.2046 19.099 10.2223C18.4571 10.2414 18.4811 10.0321 18.5217 9.60572L18.5255 9.60581ZM44.9563 31.142C44.2322 31.0143 43.5078 30.9814 42.7928 30.7909C42.1554 30.6206 41.524 30.4356 40.872 30.3207C40.237 30.2081 39.6939 29.9117 39.0425 29.8489C37.6315 29.7133 36.1558 29.8178 34.7347 29.7824C34.0499 29.7652 33.3489 29.7068 32.6648 29.7417C31.9768 29.7784 31.3479 29.8906 30.6517 29.8695C30.0012 29.8494 29.3436 29.9703 28.6974 30.0097C28.1007 30.0466 27.5083 30.1466 26.9147 30.217C26.753 30.2133 26.5932 30.2098 26.4315 30.2062C25.8625 30.1972 25.2952 30.2031 24.727 30.2424C24.1608 30.2817 23.6028 30.3733 23.0431 30.4555C22.7987 30.4909 22.5523 30.5245 22.306 30.5561C22.2908 30.5558 22.2737 30.5554 22.2585 30.555C21.8212 30.5323 21.3634 30.4923 20.8979 30.4596C20.9068 30.3242 20.9176 30.1889 20.9303 30.0535C20.946 30.0353 20.9636 30.0171 20.9793 29.9971C21.4073 29.4438 21.447 28.815 21.59 28.1624C21.7394 27.4785 22.1493 26.8877 22.3181 26.193C22.5036 25.43 22.8009 24.6936 23.0168 23.9368C23.1269 23.5473 23.2543 23.1527 23.3322 22.755C23.4079 22.3722 23.3715 21.9795 23.4832 21.603C23.7414 20.7487 22.4087 20.3605 22.1279 21.2049C21.8613 22.0126 21.5597 22.851 21.3556 23.6731C21.2462 24.1127 21.272 24.5517 21.0736 24.9708C20.9113 25.3145 20.7151 25.6426 20.5565 25.9902C19.9162 27.3876 19.5819 28.881 19.4869 30.4021C18.952 30.4032 18.4258 30.4416 17.9302 30.5512C16.5774 30.8479 15.1976 30.9193 13.8142 31.063C12.7343 31.1745 8.51435 31.2548 7.43649 31.357C7.07675 31.3564 6.71896 31.354 6.35941 31.346C6.32136 31.3451 6.28884 31.3518 6.26 31.3642C6.20102 31.3629 6.14204 31.3615 6.08307 31.3602C5.90995 31.3564 5.73493 31.3524 5.55982 31.3522C5.47422 31.1089 5.27359 30.9 4.95111 30.8538C4.72157 30.8208 4.4532 30.1777 4.38319 29.9997C4.227 29.6024 4.25008 29.1905 4.24481 28.7706C4.23645 27.8379 4.34689 26.9525 4.57356 26.0622C4.9395 25.4797 5.35505 25.0524 5.97669 24.6038C6.59832 24.1552 7.22756 23.7067 7.76578 23.1633C8.32356 22.5981 8.89691 22.0183 9.39495 21.4035C9.74201 20.9747 10.2101 20.6619 10.4577 20.1696C10.6348 20.0064 10.7758 19.8424 10.8673 19.6754C11.4161 18.6864 11.9817 17.7071 12.5794 16.7453C12.8208 16.3569 13.0604 15.9666 13.3205 15.5916C13.5372 15.2825 13.7928 15.0189 14.0446 14.7533C14.0446 14.7533 14.0466 14.7515 14.0485 14.7497C14.907 13.9459 15.7002 13.085 16.4635 12.1993C17.3766 12.1436 18.3243 11.7505 19.2213 11.7297C19.7088 11.7183 20.3694 11.7145 20.8376 11.8791C20.981 11.9306 21.0783 12.0015 21.1561 12.0905C21.1597 12.0999 21.1633 12.1074 21.1669 12.1168C20.8328 12.5607 20.7151 13.1915 20.547 13.6967C20.4897 13.8663 20.4211 14.0301 20.3412 14.1881C20.1203 14.3559 19.9218 14.5372 19.7486 14.7804C19.4926 15.1388 19.2959 15.5672 19.1265 15.9683C18.8806 16.5461 18.6398 16.9903 18.2791 17.5116C18.222 17.5939 18.1877 17.6749 18.1706 17.7544C17.3845 18.7975 16.4954 19.7714 16.1708 21.096C15.9601 21.9569 17.3134 22.3587 17.5262 21.4941C17.9581 19.7335 19.5204 18.6241 20.2946 17.0421C20.6286 16.3585 21.0733 15.7462 21.4468 15.0877C21.8054 14.8115 22.1996 14.5658 22.4862 14.197C22.5648 14.0947 22.6436 13.9813 22.7169 13.8585C22.7509 13.8685 22.783 13.8804 22.8171 13.8886C23.7731 14.1106 24.3177 13.2961 25.1035 12.9868C25.6281 12.7811 26.0146 13.4176 26.3727 13.7265C26.813 14.106 27.2548 14.2552 27.7805 14.4824C27.8408 14.5079 27.901 14.5371 27.9612 14.5664C28.1198 14.7036 28.2822 14.8373 28.4583 14.9583C28.8965 15.2615 29.5137 15.723 30.1292 15.9336C30.2276 16.2813 30.4043 16.6141 30.5885 16.8745C30.8573 17.2558 31.2375 17.5206 31.5846 17.8107C31.9265 18.4852 32.3417 19.1168 32.643 19.8145C33.3414 21.4294 34.8515 22.6074 35.1976 24.3854C35.3673 25.2585 36.7401 24.9195 36.5704 24.0483C36.3089 22.7124 35.4668 21.6998 34.731 20.6209C34.7177 20.5407 34.6873 20.4583 34.6341 20.3735C34.2966 19.8366 34.0771 19.3821 33.8607 18.794C33.7086 18.3857 33.5324 17.9489 33.2956 17.5796C33.1341 17.3271 32.9425 17.137 32.7316 16.9614C32.6593 16.8001 32.5966 16.6333 32.5493 16.4614C32.3895 15.8931 32.3 15.1722 31.8941 14.7099C31.8626 14.6739 31.8291 14.6416 31.7956 14.6111C31.798 14.1895 31.7476 13.7463 31.7561 13.388C31.818 13.2649 31.8913 13.144 31.9873 13.0291C32.1361 12.8522 32.3332 12.7266 32.5451 12.6199C32.7378 12.6019 32.9398 12.5934 33.1083 12.5507C33.2041 12.525 33.2999 12.4956 33.3959 12.4606C33.4913 12.5333 33.6081 12.586 33.7503 12.6059C33.9419 12.6344 34.227 13.0531 34.3709 13.1678C34.7089 13.441 35.0922 13.652 35.4342 13.9215C35.8863 14.279 36.4091 14.547 36.8947 14.8588C36.9202 14.9095 36.9476 14.9566 36.9731 15.0073C37.4676 15.9843 38.1102 16.9813 38.9514 17.7115C39.0744 17.8201 39.1976 17.9213 39.317 18.0243C39.4577 18.1946 39.62 18.3301 39.7844 18.462C39.9088 18.5929 40.0254 18.7349 40.1301 18.8951C40.4257 19.3512 40.6643 19.8061 41.0606 20.1901C41.1388 20.2662 41.2251 20.3201 41.3119 20.3518C41.6144 20.7579 41.9675 21.1206 42.3244 21.4815C42.5529 21.7968 42.7681 22.1137 43.0022 22.4384C43.3301 22.8953 43.7884 23.1581 44.1943 23.5369C44.6375 23.9536 44.9333 24.4822 45.2969 24.9602C45.6606 25.4383 46.0884 25.8584 46.4929 26.3021C47.0178 26.8804 47.2927 27.4921 47.6323 28.1795C47.8775 28.6754 48.1671 29.306 48.1193 29.8808C48.0849 30.2849 47.4903 30.9608 47.0812 31.1151C46.8622 31.1976 46.6176 31.2385 46.3679 31.2534C46.3337 31.2526 46.2975 31.2518 46.2652 31.2511C46.0901 31.2509 45.9132 31.2469 45.7381 31.243C45.4702 31.2222 45.2104 31.1829 44.9735 31.1405L44.9563 31.142Z" fill="black"/>
</svg>
